<?xml version="1.0" encoding="UTF-8"?>
<svg version="1.1" xmlns="http://www.w3.org/2000/svg" width="640" height="194">
<path d="M0 0 C9.94746889 7.83660016 16.75074463 16.93274357 19.9453125 29.3203125 C20.12094727 29.98611328 20.29658203 30.65191406 20.47753906 31.33789062 C21.14853476 35.61601352 21.02706436 39.82204546 20.97265625 44.14453125 C20.96001941 46.07877432 20.94765777 48.01301919 20.93554688 49.94726562 C20.91064436 52.98907139 20.88256181 56.03078277 20.84936523 59.07250977 C20.81928337 62.01318996 20.8014338 64.95374695 20.78515625 67.89453125 C20.77169662 68.80909592 20.758237 69.72366058 20.74436951 70.66593933 C20.74099075 71.51054214 20.737612 72.35514496 20.73413086 73.2253418 C20.72294472 74.341894 20.72294472 74.341894 20.71153259 75.48100281 C20.78624214 77.56944618 20.78624214 77.56944618 22.9453125 79.3203125 C22.89890625 78.59585938 22.8525 77.87140625 22.8046875 77.125 C22.57533398 70.98160215 22.56525879 67.04615993 26.9453125 62.3203125 C29.58910536 59.8609703 31.37386128 58.30023922 35.0859375 58.34765625 C40.3552393 59.288603 45.58157602 60.99337384 48.9453125 65.3203125 C50.70188143 73.2495696 49.81043126 81.36712849 48.6953125 89.3203125 C48.55762451 90.36251953 48.41993652 91.40472656 48.27807617 92.47851562 C47.30081982 99.56930591 46.06339639 106.47033907 43.9453125 113.3203125 C44.6053125 113.6503125 45.2653125 113.9803125 45.9453125 114.3203125 C45.72875 114.94679687 45.5121875 115.57328125 45.2890625 116.21875 C45.010625 117.03601563 44.7321875 117.85328125 44.4453125 118.6953125 C44.166875 119.50742188 43.8884375 120.31953125 43.6015625 121.15625 C42.84857945 123.26240492 42.84857945 123.26240492 42.9453125 125.3203125 C41.9553125 125.3203125 40.9653125 125.3203125 39.9453125 125.3203125 C40.6053125 125.7740625 41.2653125 126.2278125 41.9453125 126.6953125 C42.6053125 127.2315625 43.2653125 127.7678125 43.9453125 128.3203125 C43.9453125 128.9803125 43.9453125 129.6403125 43.9453125 130.3203125 C23.8153125 130.3203125 3.6853125 130.3203125 -17.0546875 130.3203125 C-17.08046875 123.8440625 -17.10625 117.3678125 -17.1328125 110.6953125 C-17.15798856 106.5845962 -17.18432734 102.47395291 -17.21484375 98.36328125 C-17.26313605 91.8432592 -17.30719686 85.32340623 -17.32568359 78.80322266 C-17.3408634 73.54456583 -17.37533294 68.28635227 -17.42299652 63.02789307 C-17.43779658 61.02496195 -17.44572772 59.02196755 -17.44657135 57.01898193 C-17.44894687 54.20618824 -17.47607368 51.39461374 -17.50878906 48.58203125 C-17.5037587 47.75987625 -17.49872833 46.93772125 -17.49354553 46.09065247 C-17.58459439 41.00783292 -18.58402823 37.46659606 -21.10122299 33.03767395 C-22.0546875 31.3203125 -22.0546875 31.3203125 -23.0546875 28.3203125 C-24.87703038 27.20029424 -24.87703038 27.20029424 -27.0546875 26.3203125 C-27.71984375 25.96710938 -28.385 25.61390625 -29.0703125 25.25 C-37.50524893 21.26847406 -47.11037442 20.83989908 -56.12890625 23.0859375 C-63.73751136 25.95195916 -68.11307193 29.70349688 -71.97470665 36.81970024 C-73.690026 40.79138973 -73.75918183 44.41843743 -73.71411133 48.69555664 C-73.72983688 50.02889038 -73.72983688 50.02889038 -73.74588013 51.38916016 C-73.7744276 54.29496037 -73.76836259 57.1995546 -73.76171875 60.10546875 C-73.77484609 62.13286314 -73.79015348 64.16024448 -73.80754089 66.18760681 C-73.84728229 71.49928734 -73.85757436 76.81062488 -73.86157227 82.12243652 C-73.87092416 87.55243259 -73.90835061 92.98222884 -73.94335938 98.41210938 C-74.00782498 109.04821506 -74.03855801 119.68402357 -74.0546875 130.3203125 C-86.5946875 130.3203125 -99.1346875 130.3203125 -112.0546875 130.3203125 C-112.14530702 117.8803432 -112.21858698 105.44059564 -112.26193619 93.00037003 C-112.28274891 87.22294024 -112.31095079 81.44574936 -112.35644531 75.66845703 C-112.40012871 70.08577905 -112.42387203 64.50332988 -112.43419647 58.92049408 C-112.4415476 56.79798536 -112.45590197 54.67548816 -112.47760773 52.5530777 C-112.68508648 31.41142656 -112.68508648 31.41142656 -108.0546875 21.3203125 C-107.6421875 20.2890625 -107.2296875 19.2578125 -106.8046875 18.1953125 C-96.6252752 1.4719923 -80.25503735 -8.49539796 -61.51953125 -13.171875 C-40.00348622 -17.60465765 -17.66219857 -13.16001644 0 0 Z " fill="#070707" transform="translate(527.0546875,62.6796875)"/>
<path d="M0 0 C10.89 0 21.78 0 33 0 C33.33 29.04 33.66 58.08 34 88 C35.32 86.68 36.64 85.36 38 84 C39.61094553 82.67028734 41.23734927 81.3591809 42.875 80.0625 C47.47497347 76.34193323 51.82128403 72.43297193 56.125 68.375 C60.53500014 64.22157519 64.9508805 60.24870199 69.86132812 56.68238831 C72.01512735 55.07184448 72.01512735 55.07184448 73.71777344 53.18760681 C77.49879641 49.24907387 80.26392548 47.53618054 85.7734375 47.20532227 C87.97426957 47.2064195 90.17531589 47.2453231 92.375 47.31640625 C93.5400708 47.32631088 94.7051416 47.33621552 95.90551758 47.34642029 C99.60499105 47.38541945 103.30143243 47.47322423 107 47.5625 C109.51688406 47.59763211 112.03381489 47.62956776 114.55078125 47.65820312 C120.70154494 47.73513422 126.85055582 47.85208099 133 48 C131.77167663 51.68497012 130.41383683 52.49950808 127.375 54.875 C122.62478703 58.66158069 118.00850811 62.56171244 113.4375 66.5625 C107.74236285 71.53137786 101.94992861 76.33741958 96 81 C93.16815391 83.22013311 90.53394875 85.45271468 88 88 C86.42839031 89.30590589 84.84324343 90.59557724 83.25 91.875 C77.24723976 96.75224269 71.40830323 101.80532755 65.578125 106.88671875 C64.99095703 107.39638184 64.40378906 107.90604492 63.79882812 108.43115234 C62.54652058 109.52335216 61.30089709 110.62324355 60.06054688 111.72900391 C59.43728516 112.27862793 58.81402344 112.82825195 58.171875 113.39453125 C57.61081055 113.8944458 57.04974609 114.39436035 56.47167969 114.90942383 C55 116 55 116 53 116 C54.33336078 121.67944181 56.8783389 124.26587642 61.125 127.9375 C61.71031494 128.45892578 62.29562988 128.98035156 62.89868164 129.51757812 C64.06253243 130.55182666 65.23080804 131.58112091 66.40380859 132.60498047 C67.75631829 133.78703009 69.0928807 134.98728836 70.42578125 136.19140625 C73.28155084 138.75882629 76.02748265 141.01796942 79.25 143.125 C82 145 82 145 83.84375 147.35546875 C86.77332487 150.94844373 90.27197039 153.44832444 93.953125 156.23046875 C94.62859375 156.81441406 95.3040625 157.39835938 96 158 C96 158.66 96 159.32 96 160 C96.54527344 160.22558594 97.09054688 160.45117188 97.65234375 160.68359375 C100.69801464 162.39139922 103.05340523 164.6703822 105.5625 167.0625 C109.5121713 170.76455636 113.52051643 174.3015536 117.75 177.6875 C121.9311981 181.04577054 125.74005803 184.59041423 129.44140625 188.46875 C130.94013391 190.09832541 130.94013391 190.09832541 133 191 C133 191.66 133 192.32 133 193 C126.21902652 193.05064156 119.43810167 193.08570883 112.65698242 193.10986328 C110.3493467 193.11993107 108.04172375 193.13358623 105.73413086 193.15087891 C102.42037809 193.17509287 99.10679374 193.18647526 95.79296875 193.1953125 C94.7585112 193.20563507 93.72405365 193.21595764 92.6582489 193.22659302 C91.6974794 193.22674408 90.7367099 193.22689514 89.74682617 193.22705078 C88.90077316 193.231492 88.05472015 193.23593323 87.18302917 193.24050903 C85 193 85 193 82 191 C82 190.34 82 189.68 82 189 C81.40993164 188.7321167 80.81986328 188.4642334 80.21191406 188.18823242 C77.97815542 186.98826517 76.43726575 185.73387987 74.609375 183.98828125 C73.98667725 183.39909912 73.36397949 182.80991699 72.72241211 182.20288086 C72.07151611 181.57905518 71.42062012 180.95522949 70.75 180.3125 C69.39278075 179.02774342 68.03471799 177.74387729 66.67578125 176.4609375 C66.03205566 175.85217773 65.38833008 175.24341797 64.72509766 174.61621094 C62.26077586 172.30743507 59.71488218 170.1043136 57.15234375 167.90625 C55.30170797 166.26721141 53.49288984 164.59868981 51.69140625 162.90625 C51.08498291 162.33720947 50.47855957 161.76816895 49.85375977 161.18188477 C48.65692971 160.05566973 47.46317338 158.92617511 46.27319336 157.79272461 C42.01632838 153.78858631 37.74502306 150.55876729 33 147 C33 162.18 33 177.36 33 193 C22.11 193 11.22 193 0 193 C0 129.31 0 65.62 0 0 Z " fill="#070707" transform="translate(0,0)"/>
<path d="M0 0 C1.11568359 0.57234375 1.11568359 0.57234375 2.25390625 1.15625 C11.02628348 5.7873527 17.78071316 11.27747321 24 19 C24.50273437 19.59296875 25.00546875 20.1859375 25.5234375 20.796875 C38.78675521 37.21812549 41.64448112 55.93281996 41.390625 76.28125 C41.38314136 78.0744157 41.37745851 79.86758971 41.37347412 81.6607666 C41.35838448 86.32313628 41.31925207 90.98498744 41.2746582 95.64715576 C41.23334024 100.42745962 41.21538606 105.20784934 41.1953125 109.98828125 C41.15273689 119.32578239 41.08252926 128.66276646 41 138 C29.78 138 18.56 138 7 138 C6.67 134.7 6.34 131.4 6 128 C5.26136719 128.39832031 4.52273438 128.79664063 3.76171875 129.20703125 C-14.45483472 138.72037747 -33.1081773 140.37208661 -53 135 C-71.08948812 129.02127088 -85.96842115 116.86193353 -95.3515625 100.29296875 C-104.51115015 81.99549863 -106.23143136 62.47665579 -100.3125 42.875 C-93.50808697 24.34911635 -80.7384865 8.97814255 -63 0 C-43.36063434 -8.35766675 -19.34618228 -10.72659611 0 0 Z M-59.6875 39.5625 C-66.39542189 47.67046981 -68.85250834 57.19388132 -68.4140625 67.578125 C-67.02111788 79.08962963 -62.19909591 88.01219705 -53.1875 95.3125 C-44.35945115 101.41249537 -34.61408219 104.00490425 -23.921875 102.59375 C-11.44306098 99.90600544 -2.96547672 93.46884642 4.3125 83.13671875 C9.17076196 74.79551164 9.96286095 63.85665891 7.82421875 54.59375 C5.5435114 47.41654773 1.9249986 39.88893327 -4 35 C-4.99 35 -5.98 35 -7 35 C-7.495 33.515 -7.495 33.515 -8 32 C-10.18009111 30.5677171 -10.18009111 30.5677171 -12.8125 29.375 C-13.68519531 28.94960937 -14.55789063 28.52421875 -15.45703125 28.0859375 C-31.54742059 21.21477278 -48.1473412 27.77416575 -59.6875 39.5625 Z " fill="#080808" transform="translate(368,55)"/>
<path d="M0 0 C1.86571362 -0.05149802 3.73094407 -0.12631766 5.59472656 -0.22558594 C21.88192301 -1.07730837 21.88192301 -1.07730837 26.69140625 3.18676758 C29.35059321 6.09402583 31.36469112 9.35747533 33.3840332 12.73461914 C34.43725631 14.141803 35.50627704 15.53747304 36.59887695 16.91430664 C37.50940683 18.14387791 38.41700041 19.37562943 39.3215332 20.60961914 C44.87082368 28.09623588 50.59065716 35.43587767 56.3840332 42.73461914 C56.94606445 42.02563477 57.5080957 41.31665039 58.0871582 40.58618164 C60.39379649 37.72249806 62.75853624 34.91633689 65.1340332 32.10961914 C69.06882205 27.42186795 72.73689267 22.60446324 76.29418945 17.62133789 C78.74425784 14.23703782 81.27178314 10.91911106 83.8215332 7.60961914 C84.25916992 7.04057861 84.69680664 6.47153809 85.14770508 5.88525391 C88.24738266 1.87126968 88.24738266 1.87126968 89.3840332 0.73461914 C92.41381124 0.64590642 95.42070342 0.61942564 98.45043945 0.63696289 C99.35906235 0.63837784 100.26768524 0.63979279 101.20384216 0.64125061 C104.11810541 0.64686721 107.03229301 0.65942249 109.9465332 0.67211914 C111.91723522 0.677132 113.88793844 0.68169528 115.85864258 0.68579102 C120.70046879 0.69684203 125.54223815 0.71411776 130.3840332 0.73461914 C127.84938711 5.21540502 125.27693216 9.48951774 122.2590332 13.67211914 C121.23422852 15.1087793 121.23422852 15.1087793 120.1887207 16.57446289 C119.59317383 17.28731445 118.99762695 18.00016602 118.3840332 18.73461914 C117.7240332 18.73461914 117.0640332 18.73461914 116.3840332 18.73461914 C115.96541016 19.61839233 115.96541016 19.61839233 115.53833008 20.52001953 C114.4648628 22.57954189 113.3135097 24.31976798 111.9152832 26.16821289 C111.43172363 26.81040771 110.94816406 27.45260254 110.44995117 28.11425781 C109.93319824 28.79335205 109.41644531 29.47244629 108.8840332 30.17211914 C108.34794434 30.88150635 107.81185547 31.59089355 107.25952148 32.32177734 C101.45408085 39.99159475 95.63306688 47.65481577 89.64575195 55.18383789 C89.19409668 55.757229 88.74244141 56.33062012 88.27709961 56.92138672 C87.02773215 58.50659332 85.77059934 60.08567096 84.51293945 61.66430664 C81.70553096 65.71315631 79.06637356 69.60176157 79.8215332 74.67211914 C82.30864859 79.54686531 85.51408484 83.86467078 89.3840332 87.73461914 C90.71736654 89.73461914 92.05069987 91.73461914 93.3840332 93.73461914 C94.0440332 94.39461914 94.7040332 95.05461914 95.3840332 95.73461914 C96.19473786 96.9302627 96.98286602 98.14127187 97.7590332 99.35961914 C102.1638198 106.0475714 107.05815862 112.37261498 111.88989258 118.75415039 C113.28705898 120.60608076 114.67402642 122.46501723 116.0559082 124.32836914 C116.46220459 124.87517334 116.86850098 125.42197754 117.28710938 125.98535156 C118.37383128 127.44918816 119.45906399 128.91412998 120.54418945 130.37915039 C122.06810871 132.3301553 123.62515269 134.00606416 125.3840332 135.73461914 C128.3840332 140.2901747 128.3840332 140.2901747 128.3840332 142.73461914 C129.0440332 142.73461914 129.7040332 142.73461914 130.3840332 142.73461914 C130.3840332 143.72461914 130.3840332 144.71461914 130.3840332 145.73461914 C124.88948632 146.08366191 119.40151083 146.33595853 113.8984375 146.50366211 C112.03238495 146.57360483 110.16708708 146.66881461 108.30371094 146.79077148 C93.31391831 147.74645609 93.31391831 147.74645609 88.50918579 144.44723511 C85.16410814 141.20663524 82.72840758 137.45775175 80.39779663 133.44799805 C79.09144269 131.24010691 77.56124394 129.26027234 75.96606445 127.25415039 C75.04110663 126.0198057 74.11786824 124.78417028 73.1965332 123.54711914 C72.45209961 122.55276855 72.45209961 122.55276855 71.69262695 121.53833008 C68.09857583 116.72686397 64.57337089 111.87043816 61.1027832 106.96899414 C59.35037359 104.69086164 57.45946586 102.71902405 55.3840332 100.73461914 C55.1880957 101.3855957 54.9921582 102.03657227 54.7902832 102.70727539 C52.77993696 107.03510412 49.86097515 110.46505787 46.8840332 114.17211914 C41.61469102 120.83190697 36.54059843 127.57120746 31.6652832 134.52368164 C30.9124707 135.58329102 30.1596582 136.64290039 29.3840332 137.73461914 C28.98570282 138.4065329 28.58737244 139.07844666 28.17697144 139.77072144 C24.63611899 145.31174031 24.63611899 145.31174031 21.30389404 146.43716431 C18.84825919 146.65935775 16.5107682 146.6363507 14.0480957 146.51586914 C13.16874359 146.50454956 12.28939148 146.49322998 11.38339233 146.48156738 C8.58967084 146.43697367 5.8011877 146.33665961 3.0090332 146.23461914 C1.10936805 146.19446941 -0.79037802 146.15797123 -2.69018555 146.12524414 C-7.33411419 146.03729585 -11.97415429 145.89937972 -16.6159668 145.73461914 C-15.35020929 143.09063252 -13.97921393 140.68594337 -12.2878418 138.29321289 C-11.82474609 137.63659668 -11.36165039 136.97998047 -10.88452148 136.3034668 C-10.38339844 135.60012207 -9.88227539 134.89677734 -9.3659668 134.17211914 C-8.57947754 133.06296143 -8.57947754 133.06296143 -7.77709961 131.93139648 C-1.99519468 123.8091967 3.93636123 115.79768 9.8684082 107.78491211 C14.91446925 100.95874898 19.87411167 94.06993276 24.8215332 87.17211914 C25.47847168 86.25885864 25.47847168 86.25885864 26.14868164 85.32714844 C28.44328929 82.14043267 28.44328929 82.14043267 30.3840332 78.73461914 C31.0440332 78.73461914 31.7040332 78.73461914 32.3840332 78.73461914 C33.76694127 75.22675476 33.99324661 72.46210265 33.3840332 68.73461914 C30.70899422 63.63545677 26.75405235 59.26191446 23.10229492 54.84448242 C20.37507059 51.49570824 17.82599761 48.01918364 15.2590332 44.54711914 C10.94982969 38.7862778 6.57688897 33.07882326 2.17700195 27.38696289 C-2.14860352 21.75832752 -6.37729234 16.05534648 -10.61523438 10.3605957 C-11.23422607 9.53140625 -11.85321777 8.7022168 -12.4909668 7.84790039 C-13.04526367 7.1032251 -13.59956055 6.3585498 -14.1706543 5.59130859 C-15.62823947 3.63992756 -15.62823947 3.63992756 -17.6159668 1.73461914 C-14.62069705 -1.2606506 -4.2059293 0.09139335 0 0 Z " fill="#080808" transform="translate(156.615966796875,47.265380859375)"/>
<path d="M0 0 C0.33 0 0.66 0 1 0 C0.98952637 1.29212402 0.97905273 2.58424805 0.96826172 3.91552734 C0.93213281 8.69756309 0.90912549 13.47958673 0.89013672 18.26171875 C0.88006288 20.33367947 0.86640334 22.40562593 0.84912109 24.47753906 C0.82493336 27.45120764 0.81353092 30.4246887 0.8046875 33.3984375 C0.79436493 34.32868744 0.78404236 35.25893738 0.77340698 36.21737671 C0.77325592 37.07811798 0.77310486 37.93885925 0.77294922 38.82568359 C0.76628738 39.96485733 0.76628738 39.96485733 0.75949097 41.12704468 C0.83749845 43.24502299 0.83749845 43.24502299 3 45 C2.95359375 44.27554688 2.9071875 43.55109375 2.859375 42.8046875 C2.63002148 36.66128965 2.61994629 32.72584743 7 28 C9.64379286 25.5406578 11.42854878 23.97992672 15.140625 24.02734375 C20.4099268 24.9682905 25.63626352 26.67306134 29 31 C30.75656893 38.9292571 29.86511876 47.04681599 28.75 55 C28.61231201 56.04220703 28.47462402 57.08441406 28.33276367 58.15820312 C27.35550732 65.24899341 26.11808389 72.15002657 24 79 C24.99 79.495 24.99 79.495 26 80 C25.7834375 80.62648438 25.566875 81.25296875 25.34375 81.8984375 C25.0653125 82.71570313 24.786875 83.53296875 24.5 84.375 C24.2215625 85.18710938 23.943125 85.99921875 23.65625 86.8359375 C22.90326695 88.94209242 22.90326695 88.94209242 23 91 C22.01 91 21.02 91 20 91 C20.66 91.45375 21.32 91.9075 22 92.375 C22.66 92.91125 23.32 93.4475 24 94 C24 94.66 24 95.32 24 96 C3.87 96 -16.26 96 -37 96 C-37 65.97 -37 35.94 -37 5 C-36.67 5 -36.34 5 -36 5 C-36 34.7 -36 64.4 -36 95 C-33.36 94.67 -30.72 94.34 -28 94 C-28.66 93.2575 -29.32 92.515 -30 91.75 C-33.12916505 87.08409196 -32.8040825 81.38228193 -32 76 C-29.79369536 71.53623002 -27.40155843 69.37684155 -23 67 C-20.125 66.75 -20.125 66.75 -18 67 C-18.66 66.2575 -19.32 65.515 -20 64.75 C-23.17205934 59.96348752 -22.84000209 54.49685577 -22 49 C-20.25384596 44.59598317 -17.78333938 42.49150706 -13.8125 40 C-10 39 -10 39 0 40 C0 26.8 0 13.6 0 0 Z " fill="#F2BB23" transform="translate(547,97)"/>
<path d="M0 0 C4.03898136 3.56933236 5.52071924 6.50705551 6 11.875 C5.69037391 15.34281224 4.94934696 18.14151717 3.6875 21.375 C4.30625 20.570625 4.925 19.76625 5.5625 18.9375 C7.86818534 16.15711473 8.55896869 15.48748433 12.078125 15.13671875 C18.12347829 14.97980384 22.02387207 15.07011268 26.6875 19.375 C28.59112908 22.43650657 28.95933962 24.79330201 28.9375 28.375 C28.94523438 29.6434375 28.94523438 29.6434375 28.953125 30.9375 C28.58208171 34.34236781 27.62228109 36.45474919 25.1796875 38.859375 C23.68229167 40.03125 22.18489583 41.203125 20.6875 42.375 C21.55375 42.16875 22.42 41.9625 23.3125 41.75 C28.02827971 41.22602448 31.09141511 42.36694638 35.0625 44.875 C35.59875 45.37 36.135 45.865 36.6875 46.375 C36.6875 47.035 36.6875 47.695 36.6875 48.375 C37.3475 48.375 38.0075 48.375 38.6875 48.375 C40.14495826 53.29253093 40.09482032 58.61756749 37.7265625 63.2578125 C36.76626854 64.66760576 35.7324118 66.02672671 34.6875 67.375 C34.6875 67.705 34.6875 68.035 34.6875 68.375 C29.25481506 69.51106798 23.99683397 69.50324385 18.4765625 69.47265625 C17.50842621 69.4712413 16.54028992 69.46982635 15.54281616 69.46836853 C12.46601201 69.46279365 9.38928197 69.45024577 6.3125 69.4375 C4.22005314 69.43248175 2.12760513 69.42791941 0.03515625 69.42382812 C-5.0807575 69.41283245 -10.19661621 69.39558515 -15.3125 69.375 C-14.9375 67.4375 -14.9375 67.4375 -14.3125 65.375 C-13.3225 64.88 -13.3225 64.88 -12.3125 64.375 C-12.9725 64.045 -13.6325 63.715 -14.3125 63.375 C-14.10625 62.776875 -13.9 62.17875 -13.6875 61.5625 C-13.00578085 59.09049154 -13.00578085 59.09049154 -15.3125 56.375 C-15.81805026 54.04119291 -16.23482289 51.68773062 -16.6015625 49.328125 C-16.70971283 48.63869812 -16.81786316 47.94927124 -16.92929077 47.23895264 C-17.15633095 45.78030036 -17.37968351 44.32106999 -17.59960938 42.86132812 C-17.93439814 40.64552963 -18.28265102 38.43216512 -18.6328125 36.21875 C-21.31145971 18.87343957 -21.31145971 18.87343957 -18.3125 14.375 C-19.3025 14.045 -20.2925 13.715 -21.3125 13.375 C-20.93220897 7.76570732 -20.57637681 4.40199476 -16.3125 0.375 C-10.97607772 -2.737913 -5.39451102 -2.6463639 0 0 Z " fill="#376DAC" transform="translate(599.3125,123.625)"/>
<path d="M0 0 C3.96067777 1.37360986 6.9241142 2.46585136 9.51171875 5.87109375 C11.2134793 13.70359469 10.4165822 21.70135636 9.32421875 29.55859375 C9.12155396 31.10256836 9.12155396 31.10256836 8.91479492 32.67773438 C7.68716607 41.56027431 5.82881563 50.21432571 3.51171875 58.87109375 C2.85171875 58.87109375 2.19171875 58.87109375 1.51171875 58.87109375 C1.12016602 57.92194092 1.12016602 57.92194092 0.72070312 56.95361328 C-0.51315549 53.96674626 -1.75054435 50.98135568 -2.98828125 47.99609375 C-3.4373584 46.90941406 -3.88643555 45.82273438 -4.34912109 44.703125 C-6.464362 39.61278917 -8.60483039 34.54755992 -10.93359375 29.55078125 C-11.30291016 28.75397949 -11.67222656 27.95717773 -12.05273438 27.13623047 C-12.73888725 25.67073176 -13.43734829 24.21090632 -14.15039062 22.75830078 C-16.42420507 17.88803606 -16.94814392 14.25319023 -16.48828125 8.87109375 C-12.46028573 1.11347274 -8.5973725 -2.27464115 0 0 Z " fill="#B80E19" transform="translate(566.48828125,122.12890625)"/>
<path d="M0 0 C3.91166171 3.45681732 5.49722269 6.35608359 5.98828125 11.56640625 C5.61907542 16.24141511 4.1237901 19.38427059 2 23.5 C1.2555487 25.00735871 0.51468393 26.51649383 -0.22265625 28.02734375 C-0.58375488 28.76581543 -0.94485352 29.50428711 -1.31689453 30.26513672 C-3.14343527 34.13589814 -4.59490417 38.13877745 -6.08203125 42.1484375 C-8.30210723 47.96997008 -10.82139029 53.66513685 -13.3125 59.375 C-15.64444614 55.87708078 -15.95771579 53.47063997 -16.6015625 49.328125 C-16.70971283 48.63869812 -16.81786316 47.94927124 -16.92929077 47.23895264 C-17.15633095 45.78030036 -17.37968351 44.32106999 -17.59960938 42.86132812 C-17.93439814 40.64552963 -18.28265102 38.43216512 -18.6328125 36.21875 C-21.31145971 18.87343957 -21.31145971 18.87343957 -18.3125 14.375 C-19.3025 14.045 -20.2925 13.715 -21.3125 13.375 C-20.93220897 7.76570732 -20.57637681 4.40199476 -16.3125 0.375 C-10.97607772 -2.737913 -5.39451102 -2.6463639 0 0 Z " fill="#3F2C79" transform="translate(599.3125,123.625)"/>
<path d="M0 0 C2.3359375 1.0234375 2.3359375 1.0234375 4.375 2.375 C5.06335938 2.81585938 5.75171875 3.25671875 6.4609375 3.7109375 C7.22277344 4.34902344 7.22277344 4.34902344 8 5 C8 5.66 8 6.32 8 7 C8.66 7 9.32 7 10 7 C11.45745826 11.91753093 11.40732032 17.24256749 9.0390625 21.8828125 C8.07876854 23.29260576 7.0449118 24.65172671 6 26 C6 26.33 6 26.66 6 27 C0.56731506 28.13606798 -4.69066603 28.12824385 -10.2109375 28.09765625 C-11.17907379 28.0962413 -12.14721008 28.09482635 -13.14468384 28.09336853 C-16.22148799 28.08779365 -19.29821803 28.07524577 -22.375 28.0625 C-24.46744686 28.05748175 -26.55989487 28.05291941 -28.65234375 28.04882812 C-33.7682575 28.03783245 -38.88411621 28.02058515 -44 28 C-43.67 26.68 -43.34 25.36 -43 24 C-41.35 24 -39.7 24 -38 24 C-38 23.34 -38 22.68 -38 22 C-35.88479079 20.45438861 -33.76955466 19.02951424 -31.5625 17.625 C-27.10300837 14.74348233 -22.70553865 11.82173376 -18.4296875 8.671875 C-17.68001709 8.12321777 -16.93034668 7.57456055 -16.15795898 7.00927734 C-14.70141147 5.93724556 -13.25265012 4.85453613 -11.81274414 3.76025391 C-7.7996924 0.82880553 -5.159763 -0.89987428 0 0 Z " fill="#619E25" transform="translate(628,165)"/>
<path d="M0 0 C3.94116113 2.85394427 5.87972335 6.23753583 7.58203125 10.69921875 C10.46878357 18.06933699 13.75789754 25.25992144 17.00976562 32.47460938 C17.48478516 33.54130859 17.95980469 34.60800781 18.44921875 35.70703125 C18.87936279 36.66456299 19.30950684 37.62209473 19.75268555 38.60864258 C20.76253939 41.18503771 21.3659387 43.58764052 21.8125 46.3125 C17.84402278 44.88847448 14.6078578 42.9918553 11.125 40.625 C9.54332031 39.55185547 9.54332031 39.55185547 7.9296875 38.45703125 C3.53755122 35.43537359 -0.83847209 32.39586653 -5.1875 29.3125 C-6.16460938 28.63960937 -7.14171875 27.96671875 -8.1484375 27.2734375 C-9.13070312 26.58507812 -10.11296875 25.89671875 -11.125 25.1875 C-12.02089844 24.56617188 -12.91679688 23.94484375 -13.83984375 23.3046875 C-16.88304588 20.72226972 -18.81921935 18.21889395 -19.5859375 14.25 C-19.53197995 9.789509 -19.07400754 6.92063443 -16.1875 3.3125 C-11.45619945 -0.82738798 -6.09223942 -1.91470382 0 0 Z " fill="#DE501A" transform="translate(546.1875,139.6875)"/>
<path d="M0 0 C0.33 0 0.66 0 1 0 C1 14.19 1 28.38 1 43 C0.01 43.495 0.01 43.495 -1 44 C-1.99 43.505 -1.99 43.505 -3 43 C-8.2203344 42.59843582 -11.59929694 43.09953662 -16 46 C-18.92692439 49.41474512 -19.54241915 52.51523611 -19.34765625 57.01171875 C-18.75304347 60.41236935 -17.228072 62.42012716 -15 65 C-13.61891332 65.95355757 -12.23352981 66.90166244 -10.82421875 67.81298828 C-8.73910917 69.1697606 -6.69220446 70.57565152 -4.64453125 71.98828125 C-3.85626953 72.53033203 -3.06800781 73.07238281 -2.25585938 73.63085938 C-0.64567898 74.73906507 0.96371586 75.84841316 2.57226562 76.95898438 C8.62559141 81.11727062 14.78317777 85.09083155 21 89 C19.36746659 85.15748015 17.73159072 81.31640509 16.09277344 77.4765625 C15.53719361 76.1735572 14.98248547 74.87017982 14.42871094 73.56640625 C10.74961382 64.84448838 10.74961382 64.84448838 6.65625 56.3125 C5.05227635 53.10455271 4.35489561 50.54895611 4 47 C3.01 46.67 2.02 46.34 1 46 C1.495 45.01 1.495 45.01 2 44 C2.99 44 3.98 44 5 44 C9.11513939 53.2359077 13.08847519 62.52485055 16.9375 71.875 C17.3389624 72.8438916 17.7404248 73.8127832 18.15405273 74.81103516 C18.52473877 75.71644043 18.8954248 76.6218457 19.27734375 77.5546875 C19.60984131 78.36405762 19.94233887 79.17342773 20.28491211 80.00732422 C21 82 21 82 21 84 C21.66 84 22.32 84 23 84 C23 82.35 23 80.7 23 79 C23.99 79.33 24.98 79.66 26 80 C25.7834375 80.62648438 25.566875 81.25296875 25.34375 81.8984375 C25.0653125 82.71570313 24.786875 83.53296875 24.5 84.375 C24.2215625 85.18710938 23.943125 85.99921875 23.65625 86.8359375 C22.90326695 88.94209242 22.90326695 88.94209242 23 91 C15.77772279 90.84299397 11.63083655 87.21530681 6 83 C-5.54789222 73.59820622 -5.54789222 73.59820622 -19.1875 70 C-23.16282089 71.04270712 -25.15709195 72.07094322 -28 75 C-29.35223785 79.05671355 -29.54418363 82.75834954 -29 87 C-26.88348422 90.55272291 -24.85036851 92.48735523 -21 94 C-25 96 -25 96 -37 96 C-37 65.97 -37 35.94 -37 5 C-36.67 5 -36.34 5 -36 5 C-36 34.7 -36 64.4 -36 95 C-33.36 94.67 -30.72 94.34 -28 94 C-28.66 93.2575 -29.32 92.515 -30 91.75 C-33.12916505 87.08409196 -32.8040825 81.38228193 -32 76 C-29.79369536 71.53623002 -27.40155843 69.37684155 -23 67 C-20.125 66.75 -20.125 66.75 -18 67 C-18.66 66.2575 -19.32 65.515 -20 64.75 C-23.17205934 59.96348752 -22.84000209 54.49685577 -22 49 C-20.25384596 44.59598317 -17.78333938 42.49150706 -13.8125 40 C-10 39 -10 39 0 40 C0 26.8 0 13.6 0 0 Z " fill="#D6D1C5" transform="translate(547,97)"/>
<path d="M0 0 C0.99 0 1.98 0 3 0 C6.19951608 3.28038936 7.6596043 7.57696518 9.35546875 11.7578125 C9.66196854 12.50207489 9.96846832 13.24633728 10.28425598 14.01315308 C10.92819327 15.58038816 11.5693081 17.14878553 12.20776367 18.71826172 C13.18804909 21.12634886 14.17826963 23.53016835 15.16992188 25.93359375 C15.79486091 27.45809157 16.41922988 28.98282324 17.04296875 30.5078125 C17.3397905 31.22865021 17.63661224 31.94948792 17.94242859 32.69216919 C20 37.76861722 20 37.76861722 20 40 C20.66 40 21.32 40 22 40 C22 38.35 22 36.7 22 35 C23.485 35.495 23.485 35.495 25 36 C24.7834375 36.62648437 24.566875 37.25296875 24.34375 37.8984375 C24.0653125 38.71570313 23.786875 39.53296875 23.5 40.375 C23.2215625 41.18710938 22.943125 41.99921875 22.65625 42.8359375 C21.90326695 44.94209242 21.90326695 44.94209242 22 47 C20.515 46.505 20.515 46.505 19 46 C18.88374268 45.12762695 18.76748535 44.25525391 18.64770508 43.35644531 C18.00445777 40.0231004 17.03065114 37.38289876 15.63671875 34.296875 C15.16169922 33.23339844 14.68667969 32.16992188 14.19726562 31.07421875 C13.69904297 29.97722656 13.20082031 28.88023437 12.6875 27.75 C3 6.21937086 3 6.21937086 3 3 C2.01 2.67 1.02 2.34 0 2 C0 1.34 0 0.68 0 0 Z " fill="#EFD6B8" transform="translate(548,141)"/>
<path d="M0 0 C0.87617981 0.02580643 1.75235962 0.05161285 2.65509033 0.07820129 C3.55946838 0.08527603 4.46384644 0.09235077 5.39562988 0.09963989 C8.27983862 0.1275949 11.16209498 0.19033442 14.04571533 0.25398254 C16.00271851 0.27906403 17.95975217 0.30187746 19.91680908 0.32234192 C24.71052833 0.37742516 29.50279101 0.46370474 34.29571533 0.56648254 C33.63571533 1.55648254 32.97571533 2.54648254 32.29571533 3.56648254 C29.43204512 3.78377534 26.78522316 3.81789328 23.92852783 3.71882629 C22.2215 3.69062369 20.51446862 3.6626356 18.80743408 3.63484192 C16.11239934 3.57268661 13.41768629 3.50389894 10.72296143 3.42951965 C8.12484811 3.36312713 5.52716346 3.3211765 2.92852783 3.28132629 C2.12424347 3.25126999 1.31995911 3.22121368 0.49130249 3.19024658 C-3.27007796 3.14043679 -5.2459527 3.20231088 -8.24383545 5.58430481 C-8.72578369 6.23842346 -9.20773193 6.89254211 -9.70428467 7.56648254 C-10.03428467 6.90648254 -10.36428467 6.24648254 -10.70428467 5.56648254 C-7.80049166 0.49887276 -5.45866739 -0.00251233 0 0 Z " fill="#7E7E7E" transform="translate(252.70428466796875,47.43351745605469)"/>
<path d="M0 0 C0.99 0.33 1.98 0.66 3 1 C3 1.66 3 2.32 3 3 C2.071875 3.391875 1.14375 3.78375 0.1875 4.1875 C-3.39829487 6.22648139 -4.50793531 7.1869458 -6 11 C-6.67821101 15.6051365 -6.66267093 18.88765951 -4.25 22.9375 C-2.20639055 24.81080866 -0.56540568 25.99216205 2 27 C0.02 27.99 0.02 27.99 -2 29 C-2.33 28.34 -2.66 27.68 -3 27 C-3.99 26.67 -4.98 26.34 -6 26 C-8.79448703 22.32649592 -9.40997379 19.56990799 -9.375 15 C-9.38273438 13.989375 -9.39046875 12.97875 -9.3984375 11.9375 C-8.73758981 7.065368 -6.80354001 4.63613584 -3 1.625 C-2.01 1.08875 -1.02 0.5525 0 0 Z " fill="#FAF1D6" transform="translate(524,164)"/>
<path d="M0 0 C0.99 0.33 1.98 0.66 3 1 C-0.08463874 4.30071247 -3.39049829 6.779338 -7.125 9.3125 C-8.28023125 10.09854208 -9.43517577 10.88500573 -10.58984375 11.671875 C-11.44811768 12.25485352 -11.44811768 12.25485352 -12.32373047 12.84960938 C-15.61234961 15.10652365 -18.84019264 17.45094101 -22.07421875 19.78515625 C-24 21 -24 21 -26 21 C-26 21.66 -26 22.32 -26 23 C-26.66 22.67 -27.32 22.34 -28 22 C-26.50023741 17.49036903 -22.88262425 15.65002641 -19.0625 13.25 C-17.70295506 12.37598345 -16.34489416 11.4996544 -14.98828125 10.62109375 C-14.31490723 10.18522949 -13.6415332 9.74936523 -12.94775391 9.30029297 C-9.2225866 6.81342395 -5.70207834 4.05540961 -2.171875 1.30078125 C-1.45515625 0.87152344 -0.7384375 0.44226563 0 0 Z " fill="#D1EFDF" transform="translate(616,166)"/>
<path d="M0 0 C0.33 0 0.66 0 1 0 C1 14.19 1 28.38 1 43 C0.01 43.495 0.01 43.495 -1 44 C-1.66 43.67 -2.32 43.34 -3 43 C-4.87379605 42.92966231 -6.75001102 42.9156978 -8.625 42.9375 C-10.12933594 42.95103516 -10.12933594 42.95103516 -11.6640625 42.96484375 C-12.43492187 42.97644531 -13.20578125 42.98804688 -14 43 C-14 42.01 -14 41.02 -14 40 C-12.41773035 39.80372609 -10.83410729 39.61834462 -9.25 39.4375 C-7.92742188 39.28087891 -7.92742188 39.28087891 -6.578125 39.12109375 C-4 39 -4 39 0 40 C0 26.8 0 13.6 0 0 Z " fill="#B7B1AA" transform="translate(547,97)"/>
<path d="M0 0 C0.66 0.99 1.32 1.98 2 3 C1.50488281 5.03662109 1.50488281 5.03662109 0.453125 7.3984375 C0.06962891 8.28499023 -0.31386719 9.17154297 -0.70898438 10.08496094 C-1.13501953 11.04692383 -1.56105469 12.00888672 -2 13 C-2.86338965 15.073854 -3.72264744 17.1494322 -4.578125 19.2265625 C-5.46801521 21.35968169 -6.35864767 23.49249137 -7.25 25.625 C-7.93835938 27.27435547 -7.93835938 27.27435547 -8.640625 28.95703125 C-9.7597613 31.6382953 -10.87956472 34.31927856 -12 37 C-12.66 36.01 -13.32 35.02 -14 34 C-13.57202148 32.01391602 -13.57202148 32.01391602 -12.62109375 29.75390625 C-12.27892822 28.92165527 -11.9367627 28.0894043 -11.58422852 27.23193359 C-11.20580811 26.35102051 -10.8273877 25.47010742 -10.4375 24.5625 C-10.06488037 23.66611816 -9.69226074 22.76973633 -9.30834961 21.84619141 C-8.56139035 20.05303679 -7.80862075 18.26229049 -7.04980469 16.47412109 C-6.14783999 14.34842103 -5.25992149 12.21806963 -4.3828125 10.08203125 C-1.31422414 2.62844828 -1.31422414 2.62844828 0 0 Z " fill="#CFD6EE" transform="translate(600,147)"/>
<path d="M0 0 C1.6874269 0.00015917 3.37485866 0.00585622 5.06225586 0.01586914 C6.39189613 0.01799156 6.39189613 0.01799156 7.74839783 0.02015686 C10.59133215 0.02577324 13.43418892 0.03832848 16.27709961 0.05102539 C18.19962452 0.05603828 20.12215065 0.06060155 22.04467773 0.06469727 C26.7680151 0.07574798 31.49129419 0.09302356 36.21459961 0.11352539 C36.70959961 1.10352539 36.70959961 1.10352539 37.21459961 2.11352539 C31.55494567 2.30559681 25.8950895 2.48434939 20.23461914 2.65063477 C18.30807142 2.70912331 16.38163162 2.77128475 14.45532227 2.8371582 C11.69038542 2.93107783 8.92533258 3.01188866 6.15991211 3.09008789 C5.29528351 3.12228424 4.43065491 3.15448059 3.53982544 3.18765259 C1.43194089 3.24075733 -0.67811457 3.18662723 -2.78540039 3.11352539 C-3.44540039 2.45352539 -4.10540039 1.79352539 -4.78540039 1.11352539 C-3.78540039 0.11352539 -3.78540039 0.11352539 0 0 Z " fill="#868686" transform="translate(143.785400390625,47.886474609375)"/>
<path d="M0 0 C0.66 0.99 1.32 1.98 2 3 C0.7934375 3.8971875 0.7934375 3.8971875 -0.4375 4.8125 C-3.22327984 6.80947276 -3.22327984 6.80947276 -4 10 C-4.37402531 15.70388605 -4.01714173 18.97143045 -1 24 C-1.66 24.66 -2.32 25.32 -3 26 C-7.22483363 21.24706217 -7.66051905 17.21479251 -7.46484375 10.921875 C-6.75132469 6.43689807 -5.07660153 4.29635878 -2 1 C-1.34 0.67 -0.68 0.34 0 0 Z " fill="#ECDFD1" transform="translate(532,138)"/>
<path d="M0 0 C-3 2 -3 2 -6.5 3.125 C-10.08486848 5.04546526 -10.57524874 5.36589041 -12 8.875 C-12.99371041 12.24497445 -13.38815457 14.66842903 -12 18 C-9.82902767 20.53280106 -7.78712094 22.14191937 -5 24 C-5.33 24.66 -5.66 25.32 -6 26 C-13.3255814 21.44186047 -13.3255814 21.44186047 -15 18 C-15.58387359 13.68582295 -15.4951531 10.13885214 -13.75 6.125 C-9.79566989 1.32331344 -6.18066186 -0.16704492 0 0 Z " fill="#E1BD4C" transform="translate(532,166)"/>
<path d="M0 0 C2.27734375 0.13671875 2.27734375 0.13671875 4.9375 0.6875 C5.81277344 0.85636719 6.68804688 1.02523437 7.58984375 1.19921875 C10.15801371 2.0525005 11.28605135 2.94665558 13 5 C12.01 5.495 12.01 5.495 11 6 C11 5.34 11 4.68 11 4 C5.17932539 3.35590896 1.15762367 3.34874967 -3.625 7 C-4.76974668 7.97733313 -5.90247489 8.96992057 -7 10 C-7 7 -7 7 -4.625 4.4375 C-3.75875 3.633125 -2.8925 2.82875 -2 2 C-1.34 1.34 -0.68 0.68 0 0 Z " fill="#B85E64" transform="translate(559,121)"/>
<path d="M0 0 C0.99 0 1.98 0 3 0 C6.3960762 3.3960762 8.49933725 8.4805622 10 13 C9.67 13.66 9.34 14.32 9 15 C8.01 14.67 7.02 14.34 6 14 C5.05078125 12.00390625 5.05078125 12.00390625 4.3125 9.5625 C3.93544922 8.35787109 3.93544922 8.35787109 3.55078125 7.12890625 C3 5 3 5 3 3 C2.01 2.67 1.02 2.34 0 2 C0 1.34 0 0.68 0 0 Z " fill="#EEC6B3" transform="translate(548,141)"/>
<path d="M0 0 C4.27096492 0.5777905 7.18835792 2.07534358 10.8125 4.375 C11.78832031 4.98085937 12.76414062 5.58671875 13.76953125 6.2109375 C14.50558594 6.80132812 15.24164062 7.39171875 16 8 C16 8.99 16 9.98 16 11 C10.37596171 8.0030635 5.06456302 4.87923976 0 1 C0 0.67 0 0.34 0 0 Z " fill="#FCDFAC" transform="translate(550,177)"/>
<path d="M0 0 C0.99 0.33 1.98 0.66 3 1 C3 1.66 3 2.32 3 3 C2.0925 3.37125 1.185 3.7425 0.25 4.125 C-3.45705203 6.26368386 -4.77123262 8.41805243 -7 12 C-7.66 12 -8.32 12 -9 12 C-8.58424938 7.14957612 -6.58340022 5.15680495 -3 2 C-2.01 1.34 -1.02 0.68 0 0 Z " fill="#E7E1C2" transform="translate(524,164)"/>
<path d="M0 0 C1.98 0.99 1.98 0.99 4 2 C4 2.66 4 3.32 4 4 C4.66 4 5.32 4 6 4 C6.96661363 7.12180401 6.98988909 9.52083795 6.5625 12.75 C6.46066406 13.54921875 6.35882812 14.3484375 6.25390625 15.171875 C6.12822266 16.07679688 6.12822266 16.07679688 6 17 C5.67 17 5.34 17 5 17 C5 14.03 5 11.06 5 8 C4.34 8 3.68 8 3 8 C2.67 6.02 2.34 4.04 2 2 C1.34 2 0.68 2 0 2 C0 1.34 0 0.68 0 0 Z " fill="#A6C48C" transform="translate(632,168)"/>
<path d="M0 0 C2.9375 0.8125 2.9375 0.8125 6 2 C6.33 2.99 6.66 3.98 7 5 C5.35333797 4.8864371 3.70763918 4.75882619 2.0625 4.625 C0.68771484 4.52058594 0.68771484 4.52058594 -0.71484375 4.4140625 C-1.84599609 4.20910156 -1.84599609 4.20910156 -3 4 C-3.33 3.34 -3.66 2.68 -4 2 C-2.68 2 -1.36 2 0 2 C0 1.34 0 0.68 0 0 Z " fill="#FBEFD3" transform="translate(530,162)"/>
<path d="M0 0 C0.66 1.32 1.32 2.64 2 4 C1.505 4.639375 1.01 5.27875 0.5 5.9375 C-1.09802862 7.70974339 -1.09802862 7.70974339 -1 9 C-2.65 9 -4.3 9 -6 9 C-5.67 7.68 -5.34 6.36 -5 5 C-4.01 5 -3.02 5 -2 5 C-1.34 3.35 -0.68 1.7 0 0 Z " fill="#8EB56D" transform="translate(635,183)"/>
<path d="M0 0 C-2.9905167 3.33557632 -5.93184627 5.15083921 -10 7 C-10 6.01 -10 5.02 -10 4 C-8.57421875 2.578125 -8.57421875 2.578125 -6.6875 1.25 C-6.07261719 0.80140625 -5.45773437 0.3528125 -4.82421875 -0.109375 C-3 -1 -3 -1 0 0 Z " fill="#DAE9E5" transform="translate(619,167)"/>
<path d="M0 0 C3.81592825 2.54395217 4.52329522 4.71755613 6 9 C5.578125 11.2265625 5.578125 11.2265625 5 13 C4.15930585 11.39967863 3.32768495 9.79458829 2.5 8.1875 C1.80390625 6.84751953 1.80390625 6.84751953 1.09375 5.48046875 C0 3 0 3 0 0 Z " fill="#F7D5CB" transform="translate(556,155)"/>
<path d="M0 0 C0.99 0.33 1.98 0.66 3 1 C2.7834375 1.62648437 2.566875 2.25296875 2.34375 2.8984375 C2.0653125 3.71570313 1.786875 4.53296875 1.5 5.375 C1.2215625 6.18710938 0.943125 6.99921875 0.65625 7.8359375 C-0.09673305 9.94209242 -0.09673305 9.94209242 0 12 C-0.99 11.67 -1.98 11.34 -3 11 C-3 9.35 -3 7.7 -3 6 C-2.01 5.67 -1.02 5.34 0 5 C0 3.35 0 1.7 0 0 Z " fill="#E4C4B8" transform="translate(570,176)"/>
<path d="M0 0 C0.66 0.33 1.32 0.66 2 1 C-0.97 3.97 -3.94 6.94 -7 10 C-7.66 9.67 -8.32 9.34 -9 9 C-6 6 -3 3 0 0 Z " fill="#606060" transform="translate(436,63)"/>
<path d="M0 0 C3.38879801 0.3388798 4.66384629 1.04066581 7.125 3.3125 C2.60407032 4.76856519 -0.39148796 3.58282841 -4.875 2.3125 C-2.875 0.3125 -2.875 0.3125 0 0 Z " fill="#A6C78A" transform="translate(624.875,164.6875)"/>
<path d="M0 0 C4.31392226 0.4793247 6.16569547 1.7457985 9 5 C8.01 5.495 8.01 5.495 7 6 C5.83054208 5.19152271 4.66449539 4.37810888 3.5 3.5625 C2.8503125 3.11003906 2.200625 2.65757812 1.53125 2.19140625 C1.0259375 1.79824219 0.520625 1.40507812 0 1 C0 0.67 0 0.34 0 0 Z " fill="#FBE4BD" transform="translate(558,182)"/>
<path d="M0 0 C0.99 0 1.98 0 3 0 C3.99 1.98 4.98 3.96 6 6 C5.34 6.66 4.68 7.32 4 8 C0 2.25 0 2.25 0 0 Z " fill="#E2D6CE" transform="translate(525,156)"/>
<path d="M0 0 C3.465 1.98 3.465 1.98 7 4 C5.02 4.99 5.02 4.99 3 6 C2.67 5.34 2.34 4.68 2 4 C1.01 3.67 0.02 3.34 -1 3 C-0.67 2.01 -0.34 1.02 0 0 Z " fill="#EBE1AA" transform="translate(519,187)"/>
<path d="" fill="#E9FEEA" transform="translate(0,0)"/>
<path d="" fill="#E6F7E4" transform="translate(0,0)"/>
<path d="" fill="#EDEDED" transform="translate(0,0)"/>
<path d="" fill="#EAEAEA" transform="translate(0,0)"/>
<path d="" fill="#EBEBEB" transform="translate(0,0)"/>
<path d="" fill="#EEEEEE" transform="translate(0,0)"/>
<path d="" fill="#EDEDED" transform="translate(0,0)"/>
<path d="" fill="#ECECEC" transform="translate(0,0)"/>
<path d="" fill="#EAEAEA" transform="translate(0,0)"/>
<path d="" fill="#EFEFEF" transform="translate(0,0)"/>
<path d="" fill="#EDEDED" transform="translate(0,0)"/>
<path d="" fill="#F2EEE5" transform="translate(0,0)"/>
<path d="" fill="#F0EDD9" transform="translate(0,0)"/>
<path d="" fill="#EDEDED" transform="translate(0,0)"/>
<path d="" fill="#E4E4E4" transform="translate(0,0)"/>
<path d="" fill="#EEEEEE" transform="translate(0,0)"/>
<path d="" fill="#FBE7E4" transform="translate(0,0)"/>
<path d="" fill="#FEECE5" transform="translate(0,0)"/>
<path d="" fill="#FFEBE7" transform="translate(0,0)"/>
<path d="" fill="#EFEFEF" transform="translate(0,0)"/>
<path d="" fill="#EEEEEE" transform="translate(0,0)"/>
<path d="" fill="#E8E8E8" transform="translate(0,0)"/>
<path d="" fill="#E7E7E7" transform="translate(0,0)"/>
<path d="" fill="#EFEFEF" transform="translate(0,0)"/>
<path d="" fill="#EFEFEF" transform="translate(0,0)"/>
<path d="" fill="#E8E8E8" transform="translate(0,0)"/>
<path d="" fill="#EBEBEB" transform="translate(0,0)"/>
<path d="" fill="#EFEFEF" transform="translate(0,0)"/>
<path d="" fill="#EFEFEF" transform="translate(0,0)"/>
<path d="" fill="#EBEBEB" transform="translate(0,0)"/>
<path d="" fill="#EEEEEE" transform="translate(0,0)"/>
<path d="" fill="#EDEDED" transform="translate(0,0)"/>
<path d="" fill="#EFEFEF" transform="translate(0,0)"/>
<path d="" fill="#EDEDED" transform="translate(0,0)"/>
<path d="" fill="#EFEFEF" transform="translate(0,0)"/>
<path d="" fill="#E9E9E9" transform="translate(0,0)"/>
<path d="" fill="#EBEBEB" transform="translate(0,0)"/>
<path d="" fill="#ECECEC" transform="translate(0,0)"/>
<path d="" fill="#EDEDED" transform="translate(0,0)"/>
<path d="" fill="#ECECEC" transform="translate(0,0)"/>
<path d="" fill="#ECECEC" transform="translate(0,0)"/>
<path d="" fill="#DFDFDF" transform="translate(0,0)"/>
<path d="" fill="#E8E8E8" transform="translate(0,0)"/>
<path d="" fill="#E7E7E7" transform="translate(0,0)"/>
<path d="" fill="#EEEEEE" transform="translate(0,0)"/>
</svg>
