<?xml version="1.0" encoding="UTF-8"?>
<svg version="1.1" xmlns="http://www.w3.org/2000/svg" width="514" height="98">
<path d="M0 0 C169.62 0 339.24 0 514 0 C514 32.34 514 64.68 514 98 C344.38 98 174.76 98 0 98 C0 65.66 0 33.32 0 0 Z " fill="#FEFEFE" transform="translate(0,0)"/>
<path d="M0 0 C2.65002661 0.548602 3.51108755 1.27937396 5.2265625 3.3359375 C8.14739335 7.8997357 8.41236911 10.25449921 8.4765625 15.7109375 C8.50234375 17.01546875 8.528125 18.32 8.5546875 19.6640625 C8.14087778 24.45243207 6.75317923 27.76469669 3.5390625 31.3359375 C0.10919277 33.00452277 -3.09165678 33.23681972 -6.7734375 32.4609375 C-11.00915932 29.33018659 -12.39876932 26.44109501 -13.7734375 21.4609375 C-15.01971892 9.51982247 -15.01971892 9.51982247 -11.9609375 4.7734375 C-8.08495992 0.67597548 -5.42350853 -0.08833076 0 0 Z " fill="#FBFBFB" transform="translate(277.7734375,28.5390625)"/>
<path d="M0 0 C2.85475306 -0.08156437 5.70713565 -0.14076372 8.5625 -0.1875 C9.36236328 -0.21263672 10.16222656 -0.23777344 10.98632812 -0.26367188 C17.24352079 -0.34029056 21.67389348 0.74683107 26.9375 4.3125 C28.6246397 6.99207482 28.440808 8.91434399 28 12 C25.76793569 14.84780619 24.45007001 15.84997666 21 17 C21.78375 17.61875 22.5675 18.2375 23.375 18.875 C27.05337326 22.47001069 27.36130206 27.09060538 28 32 C29.32 32 30.64 32 32 32 C32.66 31.01 33.32 30.02 34 29 C33.125 33.875 33.125 33.875 32 35 C28.84081181 35.28081673 26.70355487 35.37436865 23.87109375 33.8671875 C21.32780981 31.32921313 21.27480764 29.40521641 20.875 25.875 C20.64393564 23.90859512 20.36593119 21.94582457 20 20 C17.70370006 18.85185003 15.92301914 18.69230191 13.375 18.4375 C11.93125 18.293125 10.4875 18.14875 9 18 C9 22.62 9 27.24 9 32 C10.65 32 12.3 32 14 32 C14 32.66 14 33.32 14 34 C9.38 34 4.76 34 0 34 C0 33.34 0 32.68 0 32 C1.65 32 3.3 32 5 32 C5 22.1 5 12.2 5 2 C3.35 2 1.7 2 0 2 C0 1.34 0 0.68 0 0 Z " fill="#2F3036" transform="translate(333,28)"/>
<path d="M0 0 C4.95 0 9.9 0 15 0 C15 0.66 15 1.32 15 2 C13.35 2 11.7 2 10 2 C10 6.29 10 10.58 10 15 C14.62 15 19.24 15 24 15 C24 10.71 24 6.42 24 2 C22.35 2 20.7 2 19 2 C19 1.34 19 0.68 19 0 C23.95 0 28.9 0 34 0 C34 0.66 34 1.32 34 2 C32.35 2 30.7 2 29 2 C29 11.9 29 21.8 29 32 C30.65 32 32.3 32 34 32 C34 32.66 34 33.32 34 34 C29.05 34 24.1 34 19 34 C19 33.34 19 32.68 19 32 C20.65 32 22.3 32 24 32 C24 27.05 24 22.1 24 17 C19.38 17 14.76 17 10 17 C10 21.95 10 26.9 10 32 C11.65 32 13.3 32 15 32 C15 32.66 15 33.32 15 34 C10.05 34 5.1 34 0 34 C0 33.34 0 32.68 0 32 C1.65 32 3.3 32 5 32 C5 22.1 5 12.2 5 2 C3.35 2 1.7 2 0 2 C0 1.34 0 0.68 0 0 Z " fill="#22242B" transform="translate(74,28)"/>
<path d="M0 0 C0.66 0 1.32 0 2 0 C13 28.76632302 13 28.76632302 13 33 C14.65 33 16.3 33 18 33 C18 33.66 18 34.32 18 35 C13.38 35 8.76 35 4 35 C4 34.34 4 33.68 4 33 C5.32 33 6.64 33 8 33 C7.34 30.36 6.68 27.72 6 25 C1.71 24.67 -2.58 24.34 -7 24 C-7.33 26.64 -7.66 29.28 -8 32 C-7.01 32.33 -6.02 32.66 -5 33 C-5 33.66 -5 34.32 -5 35 C-8.63 35 -12.26 35 -16 35 C-16 34.34 -16 33.68 -16 33 C-15.38648682 32.94473145 -14.77297363 32.88946289 -14.14086914 32.83251953 C-11.77602107 32.17986136 -11.77602107 32.17986136 -10.76733398 29.70263672 C-10.43032471 28.70506348 -10.09331543 27.70749023 -9.74609375 26.6796875 C-9.36646484 25.5865625 -8.98683594 24.4934375 -8.59570312 23.3671875 C-8.21349609 22.21476562 -7.83128906 21.06234375 -7.4375 19.875 C-6.66713834 17.62178861 -5.89504713 15.36916769 -5.12109375 13.1171875 C-4.75999512 12.05725586 -4.39889648 10.99732422 -4.02685547 9.90527344 C-2.83126031 6.52258622 -1.48153695 3.26600797 0 0 Z " fill="#393B40" transform="translate(422,27)"/>
<path d="M0 0 C0.99 0.33 1.98 0.66 3 1 C4.04321289 3.23730469 4.04321289 3.23730469 4.97265625 6.171875 C5.48602539 7.75742187 5.48602539 7.75742187 6.00976562 9.375 C6.35716797 10.48875 6.70457031 11.6025 7.0625 12.75 C7.76059028 14.93265291 8.45977127 17.11495734 9.16015625 19.296875 C9.46574463 20.26979492 9.77133301 21.24271484 10.08618164 22.24511719 C10.96530373 25.011202 10.96530373 25.011202 12.11499023 27.66894531 C13 30 13 30 13 33 C14.65 33 16.3 33 18 33 C18 33.66 18 34.32 18 35 C13.38 35 8.76 35 4 35 C4 34.34 4 33.68 4 33 C5.32 33 6.64 33 8 33 C7.34 30.36 6.68 27.72 6 25 C1.71 24.67 -2.58 24.34 -7 24 C-7.33 26.64 -7.66 29.28 -8 32 C-7.01 32.33 -6.02 32.66 -5 33 C-5 33.66 -5 34.32 -5 35 C-8.63 35 -12.26 35 -16 35 C-16 34.34 -16 33.68 -16 33 C-15.40058594 32.98195312 -14.80117187 32.96390625 -14.18359375 32.9453125 C-11.65213166 32.1280021 -11.65213166 32.1280021 -10.47265625 28.9296875 C-9.98586882 27.58406194 -9.51689758 26.23190567 -9.0625 24.875 C-8.81089111 24.16593506 -8.55928223 23.45687012 -8.30004883 22.72631836 C-7.51324164 20.4905591 -6.7525655 18.24750046 -6 16 C-5.75540039 15.27087402 -5.51080078 14.54174805 -5.25878906 13.79052734 C-4.14943807 10.47075309 -3.05395671 7.14804041 -1.98046875 3.81640625 C-1 1 -1 1 0 0 Z " fill="#23252B" transform="translate(177,27)"/>
<path d="M0 0 C9.24 0 18.48 0 28 0 C28.9681648 3.8726592 29.07622858 7.03611362 29 11 C28.7525 10.4225 28.505 9.845 28.25 9.25 C26.75371046 6.55667882 25.40091993 4.95274821 23 3 C19.7374658 2.3039772 19.7374658 2.3039772 16.25 2.25 C14.1875 2.1675 12.125 2.085 10 2 C10 6.62 10 11.24 10 16 C14.455 15.505 14.455 15.505 19 15 C19 13.35 19 11.7 19 10 C19.66 10 20.32 10 21 10 C21 14.29 21 18.58 21 23 C20.34 23 19.68 23 19 23 C19 21.35 19 19.7 19 18 C16.03 17.67 13.06 17.34 10 17 C10 21.95 10 26.9 10 32 C18.9617436 32.02628938 18.9617436 32.02628938 27 29 C27.78988145 27.04614933 27.78988145 27.04614933 28.1875 24.875 C28.455625 23.59625 28.72375 22.3175 29 21 C29.66 21 30.32 21 31 21 C30.34 25.29 29.68 29.58 29 34 C19.43 34 9.86 34 0 34 C0 33.34 0 32.68 0 32 C1.65 32 3.3 32 5 32 C5 22.1 5 12.2 5 2 C3.35 2 1.7 2 0 2 C0 1.34 0 0.68 0 0 Z " fill="#5B5C60" transform="translate(111,28)"/>
<path d="M0 0 C3.46693374 -0.53543045 6.54841822 -0.70416886 10 0 C12.8730638 2.42372912 14.537055 5.3771246 16.375 8.625 C16.86871094 9.43324219 17.36242187 10.24148437 17.87109375 11.07421875 C18.79837506 12.5949601 19.71101178 14.12481226 20.60302734 15.66650391 C22.30294859 18.50604379 24.16422567 21.24633851 26 24 C26 17.07 26 10.14 26 3 C24.68 2.67 23.36 2.34 22 2 C22 1.34 22 0.68 22 0 C25.96 0 29.92 0 34 0 C34 0.66 34 1.32 34 2 C32.68 2.33 31.36 2.66 30 3 C29.67 13.23 29.34 23.46 29 34 C28.34 34 27.68 34 27 34 C25.56713867 32.18334961 25.56713867 32.18334961 23.91796875 29.65234375 C23.31533203 28.73646484 22.71269531 27.82058594 22.09179688 26.87695312 C21.46337891 25.90693359 20.83496094 24.93691406 20.1875 23.9375 C18.9528786 22.05009027 17.71722092 20.16335795 16.48046875 18.27734375 C15.93285889 17.43421631 15.38524902 16.59108887 14.82104492 15.72241211 C12.61996917 12.43186435 10.30103084 9.22144317 8 6 C8 14.25 8 22.5 8 31 C9.32 31.33 10.64 31.66 12 32 C12 32.66 12 33.32 12 34 C8.04 34 4.08 34 0 34 C0 33.34 0 32.68 0 32 C1.32 31.67 2.64 31.34 4 31 C4.33 21.43 4.66 11.86 5 2 C3.35 2 1.7 2 0 2 C0 1.34 0 0.68 0 0 Z " fill="#23252B" transform="translate(369,28)"/>
<path d="M0 0 C4.90368535 1.97386613 9.00500889 4.99206983 11.37109375 9.8515625 C12.96674703 15.30255197 13.04243807 21.03601709 11.15234375 26.41015625 C8.32209965 31.54297182 4.56696423 34.28298613 -1 36 C-6.4429926 36.87476667 -9.80447624 35.60330301 -14.19921875 32.53125 C-18.18547966 29.14163118 -19.72224791 26.15257867 -20.375 21.09375 C-20.56364744 16.33040204 -20.42903381 12.90757152 -18.375 8.5625 C-12.95145601 2.71078148 -8.39841904 -1.28186396 0 0 Z M-13 6 C-16.52843486 11.56598176 -15.78571366 19.29510201 -14.46484375 25.5234375 C-13.49176848 28.38417246 -12.26091718 30.69076482 -10.3125 33 C-6.86784967 34.48957852 -3.64482177 34.65215499 0 34 C4.08384027 31.60296332 5.59679946 29.44346838 7 25 C7.39070066 21.39345641 7.39070066 21.39345641 7.375 17.5625 C7.40335937 16.28503906 7.43171875 15.00757813 7.4609375 13.69140625 C6.82113495 8.56756383 4.59182501 5.59182501 1 2 C-4.75627343 1.02742728 -8.9296392 1.5596064 -13 6 Z " fill="#2E3036" transform="translate(279,27)"/>
<path d="M0 0 C5.28 0 10.56 0 16 0 C16 0.66 16 1.32 16 2 C14.02 2.33 12.04 2.66 10 3 C9.67 12.57 9.34 22.14 9 32 C20.28554873 32.36039351 20.28554873 32.36039351 24 28 C24.74386068 25.69011685 25.42190703 23.35684056 26 21 C26.33 21 26.66 21 27 21 C26.67 25.29 26.34 29.58 26 34 C17.42 34 8.84 34 0 34 C0 33.34 0 32.68 0 32 C1.65 32 3.3 32 5 32 C5 22.1 5 12.2 5 2 C3.35 2 1.7 2 0 2 C0 1.34 0 0.68 0 0 Z " fill="#3E4045" transform="translate(443,28)"/>
<path d="M0 0 C10.23 0 20.46 0 31 0 C31.33 3.63 31.66 7.26 32 11 C31.34 11 30.68 11 30 11 C29.896875 9.88625 29.79375 8.7725 29.6875 7.625 C29.460625 6.42875 29.23375 5.2325 29 4 C25.47825081 1.32917961 25.47825081 1.32917961 18 1 C18 10.9 18 20.8 18 31 C20.31 31 22.62 31 25 31 C25 31.66 25 32.32 25 33 C18.73 33 12.46 33 6 33 C6 32.34 6 31.68 6 31 C9.465 30.505 9.465 30.505 13 30 C13 20.76 13 11.52 13 2 C5.81989159 1.40371521 5.81989159 1.40371521 3 3 C2.26924352 5.3140622 1.59861742 7.64828869 1 10 C0.67 10 0.34 10 0 10 C0 6.7 0 3.4 0 0 Z " fill="#292B32" transform="translate(39,29)"/>
<path d="M0 0 C4.95 0 9.9 0 15 0 C15 0.66 15 1.32 15 2 C13.35 2 11.7 2 10 2 C10 11.9 10 21.8 10 32 C11.65 32 13.3 32 15 32 C15 32.66 15 33.32 15 34 C10.05 34 5.1 34 0 34 C0 33.34 0 32.68 0 32 C1.65 32 3.3 32 5 32 C5 22.1 5 12.2 5 2 C3.35 2 1.7 2 0 2 C0 1.34 0 0.68 0 0 Z " fill="#404247" transform="translate(198,28)"/>
<path d="M0 0 C1.5675 -0.061875 3.135 -0.12375 4.75 -0.1875 C6.07257813 -0.23970703 6.07257813 -0.23970703 7.421875 -0.29296875 C10.5246488 0.05961918 11.82587845 0.77589865 14 3 C14.49609375 4.9375 14.49609375 4.9375 14.4375 7 C14.43621094 7.680625 14.43492187 8.36125 14.43359375 9.0625 C13.85838081 11.63282089 13.16920403 12.50287841 11 14 C7.29631297 14.40199208 3.73655831 14.13187853 0 14 C0 9.38 0 4.76 0 0 Z " fill="#F8F8F8" transform="translate(342,30)"/>
<path d="M0 0 C4.95 0 9.9 0 15 0 C15 0.66 15 1.32 15 2 C13.35 2 11.7 2 10 2 C10 11.9 10 21.8 10 32 C11.65 32 13.3 32 15 32 C15 32.66 15 33.32 15 34 C10.05 34 5.1 34 0 34 C0 33.34 0 32.68 0 32 C1.65 32 3.3 32 5 32 C4.94779297 30.41058594 4.94779297 30.41058594 4.89453125 28.7890625 C4.86639601 27.40105748 4.83909557 26.01303537 4.8125 24.625 C4.78736328 23.92632812 4.76222656 23.22765625 4.73632812 22.5078125 C4.70703125 20.4765625 4.70703125 20.4765625 5 17 C5.99 16.34 6.98 15.68 8 15 C7.01 15.495 7.01 15.495 6 16 C3.28239892 16.07181821 0.59140612 16.09299506 -2.125 16.0625 C-2.87910156 16.05798828 -3.63320312 16.05347656 -4.41015625 16.04882812 C-6.27347127 16.03703499 -8.13674555 16.01909942 -10 16 C-10 11.71 -10 7.42 -10 3 C-9.67 3 -9.34 3 -9 3 C-9 6.96 -9 10.92 -9 15 C-4.38 15 0.24 15 5 15 C5 10.71 5 6.42 5 2 C3.35 2 1.7 2 0 2 C0 1.34 0 0.68 0 0 Z " fill="#606165" transform="translate(93,28)"/>
<path d="M0 0 C4.62 0 9.24 0 14 0 C14 0.66 14 1.32 14 2 C12.68 2.33 11.36 2.66 10 3 C9.9419034 6.9166043 9.90637107 10.83309763 9.875 14.75 C9.85824219 15.86117187 9.84148437 16.97234375 9.82421875 18.1171875 C9.81455078 19.72207031 9.81455078 19.72207031 9.8046875 21.359375 C9.78897705 22.83615723 9.78897705 22.83615723 9.77294922 24.34277344 C10.00799938 27.0936186 10.5020127 28.69813448 12 31 C15.06429776 32.53214888 17.6165642 32.22938548 21 32 C23.87146994 30.63002843 23.87146994 30.63002843 26 29 C25.05275873 31.36810318 24.34708866 32.75207953 22.25 34.25 C19.25035738 35.24988087 17.15310017 35.37837202 14 35 C9.57311395 32.65635444 7.20852739 30.46484798 5 26 C4.65942383 23.22924805 4.65942383 23.22924805 4.70703125 20.26171875 C4.71669922 19.19501953 4.72636719 18.12832031 4.73632812 17.02929688 C4.76146484 15.92650391 4.78660156 14.82371094 4.8125 13.6875 C4.82603516 12.56537109 4.83957031 11.44324219 4.85351562 10.28710938 C4.8887862 7.52424771 4.93807765 4.76237171 5 2 C3.35 2 1.7 2 0 2 C0 1.34 0 0.68 0 0 Z " fill="#222329" transform="translate(296,28)"/>
<path d="M0 0 C4.62 0 9.24 0 14 0 C14 0.66 14 1.32 14 2 C13.01 2 12.02 2 11 2 C11.02356567 3.14214966 11.02356567 3.14214966 11.04760742 4.30737305 C11.11008453 7.7673394 11.14903172 11.2271869 11.1875 14.6875 C11.21263672 15.88568359 11.23777344 17.08386719 11.26367188 18.31835938 C11.27817383 20.05375977 11.27817383 20.05375977 11.29296875 21.82421875 C11.3086792 22.88729248 11.32438965 23.95036621 11.34057617 25.0456543 C10.95110371 28.4241534 9.98846853 30.26885411 8 33 C5.00651705 35.09543806 2.59951941 35.1999733 -1 35 C2.75 33 2.75 33 5 33 C6.09911549 29.70265354 6.1139456 27.27041255 6.09765625 23.80078125 C6.09443359 22.59228516 6.09121094 21.38378906 6.08789062 20.13867188 C6.07951172 18.87603516 6.07113281 17.61339844 6.0625 16.3125 C6.05798828 15.03826172 6.05347656 13.76402344 6.04882812 12.45117188 C6.03702873 9.30073436 6.02056597 6.15039051 6 3 C3.03 2.505 3.03 2.505 0 2 C0 1.34 0 0.68 0 0 Z " fill="#2D2F35" transform="translate(239,28)"/>
<path d="M0 0 C0.33 0 0.66 0 1 0 C1.06058594 0.99902344 1.12117188 1.99804688 1.18359375 3.02734375 C1.26738281 4.31769531 1.35117188 5.60804687 1.4375 6.9375 C1.51871094 8.22527344 1.59992188 9.51304688 1.68359375 10.83984375 C1.64919188 13.86023957 1.64919188 13.86023957 3 15 C3.23481693 17.18292774 3.41363323 19.37203174 3.5625 21.5625 C3.64628906 22.76003906 3.73007813 23.95757812 3.81640625 25.19140625 C3.87699219 26.11824219 3.93757813 27.04507813 4 28 C6.27057377 28.05398987 8.54151288 28.09278742 10.8125 28.125 C12.70935547 28.15980469 12.70935547 28.15980469 14.64453125 28.1953125 C18.1338024 28.27581918 18.1338024 28.27581918 21 26 C21.78988145 24.04614933 21.78988145 24.04614933 22.1875 21.875 C22.455625 20.59625 22.72375 19.3175 23 18 C23.66 18 24.32 18 25 18 C24.34 22.29 23.68 26.58 23 31 C13.43 31 3.86 31 -6 31 C-6 30.34 -6 29.68 -6 29 C-4.35 28.67 -2.7 28.34 -1 28 C-0.67 18.76 -0.34 9.52 0 0 Z " fill="#505255" transform="translate(117,31)"/>
<path d="M0 0 C0.99 0.33 1.98 0.66 3 1 C2.67 1.66 2.34 2.32 2 3 C1.01 3.33 0.02 3.66 -1 4 C-0.21625 4.61875 0.5675 5.2375 1.375 5.875 C5.05337326 9.47001069 5.36130206 14.09060538 6 19 C7.32 19 8.64 19 10 19 C10.66 18.01 11.32 17.02 12 16 C11.125 20.875 11.125 20.875 10 22 C6.84081181 22.28081673 4.70355487 22.37436865 1.87109375 20.8671875 C-0.67219019 18.32921313 -0.72519236 16.40521641 -1.125 12.875 C-1.35606436 10.90859512 -1.63406881 8.94582457 -2 7 C-4.29629994 5.85185003 -6.07698086 5.69230191 -8.625 5.4375 C-9.44226563 5.35371094 -10.25953125 5.26992188 -11.1015625 5.18359375 C-11.72804688 5.12300781 -12.35453125 5.06242187 -13 5 C-13 4.34 -13 3.68 -13 3 C-12.22914063 2.95101562 -11.45828125 2.90203125 -10.6640625 2.8515625 C-9.66117187 2.77679688 -8.65828125 2.70203125 -7.625 2.625 C-6.62726563 2.55539063 -5.62953125 2.48578125 -4.6015625 2.4140625 C-1.84491121 2.23636036 -1.84491121 2.23636036 0 0 Z " fill="#323439" transform="translate(355,41)"/>
<path d="M0 0 C5.85504393 -0.52277178 9.3887874 0.03651317 14.23046875 3.46484375 C17.13131084 5.98146834 19.03252456 8.23450206 20 12 C20.01512007 15.73465824 19.61230569 19.31951039 19 23 C17.68 23.33 16.36 23.66 15 24 C14.97421875 23.05898438 14.9484375 22.11796875 14.921875 21.1484375 C14.53313372 11.02162289 14.53313372 11.02162289 9 3 C6.9412232 2.72046781 4.88271568 2.55265649 2.8125 2.37890625 C1.9153125 2.19134766 1.9153125 2.19134766 1 2 C0.67 1.34 0.34 0.68 0 0 Z " fill="#2F3137" transform="translate(271,27)"/>
<path d="M0 0 C0.99 0.33 1.98 0.66 3 1 C4.04119351 3.70123724 4.90328845 6.28814435 5.6875 9.0625 C5.91244141 9.82111328 6.13738281 10.57972656 6.36914062 11.36132812 C6.9237805 13.23766304 7.46332298 15.11844855 8 17 C6.35 17.33 4.7 17.66 3 18 C2.01 14.7 1.02 11.4 0 8 C-1.65 11.96 -3.3 15.92 -5 20 C-6.1676206 15.3295176 -5.18129702 12.66268129 -3.625 8.3125 C-3.39039063 7.62349609 -3.15578125 6.93449219 -2.9140625 6.22460938 C-1.16171288 1.16171288 -1.16171288 1.16171288 0 0 Z " fill="#2F3136" transform="translate(177,27)"/>
<path d="M0 0 C0.33 0 0.66 0 1 0 C1.33 4.62 1.66 9.24 2 14 C2.99 14 3.98 14 5 14 C5 18.95 5 23.9 5 29 C6.65 29 8.3 29 10 29 C10 29.66 10 30.32 10 31 C5.05 31 0.1 31 -5 31 C-5 30.34 -5 29.68 -5 29 C-3.35 29 -1.7 29 0 29 C0 19.43 0 9.86 0 0 Z " fill="#535458" transform="translate(79,31)"/>
<path d="M0 0 C2 1 2 1 3.0703125 3.65234375 C3.41835938 4.73644531 3.76640625 5.82054687 4.125 6.9375 C4.47820312 8.01902344 4.83140625 9.10054687 5.1953125 10.21484375 C6 13 6 13 6 15 C2.37 15 -1.26 15 -5 15 C-3.35 10.05 -1.7 5.1 0 0 Z " fill="#F2F2F3" transform="translate(421,34)"/>
<path d="M0 0 C2 1 2 1 3.0703125 3.65234375 C3.41835937 4.73644531 3.76640625 5.82054687 4.125 6.9375 C4.47820312 8.01902344 4.83140625 9.10054687 5.1953125 10.21484375 C6 13 6 13 6 15 C2.37 15 -1.26 15 -5 15 C-1.85714286 4.28571429 -1.85714286 4.28571429 0 0 Z " fill="#F2F3F3" transform="translate(176,34)"/>
<path d="M0 0 C0.99 0.33 1.98 0.66 3 1 C3 10.24 3 19.48 3 29 C4.32 29.33 5.64 29.66 7 30 C7 30.66 7 31.32 7 32 C3.04 32 -0.92 32 -5 32 C-5 31.34 -5 30.68 -5 30 C-3.68 29.67 -2.36 29.34 -1 29 C-0.67 19.43 -0.34 9.86 0 0 Z " fill="#58595D" transform="translate(374,30)"/>
<path d="M0 0 C3.96 0 7.92 0 12 0 C12 0.66 12 1.32 12 2 C10.68 2.33 9.36 2.66 8 3 C7.67 13.23 7.34 23.46 7 34 C6.34 33.67 5.68 33.34 5 33 C5.33 30.69 5.66 28.38 6 26 C5.34 25.67 4.68 25.34 4 25 C4 17.74 4 10.48 4 3 C2.68 2.67 1.36 2.34 0 2 C0 1.34 0 0.68 0 0 Z " fill="#636468" transform="translate(391,28)"/>
<path d="M0 0 C0.33 0 0.66 0 1 0 C0.67 4.29 0.34 8.58 0 13 C-8.58 13 -17.16 13 -26 13 C-26 12.34 -26 11.68 -26 11 C-25.40574219 11.01160156 -24.81148438 11.02320313 -24.19921875 11.03515625 C-19.47537735 11.08658221 -14.7769856 11.00179904 -10.0625 10.6875 C-9.16660156 10.62949219 -8.27070313 10.57148437 -7.34765625 10.51171875 C-4.58818845 9.91023741 -3.67419352 9.24612298 -2 7 C-1.25613932 4.69011685 -0.57809297 2.35684056 0 0 Z " fill="#525356" transform="translate(469,49)"/>
<path d="M0 0 C0.33 0 0.66 0 1 0 C1.06058594 0.99902344 1.12117188 1.99804688 1.18359375 3.02734375 C1.26738281 4.31769531 1.35117188 5.60804687 1.4375 6.9375 C1.51871094 8.22527344 1.59992188 9.51304688 1.68359375 10.83984375 C1.64919188 13.86023957 1.64919188 13.86023957 3 15 C3.23653523 17.52596259 3.42173692 20.03107207 3.5625 22.5625 C3.60568359 23.27341797 3.64886719 23.98433594 3.69335938 24.71679688 C3.79971777 26.47761912 3.90038846 28.2387832 4 30 C2.02 30 0.04 30 -2 30 C-1.67 29.34 -1.34 28.68 -1 28 C-0.84558791 25.89625004 -0.75007361 23.78804881 -0.68359375 21.6796875 C-0.64169922 20.42285156 -0.59980469 19.16601562 -0.55664062 17.87109375 C-0.51732422 16.55238281 -0.47800781 15.23367187 -0.4375 13.875 C-0.39430488 12.53514249 -0.35069027 11.19529844 -0.30664062 9.85546875 C-0.20029019 6.57042185 -0.09826192 3.28529719 0 0 Z " fill="#191C23" transform="translate(117,31)"/>
<path d="M0 0 C0.06058594 0.91523437 0.12117188 1.83046875 0.18359375 2.7734375 C0.26738281 3.96195313 0.35117188 5.15046875 0.4375 6.375 C0.51871094 7.55835938 0.59992188 8.74171875 0.68359375 9.9609375 C0.81084936 12.91518901 0.81084936 12.91518901 2 15 C4.52733235 15.65555119 4.52733235 15.65555119 7 16 C7 16.66 7 17.32 7 18 C2.05 18 -2.9 18 -8 18 C-8 17.34 -8 16.68 -8 16 C-6.35 16 -4.7 16 -3 16 C-3 11.05 -3 6.1 -3 1 C-1 0 -1 0 0 0 Z " fill="#4E5054" transform="translate(101,44)"/>
<path d="M0 0 C0.33 0 0.66 0 1 0 C1.33 9.9 1.66 19.8 2 30 C0.02 30 -1.96 30 -4 30 C-3.01 28.515 -3.01 28.515 -2 27 C-1.64826426 24.32168287 -1.64826426 24.32168287 -1.62109375 21.30859375 C-1.58693359 20.19935547 -1.55277344 19.09011719 -1.51757812 17.94726562 C-1.49115234 16.78904297 -1.46472656 15.63082031 -1.4375 14.4375 C-1.37772483 12.14442274 -1.31411889 9.8514411 -1.24609375 7.55859375 C-1.22216553 6.54079834 -1.1982373 5.52300293 -1.17358398 4.47436523 C-1 2 -1 2 0 0 Z " fill="#161921" transform="translate(451,31)"/>
<path d="M0 0 C2.12508244 3.18762365 2.5020163 5.26512223 3 9 C4.65 9 6.3 9 8 9 C8 9.66 8 10.32 8 11 C3.38 11 -1.24 11 -6 11 C-6 10.34 -6 9.68 -6 9 C-4.68 9 -3.36 9 -2 9 C-2.33 7.02 -2.66 5.04 -3 3 C-2.01 2.67 -1.02 2.34 0 2 C0 1.34 0 0.68 0 0 Z " fill="#3E4045" transform="translate(432,51)"/>
<path d="M0 0 C4.19220862 -0.41922086 7.04650264 -0.40813168 10.4375 2.125 C13 5 13 5 13.375 8.3125 C13.25125 9.199375 13.1275 10.08625 13 11 C11.02 11.99 11.02 11.99 9 13 C8 12 8 12 7.875 8.125 C7.73369583 5.95134296 7.73369583 5.95134296 7 4 C4.71096428 2.31218089 2.78341266 1.80972005 0 1 C0 0.67 0 0.34 0 0 Z " fill="#22242B" transform="translate(348,29)"/>
<path d="M0 0 C0.66 0 1.32 0 2 0 C2.67528223 1.57967807 3.33989694 3.16391903 4 4.75 C4.37125 5.63171875 4.7425 6.5134375 5.125 7.421875 C6 10 6 10 6 14 C5.34 14 4.68 14 4 14 C3.67 14.66 3.34 15.32 3 16 C-1.69580731 6.56645852 -1.69580731 6.56645852 -1 1 C-0.67 0.67 -0.34 0.34 0 0 Z " fill="#27292F" transform="translate(422,27)"/>
<path d="M0 0 C6.93 0.495 6.93 0.495 14 1 C14 1.33 14 1.66 14 2 C9.71 2 5.42 2 1 2 C0.67 4.64 0.34 7.28 0 10 C0.99 10.33 1.98 10.66 3 11 C3 11.66 3 12.32 3 13 C-0.63 13 -4.26 13 -8 13 C-8 12.34 -8 11.68 -8 11 C-7.38640625 10.93941406 -6.7728125 10.87882812 -6.140625 10.81640625 C-3.77820953 10.1788835 -3.77820953 10.1788835 -2.734375 7.71484375 C-2.24710938 6.34005859 -2.24710938 6.34005859 -1.75 4.9375 C-1.1725 3.308125 -0.595 1.67875 0 0 Z " fill="#4A4B4F" transform="translate(169,49)"/>
<path d="M0 0 C3.63 0 7.26 0 11 0 C11 0.66 11 1.32 11 2 C9.68 2 8.36 2 7 2 C6.67 10.58 6.34 19.16 6 28 C5.34 28.33 4.68 28.66 4 29 C4 20.42 4 11.84 4 3 C2.68 2.67 1.36 2.34 0 2 C0 1.34 0 0.68 0 0 Z " fill="#2E3036" transform="translate(318,28)"/>
<path d="M0 0 C0.33 0 0.66 0 1 0 C1.60659385 6.5781733 1.14589981 10.89729998 -2.61328125 16.40625 C-4 18 -4 18 -7 20 C-7.99 19.67 -8.98 19.34 -10 19 C-9.071875 17.88625 -9.071875 17.88625 -8.125 16.75 C-5.98432706 14.20458508 -5.98432706 14.20458508 -5 11.75 C-4.67 11.1725 -4.34 10.595 -4 10 C-2.68 9.67 -1.36 9.34 0 9 C0 6.03 0 3.06 0 0 Z " fill="#26282F" transform="translate(290,41)"/>
<path d="M0 0 C3.40038306 -0.35042116 6.61196982 -0.519604 10 0 C12.6875 2.75 12.6875 2.75 14 6 C13.75 8.375 13.75 8.375 13 10 C10 9 10 9 8 6 C8 5.01 8 4.02 8 3 C5.36 2.67 2.72 2.34 0 2 C0 1.34 0 0.68 0 0 Z " fill="#34363C" transform="translate(369,28)"/>
<path d="M0 0 C0.66 0 1.32 0 2 0 C2.33 1.98 2.66 3.96 3 6 C4.65 6 6.3 6 8 6 C8 6.66 8 7.32 8 8 C3.38 8 -1.24 8 -6 8 C-6 7.34 -6 6.68 -6 6 C-4.68 6 -3.36 6 -2 6 C-1.855625 5.38125 -1.71125 4.7625 -1.5625 4.125 C-1 2 -1 2 0 0 Z " fill="#3F4146" transform="translate(187,54)"/>
<path d="M0 0 C3 1 3 1 4.0625 3 C4.371875 3.66 4.68125 4.32 5 5 C8.06429776 6.53214888 10.6165642 6.22938548 14 6 C16.87146994 4.63002843 16.87146994 4.63002843 19 3 C18.05275873 5.36810318 17.34708866 6.75207953 15.25 8.25 C12.25035738 9.24988087 10.15310017 9.37837202 7 9 C3.6875 7.3125 3.6875 7.3125 1 5 C0.125 2.25 0.125 2.25 0 0 Z " fill="#2F3137" transform="translate(303,54)"/>
<path d="M0 0 C0.33 0 0.66 0 1 0 C1 4.62 1 9.24 1 14 C2.65 14 4.3 14 6 14 C6 14.66 6 15.32 6 16 C1.38 16 -3.24 16 -8 16 C-8 15.34 -8 14.68 -8 14 C-2.25 12.875 -2.25 12.875 0 14 C0 9.38 0 4.76 0 0 Z " fill="#3A3B41" transform="translate(341,46)"/>
<path d="M0 0 C0.99 0.33 1.98 0.66 3 1 C2.67 1.66 2.34 2.32 2 3 C1.01 3.33 0.02 3.66 -1 4 C-0.01 4.99 0.98 5.98 2 7 C1.195625 6.855625 0.39125 6.71125 -0.4375 6.5625 C-4.61359481 5.90311661 -8.79598059 5.43908647 -13 5 C-13 4.34 -13 3.68 -13 3 C-12.22914063 2.95101562 -11.45828125 2.90203125 -10.6640625 2.8515625 C-9.66117187 2.77679688 -8.65828125 2.70203125 -7.625 2.625 C-6.62726563 2.55539063 -5.62953125 2.48578125 -4.6015625 2.4140625 C-1.84491121 2.23636036 -1.84491121 2.23636036 0 0 Z " fill="#515358" transform="translate(355,41)"/>
<path d="M0 0 C0.66 0.66 1.32 1.32 2 2 C1.625 5.125 1.625 5.125 1 8 C1.99 8.33 2.98 8.66 4 9 C4 9.66 4 10.32 4 11 C0.37 11 -3.26 11 -7 11 C-7 10.34 -7 9.68 -7 9 C-6.37609375 8.91878906 -5.7521875 8.83757813 -5.109375 8.75390625 C-2.8507553 8.20570556 -2.8507553 8.20570556 -1.953125 6.15234375 C-1.60507812 5.05599609 -1.60507812 5.05599609 -1.25 3.9375 C-1.00765625 3.20402344 -0.7653125 2.47054687 -0.515625 1.71484375 C-0.34546875 1.14894531 -0.1753125 0.58304688 0 0 Z " fill="#3F4146" transform="translate(413,51)"/>
<path d="M0 0 C0.66 0 1.32 0 2 0 C2 4.29 2 8.58 2 13 C1.34 13 0.68 13 0 13 C0 11.35 0 9.7 0 8 C-2.97 7.67 -5.94 7.34 -9 7 C-9 6.67 -9 6.34 -9 6 C-4.545 5.505 -4.545 5.505 0 5 C0 3.35 0 1.7 0 0 Z " fill="#414246" transform="translate(130,38)"/>
<path d="M0 0 C5.61 0 11.22 0 17 0 C18.1577506 3.47325181 18.06866652 6.36067448 18 10 C17.7525 9.4225 17.505 8.845 17.25 8.25 C15.76289001 5.57320201 14.37089031 3.95438255 12 2 C8.96777222 1.30602551 8.96777222 1.30602551 5.75 1.25 C4.67234375 1.19328125 3.5946875 1.1365625 2.484375 1.078125 C1.25460938 1.03945313 1.25460938 1.03945313 0 1 C0 0.67 0 0.34 0 0 Z " fill="#2B2D33" transform="translate(122,29)"/>
<path d="M0 0 C0.33 0 0.66 0 1 0 C1.08159574 4.16138263 0.98248524 7.9472484 0 12 C-2.64 12 -5.28 12 -8 12 C-7.236875 11.505 -6.47375 11.01 -5.6875 10.5 C-2.17518641 7.23273154 -1.43675644 4.5371256 0 0 Z " fill="#393B41" transform="translate(469,49)"/>
<path d="M0 0 C-0.78375 0.5775 -1.5675 1.155 -2.375 1.75 C-6.63206513 5.39891297 -7.25346513 8.52541092 -8 14 C-8.33 14 -8.66 14 -9 14 C-9.81065912 10.93448232 -10.30367552 8.17057826 -10 5 C-7.29715825 1.16272608 -4.66674674 -1.55558225 0 0 Z " fill="#1C1E24" transform="translate(272,29)"/>
<path d="M0 0 C6.26079448 -0.43177893 9.09075703 0.07260562 14 4 C13.67 4.99 13.34 5.98 13 7 C12.505 6.360625 12.01 5.72125 11.5 5.0625 C8.85278003 2.87854352 8.07424847 2.68536386 4.8125 2.375 C3.554375 2.25125 2.29625 2.1275 1 2 C0.67 1.34 0.34 0.68 0 0 Z " fill="#4F5055" transform="translate(271,27)"/>
<path d="M0 0 C0.66 0 1.32 0 2 0 C1.34 3.96 0.68 7.92 0 12 C-1.32 12 -2.64 12 -4 12 C-3.71125 11.505 -3.4225 11.01 -3.125 10.5 C-1.58711584 7.08247965 -0.85152195 3.6493798 0 0 Z " fill="#404146" transform="translate(140,49)"/>
<path d="M0 0 C1.32 0 2.64 0 4 0 C3.34 1.98 2.68 3.96 2 6 C-2.29 6 -6.58 6 -11 6 C-10.67 5.01 -10.34 4.02 -10 3 C-10 3.66 -10 4.32 -10 5 C-6.37 5 -2.74 5 1 5 C0.67 3.35 0.34 1.7 0 0 Z " fill="#181A21" transform="translate(181,44)"/>
<path d="M0 0 C2.475 0.495 2.475 0.495 5 1 C4.6875 2.9375 4.6875 2.9375 4 5 C3.01 5.33 2.02 5.66 1 6 C0 5 0 5 -0.0625 2.4375 C-0.041875 1.633125 -0.02125 0.82875 0 0 Z " fill="#1F2026" transform="translate(233,54)"/>
<path d="M0 0 C0.33 3.63 0.66 7.26 1 11 C0.34 11 -0.32 11 -1 11 C-1.103125 9.906875 -1.20625 8.81375 -1.3125 7.6875 C-1.97307727 4.14440371 -2.2027092 3.06756277 -5 1 C-1.125 0 -1.125 0 0 0 Z " fill="#505156" transform="translate(70,29)"/>
<path d="M0 0 C0.33 0 0.66 0 1 0 C1.02698189 1.62490954 1.04638757 3.24994633 1.0625 4.875 C1.07410156 5.77992187 1.08570313 6.68484375 1.09765625 7.6171875 C1 10 1 10 0 12 C-2.0625 12.625 -2.0625 12.625 -4 13 C-4 12.01 -4 11.02 -4 10 C-2.68 9.67 -1.36 9.34 0 9 C0 6.03 0 3.06 0 0 Z " fill="#171A22" transform="translate(290,41)"/>
<path d="M0 0 C1.35432675 1.31200404 2.68733482 2.64631404 4 4 C4 4.33 4 4.66 4 5 C2.35 5 0.7 5 -1 5 C-1.66 3.68 -2.32 2.36 -3 1 C-2.01 0.67 -1.02 0.34 0 0 Z " fill="#282A30" transform="translate(383,36)"/>
<path d="M0 0 C0.33 0.66 0.66 1.32 1 2 C4.3 2 7.6 2 11 2 C11 2.33 11 2.66 11 3 C9.95199219 3.09087891 9.95199219 3.09087891 8.8828125 3.18359375 C7.97273438 3.26738281 7.06265625 3.35117187 6.125 3.4375 C5.22007812 3.51871094 4.31515625 3.59992187 3.3828125 3.68359375 C0.98889139 3.86989285 0.98889139 3.86989285 -1 5 C-0.67 3.35 -0.34 1.7 0 0 Z " fill="#1A1C22" transform="translate(415,47)"/>
</svg>
