<?xml version="1.0" encoding="UTF-8" standalone="no"?>
<svg
   xmlns:dc="http://purl.org/dc/elements/1.1/"
   xmlns:cc="http://creativecommons.org/ns#"
   xmlns:rdf="http://www.w3.org/1999/02/22-rdf-syntax-ns#"
   xmlns:svg="http://www.w3.org/2000/svg"
   xmlns="http://www.w3.org/2000/svg"
   xmlns:sodipodi="http://sodipodi.sourceforge.net/DTD/sodipodi-0.dtd"
   xmlns:inkscape="http://www.inkscape.org/namespaces/inkscape"
   width="317.81052"
   height="117.53595"
   viewBox="0 0 84.087364 31.098055"
   version="1.1"
   id="svg8"
   inkscape:version="1.0 (4035a4fb49, 2020-05-01)"
   sodipodi:docname="WFLA.svg">
  <defs
     id="defs2" />
  <sodipodi:namedview
     inkscape:pagecheckerboard="true"
     id="base"
     pagecolor="#ffffff"
     bordercolor="#666666"
     borderopacity="1.0"
     inkscape:pageopacity="0.0"
     inkscape:pageshadow="2"
     inkscape:zoom="1.984106"
     inkscape:cx="166.46676"
     inkscape:cy="44.918138"
     inkscape:document-units="px"
     inkscape:current-layer="layer1"
     inkscape:document-rotation="0"
     showgrid="true"
     units="px"
     inkscape:window-width="1280"
     inkscape:window-height="961"
     inkscape:window-x="-8"
     inkscape:window-y="-8"
     inkscape:window-maximized="1"
     inkscape:snap-text-baseline="true"
     inkscape:snap-global="false"
     inkscape:snap-smooth-nodes="true"
     fit-margin-top="0"
     fit-margin-left="0"
     fit-margin-right="0"
     fit-margin-bottom="0">
    <inkscape:grid
       type="xygrid"
       id="grid833"
       originx="7.5199105e-15"
       originy="-1.8520838" />
  </sodipodi:namedview>
  <metadata
     id="metadata5">
    <rdf:RDF>
      <cc:Work
         rdf:about="">
        <dc:format>image/svg+xml</dc:format>
        <dc:type
           rdf:resource="http://purl.org/dc/dcmitype/StillImage" />
        <dc:title></dc:title>
      </cc:Work>
    </rdf:RDF>
  </metadata>
  <g
     inkscape:label="レイヤー 1"
     inkscape:groupmode="layer"
     id="layer1"
     transform="translate(-24.738541,-23.01875)">
    <g
       aria-label="News"
       id="text865"
       style="font-style:normal;font-weight:normal;font-size:12.555px;line-height:125%;font-family:sans-serif;letter-spacing:-0.859896px;word-spacing:0px;fill:#000000;fill-opacity:1;stroke:none;stroke-width:0.264582px;stroke-linecap:butt;stroke-linejoin:miter;stroke-opacity:1">
      <path
         d="m 45.364219,38.761486 h -2.268237 l -3.874395,-6.265239 v 6.265239 h -2.157891 v -9.128123 h 2.813841 l 3.328791,5.229207 v -5.229207 h 2.157891 z"
         style="font-style:normal;font-variant:normal;font-weight:bold;font-stretch:normal;font-family:Verdana;-inkscape-font-specification:'Verdana Bold';fill:#000000;fill-opacity:1;stroke-width:0.264582px"
         id="path906" />
      <path
         d="m 53.503708,35.726952 h -5.051426 q 0.04904,0.809209 0.613037,1.238335 0.570125,0.429126 1.673592,0.429126 0.698862,0 1.354812,-0.251345 0.65595,-0.251345 1.036033,-0.539473 h 0.245214 v 1.771678 q -0.747905,0.300388 -1.409985,0.435256 -0.66208,0.134868 -1.465159,0.134868 -2.072065,0 -3.175532,-0.931816 -1.103467,-0.931817 -1.103467,-2.654451 0,-1.704243 1.042163,-2.697363 1.048294,-0.999251 2.869014,-0.999251 1.679722,0 2.525713,0.852122 0.845991,0.845991 0.845991,2.439888 z m -2.194673,-1.293508 q -0.01839,-0.692732 -0.3433,-1.042163 -0.32491,-0.349431 -1.011512,-0.349431 -0.637558,0 -1.048293,0.33104 -0.410735,0.33104 -0.459778,1.060554 z"
         style="font-style:normal;font-variant:normal;font-weight:bold;font-stretch:normal;font-family:Verdana;-inkscape-font-specification:'Verdana Bold';fill:#000000;fill-opacity:1;stroke-width:0.264582px"
         id="path908" />
      <path
         d="m 65.180422,31.877079 -2.133369,6.884407 h -2.341802 l -1.403855,-4.640691 -1.379334,4.640691 h -2.372453 l -2.114978,-6.884407 h 2.31728 l 1.177031,4.744907 1.471289,-4.744907 h 1.955589 l 1.397724,4.744907 1.158641,-4.744907 z"
         style="font-style:normal;font-variant:normal;font-weight:bold;font-stretch:normal;font-family:Verdana;-inkscape-font-specification:'Verdana Bold';fill:#000000;fill-opacity:1;stroke-width:0.264582px"
         id="path910" />
      <path
         d="m 71.634059,36.579074 q 0,1.066684 -0.956337,1.722634 -0.956338,0.64982 -2.617669,0.64982 -0.919556,0 -1.667461,-0.171651 -0.747905,-0.17165 -1.201553,-0.380083 v -1.81459 h 0.202303 q 0.16552,0.116477 0.380083,0.257476 0.220693,0.134868 0.619167,0.294258 0.343301,0.140998 0.778557,0.245215 0.435257,0.09808 0.931817,0.09808 0.649819,0 0.962468,-0.140998 0.312649,-0.147129 0.312649,-0.429126 0,-0.251345 -0.183911,-0.361692 -0.183911,-0.116477 -0.698863,-0.220693 -0.245214,-0.05517 -0.66821,-0.116477 -0.416865,-0.06743 -0.760166,-0.15939 -0.937947,-0.245215 -1.391594,-0.760166 -0.453648,-0.521082 -0.453648,-1.293508 0,-0.993121 0.937947,-1.64907 0.944077,-0.66208 2.574756,-0.66208 0.772427,0 1.477419,0.159389 0.711123,0.15326 1.109598,0.33104 v 1.741026 h -0.190042 q -0.49043,-0.337171 -1.121858,-0.545603 -0.625298,-0.214563 -1.268987,-0.214563 -0.533342,0 -0.901164,0.147129 -0.361692,0.147129 -0.361692,0.416865 0,0.245215 0.16552,0.373953 0.16552,0.128737 0.778557,0.257475 0.33717,0.06743 0.723384,0.134868 0.392344,0.0613 0.784687,0.15939 0.870513,0.226824 1.287378,0.717253 0.416865,0.4843 0.416865,1.213814 z"
         style="font-style:normal;font-variant:normal;font-weight:bold;font-stretch:normal;font-family:Verdana;-inkscape-font-specification:'Verdana Bold';fill:#000000;fill-opacity:1;stroke-width:0.264582px"
         id="path912" />
    </g>
    <g
       aria-label="Channel"
       id="text869"
       style="font-style:normal;font-weight:normal;font-size:12.555px;line-height:125%;font-family:sans-serif;letter-spacing:-0.926042px;word-spacing:0px;fill:#000000;fill-opacity:1;stroke:none;stroke-width:0.264582px;stroke-linecap:butt;stroke-linejoin:miter;stroke-opacity:1">
      <path
         d="m 29.397623,47.67059 q -1.017641,0 -1.882024,-0.300388 -0.858252,-0.300388 -1.477419,-0.895034 -0.619168,-0.594646 -0.962468,-1.48355 -0.337171,-0.888904 -0.337171,-2.053675 0,-1.085075 0.32491,-1.967849 0.324909,-0.882773 0.944077,-1.514201 0.594646,-0.606907 1.471289,-0.937947 0.882774,-0.33104 1.924937,-0.33104 0.576255,0 1.036032,0.06743 0.465909,0.0613 0.858252,0.16552 0.410735,0.116477 0.741775,0.263606 0.337171,0.140998 0.588516,0.263606 v 2.213064 h -0.269736 q -0.171651,-0.147129 -0.435257,-0.349431 -0.257475,-0.202303 -0.588515,-0.398474 -0.337171,-0.196172 -0.729515,-0.331041 -0.392343,-0.134868 -0.83986,-0.134868 -0.496561,0 -0.944078,0.15939 -0.447517,0.153259 -0.8276,0.514951 -0.361692,0.349431 -0.588515,0.925686 -0.220694,0.576255 -0.220694,1.397725 0,0.858252 0.239085,1.434507 0.245215,0.576255 0.613037,0.907295 0.373952,0.33717 0.83373,0.484299 0.459778,0.140999 0.907295,0.140999 0.429126,0 0.845992,-0.128738 0.422995,-0.128738 0.778557,-0.349431 0.300388,-0.177781 0.557863,-0.380083 0.257476,-0.202303 0.422996,-0.349432 h 0.245215 v 2.182413 q -0.343301,0.153259 -0.65595,0.288127 -0.312649,0.134868 -0.65595,0.232954 -0.447517,0.128738 -0.83986,0.196172 -0.392344,0.06743 -1.078946,0.06743 z"
         style="font-style:normal;font-variant:normal;font-weight:bold;font-stretch:normal;font-family:Verdana;-inkscape-font-specification:'Verdana Bold';fill:#000000;fill-opacity:1;stroke-width:0.264582px"
         id="path891" />
      <path
         d="M 40.235764,47.492809 H 38.01657 v -3.414616 q 0,-0.416866 -0.04291,-0.827601 -0.04291,-0.416865 -0.147129,-0.613037 -0.122607,-0.226823 -0.361691,-0.33104 -0.232955,-0.104216 -0.65595,-0.104216 -0.300388,0 -0.613037,0.09809 -0.306519,0.09809 -0.668211,0.312649 v 4.879775 h -2.206933 v -9.538857 h 2.206933 v 3.414616 q 0.588516,-0.459777 1.127989,-0.704992 0.545603,-0.245215 1.207683,-0.245215 1.115727,0 1.741025,0.649819 0.631428,0.64982 0.631428,1.943328 z"
         style="font-style:normal;font-variant:normal;font-weight:bold;font-stretch:normal;font-family:Verdana;-inkscape-font-specification:'Verdana Bold';fill:#000000;fill-opacity:1;stroke-width:0.264582px"
         id="path893" />
      <path
         d="m 45.513659,45.696611 v -1.434507 q -0.447517,0.03678 -0.968599,0.104216 -0.521082,0.0613 -0.790818,0.147129 -0.33104,0.104216 -0.508821,0.306518 -0.17165,0.196172 -0.17165,0.521082 0,0.214563 0.03678,0.349431 0.03678,0.134868 0.183911,0.257476 0.140999,0.122607 0.337171,0.183911 0.196172,0.05517 0.613037,0.05517 0.33104,0 0.66821,-0.134868 0.343301,-0.134868 0.600777,-0.355561 z m 0,1.066684 q -0.177781,0.134868 -0.441387,0.32491 -0.263606,0.190041 -0.49656,0.300388 -0.32491,0.147129 -0.674341,0.214563 -0.349431,0.07356 -0.766296,0.07356 -0.98086,0 -1.64294,-0.606906 -0.66208,-0.606907 -0.66208,-1.550984 0,-0.754036 0.33717,-1.232205 0.337171,-0.478169 0.956338,-0.754036 0.613037,-0.275866 1.520332,-0.392343 0.907295,-0.116477 1.882024,-0.171651 v -0.03678 q 0,-0.570124 -0.465908,-0.784687 -0.465908,-0.220694 -1.373203,-0.220694 -0.545603,0 -1.164771,0.196172 -0.619167,0.190042 -0.888903,0.294258 h -0.202303 v -1.661331 q 0.349432,-0.09195 1.134119,-0.214563 0.790818,-0.128737 1.581636,-0.128737 1.882024,0 2.715754,0.582385 0.839861,0.576255 0.839861,1.81459 v 4.683603 h -2.188542 z"
         style="font-style:normal;font-variant:normal;font-weight:bold;font-stretch:normal;font-family:Verdana;-inkscape-font-specification:'Verdana Bold';fill:#000000;fill-opacity:1;stroke-width:0.264582px"
         id="path895" />
      <path
         d="m 55.720369,47.492809 h -2.219194 v -3.414616 q 0,-0.416866 -0.04291,-0.827601 -0.04291,-0.416865 -0.147129,-0.613037 -0.122607,-0.226823 -0.361692,-0.33104 -0.232954,-0.104216 -0.655949,-0.104216 -0.300388,0 -0.613037,0.09809 -0.306519,0.09809 -0.668211,0.312649 v 4.879775 H 48.80531 v -6.884407 h 2.206934 v 0.760166 q 0.588516,-0.459777 1.127988,-0.704992 0.545603,-0.245215 1.207684,-0.245215 1.115727,0 1.741025,0.649819 0.631428,0.64982 0.631428,1.943328 z"
         style="font-style:normal;font-variant:normal;font-weight:bold;font-stretch:normal;font-family:Verdana;-inkscape-font-specification:'Verdana Bold';fill:#000000;fill-opacity:1;stroke-width:0.264582px"
         id="path897" />
      <path
         d="m 63.744671,47.492809 h -2.219195 v -3.414616 q 0,-0.416866 -0.04291,-0.827601 -0.04291,-0.416865 -0.147129,-0.613037 -0.122608,-0.226823 -0.361692,-0.33104 -0.232954,-0.104216 -0.65595,-0.104216 -0.300388,0 -0.613037,0.09809 -0.306518,0.09809 -0.66821,0.312649 v 4.879775 h -2.206934 v -6.884407 h 2.206934 v 0.760166 q 0.588515,-0.459777 1.127988,-0.704992 0.545603,-0.245215 1.207683,-0.245215 1.115728,0 1.741026,0.649819 0.631428,0.64982 0.631428,1.943328 z"
         style="font-style:normal;font-variant:normal;font-weight:bold;font-stretch:normal;font-family:Verdana;-inkscape-font-specification:'Verdana Bold';fill:#000000;fill-opacity:1;stroke-width:0.264582px"
         id="path899" />
      <path
         d="m 71.634102,44.458276 h -5.051426 q 0.04904,0.809209 0.613037,1.238335 0.570125,0.429126 1.673592,0.429126 0.698862,0 1.354812,-0.251346 0.65595,-0.251345 1.036033,-0.539472 h 0.245214 v 1.771677 q -0.747905,0.300388 -1.409985,0.435256 -0.66208,0.134868 -1.465159,0.134868 -2.072065,0 -3.175532,-0.931816 -1.103467,-0.931816 -1.103467,-2.654451 0,-1.704243 1.042163,-2.697363 1.048294,-0.999251 2.869014,-0.999251 1.679722,0 2.525713,0.852122 0.845991,0.845991 0.845991,2.439888 z m -2.194673,-1.293509 q -0.01839,-0.692732 -0.3433,-1.042163 -0.32491,-0.349431 -1.011512,-0.349431 -0.637558,0 -1.048293,0.33104 -0.410735,0.33104 -0.459778,1.060554 z"
         style="font-style:normal;font-variant:normal;font-weight:bold;font-stretch:normal;font-family:Verdana;-inkscape-font-specification:'Verdana Bold';fill:#000000;fill-opacity:1;stroke-width:0.264582px"
         id="path901" />
      <path
         d="m 74.472108,47.492809 h -2.206934 v -9.538857 h 2.206934 z"
         style="font-style:normal;font-variant:normal;font-weight:bold;font-stretch:normal;font-family:Verdana;-inkscape-font-specification:'Verdana Bold';fill:#000000;fill-opacity:1;stroke-width:0.264582px"
         id="path903" />
    </g>
    <g
       aria-label="on your side"
       id="text873"
       style="font-style:normal;font-weight:normal;font-size:5.30769px;line-height:125%;font-family:sans-serif;letter-spacing:-0.198437px;word-spacing:0px;fill:#000000;fill-opacity:1;stroke:none;stroke-width:0.264582px;stroke-linecap:butt;stroke-linejoin:miter;stroke-opacity:1">
      <path
         d="m 43.801264,51.595132 q 0,0.717886 -0.419847,1.13255 -0.417254,0.412071 -1.174015,0.412071 -0.756761,0 -1.176607,-0.412071 -0.417255,-0.414664 -0.417255,-1.13255 0,-0.723069 0.419847,-1.13514 0.422438,-0.412072 1.174015,-0.412072 0.761944,0 1.176607,0.414663 0.417255,0.414664 0.417255,1.132549 z m -1.148099,0.70752 q 0.09071,-0.111441 0.134766,-0.26694 0.04665,-0.15809 0.04665,-0.435396 0,-0.256573 -0.04665,-0.430213 -0.04665,-0.173641 -0.129583,-0.277307 -0.08293,-0.106257 -0.199556,-0.150315 -0.116624,-0.04406 -0.25139,-0.04406 -0.134766,0 -0.241023,0.03628 -0.103666,0.03628 -0.199557,0.145132 -0.08552,0.101074 -0.137357,0.277306 -0.04924,0.176232 -0.04924,0.443172 0,0.238431 0.04406,0.414663 0.04406,0.17364 0.129582,0.279898 0.08293,0.101074 0.196965,0.147723 0.116624,0.04665 0.264348,0.04665 0.126991,0 0.241023,-0.04147 0.116624,-0.04406 0.196965,-0.145132 z"
         style="font-style:normal;font-variant:normal;font-weight:bold;font-stretch:normal;font-family:Verdana;-inkscape-font-specification:'Verdana Bold';fill:#000000;fill-opacity:1;stroke-width:0.264582px"
         id="path915" />
      <path
         d="m 47.200031,53.049046 h -0.938176 v -1.443547 q 0,-0.176232 -0.01814,-0.349872 -0.01814,-0.176232 -0.0622,-0.259165 -0.05183,-0.09589 -0.152907,-0.139949 -0.09848,-0.04406 -0.277306,-0.04406 -0.12699,0 -0.259164,0.04147 -0.129583,0.04147 -0.28249,0.132174 v 2.06295 h -0.932992 v -2.910418 h 0.932992 v 0.321364 q 0.248798,-0.194374 0.476863,-0.29804 0.230656,-0.103665 0.510554,-0.103665 0.47168,0 0.736028,0.274714 0.266939,0.274714 0.266939,0.821552 z"
         style="font-style:normal;font-variant:normal;font-weight:bold;font-stretch:normal;font-family:Verdana;-inkscape-font-specification:'Verdana Bold';fill:#000000;fill-opacity:1;stroke-width:0.264582px"
         id="path917" />
      <path
         d="m 50.791699,52.020162 0.663461,-1.881534 h 0.958909 l -1.617187,3.978176 h -1.010741 l 0.461313,-1.088492 -1.132549,-2.889684 h 0.979642 z"
         style="font-style:normal;font-variant:normal;font-weight:bold;font-stretch:normal;font-family:Verdana;-inkscape-font-specification:'Verdana Bold';fill:#000000;fill-opacity:1;stroke-width:0.264582px"
         id="path919" />
      <path
         d="m 55.706579,51.595132 q 0,0.717886 -0.419846,1.13255 -0.417255,0.412071 -1.174016,0.412071 -0.75676,0 -1.176607,-0.412071 -0.417255,-0.414664 -0.417255,-1.13255 0,-0.723069 0.419847,-1.13514 0.422438,-0.412072 1.174015,-0.412072 0.761944,0 1.176607,0.414663 0.417255,0.414664 0.417255,1.132549 z m -1.148099,0.70752 q 0.09071,-0.111441 0.134766,-0.26694 0.04665,-0.15809 0.04665,-0.435396 0,-0.256573 -0.04665,-0.430213 -0.04665,-0.173641 -0.129582,-0.277307 -0.08293,-0.106257 -0.199557,-0.150315 -0.116624,-0.04406 -0.25139,-0.04406 -0.134765,0 -0.241023,0.03628 -0.103665,0.03628 -0.199556,0.145132 -0.08552,0.101074 -0.137358,0.277306 -0.04924,0.176232 -0.04924,0.443172 0,0.238431 0.04406,0.414663 0.04406,0.17364 0.129582,0.279898 0.08293,0.101074 0.196965,0.147723 0.116625,0.04665 0.264348,0.04665 0.126991,0 0.241023,-0.04147 0.116624,-0.04406 0.196965,-0.145132 z"
         style="font-style:normal;font-variant:normal;font-weight:bold;font-stretch:normal;font-family:Verdana;-inkscape-font-specification:'Verdana Bold';fill:#000000;fill-opacity:1;stroke-width:0.264582px"
         id="path921" />
      <path
         d="m 59.082021,53.049046 h -0.932992 v -0.321364 q -0.259165,0.196965 -0.474271,0.30063 -0.215107,0.101075 -0.513146,0.101075 -0.482046,0 -0.743802,-0.277307 -0.259165,-0.277306 -0.259165,-0.81896 v -1.894492 h 0.938176 v 1.443546 q 0,0.22029 0.01296,0.368014 0.01555,0.145132 0.06738,0.241023 0.04924,0.09589 0.147724,0.139949 0.101074,0.04406 0.279897,0.04406 0.119216,0 0.264348,-0.04406 0.145132,-0.04406 0.279898,-0.129583 v -2.062949 h 0.932992 z"
         style="font-style:normal;font-variant:normal;font-weight:bold;font-stretch:normal;font-family:Verdana;-inkscape-font-specification:'Verdana Bold';fill:#000000;fill-opacity:1;stroke-width:0.264582px"
         id="path923" />
      <path
         d="m 61.876935,51.027562 h -0.08293 q -0.05961,-0.02073 -0.191782,-0.0311 -0.132174,-0.01037 -0.22029,-0.01037 -0.199556,0 -0.352463,0.02592 -0.152907,0.02592 -0.329139,0.08812 v 1.948918 h -0.932993 v -2.910418 h 0.932993 v 0.427621 q 0.308406,-0.264348 0.53647,-0.349872 0.228065,-0.08812 0.419847,-0.08812 0.04924,0 0.111441,0.0026 0.0622,0.0026 0.108849,0.0078 z"
         style="font-style:normal;font-variant:normal;font-weight:bold;font-stretch:normal;font-family:Verdana;-inkscape-font-specification:'Verdana Bold';fill:#000000;fill-opacity:1;stroke-width:0.264582px"
         id="path925" />
      <path
         d="m 66.357538,52.12642 q 0,0.450946 -0.404297,0.728252 -0.404296,0.274715 -1.106632,0.274715 -0.388747,0 -0.704928,-0.07257 -0.316181,-0.07257 -0.507962,-0.160682 v -0.767127 h 0.08552 q 0.06997,0.04924 0.160682,0.108849 0.0933,0.05702 0.261756,0.124399 0.145132,0.05961 0.329139,0.103666 0.184007,0.04147 0.39393,0.04147 0.274715,0 0.406889,-0.05961 0.132173,-0.0622 0.132173,-0.181415 0,-0.106258 -0.07775,-0.152907 -0.07775,-0.04924 -0.295447,-0.0933 -0.103666,-0.02332 -0.28249,-0.04924 -0.176232,-0.02851 -0.321364,-0.06738 -0.396522,-0.103666 -0.588303,-0.321364 -0.191782,-0.22029 -0.191782,-0.546837 0,-0.419847 0.396522,-0.697153 0.399113,-0.279897 1.088491,-0.279897 0.326547,0 0.624586,0.06738 0.300631,0.06479 0.469088,0.139949 v 0.736028 h -0.08034 q -0.207332,-0.142541 -0.474271,-0.230657 -0.264348,-0.09071 -0.536471,-0.09071 -0.225473,0 -0.380972,0.0622 -0.152907,0.0622 -0.152907,0.176232 0,0.103666 0.06997,0.15809 0.06997,0.05443 0.329139,0.108849 0.14254,0.02851 0.305814,0.05702 0.165865,0.02592 0.331731,0.06738 0.368013,0.09589 0.544245,0.303223 0.176232,0.20474 0.176232,0.513146 z"
         style="font-style:normal;font-variant:normal;font-weight:bold;font-stretch:normal;font-family:Verdana;-inkscape-font-specification:'Verdana Bold';fill:#000000;fill-opacity:1;stroke-width:0.264582px"
         id="path927" />
      <path
         d="m 67.714087,53.049046 h -0.932992 v -2.910418 h 0.932992 z m 0.02592,-3.325082 h -0.984826 v -0.707519 h 0.984826 z"
         style="font-style:normal;font-variant:normal;font-weight:bold;font-stretch:normal;font-family:Verdana;-inkscape-font-specification:'Verdana Bold';fill:#000000;fill-opacity:1;stroke-width:0.264582px"
         id="path929" />
      <path
         d="m 71.226887,53.049046 h -0.932993 v -0.303223 q -0.241023,0.196965 -0.450946,0.290264 -0.209923,0.0933 -0.484638,0.0933 -0.531287,0 -0.850059,-0.40948 -0.318773,-0.40948 -0.318773,-1.104041 0,-0.370606 0.106258,-0.655687 0.108849,-0.287672 0.295447,-0.492412 0.176232,-0.194374 0.427622,-0.300631 0.251389,-0.108849 0.502779,-0.108849 0.261756,0 0.427622,0.05702 0.168457,0.05442 0.344688,0.139949 v -1.238807 h 0.932993 z m -0.932993,-0.803411 v -1.427996 q -0.09848,-0.04147 -0.207331,-0.05961 -0.108849,-0.01814 -0.199557,-0.01814 -0.368014,0 -0.55202,0.230657 -0.184007,0.228065 -0.184007,0.634953 0,0.427621 0.147724,0.621995 0.147723,0.191782 0.474271,0.191782 0.12699,0 0.269531,-0.04665 0.14254,-0.04924 0.251389,-0.126991 z"
         style="font-style:normal;font-variant:normal;font-weight:bold;font-stretch:normal;font-family:Verdana;-inkscape-font-specification:'Verdana Bold';fill:#000000;fill-opacity:1;stroke-width:0.264582px"
         id="path931" />
      <path
         d="m 74.77597,51.766181 h -2.135516 q 0.02073,0.342097 0.259165,0.523512 0.241023,0.181416 0.707519,0.181416 0.295448,0 0.572754,-0.106258 0.277306,-0.106257 0.437988,-0.228065 h 0.103666 v 0.748986 q -0.316181,0.126991 -0.596079,0.184007 -0.279898,0.05702 -0.619403,0.05702 -0.875976,0 -1.342473,-0.39393 -0.466496,-0.39393 -0.466496,-1.122183 0,-0.720477 0.44058,-1.140324 0.443171,-0.422438 1.21289,-0.422438 0.710111,0 1.067758,0.360239 0.357647,0.357647 0.357647,1.031475 z m -0.927809,-0.546837 q -0.0078,-0.292856 -0.145132,-0.44058 -0.137357,-0.147724 -0.427622,-0.147724 -0.269531,0 -0.443171,0.139949 -0.17364,0.139949 -0.194373,0.448355 z"
         style="font-style:normal;font-variant:normal;font-weight:bold;font-stretch:normal;font-family:Verdana;-inkscape-font-specification:'Verdana Bold';fill:#000000;fill-opacity:1;stroke-width:0.264582px"
         id="path933" />
    </g>
    <path
       id="path875"
       style="fill:#000000;fill-opacity:1;stroke-width:2;stroke-linecap:square"
       d="m 341,87 c -25.26702,0 -45.75,11.976371 -45.75,26.75 0,14.77362 20.48298,26.75 45.75,26.75 25.26702,0 45.75,-11.97638 45.75,-26.75 C 386.75,98.976371 366.26702,87 341,87 Z m 0,14 c 9.38884,0 17,4.701 17,10.5 0,5.79899 -7.61116,10.5 -17,10.5 -9.38883,0 -17,-4.70101 -17,-10.5 0,-5.799 7.61117,-10.5 17,-10.5 z"
       transform="scale(0.26458333)" />
    <path
       id="path882"
       style="fill:#000000;fill-opacity:1;stroke-width:2;stroke-linecap:square"
       d="m 341,130 c -28.99494,0 -52.5,13.87915 -52.5,31 0,17.12083 23.50506,31 52.5,31 28.99494,0 52.5,-13.87917 52.5,-31 0,-17.12085 -23.50505,-31 -52.5,-31 z m 0,17 c 11.87412,0 21.5,5.93221 21.5,13.25 0,7.31776 -9.62588,13.25 -21.5,13.25 -11.87411,0 -21.5,-5.93224 -21.5,-13.25 0,-7.31779 9.62589,-13.25 21.5,-13.25 z"
       transform="scale(0.26458333)" />
    <g
       id="g1002"
       style="stroke:none;stroke-width:14.747"
       transform="matrix(0.06781052,0,0,0.06781052,87.475484,40.025142)">
      <path
         style="fill:#ffffff;stroke:none;stroke-width:6.87923"
         d="M 182.55366,9.3514758 C 178.42854,-0.94709949 168.38,-12.069486 149.56109,-10.54175 c -23.9731,2.6062482 -31.44431,25.580603 -27.82113,39.286847 -9.548,-6.465473 -25.783522,-9.308696 -39.954852,2.83016 -18.296914,18.3417 -8.510539,43.146073 1.548263,49.096081 -11.085534,-1.026734 -28.605287,6.464072 -32.481306,26.058282 -4.123255,24.3281 14.422764,38.51062 32.481306,38.51062 H 283.58625 c 20.88263,0 32.46918,-18.06554 31.16908,-35.10295 -2.0488,-22.235911 -22.39638,-30.767445 -33.49544,-28.939759 9.27324,-5.173311 21.6584,-29.476679 2.82643,-48.58248 -14.9485,-14.218909 -34.00578,-9.045599 -40.70636,-2.843689 3.61245,-11.87809 -2.3105,-36.4314956 -26.55649,-40.315444 -1.67608,-0.187061 -3.28965,-0.287821 -4.82765,-0.287821 -18.50823,0.0023 -26.83031,13.5317778 -29.44216,20.1833788"
         inkscape:connector-curvature="0"
         id="path3113" />
      <path
         style="fill:#f37021;stroke:none;stroke-width:6.87923"
         d="M 85.120472,35.446611 C 74.547605,45.017472 70.699575,66.703396 89.758727,79.380576 L 165.79241,131.54519 128.92569,47.084463 C 121.20071,27.153453 100.0671,22.807217 85.120472,35.446611"
         inkscape:connector-curvature="0"
         id="path3115" />
      <path
         style="fill:#cc004c;stroke:none;stroke-width:6.87923"
         d="M 150.57056,-5.6180074 C 138.21152,-5.3665725 119.65291,9.3514758 127.91202,31.825759 l 38.12949,89.924661 13.39837,-94.583907 C 182.5406,3.6645648 164.75495,-7.1839954 150.57056,-5.6180074"
         inkscape:connector-curvature="0"
         id="path3117" />
      <path
         style="fill:#6460aa;stroke:none;stroke-width:6.87923"
         d="m 185.39082,23.559657 h 7.20952 c 0,0 3.85036,0 4.37422,1.816024 -2.83716,2.317027 -10.55981,2.60718 -9.53494,14.983944 l 12.12066,81.378205 37.8692,-90.161173 c 7.74598,-20.131133 -8.51287,-36.9436959 -22.93563,-37.4577618 -0.67314,-0.048514 -1.34954,-0.087699 -2.0488,-0.087699 -12.94541,0 -27.77961,9.4080566 -27.05423,29.5284608"
         inkscape:connector-curvature="0"
         id="path3119" />
      <path
         style="fill:#0089d0;stroke:none;stroke-width:6.87923"
         d="m 235.90501,47.849963 -35.81853,83.447527 76.01176,-52.439844 c 17.52162,-12.428078 14.69565,-32.297511 4.88782,-42.118407 -4.11206,-4.622393 -11.66164,-8.193331 -19.65952,-8.193331 -9.44817,-0.0019 -19.55969,5.010041 -25.42153,19.304055"
         inkscape:connector-curvature="0"
         id="path3121" />
      <path
         style="fill:#0db14b;stroke:none;stroke-width:6.87923"
         d="m 267.5877,90.731537 -71.38424,49.861123 h 87.89405 c 18.03242,0 29.62082,-18.5936 24.46897,-35.65527 -3.45012,-10.724013 -13.6582,-19.142655 -25.50643,-19.154784 -4.98672,0.0019 -10.27572,1.504413 -15.47235,4.948931"
         inkscape:connector-curvature="0"
         id="path3123" />
      <path
         style="fill:#fcb711;stroke:none;stroke-width:6.87923"
         d="M 83.071674,140.59266 H 169.6689 L 98.267401,90.731537 C 81.772049,80.133014 63.223697,86.334458 56.527781,103.92185 c -5.675716,20.13347 8.495613,36.67081 26.543893,36.67081"
         inkscape:connector-curvature="0"
         id="path3125" />
    </g>
  </g>
</svg>
