<?xml version="1.0" encoding="UTF-8"?>
<svg version="1.1" xmlns="http://www.w3.org/2000/svg" width="300" height="100">
<path d="M0 0 C1.65322266 0.01740234 1.65322266 0.01740234 3.33984375 0.03515625 C4.99693359 0.04869141 4.99693359 0.04869141 6.6875 0.0625 C7.54214844 0.07410156 8.39679688 0.08570313 9.27734375 0.09765625 C9.27734375 0.75765625 9.27734375 1.41765625 9.27734375 2.09765625 C7.95734375 2.42765625 6.63734375 2.75765625 5.27734375 3.09765625 C5.27734375 10.68765625 5.27734375 18.27765625 5.27734375 26.09765625 C7.25734375 25.76765625 9.23734375 25.43765625 11.27734375 25.09765625 C11.27734375 21.46765625 11.27734375 17.83765625 11.27734375 14.09765625 C10.61734375 13.76765625 9.95734375 13.43765625 9.27734375 13.09765625 C9.60734375 12.10765625 9.93734375 11.11765625 10.27734375 10.09765625 C13.33582223 9.55392674 16.1650718 9.09765625 19.27734375 9.09765625 C20.54578125 9.03578125 20.54578125 9.03578125 21.83984375 8.97265625 C24.27734375 9.09765625 24.27734375 9.09765625 26.27734375 11.09765625 C26.66530679 14.73480978 26.7851992 18.3535967 26.93359375 22.0078125 C27.04703125 23.02746094 27.16046875 24.04710938 27.27734375 25.09765625 C27.93734375 25.42765625 28.59734375 25.75765625 29.27734375 26.09765625 C29.27734375 26.75765625 29.27734375 27.41765625 29.27734375 28.09765625 C18.38734375 28.09765625 7.49734375 28.09765625 -3.72265625 28.09765625 C-3.39265625 27.43765625 -3.06265625 26.77765625 -2.72265625 26.09765625 C-1.73265625 26.09765625 -0.74265625 26.09765625 0.27734375 26.09765625 C0.19675526 22.30509953 0.08389058 18.51418533 -0.03515625 14.72265625 C-0.05771484 13.64242187 -0.08027344 12.5621875 -0.10351562 11.44921875 C-0.13896484 10.41796875 -0.17441406 9.38671875 -0.2109375 8.32421875 C-0.23712158 7.37111816 -0.26330566 6.41801758 -0.2902832 5.43603516 C-0.43296631 4.66437012 -0.57564941 3.89270508 -0.72265625 3.09765625 C-1.71265625 2.43765625 -2.70265625 1.77765625 -3.72265625 1.09765625 C-2.72265625 0.09765625 -2.72265625 0.09765625 0 0 Z M16.27734375 14.09765625 C16.27734375 18.05765625 16.27734375 22.01765625 16.27734375 26.09765625 C18.25734375 26.09765625 20.23734375 26.09765625 22.27734375 26.09765625 C22.27734375 21.80765625 22.27734375 17.51765625 22.27734375 13.09765625 C18.50095055 12.79951385 18.50095055 12.79951385 16.27734375 14.09765625 Z " fill="#2A588F" transform="translate(104.72265625,35.90234375)"/>
<path d="M0 0 C0 0.66 0 1.32 0 2 C0.99 1.34 1.98 0.68 3 0 C6.0625 -0.25 6.0625 -0.25 9 0 C9.66 0.66 10.32 1.32 11 2 C11.66 1.34 12.32 0.68 13 0 C18.14160234 -0.54697897 18.14160234 -0.54697897 20.6796875 1.0703125 C22.71140478 4.03974544 22.28492255 6.6478141 22.1875 10.1875 C22.16042969 11.45980469 22.13335937 12.73210938 22.10546875 14.04296875 C22.07066406 15.01878906 22.03585937 15.99460937 22 17 C22.66 17 23.32 17 24 17 C24 17.66 24 18.32 24 19 C17.4 19 10.8 19 4 19 C4 18.34 4 17.68 4 17 C4.99 17 5.98 17 7 17 C6.67 16.34 6.34 15.68 6 15 C5.92966231 13.12620395 5.9156978 11.24998898 5.9375 9.375 C5.94652344 8.37210938 5.95554687 7.36921875 5.96484375 6.3359375 C5.97644531 5.56507812 5.98804688 4.79421875 6 4 C4.02 4.33 2.04 4.66 0 5 C0 8.96 0 12.92 0 17 C0.99 17 1.98 17 3 17 C3 17.66 3 18.32 3 19 C-0.3 19 -3.6 19 -7 19 C-7 18.34 -7 17.68 -7 17 C-6.01 17 -5.02 17 -4 17 C-4 12.71 -4 8.42 -4 4 C-4.99 4 -5.98 4 -7 4 C-6.67 3.01 -6.34 2.02 -6 1 C-3 0 -3 0 0 0 Z M12 4 C10.68737429 5.08552366 10.68737429 5.08552366 10.90234375 7.72265625 C10.91394531 8.82480469 10.92554688 9.92695312 10.9375 11.0625 C10.94652344 12.16722656 10.95554687 13.27195312 10.96484375 14.41015625 C10.97644531 15.26480469 10.98804688 16.11945312 11 17 C12.98 17 14.96 17 17 17 C17 12.71 17 8.42 17 4 C15.35 4 13.7 4 12 4 Z " fill="#054082" transform="translate(265,45)"/>
<path d="M0 0 C0 1.98 0 3.96 0 6 C4.28353761 7.16823753 7.65066834 6.69899973 12 6 C13.66628955 5.96454703 15.33409803 5.94951812 17 6 C17.33 7.32 17.66 8.64 18 10 C13.125 11 13.125 11 12 11 C11.67 14.96 11.34 18.92 11 23 C11.99 23 12.98 23 14 23 C14 23.66 14 24.32 14 25 C11.02077407 25.02683987 8.04178705 25.04676037 5.0625 25.0625 C3.78729492 25.07506836 3.78729492 25.07506836 2.48632812 25.08789062 C1.67744141 25.09111328 0.86855469 25.09433594 0.03515625 25.09765625 C-0.7137085 25.10289307 -1.46257324 25.10812988 -2.23413086 25.11352539 C-4 25 -4 25 -5 24 C-5.07313567 21.46950598 -5.09247527 18.96695163 -5.0625 16.4375 C-5.05798828 15.72658203 -5.05347656 15.01566406 -5.04882812 14.28320312 C-5.03700864 12.52209987 -5.01907263 10.76103964 -5 9 C-5.99 9 -6.98 9 -8 9 C-6.97208168 5.91624505 -6.29893164 5.12209075 -4 3 C-3.46375 2.443125 -2.9275 1.88625 -2.375 1.3125 C-1 0 -1 0 0 0 Z M0 9 C0 13.29 0 17.58 0 22 C1.32 21.67 2.64 21.34 4 21 C4 21.66 4 22.32 4 23 C4.66 23 5.32 23 6 23 C6 18.71 6 14.42 6 10 C3.03 9.505 3.03 9.505 0 9 Z " fill="#0E5899" transform="translate(38,39)"/>
<path d="M0 0 C0.01981934 0.71655762 0.03963867 1.43311523 0.06005859 2.17138672 C0.15509519 5.4063063 0.26486019 8.64056094 0.375 11.875 C0.4059375 13.00292969 0.436875 14.13085938 0.46875 15.29296875 C0.50742188 16.36933594 0.54609375 17.44570313 0.5859375 18.5546875 C0.63306885 20.04718018 0.63306885 20.04718018 0.68115234 21.56982422 C0.77247083 24.17854517 0.77247083 24.17854517 3 26 C-0.53236092 28.35490728 -2.24720368 28.32743705 -6.4375 28.375 C-7.57058594 28.40335938 -8.70367187 28.43171875 -9.87109375 28.4609375 C-13 28 -13 28 -15.375 26.25 C-17.65072139 23.09900115 -17.63297389 21.04622352 -17.4453125 17.26171875 C-16.64802927 13.21235917 -15.18932934 11.64646477 -12 9 C-8.1875 8.625 -8.1875 8.625 -5 9 C-5 7.02 -5 5.04 -5 3 C-5.99 3 -6.98 3 -8 3 C-8 2.34 -8 1.68 -8 1 C-5.07175348 0.02391783 -3.04386724 -0.08226668 0 0 Z M-9 11 C-10.66641006 11.990755 -10.66641006 11.990755 -12 14 C-12.59395522 17.65510906 -12.69506728 20.85313899 -10.75 24.0625 C-8.71526441 25.40475402 -8.71526441 25.40475402 -5 24 C-5 20.37 -5 16.74 -5 13 C-6.32 12.34 -7.64 11.68 -9 11 Z " fill="#0B498A" transform="translate(178,36)"/>
<path d="M0 0 C2.18517571 0.30215964 2.18517571 0.30215964 4.97265625 -0.84375 C4.97265625 2.45625 4.97265625 5.75625 4.97265625 9.15625 C4.31265625 9.15625 3.65265625 9.15625 2.97265625 9.15625 C1.48765625 6.18625 1.48765625 6.18625 -0.02734375 3.15625 C-2.00734375 3.15625 -3.98734375 3.15625 -6.02734375 3.15625 C-5.95250866 5.55229287 -5.95250866 5.55229287 -5.02734375 8.15625 C-2.54246888 10.02638101 -2.54246888 10.02638101 0.47265625 11.53125 C5.79849321 14.71705624 5.79849321 14.71705624 7.41015625 18.78125 C6.87645965 22.89833804 5.96592921 24.3075796 2.97265625 27.15625 C-0.48046875 27.64453125 -0.48046875 27.64453125 -4.27734375 27.46875 C-5.540625 27.42363281 -6.80390625 27.37851563 -8.10546875 27.33203125 C-9.0696875 27.27402344 -10.03390625 27.21601562 -11.02734375 27.15625 C-11.02734375 23.85625 -11.02734375 20.55625 -11.02734375 17.15625 C-10.36734375 17.15625 -9.70734375 17.15625 -9.02734375 17.15625 C-8.36734375 19.13625 -7.70734375 21.11625 -7.02734375 23.15625 C-4.71734375 23.48625 -2.40734375 23.81625 -0.02734375 24.15625 C0.30265625 22.50625 0.63265625 20.85625 0.97265625 19.15625 C0.19019531 18.66253906 -0.59226562 18.16882813 -1.3984375 17.66015625 C-2.91630859 16.69916016 -2.91630859 16.69916016 -4.46484375 15.71875 C-5.47417969 15.08066406 -6.48351562 14.44257812 -7.5234375 13.78515625 C-10.02734375 12.15625 -10.02734375 12.15625 -11.02734375 11.15625 C-11.50046203 3.82291667 -11.50046203 3.82291667 -9.65234375 1.21875 C-6.15229621 -1.06974262 -4.11791104 -0.67733864 0 0 Z " fill="#1E5490" transform="translate(22.02734375,36.84375)"/>
<path d="M0 0 C2.9375 1.3125 2.9375 1.3125 5 4 C5.84228885 8.86902066 5.91947923 13.28097361 3.5625 17.6875 C-0.31502195 19.67354783 -3.74330991 19.85588253 -8 19 C-11.0432531 17.0125694 -12.62073803 15.67958873 -13.4375 12.0625 C-13.67021319 8.22273235 -13.23162678 6.36288196 -11.125 3.0625 C-7.52072687 -0.4357651 -4.96784874 -0.42100413 0 0 Z M-5 2 C-6.64570159 3.05630262 -6.64570159 3.05630262 -8 5 C-8.55733091 10.0159782 -7.9673946 12.91983243 -5 17 C-3.35 16.67 -1.7 16.34 0 16 C0.89388075 11.93690569 1.21232802 9.57328566 -0.25 5.625 C-1.79352592 2.72774657 -1.79352592 2.72774657 -5 2 Z " fill="#125AA1" transform="translate(252,45)"/>
<path d="M0 0 C2.3125 1.1875 2.3125 1.1875 4 3 C4.33 4.65 4.66 6.3 5 8 C0.71 8 -3.58 8 -8 8 C-7.34 9.98 -6.68 11.96 -6 14 C-3.36 14 -0.72 14 2 14 C2.33 13.01 2.66 12.02 3 11 C3.66 11 4.32 11 5 11 C3.25 16.75 3.25 16.75 1 19 C-2.05880091 19.560977 -4.93649813 19.51693193 -8 19 C-10.70879965 16.8858149 -11.7230135 15.44616111 -12.37109375 12.0625 C-12.61174259 8.21211862 -12.24270904 6.38024417 -10.125 3.0625 C-6.76755439 -0.19619721 -4.626608 -0.37012864 0 0 Z M-5 2 C-6.63676257 3.9600281 -6.63676257 3.9600281 -8 6 C-5.69 6 -3.38 6 -1 6 C-1.66 4.68 -2.32 3.36 -3 2 C-3.66 2 -4.32 2 -5 2 Z " fill="#3D5180" transform="translate(85,45)"/>
<path d="M0 0 C2.4375 1.75 2.4375 1.75 4 4 C4 5.32 4 6.64 4 8 C0.04 8 -3.92 8 -8 8 C-7.01 9.98 -6.02 11.96 -5 14 C-2.58380177 14.25030977 -2.58380177 14.25030977 0 14 C0.66 13.01 1.32 12.02 2 11 C2.66 11 3.32 11 4 11 C3.65447612 13.55687669 3.24912987 15.57501375 1.9375 17.8125 C-1.22809101 19.75270094 -4.45639832 19.60604858 -8 19 C-10.5 17.625 -10.5 17.625 -12 15 C-12.9033534 9.89820412 -12.82482914 6.24974112 -9.9375 1.875 C-6.25105703 -0.4780487 -4.29864534 -0.70341469 0 0 Z M-6 2 C-6.66 3.32 -7.32 4.64 -8 6 C-6.02 6 -4.04 6 -2 6 C-2 5.01 -2 4.02 -2 3 C-3.32 2.67 -4.64 2.34 -6 2 Z " fill="#19518E" transform="translate(68,45)"/>
<path d="M0 0 C2.4375 1.75 2.4375 1.75 4 4 C4 5.32 4 6.64 4 8 C0.04 8 -3.92 8 -8 8 C-7.01 9.98 -6.02 11.96 -5 14 C-2.58380177 14.25030977 -2.58380177 14.25030977 0 14 C0.66 13.01 1.32 12.02 2 11 C2.66 11 3.32 11 4 11 C3.65447612 13.55687669 3.24912987 15.57501375 1.9375 17.8125 C-1.22809101 19.75270094 -4.45639832 19.60604858 -8 19 C-10.5 17.625 -10.5 17.625 -12 15 C-12.9033534 9.89820412 -12.82482914 6.24974112 -9.9375 1.875 C-6.25105703 -0.4780487 -4.29864534 -0.70341469 0 0 Z M-8 4 C-8 4.66 -8 5.32 -8 6 C-5.69 6 -3.38 6 -1 6 C-1.66 4.68 -2.32 3.36 -3 2 C-5.32357511 1.81509993 -5.32357511 1.81509993 -8 4 Z " fill="#17518E" transform="translate(193,45)"/>
<path d="M0 0 C1.22589844 0.01353516 1.22589844 0.01353516 2.4765625 0.02734375 C3.41628906 0.04474609 3.41628906 0.04474609 4.375 0.0625 C4.375 2.3725 4.375 4.6825 4.375 7.0625 C3.385 6.7325 2.395 6.4025 1.375 6.0625 C1.375 5.0725 1.375 4.0825 1.375 3.0625 C0.055 3.0625 -1.265 3.0625 -2.625 3.0625 C-2.955 4.0525 -3.285 5.0425 -3.625 6.0625 C-2.696875 6.330625 -1.76875 6.59875 -0.8125 6.875 C3.78383978 8.58736188 3.78383978 8.58736188 5.375 11.0625 C5.6875 14.125 5.6875 14.125 5.375 17.0625 C3.375 19.0625 3.375 19.0625 0.7734375 19.2578125 C-0.22429687 19.23460938 -1.22203125 19.21140625 -2.25 19.1875 C-3.75433594 19.16042969 -3.75433594 19.16042969 -5.2890625 19.1328125 C-6.05992187 19.10960938 -6.83078125 19.08640625 -7.625 19.0625 C-7.625 16.7525 -7.625 14.4425 -7.625 12.0625 C-6.635 12.3925 -5.645 12.7225 -4.625 13.0625 C-4.625 14.0525 -4.625 15.0425 -4.625 16.0625 C-2.975 16.0625 -1.325 16.0625 0.375 16.0625 C-0.9613414 12.05347581 -3.11927032 11.25358105 -6.625 9.0625 C-6.955 8.7325 -7.285 8.4025 -7.625 8.0625 C-7.3125 4.5625 -7.3125 4.5625 -6.625 1.0625 C-4.21954362 -0.14022819 -2.67503047 -0.03821472 0 0 Z " fill="#114683" transform="translate(142.625,44.9375)"/>
<path d="M0 0 C0.99 0.66 1.98 1.32 3 2 C2.67 3.65 2.34 5.3 2 7 C0.0625 6.6875 0.0625 6.6875 -2 6 C-2.33 5.01 -2.66 4.02 -3 3 C-4.32 3 -5.64 3 -7 3 C-7.04125 4.258125 -7.0825 5.51625 -7.125 6.8125 C-7.14820313 7.52019531 -7.17140625 8.22789063 -7.1953125 8.95703125 C-7.13254462 11.31359719 -7.13254462 11.31359719 -5 14 C-2.5 14.5 -2.5 14.5 0 14 C0.66 13.01 1.32 12.02 2 11 C2.66 11 3.32 11 4 11 C2.25 16.75 2.25 16.75 0 19 C-6.95067265 19.67264574 -6.95067265 19.67264574 -10.4375 17.4375 C-12.52988801 14.17337471 -12.93322356 11.87303352 -13 8 C-10.35544395 0.99192647 -7.365046 -0.52607471 0 0 Z " fill="#2D5C92" transform="translate(234,45)"/>
<path d="M0 0 C1.65322266 0.01740234 1.65322266 0.01740234 3.33984375 0.03515625 C4.99693359 0.04869141 4.99693359 0.04869141 6.6875 0.0625 C7.54214844 0.07410156 8.39679688 0.08570313 9.27734375 0.09765625 C9.27734375 0.75765625 9.27734375 1.41765625 9.27734375 2.09765625 C7.95734375 2.42765625 6.63734375 2.75765625 5.27734375 3.09765625 C5.27734375 11.34765625 5.27734375 19.59765625 5.27734375 28.09765625 C2.30734375 28.09765625 -0.66265625 28.09765625 -3.72265625 28.09765625 C-3.39265625 27.43765625 -3.06265625 26.77765625 -2.72265625 26.09765625 C-1.73265625 26.09765625 -0.74265625 26.09765625 0.27734375 26.09765625 C0.19675526 22.30509953 0.08389058 18.51418533 -0.03515625 14.72265625 C-0.05771484 13.64242187 -0.08027344 12.5621875 -0.10351562 11.44921875 C-0.13896484 10.41796875 -0.17441406 9.38671875 -0.2109375 8.32421875 C-0.23712158 7.37111816 -0.26330566 6.41801758 -0.2902832 5.43603516 C-0.43296631 4.66437012 -0.57564941 3.89270508 -0.72265625 3.09765625 C-1.71265625 2.43765625 -2.70265625 1.77765625 -3.72265625 1.09765625 C-2.72265625 0.09765625 -2.72265625 0.09765625 0 0 Z " fill="#184588" transform="translate(104.72265625,35.90234375)"/>
<path d="M0 0 C0.89203125 0.01804688 1.7840625 0.03609375 2.703125 0.0546875 C3.71632812 0.08949219 3.71632812 0.08949219 4.75 0.125 C5.08 1.445 5.41 2.765 5.75 4.125 C3.67446352 4.6784764 1.90634036 5.125 -0.25 5.125 C-0.58 9.085 -0.91 13.045 -1.25 17.125 C-0.26 17.125 0.73 17.125 1.75 17.125 C1.75 17.785 1.75 18.445 1.75 19.125 C-1.88 19.125 -5.51 19.125 -9.25 19.125 C-9.25 18.465 -9.25 17.805 -9.25 17.125 C-8.26 17.125 -7.27 17.125 -6.25 17.125 C-6.25 12.835 -6.25 8.545 -6.25 4.125 C-7.24 4.125 -8.23 4.125 -9.25 4.125 C-9.25 3.465 -9.25 2.805 -9.25 2.125 C-6.03817851 0.21891902 -3.71117397 -0.09766247 0 0 Z " fill="#1E4483" transform="translate(206.25,44.875)"/>
<path d="M0 0 C0.66 0 1.32 0 2 0 C2 1.65 2 3.3 2 5 C3.32 5 4.64 5 6 5 C6 5.99 6 6.98 6 8 C4.68 8 3.36 8 2 8 C2 12.29 2 16.58 2 21 C3.65 20.67 5.3 20.34 7 20 C6.34 21.32 5.68 22.64 5 24 C3.00045254 24.04254356 0.99958364 24.04080783 -1 24 C-2 23 -2 23 -2.09765625 19.62109375 C-2.09098369 18.22652923 -2.07902532 16.83198257 -2.0625 15.4375 C-2.05798828 14.72658203 -2.05347656 14.01566406 -2.04882812 13.28320312 C-2.03700864 11.52209987 -2.01907263 9.76103964 -2 8 C-2.99 8 -3.98 8 -5 8 C-3.63055898 5.05043472 -2.12169591 2.47531189 0 0 Z " fill="#06417F" transform="translate(95,40)"/>
<path d="M0 0 C0 5.61 0 11.22 0 17 C0.99 17 1.98 17 3 17 C3 17.66 3 18.32 3 19 C-0.3 19 -3.6 19 -7 19 C-7 18.34 -7 17.68 -7 17 C-6.34 17 -5.68 17 -5 17 C-5 13.04 -5 9.08 -5 5 C-5.66 4.67 -6.32 4.34 -7 4 C-6.67 3.01 -6.34 2.02 -6 1 C-3 0 -3 0 0 0 Z " fill="#2C4E8E" transform="translate(157,45)"/>
<path d="M0 0 C1.13480527 3.60993172 1.10015767 6.9842327 1.0625 10.75 C1.05347656 11.92046875 1.04445313 13.0909375 1.03515625 14.296875 C1.02355469 15.18890625 1.01195312 16.0809375 1 17 C1.99 17 2.98 17 4 17 C4 17.66 4 18.32 4 19 C0.7 19 -2.6 19 -6 19 C-6 18.34 -6 17.68 -6 17 C-5.01 17 -4.02 17 -3 17 C-3 12.71 -3 8.42 -3 4 C-3.99 4 -4.98 4 -6 4 C-5.67 3.01 -5.34 2.02 -5 1 C-2 0 -2 0 0 0 Z " fill="#174887" transform="translate(264,45)"/>
<path d="M0 0 C1.67578125 1.07421875 1.67578125 1.07421875 3 3 C3.29296875 6.35546875 3.29296875 6.35546875 3.1875 10.1875 C3.16042969 11.45980469 3.13335937 12.73210938 3.10546875 14.04296875 C3.07066406 15.01878906 3.03585937 15.99460937 3 17 C2.01 16.67 1.02 16.34 0 16 C-0.33 12.04 -0.66 8.08 -1 4 C-2.98 4.33 -4.96 4.66 -7 5 C-7.33 8.96 -7.66 12.92 -8 17 C-8.33 17 -8.66 17 -9 17 C-9.08097324 14.72975032 -9.13917704 12.45867925 -9.1875 10.1875 C-9.22230469 8.92292969 -9.25710938 7.65835938 -9.29296875 6.35546875 C-9 3 -9 3 -7.67578125 1.07421875 C-5.05188653 -0.60776504 -3.03195448 -0.37899431 0 0 Z " fill="#0C4B96" transform="translate(284,45)"/>
<path d="M0 0 C0.66 0.33 1.32 0.66 2 1 C2 4.3 2 7.6 2 11 C1.34 11 0.68 11 0 11 C-0.33 11.66 -0.66 12.32 -1 13 C-2.65 12.67 -4.3 12.34 -6 12 C-6.33 15.3 -6.66 18.6 -7 22 C-7.33 22 -7.66 22 -8 22 C-8.33 20.02 -8.66 18.04 -9 16 C-10.20561184 16.98267859 -10.20561184 16.98267859 -10.09765625 18.84765625 C-10.08605469 19.57855469 -10.07445312 20.30945313 -10.0625 21.0625 C-10.041875 22.361875 -10.02125 23.66125 -10 25 C-10.66 24.67 -11.32 24.34 -12 24 C-12.46425354 19.35746456 -12.80175799 15.34075353 -9.9375 11.4375 C-7 9 -7 9 -3.1875 8.625 C-2.135625 8.74875 -1.08375 8.8725 0 9 C0 7.02 0 5.04 0 3 C-0.99 3 -1.98 3 -3 3 C-3 2.34 -3 1.68 -3 1 C-2.01 0.67 -1.02 0.34 0 0 Z " fill="#445C87" transform="translate(173,36)"/>
<path d="M0 0 C0.99 0 1.98 0 3 0 C3 8.25 3 16.5 3 25 C2.01 24.67 1.02 24.34 0 24 C-0.09087891 22.96939453 -0.09087891 22.96939453 -0.18359375 21.91796875 C-0.26738281 21.01691406 -0.35117188 20.11585937 -0.4375 19.1875 C-0.51871094 18.29417969 -0.59992188 17.40085937 -0.68359375 16.48046875 C-0.93489767 13.87256441 -0.93489767 13.87256441 -2 11 C-1.34 11 -0.68 11 0 11 C-0.08378906 10.28972656 -0.16757813 9.57945313 -0.25390625 8.84765625 C-0.35574219 7.92855469 -0.45757812 7.00945313 -0.5625 6.0625 C-0.66691406 5.14597656 -0.77132812 4.22945312 -0.87890625 3.28515625 C-0.91886719 2.53105469 -0.95882812 1.77695312 -1 1 C-0.67 0.67 -0.34 0.34 0 0 Z " fill="#0244A3" transform="translate(175,36)"/>
<path d="M0 0 C2.375 -0.125 2.375 -0.125 5 0 C8.40856284 3.40856284 7.4679162 8.27243645 7.65625 12.91015625 C7.82640625 14.43962891 7.82640625 14.43962891 8 16 C8.66 16.33 9.32 16.66 10 17 C10 17.66 10 18.32 10 19 C7.36 19 4.72 19 2 19 C2.66 18.67 3.32 18.34 4 18 C4 13.38 4 8.76 4 4 C2.35 3.67 0.7 3.34 -1 3 C-0.67 2.01 -0.34 1.02 0 0 Z " fill="#024181" transform="translate(124,45)"/>
<path d="M0 0 C0.66 1.32 1.32 2.64 2 4 C4.64 4 7.28 4 10 4 C10.33 3.01 10.66 2.02 11 1 C11.66 1 12.32 1 13 1 C11.25 6.75 11.25 6.75 9 9 C6.90625 9.265625 6.90625 9.265625 4.5 9.25 C3.7059375 9.25515625 2.911875 9.2603125 2.09375 9.265625 C0 9 0 9 -2 7 C-1.60467975 4.54901444 -0.78698574 2.36095721 0 0 Z " fill="#124E8D" transform="translate(77,55)"/>
<path d="M0 0 C2.97 0 5.94 0 9 0 C9.33 1.32 9.66 2.64 10 4 C7.92446352 4.5534764 6.15634036 5 4 5 C3.67 8.96 3.34 12.92 3 17 C2.34 16.67 1.68 16.34 1 16 C0.68758545 13.28553021 0.48663408 10.66090639 0.375 7.9375 C0.33632812 7.17888672 0.29765625 6.42027344 0.2578125 5.63867188 C0.16326438 3.75952805 0.08053244 1.87979664 0 0 Z " fill="#257BBD" transform="translate(202,45)"/>
<path d="M0 0 C0.33 0.66 0.66 1.32 1 2 C1.99 1.34 2.98 0.68 4 0 C7.1875 -0.125 7.1875 -0.125 10 0 C10 3.41775006 9.75017896 6.77881173 9.5 10.1875 C9.4071875 11.45980469 9.314375 12.73210938 9.21875 14.04296875 C9.1465625 15.01878906 9.074375 15.99460937 9 17 C7 15 7 15 6.8046875 12.3984375 C6.82789063 11.40070312 6.85109375 10.40296875 6.875 9.375 C6.89304687 8.37210938 6.91109375 7.36921875 6.9296875 6.3359375 C6.95289063 5.56507812 6.97609375 4.79421875 7 4 C5.02 4.33 3.04 4.66 1 5 C0.67 3.35 0.34 1.7 0 0 Z " fill="#37578C" transform="translate(264,45)"/>
<path d="M0 0 C0.04898438 0.80824219 0.09796875 1.61648437 0.1484375 2.44921875 C0.22320312 3.51785156 0.29796875 4.58648437 0.375 5.6875 C0.44460937 6.74324219 0.51421875 7.79898438 0.5859375 8.88671875 C0.98760089 11.90677269 1.74069019 14.24078054 3 17 C-0.65316671 15.75023244 -1.78065836 15.32901247 -4 12 C-4.55791389 4.97028502 -4.55791389 4.97028502 -2.5625 1.5 C-1 0 -1 0 0 0 Z " fill="#415682" transform="translate(243,47)"/>
<path d="M0 0 C0.66 0.33 1.32 0.66 2 1 C2.125 3.875 2.125 3.875 2 7 C0 9 0 9 -2.6015625 9.1953125 C-3.59929687 9.17210938 -4.59703125 9.14890625 -5.625 9.125 C-7.12933594 9.09792969 -7.12933594 9.09792969 -8.6640625 9.0703125 C-9.43492187 9.04710938 -10.20578125 9.02390625 -11 9 C-11 6.69 -11 4.38 -11 2 C-10.01 2.33 -9.02 2.66 -8 3 C-8 3.99 -8 4.98 -8 6 C-6.35 6 -4.7 6 -3 6 C-3 5.01 -3 4.02 -3 3 C-2.34 3 -1.68 3 -1 3 C-1 3.66 -1 4.32 -1 5 C-0.34 5 0.32 5 1 5 C0.67 3.35 0.34 1.7 0 0 Z " fill="#245B99" transform="translate(146,55)"/>
<path d="M0 0 C2.64 0 5.28 0 8 0 C8.33 1.32 8.66 2.64 9 4 C4.125 5 4.125 5 3 5 C2.67 8.96 2.34 12.92 2 17 C1.67 17 1.34 17 1 17 C0.67 11.39 0.34 5.78 0 0 Z " fill="#1F5796" transform="translate(47,45)"/>
<path d="M0 0 C2.5 1.75 2.5 1.75 4 4 C3.75 6.25 3.75 6.25 3 8 C2.34 7.01 1.68 6.02 1 5 C0.01 5.33 -0.98 5.66 -2 6 C-2 5.01 -2 4.02 -2 3 C-5.93075644 3.57452746 -5.93075644 3.57452746 -9 6 C-9.66 5.67 -10.32 5.34 -11 5 C-8.52149117 -0.48812669 -5.9250931 -0.51078389 0 0 Z " fill="#20508D" transform="translate(68,45)"/>
<path d="M0 0 C0.66 0.33 1.32 0.66 2 1 C2.4140625 3.28515625 2.4140625 3.28515625 2.625 6.0625 C2.69976562 6.98160156 2.77453125 7.90070312 2.8515625 8.84765625 C2.90054688 9.55792969 2.94953125 10.26820312 3 11 C4.65 11.33 6.3 11.66 8 12 C6.19873295 14.27528469 5.3633843 14.94682181 2.4375 15.375 C1.633125 15.25125 0.82875 15.1275 0 15 C-0.66 14.01 -1.32 13.02 -2 12 C-1.67 11.67 -1.34 11.34 -1 11 C-0.76636119 9.15108054 -0.58696365 7.29511969 -0.4375 5.4375 C-0.35371094 4.42558594 -0.26992187 3.41367187 -0.18359375 2.37109375 C-0.12300781 1.58863281 -0.06242188 0.80617187 0 0 Z " fill="#375787" transform="translate(173,49)"/>
<path d="M0 0 C2.375 0.625 2.375 0.625 5 2 C5.66 3.98 6.32 5.96 7 8 C2.71 8 -1.58 8 -6 8 C-6 7.34 -6 6.68 -6 6 C-3.36 6 -0.72 6 2 6 C1.34 4.02 0.68 2.04 0 0 Z " fill="#0B4D8F" transform="translate(83,45)"/>
<path d="M0 0 C1.22589844 0.01353516 1.22589844 0.01353516 2.4765625 0.02734375 C3.41628906 0.04474609 3.41628906 0.04474609 4.375 0.0625 C4.375 2.3725 4.375 4.6825 4.375 7.0625 C3.385 6.7325 2.395 6.4025 1.375 6.0625 C1.375 5.0725 1.375 4.0825 1.375 3.0625 C0.055 3.0625 -1.265 3.0625 -2.625 3.0625 C-3.615 4.5475 -3.615 4.5475 -4.625 6.0625 C-5.615 5.7325 -6.605 5.4025 -7.625 5.0625 C-7.25 3.125 -7.25 3.125 -6.625 1.0625 C-4.21954362 -0.14022819 -2.67503047 -0.03821472 0 0 Z " fill="#36649A" transform="translate(142.625,44.9375)"/>
<path d="M0 0 C2 2 2 2 2.1953125 4.3828125 C2.17210937 5.28773437 2.14890625 6.19265625 2.125 7.125 C2.10695313 8.03507812 2.08890625 8.94515625 2.0703125 9.8828125 C2.04710937 10.58148438 2.02390625 11.28015625 2 12 C3.65 12.33 5.3 12.66 7 13 C7 13.66 7 14.32 7 15 C3.7 15 0.4 15 -3 15 C-3 14.34 -3 13.68 -3 13 C-2.01 13 -1.02 13 0 13 C0 8.71 0 4.42 0 0 Z " fill="#3D5182" transform="translate(282,49)"/>
<path d="M0 0 C0.33 0 0.66 0 1 0 C1 1.65 1 3.3 1 5 C2.32 5 3.64 5 5 5 C5 5.99 5 6.98 5 8 C3.68 8 2.36 8 1 8 C1 12.29 1 16.58 1 21 C2.65 20.67 4.3 20.34 6 20 C5.34 21.32 4.68 22.64 4 24 C2.68 23.34 1.36 22.68 0 22 C0 14.74 0 7.48 0 0 Z " fill="#0963A9" transform="translate(96,40)"/>
<path d="M0 0 C0.66 0 1.32 0 2 0 C2 5.28 2 10.56 2 16 C1.01 16.33 0.02 16.66 -1 17 C-1.02691685 14.54159395 -1.04679802 12.08348118 -1.0625 9.625 C-1.07087891 8.92632812 -1.07925781 8.22765625 -1.08789062 7.5078125 C-1.11328125 2.2265625 -1.11328125 2.2265625 0 0 Z " fill="#143F7E" transform="translate(45,45)"/>
<path d="M0 0 C0.66 0.33 1.32 0.66 2 1 C2.6168993 10.9389332 2.6168993 10.9389332 0.4375 14.6875 C-2.822954 16.44312908 -5.35645778 16.28027248 -9 16 C-9.33 14.68 -9.66 13.36 -10 12 C-9.05125 12.165 -8.1025 12.33 -7.125 12.5 C-4.19831099 13.0526635 -4.19831099 13.0526635 -2 13 C-1.67 12.01 -1.34 11.02 -1 10 C-0.67 10 -0.34 10 0 10 C0 6.7 0 3.4 0 0 Z " fill="#1B69AC" transform="translate(255,48)"/>
<path d="M0 0 C0.33 0.66 0.66 1.32 1 2 C1.92232422 1.89171875 1.92232422 1.89171875 2.86328125 1.78125 C4.07564453 1.64203125 4.07564453 1.64203125 5.3125 1.5 C6.11300781 1.4071875 6.91351563 1.314375 7.73828125 1.21875 C10 1 10 1 13 1 C13 1.99 13 2.98 13 4 C9.04 4 5.08 4 1 4 C0.67 4.66 0.34 5.32 0 6 C-0.38218767 4.34385343 -0.71395102 2.67542976 -1 1 C-0.67 0.67 -0.34 0.34 0 0 Z " fill="#034283" transform="translate(58,49)"/>
<path d="M0 0 C-0.33 3.63 -0.66 7.26 -1 11 C-1.33 11 -1.66 11 -2 11 C-2.33 9.02 -2.66 7.04 -3 5 C-4.20561184 5.98267859 -4.20561184 5.98267859 -4.09765625 7.84765625 C-4.08605469 8.57855469 -4.07445312 9.30945313 -4.0625 10.0625 C-4.041875 11.361875 -4.02125 12.66125 -4 14 C-4.66 13.67 -5.32 13.34 -6 13 C-6.46666667 4.91111111 -6.46666667 4.91111111 -4.6875 1.4375 C-3 0 -3 0 0 0 Z " fill="#476598" transform="translate(167,47)"/>
<path d="M0 0 C2.375 -0.125 2.375 -0.125 5 0 C7.84614024 2.84614024 7.45579076 5.80369142 7.625 9.625 C7.66367188 10.33140625 7.70234375 11.0378125 7.7421875 11.765625 C7.83647724 13.50998524 7.91932891 15.25495691 8 17 C7.34 17 6.68 17 6 17 C5.67 12.38 5.34 7.76 5 3 C3.35 3.33 1.7 3.66 0 4 C0 2.68 0 1.36 0 0 Z " fill="#0B4F96" transform="translate(124,45)"/>
<path d="M0 0 C0.66 0 1.32 0 2 0 C2.2475 0.928125 2.495 1.85625 2.75 2.8125 C4.06454245 6.16458325 4.97963384 7.1877803 8 9 C2.25 10 2.25 10 0 10 C0 6.7 0 3.4 0 0 Z " fill="#29639D" transform="translate(11,54)"/>
<path d="M0 0 C0.625 1.8125 0.625 1.8125 1 4 C0.01 5.485 0.01 5.485 -1 7 C-1.14245897 9.76655324 -1.18769445 12.42653306 -1.125 15.1875 C-1.11597656 15.93708984 -1.10695313 16.68667969 -1.09765625 17.45898438 C-1.07412578 19.30612654 -1.03825561 21.15310412 -1 23 C-1.33 23 -1.66 23 -2 23 C-2 18.05 -2 13.1 -2 8 C-2.99 8 -3.98 8 -5 8 C-3.62845496 5.04590299 -2.01136276 2.55991624 0 0 Z " fill="#3C4B81" transform="translate(95,40)"/>
<path d="M0 0 C0.33 0 0.66 0 1 0 C1 3.63 1 7.26 1 11 C2.32 11 3.64 11 5 11 C5 11.66 5 12.32 5 13 C1.37 13 -2.26 13 -6 13 C-5.67 12.34 -5.34 11.68 -5 11 C-2.4375 10.375 -2.4375 10.375 0 10 C0 6.7 0 3.4 0 0 Z " fill="#0B4A8F" transform="translate(47,51)"/>
<path d="M0 0 C0.66 0 1.32 0 2 0 C2 5.28 2 10.56 2 16 C1.34 16 0.68 16 0 16 C0 11.71 0 7.42 0 3 C-0.66 2.67 -1.32 2.34 -2 2 C-1.34 2 -0.68 2 0 2 C0 1.34 0 0.68 0 0 Z " fill="#003F81" transform="translate(154,45)"/>
<path d="M0 0 C0.33 0 0.66 0 1 0 C1.05399736 1.45792884 1.09279177 2.91642712 1.125 4.375 C1.14820313 5.18710937 1.17140625 5.99921875 1.1953125 6.8359375 C1 9 1 9 -1 11 C-3.68839385 11.26991906 -6.29141936 11.08737357 -9 11 C-6.64046906 8.64046906 -5.22104383 8.50858587 -2 8 C-1.34 5.36 -0.68 2.72 0 0 Z " fill="#064586" transform="translate(26,53)"/>
<path d="M0 0 C0.33 0 0.66 0 1 0 C1 7.92 1 15.84 1 24 C0.67 24 0.34 24 0 24 C-0.09087891 22.96939453 -0.09087891 22.96939453 -0.18359375 21.91796875 C-0.26738281 21.01691406 -0.35117188 20.11585937 -0.4375 19.1875 C-0.51871094 18.29417969 -0.59992188 17.40085937 -0.68359375 16.48046875 C-0.93489767 13.87256441 -0.93489767 13.87256441 -2 11 C-1.34 11 -0.68 11 0 11 C-0.08378906 10.28972656 -0.16757813 9.57945313 -0.25390625 8.84765625 C-0.35574219 7.92855469 -0.45757812 7.00945313 -0.5625 6.0625 C-0.66691406 5.14597656 -0.77132812 4.22945312 -0.87890625 3.28515625 C-0.91886719 2.53105469 -0.95882812 1.77695312 -1 1 C-0.67 0.67 -0.34 0.34 0 0 Z " fill="#013E7D" transform="translate(175,36)"/>
<path d="M0 0 C0.66 0.99 1.32 1.98 2 3 C1.67 3.99 1.34 4.98 1 6 C0.34 5.01 -0.32 4.02 -1 3 C-3.03241727 3.63979849 -3.03241727 3.63979849 -5 5 C-5.81171228 7.55519921 -5.81171228 7.55519921 -6 10 C-6.33 10 -6.66 10 -7 10 C-7.29296875 3.9453125 -7.29296875 3.9453125 -7 2 C-4 0 -4 0 0 0 Z " fill="#2C5B95" transform="translate(83,45)"/>
<path d="M0 0 C0.33 0.99 0.66 1.98 1 3 C0.67 3.66 0.34 4.32 0 5 C-0.07181821 7.71760108 -0.09299506 10.40859388 -0.0625 13.125 C-0.05798828 13.87910156 -0.05347656 14.63320313 -0.04882812 15.41015625 C-0.03703499 17.27347127 -0.01909942 19.13674555 0 21 C-0.33 21 -0.66 21 -1 21 C-1 16.05 -1 11.1 -1 6 C-1.99 6 -2.98 6 -4 6 C-3.0022242 3.00667261 -2.2477975 2.05233685 0 0 Z " fill="#444B81" transform="translate(34,42)"/>
<path d="M0 0 C0 3.3 0 6.6 0 10 C-0.66 10 -1.32 10 -2 10 C-2.99 7.69 -3.98 5.38 -5 3 C-2.25 0 -2.25 0 0 0 Z " fill="#346498" transform="translate(27,36)"/>
<path d="M0 0 C1.65 0 3.3 0 5 0 C5.33 1.32 5.66 2.64 6 4 C4.1875 4.625 4.1875 4.625 2 5 C1.01 4.34 0.02 3.68 -1 3 C-0.67 2.01 -0.34 1.02 0 0 Z " fill="#1C5695" transform="translate(206,45)"/>
<path d="M0 0 C1.32 0 2.64 0 4 0 C4.5625 1.9375 4.5625 1.9375 5 4 C4 5 4 5 1.4375 5.0625 C0.2309375 5.0315625 0.2309375 5.0315625 -1 5 C-0.67 3.35 -0.34 1.7 0 0 Z " fill="#2B5F99" transform="translate(214,59)"/>
<path d="M0 0 C0.66 0 1.32 0 2 0 C2.98844951 3.94647618 2.96191905 7.27392964 2.5625 11.3125 C2.46066406 12.38113281 2.35882813 13.44976562 2.25390625 14.55078125 C2.12822266 15.76314453 2.12822266 15.76314453 2 17 C1.67 17 1.34 17 1 17 C0.67 11.39 0.34 5.78 0 0 Z " fill="#318DCF" transform="translate(47,45)"/>
<path d="M0 0 C1.485 0.99 1.485 0.99 3 2 C3.29296875 4.1640625 3.29296875 4.1640625 3.1875 6.625 C3.16042969 7.44226562 3.13335937 8.25953125 3.10546875 9.1015625 C3.07066406 9.72804688 3.03585937 10.35453125 3 11 C2.34 10.67 1.68 10.34 1 10 C0.5859375 7.71484375 0.5859375 7.71484375 0.375 4.9375 C0.30023438 4.01839844 0.22546875 3.09929688 0.1484375 2.15234375 C0.09945312 1.44207031 0.05046875 0.73179688 0 0 Z " fill="#023F80" transform="translate(253,48)"/>
<path d="M0 0 C1.32 0 2.64 0 4 0 C4.22142255 1.95689659 4.4267568 3.91561952 4.625 5.875 C4.74101562 6.96554688 4.85703125 8.05609375 4.9765625 9.1796875 C4.98429688 10.11039063 4.99203125 11.04109375 5 12 C4.34 12.66 3.68 13.32 3 14 C3.061875 12.989375 3.12375 11.97875 3.1875 10.9375 C2.97357173 6.44500628 1.95386468 3.98914039 0 0 Z " fill="#545B83" transform="translate(249,47)"/>
<path d="M0 0 C0.33 0 0.66 0 1 0 C1 2.64 1 5.28 1 8 C0.01 8 -0.98 8 -2 8 C-2.125 5.125 -2.125 5.125 -2 2 C-1.34 1.34 -0.68 0.68 0 0 Z " fill="#014183" transform="translate(164,51)"/>
<path d="M0 0 C0.99 0.33 1.98 0.66 3 1 C2.19185349 2.33597652 1.37836819 3.668725 0.5625 5 C0.11003906 5.7425 -0.34242188 6.485 -0.80859375 7.25 C-1.20175781 7.8275 -1.59492188 8.405 -2 9 C-2.33 9 -2.66 9 -3 9 C-2.25 2.25 -2.25 2.25 0 0 Z " fill="#405C90" transform="translate(184,46)"/>
<path d="M0 0 C1.32 0 2.64 0 4 0 C3.67 1.65 3.34 3.3 3 5 C1.68 4.67 0.36 4.34 -1 4 C-0.67 2.68 -0.34 1.36 0 0 Z " fill="#335F94" transform="translate(153,36)"/>
<path d="M0 0 C2.72869407 0.03287583 5.2966618 0.56397771 8 1 C8 1.66 8 2.32 8 3 C4.7 2.67 1.4 2.34 -2 2 C-1.34 1.34 -0.68 0.68 0 0 Z " fill="#114986" transform="translate(16,36)"/>
<path d="M0 0 C4 4.75 4 4.75 4 7 C1.525 6.01 1.525 6.01 -1 5 C-0.67 3.35 -0.34 1.7 0 0 Z " fill="#1C4680" transform="translate(242,57)"/>
<path d="M0 0 C0.66 0.33 1.32 0.66 2 1 C2 5.62 2 10.24 2 15 C1.67 15 1.34 15 1 15 C0.93941406 14.31292969 0.87882813 13.62585937 0.81640625 12.91796875 C0.73261719 12.01691406 0.64882812 11.11585937 0.5625 10.1875 C0.48128906 9.29417969 0.40007812 8.40085937 0.31640625 7.48046875 C0.06510233 4.87256441 0.06510233 4.87256441 -1 2 C-0.67 1.34 -0.34 0.68 0 0 Z " fill="#003C7C" transform="translate(201,45)"/>
<path d="M0 0 C0.66 0 1.32 0 2 0 C4 3 4 3 3.625 5.1875 C3.41875 5.785625 3.2125 6.38375 3 7 C2.34 6.01 1.68 5.02 1 4 C0.01 4.33 -0.98 4.66 -2 5 C-2 4.01 -2 3.02 -2 2 C-1.34 2 -0.68 2 0 2 C0 1.34 0 0.68 0 0 Z " fill="#3873AC" transform="translate(68,46)"/>
<path d="M0 0 C1.32 0 2.64 0 4 0 C3.67 1.65 3.34 3.3 3 5 C2.01 5 1.02 5 0 5 C0 3.35 0 1.7 0 0 Z " fill="#095094" transform="translate(233,47)"/>
<path d="M0 0 C0.66 0 1.32 0 2 0 C1.39816251 2.02045442 0.72693904 4.02111039 0 6 C-0.99 6.495 -0.99 6.495 -2 7 C-2.33 5.68 -2.66 4.36 -3 3 C-2.34 3 -1.68 3 -1 3 C-0.67 2.01 -0.34 1.02 0 0 Z " fill="#2465A7" transform="translate(88,56)"/>
<path d="M0 0 C2 3 2 3 1.625 5.6875 C1.41875 6.450625 1.2125 7.21375 1 8 C0.34 8 -0.32 8 -1 8 C-1.04241723 5.66705225 -1.04092937 3.33297433 -1 1 C-0.67 0.67 -0.34 0.34 0 0 Z " fill="#013D85" transform="translate(224,49)"/>
<path d="M0 0 C0.66 1.32 1.32 2.64 2 4 C2.66 3.67 3.32 3.34 4 3 C4.33 4.65 4.66 6.3 5 8 C3.35 7.67 1.7 7.34 0 7 C0 4.69 0 2.38 0 0 Z " fill="#2F67A2" transform="translate(56,50)"/>
</svg>
