<?xml version="1.0" encoding="UTF-8"?>
<svg version="1.1" xmlns="http://www.w3.org/2000/svg" width="300" height="168">
<path d="M0 0 C99 0 198 0 300 0 C300 55.44 300 110.88 300 168 C201 168 102 168 0 168 C0 112.56 0 57.12 0 0 Z " fill="#FEFEFE" transform="translate(0,0)"/>
<path d="M0 0 C4.54144994 -0.11647041 9.08251394 -0.18734502 13.625 -0.25 C15.55279297 -0.30027344 15.55279297 -0.30027344 17.51953125 -0.3515625 C29.40921574 -0.47477167 29.40921574 -0.47477167 34 4 C35.72105424 7.44210849 35.51474617 11.23633647 35 15 C33 17.5625 33 17.5625 31 19 C32.2375 20.2065625 32.2375 20.2065625 33.5 21.4375 C36.29853923 24.81173873 36.73656656 27.55768271 36.49609375 31.87890625 C35.6867262 35.33943049 33.77824909 36.93246579 31 39 C27.82212459 40.0592918 25.57411057 40.11458939 22.23828125 40.09765625 C21.12001953 40.09443359 20.00175781 40.09121094 18.84960938 40.08789062 C17.68236328 40.07951172 16.51511719 40.07113281 15.3125 40.0625 C14.13365234 40.05798828 12.95480469 40.05347656 11.74023438 40.04882812 C8.82677211 40.03703273 5.91341137 40.0205727 3 40 C2.98018066 38.93040039 2.96036133 37.86080078 2.93994141 36.75878906 C2.8637902 32.78524488 2.77508758 28.81206234 2.68261719 24.83886719 C2.64436673 23.12018989 2.60950697 21.40143362 2.578125 19.68261719 C2.53238872 17.2099996 2.47440916 14.73792387 2.4140625 12.265625 C2.40251129 11.49881409 2.39096008 10.73200317 2.37905884 9.94195557 C2.27497731 6.16811648 2.10555954 3.20636084 0 0 Z " fill="#09304E" transform="translate(3,64)"/>
<path d="M0 0 C4.44272233 -1.2619693 8.70735087 -1.96673858 13 0 C18.13760899 4.76417614 21.86822903 10.90662978 25.58056641 16.80175781 C26.95703708 18.93346438 28.47750731 20.97000975 30 23 C30.33 15.41 30.66 7.82 31 0 C33.97 0 36.94 0 40 0 C40 13.2 40 26.4 40 40 C31 40 31 40 28.86425781 38.45874023 C28.39858398 37.74919189 27.93291016 37.03964355 27.453125 36.30859375 C26.91816406 35.52806641 26.38320312 34.74753906 25.83203125 33.94335938 C25.04892578 32.70295898 25.04892578 32.70295898 24.25 31.4375 C23.71246094 30.63763672 23.17492187 29.83777344 22.62109375 29.01367188 C21.60596394 27.50085677 20.60325915 25.97956372 19.61816406 24.44702148 C17.49739816 21.23995501 15.23477759 18.12868863 13 15 C12.67 23.25 12.34 31.5 12 40 C9.36 40 6.72 40 4 40 C3.97812622 38.44889526 3.97812622 38.44889526 3.95581055 36.86645508 C3.89769118 33.01763918 3.82045977 29.16940001 3.73754883 25.32104492 C3.70436345 23.65772892 3.67631166 21.99430204 3.65356445 20.33081055 C3.61990001 17.93490501 3.5675806 15.54000965 3.51171875 13.14453125 C3.50532883 12.4047554 3.4989389 11.66497955 3.49235535 10.90278625 C3.36635638 6.44474346 2.65622839 3.60245177 0 0 Z " fill="#0E3452" transform="translate(76,64)"/>
<path d="M0 0 C4.40056125 -1.30566103 7.61276814 -1.4337359 12 0 C17.66775724 5.03997134 21.83100222 11.71890278 26 18 C27.98 20.97 27.98 20.97 30 24 C30.33 16.08 30.66 8.16 31 0 C33.64 0 36.28 0 39 0 C39 13.2 39 26.4 39 40 C31 40 31 40 28.8203125 38.3046875 C28.26085937 37.50289062 27.70140625 36.70109375 27.125 35.875 C26.15433594 34.52921875 26.15433594 34.52921875 25.1640625 33.15625 C24.44992188 32.1146875 23.73578125 31.073125 23 30 C21.67202451 28.14846748 20.33501178 26.30367679 18.99755859 24.45898438 C16.9805048 21.65207679 14.99329245 18.82383098 13 16 C12.67 23.92 12.34 31.84 12 40 C9.03 40 6.06 40 3 40 C2.98018066 38.93040039 2.96036133 37.86080078 2.93994141 36.75878906 C2.8637902 32.78524488 2.77508758 28.81206234 2.68261719 24.83886719 C2.64436673 23.12018989 2.60950697 21.40143362 2.578125 19.68261719 C2.53238872 17.2099996 2.47440916 14.73792387 2.4140625 12.265625 C2.40251129 11.49881409 2.39096008 10.73200317 2.37905884 9.94195557 C2.27497731 6.16811648 2.10555954 3.20636084 0 0 Z " fill="#0D3351" transform="translate(172,64)"/>
<path d="M0 0 C5.28 0 10.56 0 16 0 C19.48598931 8.33496904 22.93210866 16.68413746 26.3125 25.0625 C26.76689453 26.17560547 27.22128906 27.28871094 27.68945312 28.43554688 C28.11806641 29.49966797 28.54667969 30.56378906 28.98828125 31.66015625 C29.56896362 33.09307007 29.56896362 33.09307007 30.16137695 34.55493164 C31 37 31 37 31 40 C28.03 40 25.06 40 22 40 C20 36 20 36 20 33 C14.06 33 8.12 33 2 33 C1.34 35.31 0.68 37.62 0 40 C-3.3 40 -6.6 40 -10 40 C-8.63099459 36.30118932 -7.26176318 32.60246239 -5.89233398 28.90380859 C-5.2008931 27.03617576 -4.50962454 25.16847913 -3.81835938 23.30078125 C-3.37685547 22.10839844 -2.93535156 20.91601562 -2.48046875 19.6875 C-2.05685059 18.52734375 -1.63323242 17.3671875 -1.19677734 16.171875 C-0.47845281 14.26806588 0.27586076 12.37646399 1.09912109 10.515625 C2.14688835 8.25523959 2.14688835 8.25523959 3 5 C2.01 3.35 1.02 1.7 0 0 Z " fill="#0A314F" transform="translate(266,64)"/>
<path d="M0 0 C2.28256811 1.71329453 3.47991013 3.63741497 4.62890625 6.22265625 C2.37890625 7.84765625 2.37890625 7.84765625 -0.37109375 9.22265625 C-2.43359375 8.53515625 -2.43359375 8.53515625 -4.37109375 7.22265625 C-7.83287671 5.14558648 -10.33477456 4.73829795 -14.37109375 5.22265625 C-17.37795249 6.84173403 -19.62920165 8.27842993 -21.74609375 10.97265625 C-23.20353186 16.21943344 -23.09274431 19.87889313 -20.55859375 24.59765625 C-18.46024126 27.36839948 -18.46024126 27.36839948 -15.37109375 29.22265625 C-8.97140466 29.80061309 -8.97140466 29.80061309 -3.37109375 27.22265625 C-2.55938147 24.66745704 -2.55938147 24.66745704 -2.37109375 22.22265625 C-3.09296875 22.34640625 -3.81484375 22.47015625 -4.55859375 22.59765625 C-7.79743418 22.16581086 -8.17070655 21.69486979 -10.18359375 19.28515625 C-12.37109375 16.22265625 -12.37109375 16.22265625 -12.37109375 15.22265625 C-6.43109375 15.22265625 -0.49109375 15.22265625 5.62890625 15.22265625 C5.78359375 18.81140625 5.78359375 18.81140625 5.94140625 22.47265625 C5.98692627 23.2193457 6.03244629 23.96603516 6.0793457 24.73535156 C6.1171875 26.55078125 6.1171875 26.55078125 5.62890625 30.22265625 C0.88853229 35.07475619 -4.61987985 37.3626521 -11.30859375 37.66015625 C-17.33067205 37.44083929 -21.7636925 35.67100035 -26.1640625 31.5390625 C-31.42966416 25.72313668 -31.73318621 20.88261124 -31.6484375 13.1328125 C-31.1377766 7.77446921 -28.25864323 4.90235178 -24.43359375 1.47265625 C-16.8583465 -4.09283152 -8.27577721 -4.66452897 0 0 Z " fill="#0E3351" transform="translate(248.37109375,66.77734375)"/>
<path d="M0 0 C9.24 0 18.48 0 28 0 C28 2.31 28 4.62 28 7 C21.4 7 14.8 7 8 7 C8 9.97 8 12.94 8 16 C13.28 16 18.56 16 24 16 C24 18.31 24 20.62 24 23 C18.72 23 13.44 23 8 23 C8 26.3 8 29.6 8 33 C14.6 33 21.2 33 28 33 C28 35.31 28 37.62 28 40 C18.76 40 9.52 40 0 40 C0 26.8 0 13.6 0 0 Z " fill="#072D4D" transform="translate(45,64)"/>
<path d="M0 0 C9.9 0 19.8 0 30 0 C30 7.87392883 30 7.87392883 27.11328125 11.59375 C26.50419922 12.39683594 25.89511719 13.19992188 25.26757812 14.02734375 C24.62240234 14.84332031 23.97722656 15.65929687 23.3125 16.5 C22.05832305 18.13520908 20.80441235 19.77062241 19.55078125 21.40625 C18.99044189 22.12103516 18.43010254 22.83582031 17.8527832 23.57226562 C15.4957935 26.66067063 13.25814187 29.83860139 11 33 C17.27 33 23.54 33 30 33 C30 35.31 30 37.62 30 40 C20.1 40 10.2 40 0 40 C0 31.00312175 0 31.00312175 2.4140625 28.03515625 C2.92549805 27.38417969 3.43693359 26.73320313 3.96386719 26.0625 C4.51204102 25.4025 5.06021484 24.7425 5.625 24.0625 C6.72826328 22.66931391 7.82984031 21.27479074 8.9296875 19.87890625 C9.46045898 19.2152002 9.99123047 18.55149414 10.53808594 17.86767578 C13.25736064 14.39365249 15.61629578 10.70798434 18 7 C12.06 7 6.12 7 0 7 C0 4.69 0 2.38 0 0 Z " fill="#0A314F" transform="translate(121,64)"/>
<path d="M0 0 C2.64 0 5.28 0 8 0 C8 13.2 8 26.4 8 40 C5.36 40 2.72 40 0 40 C0 26.8 0 13.6 0 0 Z " fill="#072D4C" transform="translate(158,64)"/>
<path d="M0 0 C2.27024968 -0.08097324 4.54132075 -0.13917704 6.8125 -0.1875 C8.07707031 -0.22230469 9.34164063 -0.25710937 10.64453125 -0.29296875 C14 0 14 0 15.9609375 1.3515625 C17 3 17 3 16.8125 5.5625 C16 8 16 8 14 10 C10.7421875 10.1953125 10.7421875 10.1953125 6.875 10.125 C4.95300781 10.09792969 4.95300781 10.09792969 2.9921875 10.0703125 C1.51105469 10.03550781 1.51105469 10.03550781 0 10 C0 6.7 0 3.4 0 0 Z " fill="#E9EBED" transform="translate(14,87)"/>
<path d="M0 0 C2.10388569 -0.05402274 4.20816714 -0.09280256 6.3125 -0.125 C8.07013672 -0.15980469 8.07013672 -0.15980469 9.86328125 -0.1953125 C13 0 13 0 16 2 C16.3125 4.5 16.3125 4.5 16 7 C14 9 14 9 10.7421875 9.1953125 C9.46601563 9.17210938 8.18984375 9.14890625 6.875 9.125 C4.95300781 9.09792969 4.95300781 9.09792969 2.9921875 9.0703125 C1.51105469 9.03550781 1.51105469 9.03550781 0 9 C0 6.03 0 3.06 0 0 Z " fill="#EBEDEE" transform="translate(14,71)"/>
<path d="M0 0 C3.16074764 1.58037382 3.54298175 4.76378948 4.625 7.9375 C4.85445313 8.58396484 5.08390625 9.23042969 5.3203125 9.89648438 C7 14.71058873 7 14.71058873 7 17 C3.04 17 -0.92 17 -5 17 C-4.35083537 10.99522721 -2.14204997 5.599219 0 0 Z " fill="#F1F2F4" transform="translate(276,73)"/>
</svg>
