<?xml version="1.0" encoding="UTF-8"?>
<svg version="1.1" xmlns="http://www.w3.org/2000/svg" width="398" height="208">
<path d="M0 0 C131.34 0 262.68 0 398 0 C398 68.64 398 137.28 398 208 C266.66 208 135.32 208 0 208 C0 139.36 0 70.72 0 0 Z " fill="#FEFEFE" transform="translate(0,0)"/>
<path d="M0 0 C1.64282641 1.40324756 3.28355522 2.80901944 4.9140625 4.2265625 C6.31897126 5.42099804 7.75257827 6.58238389 9.2109375 7.7109375 C9.92507813 8.28070313 10.63921875 8.85046875 11.375 9.4375 C12.04273438 9.95183594 12.71046875 10.46617188 13.3984375 10.99609375 C17.0334323 15.54427017 16.13851284 22.51991481 16.09765625 28.12109375 C16.0962413 28.86585464 16.09482635 29.61061554 16.09336853 30.37794495 C16.08781989 32.73117273 16.07527733 35.0843015 16.0625 37.4375 C16.05747835 39.04361841 16.05291661 40.64973832 16.04882812 42.25585938 C16.03786735 46.17061043 16.02063884 50.08528849 16 54 C14.824375 54.1546875 14.824375 54.1546875 13.625 54.3125 C10.66954819 54.77595022 10.66954819 54.77595022 9 58 C8.34 58 7.68 58 7 58 C7 59.65 7 61.3 7 63 C6.34 62.67 5.68 62.34 5 62 C4.01 62.99 3.02 63.98 2 65 C2.15597656 64.43410156 2.31195313 63.86820313 2.47265625 63.28515625 C2.66730469 62.55167969 2.86195313 61.81820312 3.0625 61.0625 C3.25972656 60.33160156 3.45695312 59.60070312 3.66015625 58.84765625 C3.77230469 58.23792969 3.88445312 57.62820312 4 57 C3.505 56.505 3.505 56.505 3 56 C1.35 58.64 -0.3 61.28 -2 64 C-2.33 63.34 -2.66 62.68 -3 62 C-2.00390625 59.8359375 -2.00390625 59.8359375 -0.5625 57.375 C-0.08941406 56.55773437 0.38367188 55.74046875 0.87109375 54.8984375 C1.24363281 54.27195313 1.61617188 53.64546875 2 53 C-1.53233755 54.17744585 -1.86308075 54.95605641 -3.6875 58.0625 C-4.12449219 58.79597656 -4.56148438 59.52945313 -5.01171875 60.28515625 C-5.33785156 60.85105469 -5.66398437 61.41695312 -6 62 C-6.33 61.34 -6.66 60.68 -7 60 C-6.22265625 58.2734375 -6.22265625 58.2734375 -5.0625 56.375 C-4.381875 55.26125 -3.70125 54.1475 -3 53 C-4.485 52.505 -4.485 52.505 -6 52 C-6.268125 52.763125 -6.53625 53.52625 -6.8125 54.3125 C-7.94424112 56.87380884 -8.91223401 58.19692938 -11 60 C-10.67 58.35 -10.34 56.7 -10 55 C-12.12364481 54.77390663 -12.12364481 54.77390663 -13.625 56.5 C-14.07875 56.995 -14.5325 57.49 -15 58 C-14.67 56.68 -14.34 55.36 -14 54 C-16.31 53.67 -18.62 53.34 -21 53 C-20.76228882 51.26073242 -20.76228882 51.26073242 -20.51977539 49.48632812 C-20.00975378 45.39536943 -19.79996527 41.34162667 -19.68359375 37.21875 C-19.66281265 36.51979614 -19.64203156 35.82084229 -19.62062073 35.10070801 C-19.55601465 32.90055741 -19.49666091 30.70030304 -19.4375 28.5 C-19.39422983 26.99478158 -19.35061307 25.48957307 -19.30664062 23.984375 C-19.20042681 20.32302256 -19.09891804 16.66155766 -19 13 C-16.96571527 12.66395185 -14.93033472 12.33453406 -12.89453125 12.0078125 C-11.76120361 11.8236377 -10.62787598 11.63946289 -9.46020508 11.44970703 C-4.62302147 10.8210404 0.13318135 10.82444342 5 11 C4.58427734 10.18595703 4.58427734 10.18595703 4.16015625 9.35546875 C3.79792969 8.64003906 3.43570312 7.92460938 3.0625 7.1875 C2.70285156 6.47980469 2.34320313 5.77210937 1.97265625 5.04296875 C1 3 1 3 0 0 Z " fill="#976960" transform="translate(268,72)"/>
<path d="M0 0 C0.01030746 0.6742955 0.02061493 1.348591 0.03123474 2.0433197 C0.13905769 9.03443582 0.25367443 16.02541667 0.37231445 23.01635742 C0.41574124 25.62863344 0.45741038 28.24093928 0.49731445 30.85327148 C0.55483007 34.59888719 0.61857764 38.34435169 0.68359375 42.08984375 C0.70030624 43.26586655 0.71701874 44.44188934 0.73423767 45.65354919 C0.7641555 47.27511681 0.7641555 47.27511681 0.79467773 48.92944336 C0.81799416 50.36506874 0.81799416 50.36506874 0.84178162 51.82969666 C0.7606861 53.97862694 0.7606861 53.97862694 2 55 C4.97 55 7.94 55 11 55 C11 45.43 11 35.86 11 26 C9.68 26 8.36 26 7 26 C7.495 24.515 7.495 24.515 8 23 C11.3 21.68 14.6 20.36 18 19 C18.33 31.21 18.66 43.42 19 56 C20.32 56 21.64 56 23 56 C23 56.66 23 57.32 23 58 C16.93109825 58.07408977 10.86245903 58.12857359 4.79321289 58.16479492 C2.72806209 58.17989271 0.6629434 58.20037274 -1.40209961 58.22631836 C-4.36840739 58.26265795 -7.33429171 58.2797163 -10.30078125 58.29296875 C-11.2258699 58.30845261 -12.15095856 58.32393646 -13.1040802 58.33988953 C-13.96474594 58.34011612 -14.82541168 58.34034271 -15.7121582 58.34057617 C-16.46938675 58.34723801 -17.2266153 58.35389984 -18.00679016 58.36076355 C-20.54630021 57.9011217 -21.44564836 57.02330801 -23 55 C-23 54.34 -23 53.68 -23 53 C-23.94875 53.804375 -24.8975 54.60875 -25.875 55.4375 C-29.64573188 58.63442486 -31.93926069 59.41312158 -37 59 C-38.875 58 -38.875 58 -40 56 C-40.48861721 51.67224757 -40.69304099 49.23542089 -38.5625 45.4375 C-28.64102564 36 -28.64102564 36 -25 36 C-23.99503148 32.98509443 -23.89664697 30.95818308 -23.9375 27.8125 C-23.94652344 26.91144531 -23.95554687 26.01039062 -23.96484375 25.08203125 C-23.97644531 24.39496094 -23.98804687 23.70789063 -24 23 C-26.91634129 22.7497843 -26.91634129 22.7497843 -30 23 C-32.19080101 26.28620152 -32.94966872 29.21880738 -34 33 C-35 34 -35 34 -37.5625 34.0625 C-38.366875 34.041875 -39.17125 34.02125 -40 34 C-40.75 32.375 -40.75 32.375 -41 30 C-38.02950818 24.29665571 -34.08746891 21.0291563 -28 19 C-26.0625 18.83203125 -26.0625 18.83203125 -24 18.8125 C-23.319375 18.79832031 -22.63875 18.78414062 -21.9375 18.76953125 C-20 19 -20 19 -17 21 C-16.56762695 24.07275391 -16.56762695 24.07275391 -16.48828125 27.9765625 C-16.46135445 29.00443375 -16.46135445 29.00443375 -16.43388367 30.05307007 C-16.37966292 32.24365059 -16.34584947 34.4340119 -16.3125 36.625 C-16.27933706 38.10940559 -16.24484835 39.59378221 -16.20898438 41.078125 C-16.12393185 44.71853912 -16.05717644 48.35902944 -16 52 C-14.515 52.495 -14.515 52.495 -13 53 C-12.67 52.34 -12.34 51.68 -12 51 C-11.34 51 -10.68 51 -10 51 C-10.33 52.32 -10.66 53.64 -11 55 C-9.515 54.505 -9.515 54.505 -8 54 C-8 38.49 -8 22.98 -8 7 C-8.99 6.67 -9.98 6.34 -11 6 C-10 3 -10 3 -8.22265625 2.05078125 C-7.50980469 1.80714844 -6.79695313 1.56351562 -6.0625 1.3125 C-5.35222656 1.06113281 -4.64195313 0.80976562 -3.91015625 0.55078125 C-2 0 -2 0 0 0 Z " fill="#2F2C2D" transform="translate(79,69)"/>
<path d="M0 0 C0.33 7.26 0.66 14.52 1 22 C2.65 21.01 4.3 20.02 6 19 C10.31753595 19 12.35534832 19.48720889 15.75 22.1875 C21.54673439 29.43341799 21.91706827 35.98387941 21 45 C19.34489027 51.01263026 15.97300961 54.43240615 11 58 C7.80885219 59.5955739 4.47259755 59.38584417 1 59 C-2.5 57.5 -2.5 57.5 -5 56 C-5.33 57.32 -5.66 58.64 -6 60 C-6.66 60 -7.32 60 -8 60 C-8 42.51 -8 25.02 -8 7 C-8.99 6.67 -9.98 6.34 -11 6 C-10 3 -10 3 -8.22265625 2.05078125 C-7.50980469 1.80714844 -6.79695312 1.56351562 -6.0625 1.3125 C-5.35222656 1.06113281 -4.64195312 0.80976562 -3.91015625 0.55078125 C-2 0 -2 0 0 0 Z " fill="#322E2F" transform="translate(135,69)"/>
<path d="M0 0 C3.49971199 -0.1173794 6.99890955 -0.18763961 10.5 -0.25 C11.48226563 -0.28351563 12.46453125 -0.31703125 13.4765625 -0.3515625 C20.93326013 -0.45098514 26.43824111 0.63650999 31.96484375 5.85546875 C34.24695635 10.58331712 33.7770807 15.92430621 33 21 C30.82923658 25.14356415 28.43651546 27.52116151 24 29 C20.32893957 29.13281695 16.67480286 29.04323297 13 29 C13.33 35.27 13.66 41.54 14 48 C15.65 48.66 17.3 49.32 19 50 C19 50.66 19 51.32 19 52 C12.73 52 6.46 52 0 52 C0 51.01 0 50.02 0 49 C1.98 48.505 1.98 48.505 4 48 C4 33.48 4 18.96 4 4 C2.68 3.67 1.36 3.34 0 3 C0 2.01 0 1.02 0 0 Z " fill="#322F2F" transform="translate(287,75)"/>
<path d="M0 0 C5.54485273 2.47385737 9.07212514 5.61271026 12 11 C14.04628787 17.1388636 14.10571965 24.50016765 11.375 30.4375 C8.78677327 34.76624157 5.79991071 38.20355897 0.7890625 39.62890625 C-2.8342015 40.20068379 -5.30185962 40.26973606 -8.75 38.9375 C-14.3838567 34.0861234 -17.51227432 29.66634839 -18.2890625 22.234375 C-18.62834797 15.12723734 -17.77586757 10.38582892 -13 5 C-8.64893958 1.05368939 -5.94342316 -0.66038035 0 0 Z " fill="#312D2E" transform="translate(336,88)"/>
<path d="M0 0 C0.66 0 1.32 0 2 0 C2.495 2.97 2.495 2.97 3 6 C3.721875 5.195625 4.44375 4.39125 5.1875 3.5625 C8.01356127 0.98764417 9.21700564 0 13 0 C14.8125 1.0625 14.8125 1.0625 16 3 C16.3125 6.0625 16.3125 6.0625 16 9 C15.34 9.66 14.68 10.32 14 11 C12.68 11 11.36 11 10 11 C9.505 8.525 9.505 8.525 9 6 C5.87802522 7.3089572 5.87802522 7.3089572 4 10 C3.915085 11.8863912 3.892807 13.77578515 3.90234375 15.6640625 C3.90556641 16.78554687 3.90878906 17.90703125 3.91210938 19.0625 C3.92048828 20.238125 3.92886719 21.41375 3.9375 22.625 C3.94201172 23.80835937 3.94652344 24.99171875 3.95117188 26.2109375 C3.96298533 29.14067507 3.97945742 32.07031272 4 35 C5.65 35.66 7.3 36.32 9 37 C9 37.66 9 38.32 9 39 C8.31897217 38.99476318 7.63794434 38.98952637 6.9362793 38.98413086 C3.85336223 38.96335542 0.7704599 38.95033802 -2.3125 38.9375 C-3.38435547 38.92912109 -4.45621094 38.92074219 -5.56054688 38.91210938 C-6.58857422 38.90888672 -7.61660156 38.90566406 -8.67578125 38.90234375 C-9.62364502 38.89710693 -10.57150879 38.89187012 -11.5480957 38.88647461 C-14.13838681 38.89501146 -14.13838681 38.89501146 -17 40 C-17 38.02 -17 36.04 -17 34 C-17.969375 34.825 -18.93875 35.65 -19.9375 36.5 C-23.59392486 39.09368349 -26.47204825 39.61273342 -30.88671875 39.76171875 C-34.30701556 38.52889458 -35.2575873 36.09491955 -37 33 C-37.54589844 29.65673828 -37.54589844 29.65673828 -37.609375 26.0703125 C-37.64160156 24.78125 -37.67382812 23.4921875 -37.70703125 22.1640625 C-37.7217723 20.81771285 -37.73609 19.4713585 -37.75 18.125 C-37.77818712 16.75517097 -37.80811837 15.38537665 -37.83984375 14.015625 C-37.91037757 10.67702398 -37.96315985 7.33911485 -38 4 C-39.32 3.67 -40.64 3.34 -42 3 C-42 2.34 -42 1.68 -42 1 C-38.04 1 -34.08 1 -30 1 C-29.97494385 1.9286084 -29.9498877 2.8572168 -29.92407227 3.81396484 C-29.82902068 7.25435804 -29.72978293 10.69457713 -29.62768555 14.13476562 C-29.58433411 15.62462641 -29.54265916 17.11453695 -29.50268555 18.60449219 C-29.44498785 20.74429327 -29.38129245 22.88384385 -29.31640625 25.0234375 C-29.27974854 26.31169434 -29.24309082 27.59995117 -29.20532227 28.92724609 C-29.20469325 31.9127682 -29.20469325 31.9127682 -28 34 C-24.58357241 34.25015873 -24.58357241 34.25015873 -21 34 C-18.67108788 30.50663182 -18.76448857 29.13992135 -18.8046875 25.01953125 C-18.81113281 23.85615234 -18.81757813 22.69277344 -18.82421875 21.49414062 C-18.84097656 20.27919922 -18.85773438 19.06425781 -18.875 17.8125 C-18.88402344 16.58595703 -18.89304688 15.35941406 -18.90234375 14.09570312 C-18.92593983 11.06360705 -18.95886159 8.03190062 -19 5 C-20.32 4.67 -21.64 4.34 -23 4 C-23 3.01 -23 2.02 -23 1 C-19.37 1 -15.74 1 -12 1 C-11.67 11.89 -11.34 22.78 -11 34 C-8.03 34.495 -8.03 34.495 -5 35 C-5 26.42 -5 17.84 -5 9 C-6.32 8.34 -7.64 7.68 -9 7 C-9 6.34 -9 5.68 -9 5 C-8.43410156 4.72285156 -7.86820313 4.44570312 -7.28515625 4.16015625 C-6.18494141 3.61681641 -6.18494141 3.61681641 -5.0625 3.0625 C-4.33160156 2.70285156 -3.60070312 2.34320313 -2.84765625 1.97265625 C-1.03750973 1.13628173 -1.03750973 1.13628173 0 0 Z " fill="#322E2F" transform="translate(197,88)"/>
<path d="M0 0 C0.680625 -0.01417969 1.36125 -0.02835937 2.0625 -0.04296875 C4 0.1875 4 0.1875 7 2.1875 C7.43237305 5.26025391 7.43237305 5.26025391 7.51171875 9.1640625 C7.53864555 10.19193375 7.53864555 10.19193375 7.56611633 11.24057007 C7.62033708 13.43115059 7.65415053 15.6215119 7.6875 17.8125 C7.72066294 19.29690559 7.75515165 20.78128221 7.79101562 22.265625 C7.87606815 25.90603912 7.94282356 29.54652944 8 33.1875 C9.485 33.6825 9.485 33.6825 11 34.1875 C11.33 33.5275 11.66 32.8675 12 32.1875 C12.66 32.1875 13.32 32.1875 14 32.1875 C13.67 34.1675 13.34 36.1475 13 38.1875 C11.56589632 38.43704005 10.12739928 38.66142642 8.6875 38.875 C7.48673828 39.06642578 7.48673828 39.06642578 6.26171875 39.26171875 C4 39.1875 4 39.1875 2.20703125 37.83203125 C1 36.1875 1 36.1875 1 34.1875 C0.05125 34.991875 -0.8975 35.79625 -1.875 36.625 C-5.64573188 39.82192486 -7.93926069 40.60062158 -13 40.1875 C-14.875 39.1875 -14.875 39.1875 -16 37.1875 C-16.48861721 32.85974757 -16.69304099 30.42292089 -14.5625 26.625 C-4.64102564 17.1875 -4.64102564 17.1875 -1 17.1875 C0.00496852 14.17259443 0.10335303 12.14568308 0.0625 9 C0.05347656 8.09894531 0.04445313 7.19789062 0.03515625 6.26953125 C0.02355469 5.58246094 0.01195313 4.89539063 0 4.1875 C-2.91634129 3.9372843 -2.91634129 3.9372843 -6 4.1875 C-8.19080101 7.47370152 -8.94966872 10.40630738 -10 14.1875 C-11 15.1875 -11 15.1875 -13.5625 15.25 C-14.366875 15.229375 -15.17125 15.20875 -16 15.1875 C-16.75 13.5625 -16.75 13.5625 -17 11.1875 C-13.43645266 4.3454891 -7.8223979 0.07407574 0 0 Z " fill="#262223" transform="translate(55,87.8125)"/>
<path d="M0 0 C1.32 0.66 2.64 1.32 4 2 C4 6.29 4 10.58 4 15 C3.34 15 2.68 15 2 15 C1.73445313 14.30132812 1.46890625 13.60265625 1.1953125 12.8828125 C0.84210937 11.97273438 0.48890625 11.06265625 0.125 10.125 C-0.22304688 9.22007813 -0.57109375 8.31515625 -0.9296875 7.3828125 C-1.88530895 4.87782993 -1.88530895 4.87782993 -4 3 C-7.03989923 2.67660646 -9.14368353 2.54329788 -11.875 4 C-13.31807827 6.56547249 -13.77949668 8.88224054 -13.671875 11.8203125 C-12.23140246 16.49347343 -7.7265427 19.12144766 -4 22 C-2.53191828 23.2385363 -1.07283443 24.48785437 0.375 25.75 C1.00148438 26.28109375 1.62796875 26.8121875 2.2734375 27.359375 C4.77540753 29.73681258 6.75520024 31.6800013 7.3984375 35.1484375 C7.33322021 41.34408021 6.18137537 45.38234955 2.125 50.25 C-2.47778855 54.04053175 -6.75286626 54.36953822 -12.5546875 54.265625 C-16.18904201 53.87083889 -19.38448159 52.61551841 -22 50 C-22.07244053 47.98035801 -22.08377188 45.95832876 -22.0625 43.9375 C-22.05347656 42.83277344 -22.04445313 41.72804687 -22.03515625 40.58984375 C-22.02355469 39.73519531 -22.01195312 38.88054687 -22 38 C-20.02 37.505 -20.02 37.505 -18 37 C-17.74605469 37.68707031 -17.49210937 38.37414062 -17.23046875 39.08203125 C-16.88628906 39.98308594 -16.54210937 40.88414063 -16.1875 41.8125 C-15.85105469 42.70582031 -15.51460937 43.59914062 -15.16796875 44.51953125 C-14.00836047 46.98224448 -13.17178651 48.3803626 -11 50 C-8.27337383 50.61019255 -5.74350681 50.49726061 -3 50 C-0.79573513 48.61760705 -0.79573513 48.61760705 0 46 C0.70096925 40.42091446 0.70096925 40.42091446 -1.6171875 35.52734375 C-4.78927355 32.16285248 -8.4355465 29.84509015 -12.31054688 27.39453125 C-15.93689468 25.01042716 -18.24475512 22.99805779 -20 19 C-20.79815615 13.99534521 -20.80811637 9.49190715 -18.375 5 C-12.62690063 0.15949527 -7.36876219 -0.93629487 0 0 Z " fill="#2E2A2B" transform="translate(30,74)"/>
<path d="M0 0 C1.64282641 1.40324756 3.28355522 2.80901944 4.9140625 4.2265625 C6.31897126 5.42099804 7.75257827 6.58238389 9.2109375 7.7109375 C9.92507813 8.28070313 10.63921875 8.85046875 11.375 9.4375 C12.04273438 9.95183594 12.71046875 10.46617188 13.3984375 10.99609375 C17.0334323 15.54427017 16.13851284 22.51991481 16.09765625 28.12109375 C16.0962413 28.86585464 16.09482635 29.61061554 16.09336853 30.37794495 C16.08781989 32.73117273 16.07527733 35.0843015 16.0625 37.4375 C16.05747835 39.04361841 16.05291661 40.64973832 16.04882812 42.25585938 C16.03786735 46.17061043 16.02063884 50.08528849 16 54 C14.81857422 54.19916016 14.81857422 54.19916016 13.61328125 54.40234375 C10.76530551 55.05367452 9.82535834 55.79035569 8 58 C5.28976095 52.5763959 4.58297358 48.46108799 4.70703125 42.44140625 C4.71127609 41.65225327 4.71552094 40.86310028 4.71989441 40.05003357 C4.73655548 37.55382739 4.77418221 35.05845808 4.8125 32.5625 C4.82756317 30.86003778 4.84124871 29.15756279 4.85351562 27.45507812 C4.8864175 23.3030678 4.93811049 19.1516753 5 15 C4.01 15.495 4.01 15.495 3 16 C1.33434251 16.15222973 -0.33656496 16.24917215 -2.0078125 16.31640625 C-2.99394531 16.35830078 -3.98007812 16.40019531 -4.99609375 16.44335938 C-6.02863281 16.48267578 -7.06117188 16.52199219 -8.125 16.5625 C-9.68541016 16.62727539 -9.68541016 16.62727539 -11.27734375 16.69335938 C-13.85142528 16.7996288 -16.42560508 16.90166583 -19 17 C-19 15.68 -19 14.36 -19 13 C-10.92437827 11.56205146 -3.2056037 10.70400628 5 11 C4.58427734 10.18595703 4.58427734 10.18595703 4.16015625 9.35546875 C3.79792969 8.64003906 3.43570312 7.92460938 3.0625 7.1875 C2.70285156 6.47980469 2.34320313 5.77210937 1.97265625 5.04296875 C1 3 1 3 0 0 Z " fill="#190C0B" transform="translate(268,72)"/>
<path d="M0 0 C0 9.9 0 19.8 0 30 C-2.64 30 -5.28 30 -8 30 C-8 29.01 -8 28.02 -8 27 C-6.68 26.67 -5.36 26.34 -4 26 C-4.84304688 25.96261719 -5.68609375 25.92523438 -6.5546875 25.88671875 C-7.65039062 25.82097656 -8.74609375 25.75523438 -9.875 25.6875 C-10.96554687 25.62949219 -12.05609375 25.57148437 -13.1796875 25.51171875 C-14.11039062 25.34285156 -15.04109375 25.17398438 -16 25 C-16.66 24.01 -17.32 23.02 -18 22 C-17.39671875 22.05800781 -16.7934375 22.11601563 -16.171875 22.17578125 C-10.89339356 22.50206228 -10.89339356 22.50206228 -6.375 20 C-4.42391311 15.74308315 -4.88448829 13.53641428 -6 9 C-8.53774984 6.90754997 -8.53774984 6.90754997 -10 7 C-9.34 7.515625 -8.68 8.03125 -8 8.5625 C-6 11 -6 11 -5.4375 14.5 C-6 18 -6 18 -8.1875 20.5 C-11 22 -11 22 -13.625 21.9375 C-16.27319502 20.89215986 -17.47183949 20.41288502 -19 18 C-19.1875 14.3125 -19.1875 14.3125 -19 11 C-19.33 11 -19.66 11 -20 11 C-20.12375 10.195625 -20.2475 9.39125 -20.375 8.5625 C-20.684375 7.2940625 -20.684375 7.2940625 -21 6 C-21.66 5.67 -22.32 5.34 -23 5 C-23 13.25 -23 21.5 -23 30 C-23.33 30 -23.66 30 -24 30 C-24 20.76 -24 11.52 -24 2 C-20.41125 1.67 -16.8225 1.34 -13.125 1 C-11.99465332 0.89558594 -10.86430664 0.79117188 -9.69970703 0.68359375 C-8.36721924 0.56177734 -8.36721924 0.56177734 -7.0078125 0.4375 C-5.64100342 0.31181641 -5.64100342 0.31181641 -4.24658203 0.18359375 C-2 0 -2 0 0 0 Z " fill="#94342F" transform="translate(273,87)"/>
<path d="M0 0 C6.27 0 12.54 0 19 0 C17.02 0.99 17.02 0.99 15 2 C12.57158891 4.42841109 13.76629957 10.67554938 13.75 13.9375 C13.729375 14.96552734 13.70875 15.99355469 13.6875 17.05273438 C13.68234375 18.03435547 13.6771875 19.01597656 13.671875 20.02734375 C13.6625293 20.93218506 13.65318359 21.83702637 13.64355469 22.76928711 C13.76118164 23.50542236 13.87880859 24.24155762 14 25 C14.99 25.66 15.98 26.32 17 27 C15.68 27 14.36 27 13 27 C13.33 33.6 13.66 40.2 14 47 C15.65 47.66 17.3 48.32 19 49 C19 49.66 19 50.32 19 51 C12.73 51 6.46 51 0 51 C0 50.01 0 49.02 0 48 C1.98 47.505 1.98 47.505 4 47 C4 32.48 4 17.96 4 3 C2.68 2.67 1.36 2.34 0 2 C0 1.34 0 0.68 0 0 Z " fill="#2D292A" transform="translate(287,76)"/>
<path d="M0 0 C2.9093938 1.41061517 4.24328845 3.36527983 6.0625 6 C7.39048292 9.98394876 7.28582082 13.64054275 7.3125 17.8125 C7.333125 18.60720703 7.35375 19.40191406 7.375 20.22070312 C7.41422528 26.148623 6.16736824 30.0340493 2.6875 34.9375 C1.0625 36 1.0625 36 -1.375 36.125 C-5.10349181 34.48810115 -6.4813988 31.6460261 -7.9375 28 C-8.45610968 24.9763234 -8.45459861 22.06069512 -8.375 19 C-8.38208984 18.23171875 -8.38917969 17.4634375 -8.39648438 16.671875 C-8.32976424 10.63626881 -7.08128582 5.98265853 -3.5 1 C-1.9375 0 -1.9375 0 0 0 Z " fill="#F9F9F9" transform="translate(333.9375,90)"/>
<path d="M0 0 C4.62 0 9.24 0 14 0 C12.515 1.485 12.515 1.485 11 3 C11.18937981 5.70440099 11.18937981 5.70440099 12.125 8.625 C12.57166016 10.21441406 12.57166016 10.21441406 13.02734375 11.8359375 C14.28252249 15.91904906 15.58876301 19.96789432 17 24 C20.60452958 16.91902057 22.41643485 9.76186858 24 2 C22.68 1.34 21.36 0.68 20 0 C23.63 0 27.26 0 31 0 C30.40058594 0.80695313 29.80117187 1.61390625 29.18359375 2.4453125 C26.59891363 6.33199822 25.36961189 10.42657394 24.0625 14.875 C23.80871582 15.70781494 23.55493164 16.54062988 23.29345703 17.39868164 C22.77306957 19.10692419 22.25645424 20.81632049 21.74365234 22.52685547 C20.64754494 26.17215029 19.51272951 29.80502221 18.375 33.4375 C18.17302002 34.08452881 17.97104004 34.73155762 17.76293945 35.39819336 C12.37304688 52.62695312 12.37304688 52.62695312 11 54 C9.00041636 54.04080783 6.99954746 54.04254356 5 54 C5 51.69 5 49.38 5 47 C7.97 46.505 7.97 46.505 11 46 C13.71466675 38.87399977 13.26003932 33.8027766 10.6640625 26.73828125 C10.42464935 26.06580856 10.18523621 25.39333588 9.93856812 24.70048523 C9.43356383 23.28789522 8.92401291 21.87692321 8.41015625 20.4675293 C7.6248461 18.31207759 6.85429126 16.15178131 6.0859375 13.99023438 C5.59199979 12.61427648 5.09723646 11.23861463 4.6015625 9.86328125 C4.3712735 9.21950027 4.1409845 8.5757193 3.90371704 7.91242981 C2.82904898 4.97741509 1.74649072 2.61973608 0 0 Z " fill="#2E2B2C" transform="translate(213,90)"/>
<path d="M0 0 C1.76537109 -0.00386719 1.76537109 -0.00386719 3.56640625 -0.0078125 C6.4375 0.125 6.4375 0.125 7.4375 1.125 C7.57865161 3.79558851 7.47997107 6.44932238 7.4375 9.125 C6.4475 8.795 5.4575 8.465 4.4375 8.125 C4.025 7.279375 3.6125 6.43375 3.1875 5.5625 C2.61 4.758125 2.0325 3.95375 1.4375 3.125 C-2.14678147 2.62468794 -2.14678147 2.62468794 -5.5625 3.125 C-6.92495892 4.2660043 -6.92495892 4.2660043 -6.75 7.3125 C-5.1477662 12.45651378 -2.65430388 13.19007612 1.9140625 15.6640625 C5.52957191 17.75725216 7.25112645 19.5539232 9.4375 23.125 C9.98707629 27.04073105 9.82176299 29.27962142 8.1875 32.875 C5.61173499 36.18669787 3.41409717 37.79946761 -0.5625 39.125 C-2.03836615 39.24187338 -3.51956612 39.30001742 -5 39.3125 C-6.14275391 39.33376953 -6.14275391 39.33376953 -7.30859375 39.35546875 C-9.5625 39.125 -9.5625 39.125 -13.5625 37.125 C-13.5625 33.825 -13.5625 30.525 -13.5625 27.125 C-12.5725 27.125 -11.5825 27.125 -10.5625 27.125 C-10.35496094 27.69089844 -10.14742188 28.25679687 -9.93359375 28.83984375 C-8.96913998 31.1359701 -8.02797055 33.10732316 -6.5625 35.125 C-3.03206742 36.44025218 -3.03206742 36.44025218 0.4375 36.125 C2.78701837 34.14347297 2.78701837 34.14347297 3.1875 30.4375 C3.25886453 28.24658606 3.25886453 28.24658606 2.4375 26.125 C-0.58310515 23.27634581 -4.01521343 21.25662633 -7.5625 19.125 C-12.38217213 15.48565574 -12.38217213 15.48565574 -13.5625 13.125 C-13.96667552 10.16104618 -14.12632171 8.03595074 -12.515625 5.43359375 C-8.4113953 0.42401926 -6.30259654 -0.01383666 0 0 Z " fill="#2F2B2C" transform="translate(363.5625,88.875)"/>
<path d="M0 0 C0.495 0.33 0.99 0.66 1.5 1 C1.5 3.64 1.5 6.28 1.5 9 C0.51 9 -0.48 9 -1.5 9 C-2.49 7.02 -3.48 5.04 -4.5 3 C-7.14 3 -9.78 3 -12.5 3 C-12.83 4.98 -13.16 6.96 -13.5 9 C-9.56071814 11.97748317 -5.61767291 14.93157069 -1.5625 17.75 C1.5 20 1.5 20 2.5 22 C3.02499368 25.74995483 3.30572852 29.41194587 1.55859375 32.85546875 C-1.01463716 36.12242336 -3.46947583 38.08397178 -7.5 39 C-15.52204724 39.6519685 -15.52204724 39.6519685 -19.5 37 C-19.79296875 34.3984375 -19.79296875 34.3984375 -19.6875 31.375 C-19.66042969 30.37210938 -19.63335937 29.36921875 -19.60546875 28.3359375 C-19.57066406 27.56507812 -19.53585938 26.79421875 -19.5 26 C-18.84 26 -18.18 26 -17.5 26 C-17.23445313 26.55429688 -16.96890625 27.10859375 -16.6953125 27.6796875 C-16.34210938 28.40414062 -15.98890625 29.12859375 -15.625 29.875 C-15.27695313 30.59429687 -14.92890625 31.31359375 -14.5703125 32.0546875 C-13.53442457 34.15135019 -13.53442457 34.15135019 -11.5 36 C-7.91656024 36.16677282 -7.91656024 36.16677282 -4.5 36 C-3.77126418 32.95918417 -3.30956556 30.13158855 -3.5 27 C-5.57825978 24.64828499 -6.90089615 23.57083016 -9.5 22 C-11.10664686 20.94125413 -12.71074312 19.87862938 -14.3125 18.8125 C-15.08207031 18.32394531 -15.85164063 17.83539063 -16.64453125 17.33203125 C-18.5 16 -18.5 16 -19.5 14 C-20.19902913 6.89320388 -20.19902913 6.89320388 -17.25 3.125 C-11.83844868 -1.05665329 -6.62711023 -2.65084409 0 0 Z " fill="#2D292A" transform="translate(122.5,89)"/>
<path d="M0 0 C3.6875 0.375 3.6875 0.375 6.0625 2.75 C9.03589693 7.55317966 8.93765774 11.06407063 9 16.625 C9.02900391 17.47191406 9.05800781 18.31882812 9.08789062 19.19140625 C9.14378223 24.7203756 8.54369793 28.08881894 4.6875 32.375 C1.0625 33.375 1.0625 33.375 -2.3125 33.375 C-4.3125 31.375 -4.3125 31.375 -4.55541992 28.40991211 C-4.55131104 27.16991455 -4.54720215 25.92991699 -4.54296875 24.65234375 C-4.54251053 23.99166397 -4.54205231 23.33098419 -4.5415802 22.65028381 C-4.53855921 21.25406091 -4.53067742 19.85784133 -4.51831055 18.46166992 C-4.50004196 16.31742502 -4.49780094 14.17361151 -4.49804688 12.02929688 C-4.45623939 0.50447993 -4.45623939 0.50447993 0 0 Z " fill="#FAFAFA" transform="translate(139.3125,92.625)"/>
<path d="M0 0 C0.66 0 1.32 0 2 0 C2 3.3 2 6.6 2 10 C3.98 10 5.96 10 8 10 C8 10.99 8 11.98 8 13 C6.02 13 4.04 13 2 13 C2.33 22.57 2.66 32.14 3 42 C3.99 42.33 4.98 42.66 6 43 C6.66 41.68 7.32 40.36 8 39 C8.33 39.99 8.66 40.98 9 42 C5.16666667 47.75 5.16666667 47.75 1.375 48.5625 C-1.37807174 47.91045669 -2.32850396 47.25651965 -4 45 C-5.15927528 41.52217417 -5.11313066 38.81196743 -5.09765625 35.14453125 C-5.09553383 34.15207649 -5.09553383 34.15207649 -5.09336853 33.13957214 C-5.08777996 31.03050172 -5.07522965 28.92153823 -5.0625 26.8125 C-5.05748352 25.38086091 -5.05292087 23.94922015 -5.04882812 22.51757812 C-5.0378143 19.01168412 -5.02055755 15.5058525 -5 12 C-5.99 12 -6.98 12 -8 12 C-6.86449129 8.59347386 -5.50476128 7.50476128 -3 5 C-2.195625 3.63875 -2.195625 3.63875 -1.375 2.25 C-0.92125 1.5075 -0.4675 0.765 0 0 Z " fill="#302D2D" transform="translate(381,80)"/>
<path d="M0 0 C0.495 18.315 0.495 18.315 1 37 C2.32 37 3.64 37 5 37 C5 37.66 5 38.32 5 39 C-6.55 39 -18.1 39 -30 39 C-30 38.67 -30 38.34 -30 38 C-28.84242187 37.93941406 -27.68484375 37.87882812 -26.4921875 37.81640625 C-24.95311543 37.73194498 -23.41405345 37.64729982 -21.875 37.5625 C-21.11445312 37.52318359 -20.35390625 37.48386719 -19.5703125 37.44335938 C-18.82265625 37.40146484 -18.075 37.35957031 -17.3046875 37.31640625 C-16.62390137 37.27974854 -15.94311523 37.24309082 -15.24169922 37.20532227 C-12.47681576 36.95208038 -9.73868005 36.45644667 -7 36 C-7 26.43 -7 16.86 -7 7 C-8.32 7 -9.64 7 -11 7 C-10 4 -10 4 -7.96875 2.83203125 C-6.74671875 2.32736328 -6.74671875 2.32736328 -5.5 1.8125 C-4.27796875 1.29623047 -4.27796875 1.29623047 -3.03125 0.76953125 C-1 0 -1 0 0 0 Z " fill="#383435" transform="translate(97,88)"/>
<path d="M0 0 C0 15.77777778 0 15.77777778 -4 20 C-7.24877925 22.27414548 -10.09216415 22.41572722 -14 22 C-15.875 21 -15.875 21 -17 19 C-17.49602841 14.60660554 -17.69405662 12.21459909 -15.5 8.375 C-6.19643615 -0.46338566 -6.19643615 -0.46338566 0 0 Z " fill="#322E2F" transform="translate(56,106)"/>
<path d="M0 0 C3.63 0 7.26 0 11 0 C11.01458252 0.98919434 11.02916504 1.97838867 11.04418945 2.99755859 C11.1020897 6.66182919 11.17932152 10.32547985 11.26245117 13.98925781 C11.2957398 15.57606965 11.32375947 17.16300103 11.34643555 18.75 C11.37991078 21.02916484 11.4322186 23.30723041 11.48828125 25.5859375 C11.49467117 26.29744965 11.5010611 27.00896179 11.50764465 27.74203491 C11.54009648 29.9600456 11.54009648 29.9600456 12 33 C12.99 33.66 13.98 34.32 15 35 C8.25 39 8.25 39 6 39 C6 37.02 6 35.04 6 33 C5.01 32.67 4.02 32.34 3 32 C3.33 31.34 3.66 30.68 4 30 C4.08510205 28.0406396 4.10717656 26.07837206 4.09765625 24.1171875 C4.09443359 22.95058594 4.09121094 21.78398438 4.08789062 20.58203125 C4.07951172 19.35871094 4.07113281 18.13539062 4.0625 16.875 C4.05798828 15.64394531 4.05347656 14.41289063 4.04882812 13.14453125 C4.0370133 10.09630608 4.02054028 7.04817686 4 4 C2.68 3.67 1.36 3.34 0 3 C0 2.01 0 1.02 0 0 Z " fill="#292626" transform="translate(174,89)"/>
<path d="M0 0 C3.1875 0.3125 3.1875 0.3125 5.5 2.125 C8.78992878 6.38972249 8.85050177 11.13224617 8.1875 16.3125 C6.44766146 19.50220398 4.74054507 21.75945493 2.1875 24.3125 C-0.375 24.5 -0.375 24.5 -2.8125 24.3125 C-4.46644117 22.65855883 -3.94249683 20.70934587 -3.9453125 18.4375 C-3.94660156 17.45265625 -3.94789063 16.4678125 -3.94921875 15.453125 C-3.94535156 14.41671875 -3.94148438 13.3803125 -3.9375 12.3125 C-3.94330078 10.75789063 -3.94330078 10.75789063 -3.94921875 9.171875 C-3.94792969 8.18703125 -3.94664062 7.2021875 -3.9453125 6.1875 C-3.94418457 5.27742188 -3.94305664 4.36734375 -3.94189453 3.4296875 C-3.74303934 0.17596638 -3.29148664 0.36572074 0 0 Z " fill="#F7F7F7" transform="translate(303.8125,77.6875)"/>
<path d="M0 0 C0.99 0.33 1.98 0.66 3 1 C5.2012966 5.75016635 5.1765235 9.88081854 5 15 C9.78537969 16.0715284 9.78537969 16.0715284 14.4375 15 C16.30945395 12.95647409 16.30945395 12.95647409 16.4375 9.5 C16.24887668 6.13786435 16.24887668 6.13786435 14.875 4.0625 C12.214973 2.55515137 9.99793795 2.80013747 7 3 C7.33 2.34 7.66 1.68 8 1 C11.12461161 0.7869583 13.41445453 0.74679115 16.3125 2 C18.39628551 4.46967171 18.98154967 6.71764683 19.21875 9.92578125 C18.7898846 13.99234424 17.15837327 15.4217361 14 18 C11.14263757 18.49555732 8.92930971 18.2978959 6 18 C7.87824891 19.87824891 11.03935276 19.39102397 13.5625 19.5625 C14.76003906 19.64628906 15.95757812 19.73007813 17.19140625 19.81640625 C18.58166016 19.90728516 18.58166016 19.90728516 20 20 C19.67 20.66 19.34 21.32 19 22 C15.9375 22.625 15.9375 22.625 13 23 C13.33 23.99 13.66 24.98 14 26 C16.64 26 19.28 26 22 26 C22 26.66 22 27.32 22 28 C19.59454362 29.20272819 18.05003047 29.10071472 15.375 29.0625 C14.14910156 29.04896484 14.14910156 29.04896484 12.8984375 29.03515625 C12.27195312 29.02355469 11.64546875 29.01195313 11 29 C11.33 27.02 11.66 25.04 12 23 C10.68 23.33 9.36 23.66 8 24 C8 24.66 8 25.32 8 26 C5.03 26 2.06 26 -1 26 C-0.67 17.42 -0.34 8.84 0 0 Z " fill="#53221D" transform="translate(250,92)"/>
<path d="M0 0 C0.33 0 0.66 0 1 0 C1 1.65 1 3.3 1 5 C1.969375 5.144375 2.93875 5.28875 3.9375 5.4375 C7 6 7 6 8 7 C8.08748207 8.92667507 8.10697334 10.85651861 8.09765625 12.78515625 C8.09443359 13.95498047 8.09121094 15.12480469 8.08789062 16.33007812 C8.07951172 17.56177734 8.07113281 18.79347656 8.0625 20.0625 C8.05798828 21.29806641 8.05347656 22.53363281 8.04882812 23.80664062 C8.03699608 26.87114117 8.02051173 29.93554721 8 33 C5 34 5 34 0 32 C0 21.44 0 10.88 0 0 Z " fill="#E7E6E6" transform="translate(185,90)"/>
<path d="M0 0 C0.33 0 0.66 0 1 0 C1 2.31 1 4.62 1 7 C1.66 7 2.32 7 3 7 C3.4021875 8.2065625 3.4021875 8.2065625 3.8125 9.4375 C4.204375 10.283125 4.59625 11.12875 5 12 C5.99 12.33 6.98 12.66 8 13 C8.33 9.37 8.66 5.74 9 2 C9.33 2 9.66 2 10 2 C10.33 10.91 10.66 19.82 11 29 C9.35 29.33 7.7 29.66 6 30 C4.20614008 31.4579186 4.20614008 31.4579186 3 33 C-0.72449488 26.34283199 -0.34676486 20.04794829 -0.1875 12.5625 C-0.16719727 10.74975586 -0.16719727 10.74975586 -0.14648438 8.90039062 C-0.11129946 5.93312918 -0.06206696 2.96680063 0 0 Z " fill="#191211" transform="translate(273,97)"/>
<path d="M0 0 C0.66 0 1.32 0 2 0 C2.268125 1.03125 2.53625 2.0625 2.8125 3.125 C3.806873 6.65180496 5.33073966 9.73735478 7 13 C7 13.66 7 14.32 7 15 C4.14633646 15.33821197 1.29219404 15.6706978 -1.5625 16 C-2.76229492 16.14308594 -2.76229492 16.14308594 -3.98632812 16.2890625 C-8.69452167 16.82714176 -13.26147265 17.10176703 -18 17 C-13.97737532 12.56124173 -9.36395823 9.33937606 -4.42578125 5.96484375 C-2.06370285 4.05159828 -1.06657648 2.80054293 0 0 Z " fill="#B6A8A6" transform="translate(266,68)"/>
<path d="M0 0 C2.64 0.66 5.28 1.32 8 2 C8 2.99 8 3.98 8 5 C8.45375 4.505 8.9075 4.01 9.375 3.5 C11 2 11 2 13 2 C13 2.99 13 3.98 13 5 C13.99 3.35 14.98 1.7 16 0 C17.32 0.33 18.64 0.66 20 1 C19.01 2.98 18.02 4.96 17 7 C17.598125 6.01 18.19625 5.02 18.8125 4 C19.534375 3.01 20.25625 2.02 21 1 C21.99 1 22.98 1 24 1 C22.31440187 6.17719426 20.50866742 11.16185569 18 16 C17.67 15.01 17.34 14.02 17 13 C15.35 13.66 13.7 14.32 12 15 C12 14.34 12 13.68 12 13 C10.68 13 9.36 13 8 13 C7.67 12.01 7.34 11.02 7 10 C6.34 9.67 5.68 9.34 5 9 C5 7.68 5 6.36 5 5 C4.34 4.67 3.68 4.34 3 4 C3 3.34 3 2.68 3 2 C2.01 2 1.02 2 0 2 C0 1.34 0 0.68 0 0 Z " fill="#DED7D6" transform="translate(246,124)"/>
<path d="M0 0 C2.8125 1 2.8125 1 4.8125 4 C5.25 7.4375 5.25 7.4375 4.8125 11 C2.625 13.5 2.625 13.5 -0.1875 15 C-3.08231608 14.93107581 -4.59435358 14.38861317 -7 12.8125 C-8.82712591 10.02372887 -8.70940658 8.26191611 -8.1875 5 C-5.61479531 1.44361411 -4.47724784 0 0 0 Z " fill="#D7D6D6" transform="translate(262.1875,94)"/>
<path d="M0 0 C0.99 0 1.98 0 3 0 C3.24234375 0.67546875 3.4846875 1.3509375 3.734375 2.046875 C6.10986177 8.90237127 6.10986177 8.90237127 11 14 C14.14481791 14.80315654 14.14481791 14.80315654 17 15 C16.67 15.66 16.34 16.32 16 17 C9.88617681 17.32623167 5.33824104 17.42194939 0 14 C-1 13 -1 13 -1.1328125 10.3125 C-1.13023437 9.219375 -1.12765625 8.12625 -1.125 7 C-1.12757813 5.906875 -1.13015625 4.81375 -1.1328125 3.6875 C-1 1 -1 1 0 0 Z " fill="#383536" transform="translate(9,111)"/>
<path d="M0 0 C5.03163018 4.29785078 10.02718443 8.63425542 15 13 C12 14 12 14 8.8125 12.5625 C7.884375 12.046875 6.95625 11.53125 6 11 C6 11.99 6 12.98 6 14 C-6.375 14.99 -6.375 14.99 -19 16 C-19 15.01 -19 14.02 -19 13 C-10.92437827 11.56205146 -3.2056037 10.70400628 5 11 C4.58427734 10.18595703 4.58427734 10.18595703 4.16015625 9.35546875 C3.79792969 8.64003906 3.43570312 7.92460938 3.0625 7.1875 C2.70285156 6.47980469 2.34320313 5.77210937 1.97265625 5.04296875 C1 3 1 3 0 0 Z " fill="#8E211A" transform="translate(268,72)"/>
<path d="M0 0 C0.45868726 9.7003861 0.45868726 9.7003861 -1.125 14.1875 C-3 16 -3 16 -6.1875 16.3125 C-7.115625 16.209375 -8.04375 16.10625 -9 16 C-10.12025654 12.07910211 -10.28708255 10.53163435 -8.3125 6.875 C-2.7826087 0 -2.7826087 0 0 0 Z " fill="#F0F0F0" transform="translate(56,106)"/>
<path d="M0 0 C1.8871875 0.0309375 1.8871875 0.0309375 3.8125 0.0625 C3.8125 0.3925 3.8125 0.7225 3.8125 1.0625 C2.1625 1.0625 0.5125 1.0625 -1.1875 1.0625 C-1.1875 1.7225 -1.1875 2.3825 -1.1875 3.0625 C-2.115625 3.206875 -3.04375 3.35125 -4 3.5 C-7.27719593 4.70308808 -7.27719593 4.70308808 -8.21875 7.1640625 C-8.73368625 8.7861117 -9.21013283 10.42095769 -9.64453125 12.06640625 C-10.1875 14.0625 -10.1875 14.0625 -11.1875 15.0625 C-12.85367115 15.10313832 -14.52138095 15.105221 -16.1875 15.0625 C-16.9375 13.4375 -16.9375 13.4375 -17.1875 11.0625 C-13.57178975 4.12033633 -7.92552849 -0.1299267 0 0 Z " fill="#312D2E" transform="translate(55.1875,87.9375)"/>
<path d="M0 0 C0.99 0.33 1.98 0.66 3 1 C5.2012966 5.75016635 5.1765235 9.88081854 5 15 C4.67 15 4.34 15 4 15 C3.01 17.97 2.02 20.94 1 24 C3.31 24 5.62 24 8 24 C8 24.66 8 25.32 8 26 C5.03 26 2.06 26 -1 26 C-0.67 17.42 -0.34 8.84 0 0 Z " fill="#71201C" transform="translate(250,92)"/>
<path d="M0 0 C0.33 0 0.66 0 1 0 C1.495 7.92 1.495 7.92 2 16 C-0.64 16 -3.28 16 -6 16 C-6 15.01 -6 14.02 -6 13 C-4.68 12.67 -3.36 12.34 -2 12 C-2.84304688 11.96261719 -3.68609375 11.92523438 -4.5546875 11.88671875 C-5.65039062 11.82097656 -6.74609375 11.75523438 -7.875 11.6875 C-8.96554687 11.62949219 -10.05609375 11.57148437 -11.1796875 11.51171875 C-12.11039062 11.34285156 -13.04109375 11.17398438 -14 11 C-14.66 10.01 -15.32 9.02 -16 8 C-15.39671875 8.02320312 -14.7934375 8.04640625 -14.171875 8.0703125 C-13.37265625 8.08835937 -12.5734375 8.10640625 -11.75 8.125 C-10.56664062 8.15980469 -10.56664062 8.15980469 -9.359375 8.1953125 C-6.77953064 7.98174923 -5.2524941 7.22250748 -3 6 C-2.34 6 -1.68 6 -1 6 C-0.67 4.02 -0.34 2.04 0 0 Z " fill="#AE3B31" transform="translate(271,101)"/>
<path d="M0 0 C-0.33 4.29 -0.66 8.58 -1 13 C-1.33 13 -1.66 13 -2 13 C-2.33 9.37 -2.66 5.74 -3 2 C-3.99 2.33 -4.98 2.66 -6 3 C-8.05893621 3.22325814 -10.12233653 3.40705759 -12.1875 3.5625 C-13.81751953 3.68818359 -13.81751953 3.68818359 -15.48046875 3.81640625 C-16.72763672 3.90728516 -16.72763672 3.90728516 -18 4 C-18 4.66 -18 5.32 -18 6 C-19.65 5.67 -21.3 5.34 -23 5 C-23 13.25 -23 21.5 -23 30 C-23.33 30 -23.66 30 -24 30 C-24 20.76 -24 11.52 -24 2 C-20.41125 1.67 -16.8225 1.34 -13.125 1 C-11.99465332 0.89558594 -10.86430664 0.79117188 -9.69970703 0.68359375 C-8.36721924 0.56177734 -8.36721924 0.56177734 -7.0078125 0.4375 C-5.64100342 0.31181641 -5.64100342 0.31181641 -4.24658203 0.18359375 C-2 0 -2 0 0 0 Z " fill="#AE544E" transform="translate(273,87)"/>
<path d="M0 0 C0.33 0 0.66 0 1 0 C0.83560987 6.72505081 -0.21055351 10.21055351 -5 15 C-5.99 14.67 -6.98 14.34 -8 14 C-8.33 14.99 -8.66 15.98 -9 17 C-9.33 16.01 -9.66 15.02 -10 14 C-10.66 14 -11.32 14 -12 14 C-10.86848239 10.60544716 -9.5712768 9.42002522 -7 7 C-6.2575 6.13375 -6.2575 6.13375 -5.5 5.25 C-4 4 -4 4 0 4 C0 2.68 0 1.36 0 0 Z " fill="#E6E1E0" transform="translate(284,122)"/>
<path d="M0 0 C2.64 0.66 5.28 1.32 8 2 C8 2.99 8 3.98 8 5 C8.45375 4.505 8.9075 4.01 9.375 3.5 C11 2 11 2 13 2 C12.34 3.98 11.68 5.96 11 8 C11.99 8.33 12.98 8.66 14 9 C14 10.65 14 12.3 14 14 C13.01 14.495 13.01 14.495 12 15 C12 14.34 12 13.68 12 13 C10.68 13 9.36 13 8 13 C7.67 12.01 7.34 11.02 7 10 C6.34 9.67 5.68 9.34 5 9 C5 7.68 5 6.36 5 5 C4.34 4.67 3.68 4.34 3 4 C3 3.34 3 2.68 3 2 C2.01 2 1.02 2 0 2 C0 1.34 0 0.68 0 0 Z " fill="#EFEBEA" transform="translate(246,124)"/>
<path d="M0 0 C2.2562926 1.93396508 3.10031541 3.24577275 4.25 6.0625 C5.80173816 9.36439574 5.80173816 9.36439574 9.6875 10.375 C10.780625 10.58125 11.87375 10.7875 13 11 C12.67 11.66 12.34 12.32 12 13 C10.58376784 13.05447047 9.16691809 13.09300508 7.75 13.125 C6.96109375 13.14820313 6.1721875 13.17140625 5.359375 13.1953125 C2.79268059 12.9828378 1.2083933 12.28654105 -1 11 C-1.02688151 9.35425434 -1.04634123 7.70838587 -1.0625 6.0625 C-1.07410156 5.14597656 -1.08570313 4.22945313 -1.09765625 3.28515625 C-1 1 -1 1 0 0 Z " fill="#3A3738" transform="translate(351,115)"/>
<path d="M0 0 C0.33 0 0.66 0 1 0 C1 2.31 1 4.62 1 7 C1.66 7 2.32 7 3 7 C3.4021875 8.2065625 3.4021875 8.2065625 3.8125 9.4375 C4.204375 10.283125 4.59625 11.12875 5 12 C5.99 12.33 6.98 12.66 8 13 C8.33 9.37 8.66 5.74 9 2 C9.33 2 9.66 2 10 2 C10 5.96 10 9.92 10 14 C9.34 14 8.68 14 8 14 C7.896875 14.639375 7.79375 15.27875 7.6875 15.9375 C7.460625 16.618125 7.23375 17.29875 7 18 C6.01 18.33 5.02 18.66 4 19 C4 17.68 4 16.36 4 15 C2.68 15 1.36 15 0 15 C0 10.05 0 5.1 0 0 Z " fill="#040303" transform="translate(273,97)"/>
<path d="M0 0 C3.63 0 7.26 0 11 0 C10.09507812 1.22589844 10.09507812 1.22589844 9.171875 2.4765625 C6.68412539 6.20818691 5.48092464 10.0938596 4.25 14.375 C4.02957031 15.11105469 3.80914062 15.84710938 3.58203125 16.60546875 C3.04570736 18.40098788 2.52157434 20.20014099 2 22 C1.01 22 0.02 22 -1 22 C0.66666667 15.33333333 2.33333333 8.66666667 4 2 C2.68 1.34 1.36 0.68 0 0 Z " fill="#423F40" transform="translate(233,90)"/>
<path d="M0 0 C2.5 1 2.5 1 4 2 C4 4.64 4 7.28 4 10 C3.01 10 2.02 10 1 10 C0.690625 9.05125 0.38125 8.1025 0.0625 7.125 C-2.26242495 3.60238644 -2.77503367 3.46162802 -6.6875 2.625 C-8.12117128 2.39177118 -9.5581019 2.17532514 -11 2 C-7.29598872 -0.46934085 -4.29412135 -0.44928433 0 0 Z " fill="#373435" transform="translate(120,88)"/>
<path d="M0 0 C2.625 0.375 2.625 0.375 5 1 C5.625 3.3125 5.625 3.3125 6 6 C5.01 7.485 5.01 7.485 4 9 C-0.875 8.125 -0.875 8.125 -2 7 C-2.1875 4.5625 -2.1875 4.5625 -2 2 C-1.34 1.34 -0.68 0.68 0 0 Z " fill="#373334" transform="translate(92,75)"/>
<path d="M0 0 C2.31 0.33 4.62 0.66 7 1 C7 5.29 7 9.58 7 14 C6.34 14 5.68 14 5 14 C4.35089846 12.41800369 3.70585306 10.83434276 3.0625 9.25 C2.70285156 8.36828125 2.34320312 7.4865625 1.97265625 6.578125 C1.14643424 4.38813896 0.50630057 2.28101729 0 0 Z " fill="#282425" transform="translate(27,75)"/>
<path d="M0 0 C-0.33 0.66 -0.66 1.32 -1 2 C-2.32 2 -3.64 2 -5 2 C-5.268125 2.763125 -5.53625 3.52625 -5.8125 4.3125 C-6.94424112 6.87380884 -7.91223401 8.19692938 -10 10 C-9.67 8.35 -9.34 6.7 -9 5 C-11.12364481 4.77390663 -11.12364481 4.77390663 -12.625 6.5 C-13.07875 6.995 -13.5325 7.49 -14 8 C-13.34 6.02 -12.68 4.04 -12 2 C-13.32 2.33 -14.64 2.66 -16 3 C-16 2.34 -16 1.68 -16 1 C-10.59255982 0.22750855 -5.46137814 -0.09752461 0 0 Z " fill="#7D615D" transform="translate(267,122)"/>
<path d="M0 0 C2.64 0 5.28 0 8 0 C9 3 9 3 8 6 C5.59454362 7.20272819 4.05003047 7.10071472 1.375 7.0625 C0.14910156 7.04896484 0.14910156 7.04896484 -1.1015625 7.03515625 C-2.04128906 7.01775391 -2.04128906 7.01775391 -3 7 C-3 5.35 -3 3.7 -3 2 C0.3 2.33 3.6 2.66 7 3 C7 2.34 7 1.68 7 1 C4.69 1 2.38 1 0 1 C0 0.67 0 0.34 0 0 Z " fill="#AD6049" transform="translate(251,115)"/>
<path d="M0 0 C-0.875 6.875 -0.875 6.875 -2 8 C-3.99958364 8.04080783 -6.00045254 8.04254356 -8 8 C-8 5.69 -8 3.38 -8 1 C-2.25 0 -2.25 0 0 0 Z " fill="#252122" transform="translate(226,136)"/>
<path d="M0 0 C1.5 1 1.5 1 3 3 C3.42372144 6.45332972 3.58512383 9.82975235 2 13 C0.68 12.67 -0.64 12.34 -2 12 C-1.814375 11.278125 -1.62875 10.55625 -1.4375 9.8125 C-0.98004693 6.87173027 -1.26483643 4.85896942 -2 2 C-1.34 2 -0.68 2 0 2 C0 1.34 0 0.68 0 0 Z " fill="#DDD7D5" transform="translate(279,97)"/>
<path d="M0 0 C5.03163018 4.29785078 10.02718443 8.63425542 15 13 C12 14 12 14 8.8125 12.5625 C7.884375 12.046875 6.95625 11.53125 6 11 C5.67 11.99 5.34 12.98 5 14 C4.80664062 13.40832031 4.61328125 12.81664063 4.4140625 12.20703125 C3.05585281 8.0853355 1.67949415 4.0049476 0 0 Z " fill="#4B4143" transform="translate(268,72)"/>
<path d="M0 0 C0.99 0 1.98 0 3 0 C2.74438677 2.3431213 2.40729228 4.67843403 2 7 C-1.21451269 8.60725635 -4.43612536 8.05748185 -8 8 C-6.68 8.33 -5.36 8.66 -4 9 C-4 9.66 -4 10.32 -4 11 C-6.64 10.67 -9.28 10.34 -12 10 C-12 8.35 -12 6.7 -12 5 C-11.67 5.66 -11.34 6.32 -11 7 C-5.555 6.505 -5.555 6.505 0 6 C0 4.02 0 2.04 0 0 Z " fill="#B18880" transform="translate(259,115)"/>
<path d="M0 0 C3.2542015 2.83430453 4.5206753 4.68607774 5 9 C2.03 9 -0.94 9 -4 9 C-2.68 6.03 -1.36 3.06 0 0 Z " fill="#C2B8B8" transform="translate(268,74)"/>
<path d="M0 0 C1.81242052 -0.02687279 3.62495233 -0.04633715 5.4375 -0.0625 C6.44683594 -0.07410156 7.45617187 -0.08570312 8.49609375 -0.09765625 C11 0 11 0 12 1 C12.14115161 3.67058851 12.04247107 6.32432238 12 9 C9 8 9 8 7.6875 5.5625 C5.53754024 2.29774629 3.71466789 1.90802993 0 1 C0 0.67 0 0.34 0 0 Z " fill="#282526" transform="translate(359,89)"/>
<path d="M0 0 C1.32 0 2.64 0 4 0 C4 1.65 4 3.3 4 5 C1.87561661 5.08078641 -0.2496323 5.13909141 -2.375 5.1875 C-3.55835938 5.22230469 -4.74171875 5.25710937 -5.9609375 5.29296875 C-7.46527344 5.14794922 -7.46527344 5.14794922 -9 5 C-9.66 4.01 -10.32 3.02 -11 2 C-10.06027344 2.03480469 -10.06027344 2.03480469 -9.1015625 2.0703125 C-7.87566406 2.09738281 -7.87566406 2.09738281 -6.625 2.125 C-5.40683594 2.15980469 -5.40683594 2.15980469 -4.1640625 2.1953125 C-1.78657757 2.21370051 -1.78657757 2.21370051 0 0 Z " fill="#AA4D44" transform="translate(266,107)"/>
<path d="M0 0 C0.33 0 0.66 0 1 0 C1.47661072 4.09885218 1.3448928 5.55930365 -1.25 8.875 C-4 11 -4 11 -8 11 C-7.44295272 7.76912579 -6.66812465 5.97638863 -4 4 C-2.68 4 -1.36 4 0 4 C0 2.68 0 1.36 0 0 Z " fill="#BEB9B8" transform="translate(284,122)"/>
<path d="M0 0 C1.98 0.495 1.98 0.495 4 1 C4 1.99 4 2.98 4 4 C3.34 4 2.68 4 2 4 C2 5.32 2 6.64 2 8 C2.66 8.33 3.32 8.66 4 9 C3.01 9.99 2.02 10.98 1 12 C1 11.01 1 10.02 1 9 C0.34 9 -0.32 9 -1 9 C-1.125 2.25 -1.125 2.25 0 0 Z " fill="#544344" transform="translate(275,95)"/>
<path d="M0 0 C0.66 0.33 1.32 0.66 2 1 C2.99716532 4.98866127 3.0502717 8.0323069 2 12 C1.34 11.67 0.68 11.34 0 11 C-0.99 11.99 -1.98 12.98 -3 14 C-2.44661458 12.01432292 -1.89322917 10.02864583 -1.33984375 8.04296875 C-0.80436183 5.80755841 -0.80436183 5.80755841 -2 3 C-1.34 2.01 -0.68 1.02 0 0 Z " fill="#B19F9D" transform="translate(273,123)"/>
<path d="M0 0 C1.32 0.33 2.64 0.66 4 1 C1.525 5.455 1.525 5.455 -1 10 C-1.99 9.01 -2.98 8.02 -4 7 C-2.68 4.69 -1.36 2.38 0 0 Z " fill="#CEC4C2" transform="translate(262,124)"/>
<path d="M0 0 C3.63 0 7.26 0 11 0 C11 0.99 11 1.98 11 3 C7.37 3 3.74 3 0 3 C0 2.01 0 1.02 0 0 Z " fill="#B54837" transform="translate(262,83)"/>
<path d="M0 0 C0.66 0 1.32 0 2 0 C2.45356243 6.46326465 1.59378942 9.60931587 -2 15 C-2.33 14.34 -2.66 13.68 -3 13 C-2.06553465 10.96855359 -1.06775224 8.96466413 0 7 C-0.99 6.34 -1.98 5.68 -3 5 C-1.625 2.5 -1.625 2.5 0 0 Z " fill="#927B7A" transform="translate(266,68)"/>
<path d="M0 0 C2 4 2 4 1.5390625 6.140625 C1.23742187 6.83671875 0.93578125 7.5328125 0.625 8.25 C0.32851563 8.95640625 0.03203125 9.6628125 -0.2734375 10.390625 C-0.51320313 10.92171875 -0.75296875 11.4528125 -1 12 C-1.33 11.01 -1.66 10.02 -2 9 C-2.99 8.67 -3.98 8.34 -5 8 C-3.35 5.36 -1.7 2.72 0 0 Z " fill="#DFD9D8" transform="translate(271,127)"/>
<path d="M0 0 C0.33 0 0.66 0 1 0 C1 2.31 1 4.62 1 7 C-0.1446875 7.1546875 -0.1446875 7.1546875 -1.3125 7.3125 C-4.17059424 8.04364039 -5.15742885 8.76951913 -7 11 C-7.33 10.34 -7.66 9.68 -8 9 C-7.34 9 -6.68 9 -6 9 C-5.7525 8.195625 -5.505 7.39125 -5.25 6.5625 C-4 4 -4 4 -1.875 3.1875 C-1.25625 3.125625 -0.6375 3.06375 0 3 C0 2.01 0 1.02 0 0 Z " fill="#413F3F" transform="translate(283,119)"/>
<path d="M0 0 C1.32 0.33 2.64 0.66 4 1 C2.68 3.64 1.36 6.28 0 9 C-0.99 9 -1.98 9 -3 9 C-2.01 6.03 -1.02 3.06 0 0 Z " fill="#C6BEBD" transform="translate(263,74)"/>
<path d="M0 0 C1.8871875 0.0309375 1.8871875 0.0309375 3.8125 0.0625 C3.8125 0.7225 3.8125 1.3825 3.8125 2.0625 C1.40704362 3.26522819 -0.13746953 3.16321472 -2.8125 3.125 C-4.03839844 3.11146484 -4.03839844 3.11146484 -5.2890625 3.09765625 C-6.22878906 3.08025391 -6.22878906 3.08025391 -7.1875 3.0625 C-7.1875 2.4025 -7.1875 1.7425 -7.1875 1.0625 C-4.43671116 0.14557039 -2.82801087 -0.04636083 0 0 Z " fill="#983822" transform="translate(268.1875,117.9375)"/>
<path d="M0 0 C-0.99 2.97 -1.98 5.94 -3 9 C-2.34 9.33 -1.68 9.66 -1 10 C-2.65 10 -4.3 10 -6 10 C-5.34 8.02 -4.68 6.04 -4 4 C-4.66 3.67 -5.32 3.34 -6 3 C-2.25 0 -2.25 0 0 0 Z " fill="#9D8E8E" transform="translate(263,74)"/>
<path d="M0 0 C3.63 0 7.26 0 11 0 C9.71937515 1.7074998 8.38232443 3.37373596 7 5 C5 5 5 5 3.5 3.625 C3.005 3.08875 2.51 2.5525 2 2 C1.34 1.34 0.68 0.68 0 0 Z " fill="#282425" transform="translate(233,90)"/>
<path d="M0 0 C1.98 0.99 1.98 0.99 4 2 C4 2.99 4 3.98 4 5 C5.65 5.33 7.3 5.66 9 6 C9 6.33 9 6.66 9 7 C6.03 7 3.06 7 0 7 C0 4.69 0 2.38 0 0 Z " fill="#9F4035" transform="translate(253,106)"/>
<path d="M0 0 C2.875 0.3125 2.875 0.3125 6 1 C8 4 8 4 8 8 C7.34 8 6.68 8 6 8 C4.98133771 6.34467377 3.98189187 4.67739862 3 3 C2.34 2.67 1.68 2.34 1 2 C0.67 1.34 0.34 0.68 0 0 Z " fill="#D2D0CF" transform="translate(259,94)"/>
<path d="M0 0 C1.32 0.33 2.64 0.66 4 1 C3.47535095 5.61691161 2.92509086 7.09987886 0 11 C0 7.37 0 3.74 0 0 Z " fill="#241A18" transform="translate(273,112)"/>
<path d="M0 0 C0.33 0 0.66 0 1 0 C1.125 7.75 1.125 7.75 0 10 C-1.32 9.67 -2.64 9.34 -4 9 C-4 8.34 -4 7.68 -4 7 C-3.525625 6.54625 -3.05125 6.0925 -2.5625 5.625 C-0.77906263 3.77022513 -0.4308007 2.49864408 0 0 Z " fill="#B8B2B1" transform="translate(281,100)"/>
<path d="M0 0 C1.8871875 0.0309375 1.8871875 0.0309375 3.8125 0.0625 C2.8225 0.3925 1.8325 0.7225 0.8125 1.0625 C0.8125 1.7225 0.8125 2.3825 0.8125 3.0625 C-2.0625 3.1875 -2.0625 3.1875 -5.1875 3.0625 C-5.8475 2.4025 -6.5075 1.7425 -7.1875 1.0625 C-4.43671116 0.14557039 -2.82801087 -0.04636083 0 0 Z " fill="#6D6B6B" transform="translate(116.1875,87.9375)"/>
<path d="M0 0 C2.64 0.66 5.28 1.32 8 2 C8 3.65 8 5.3 8 7 C7.01 7.495 7.01 7.495 6 8 C5.67 7.01 5.34 6.02 5 5 C4.34 4.67 3.68 4.34 3 4 C3 3.34 3 2.68 3 2 C2.01 2 1.02 2 0 2 C0 1.34 0 0.68 0 0 Z " fill="#D5CECC" transform="translate(246,124)"/>
<path d="M0 0 C2.97 0.33 5.94 0.66 9 1 C9 1.66 9 2.32 9 3 C5.7 3 2.4 3 -1 3 C-0.67 2.01 -0.34 1.02 0 0 Z " fill="#9B2C22" transform="translate(252,112)"/>
<path d="M0 0 C0 0.66 0 1.32 0 2 C-2.97 2 -5.94 2 -9 2 C-9 1.34 -9 0.68 -9 0 C-3.375 -1.125 -3.375 -1.125 0 0 Z " fill="#944126" transform="translate(257,120)"/>
<path d="M0 0 C0.99 0 1.98 0 3 0 C2.74438677 2.3431213 2.40729228 4.67843403 2 7 C1.01 7.495 1.01 7.495 0 8 C-1.125 5.6875 -1.125 5.6875 -2 3 C-1.34 2.01 -0.68 1.02 0 0 Z " fill="#CEC6C4" transform="translate(256,126)"/>
<path d="M0 0 C1.8871875 0.061875 1.8871875 0.061875 3.8125 0.125 C3.8125 0.455 3.8125 0.785 3.8125 1.125 C2.1625 1.125 0.5125 1.125 -1.1875 1.125 C-1.1875 1.785 -1.1875 2.445 -1.1875 3.125 C-4.1575 2.63 -4.1575 2.63 -7.1875 2.125 C-4.09861478 0.06574319 -3.47814073 -0.1140374 0 0 Z " fill="#727070" transform="translate(55.1875,87.875)"/>
<path d="M0 0 C0.66 0 1.32 0 2 0 C2.33 1.65 2.66 3.3 3 5 C1.35 5 -0.3 5 -2 5 C-1.34 3.35 -0.68 1.7 0 0 Z " fill="#A69A9A" transform="translate(270,78)"/>
<path d="M0 0 C0.33 0.99 0.66 1.98 1 3 C-0.65 4.65 -2.3 6.3 -4 8 C-3.50168276 4.31245243 -2.89932357 2.39509338 0 0 Z " fill="#ECE9E9" transform="translate(283,128)"/>
<path d="M0 0 C2.625 -0.1875 2.625 -0.1875 5 0 C3.71034824 1.37562854 2.37310707 2.70766393 1 4 C0.34 4 -0.32 4 -1 4 C-1.33 4.66 -1.66 5.32 -2 6 C-2 3 -2 3 0 0 Z " fill="#858080" transform="translate(279,126)"/>
<path d="M0 0 C0.99 0 1.98 0 3 0 C2.34 1.98 1.68 3.96 1 6 C0.01 5.01 -0.98 4.02 -2 3 C-1.34 2.01 -0.68 1.02 0 0 Z " fill="#CAC2BF" transform="translate(267,125)"/>
<path d="M0 0 C0.33 0.99 0.66 1.98 1 3 C1.99 3 2.98 3 4 3 C4 4.65 4 6.3 4 8 C2.0625 7.25 2.0625 7.25 0 6 C-0.8125 4 -0.8125 4 -1 2 C-0.67 1.34 -0.34 0.68 0 0 Z " fill="#2C2322" transform="translate(276,113)"/>
</svg>
