<svg width="600" height="300" version="1.1" xmlns="http://www.w3.org/2000/svg" desc="Created with imagetracer.js version 1.2.6" ><path fill="rgb(25,67,201)" stroke="rgb(25,67,201)" stroke-width="1" opacity="0.9137254901960784" d="M 514.5 23 L 520 23.5 L 514.5 24 L 514.5 23 Z " /><path fill="rgb(25,67,201)" stroke="rgb(25,67,201)" stroke-width="1" opacity="0.9137254901960784" d="M 522.5 23 L 529 23.5 L 522.5 24 L 522.5 23 Z " /><path fill="rgb(25,67,201)" stroke="rgb(25,67,201)" stroke-width="1" opacity="0.9137254901960784" d="M 60 44 L 100.5 44 L 107 45.5 L 103 46 L 133 126.5 L 135.5 130 L 143.5 121 L 142 123.5 L 131.5 135 L 113.5 144 L 98 146 L 86 113 L 69 112.5 L 95.5 112 Q 102.7 110.2 106 104.5 Q 109.7 100.2 108 90.5 L 102.5 82 L 96.5 79 L 59 78.5 L 72 78 L 60 44 Z " /><path fill="rgb(25,67,201)" stroke="rgb(25,67,201)" stroke-width="1" opacity="0.9137254901960784" d="M 109.5 46 L 112 46.5 L 109.5 47 L 109.5 46 Z " /><path fill="rgb(25,67,201)" stroke="rgb(25,67,201)" stroke-width="1" opacity="0.9137254901960784" d="M 457.5 48 L 454.5 52 L 457.5 48 Z " /><path fill="rgb(25,67,201)" stroke="rgb(25,67,201)" stroke-width="1" opacity="0.9137254901960784" d="M 572.5 48 L 584 61.5 L 581 59.5 L 579.5 57 L 568 77.5 L 571 83.5 L 570 83.5 Q 567.6 75.4 562 70.5 L 564 70.5 L 574 50.5 L 572.5 48 Z " /><path fill="rgb(25,67,201)" stroke="rgb(25,67,201)" stroke-width="1" opacity="0.9137254901960784" d="M 121.5 50 L 126 52.5 L 124.5 52 Q 120.7 51.7 121.5 50 Z " /><path fill="rgb(25,67,201)" stroke="rgb(25,67,201)" stroke-width="1" opacity="0.9137254901960784" d="M 127.5 53 L 133 57.5 L 129.5 55 L 127.5 53 Z " /><path fill="rgb(25,67,201)" stroke="rgb(25,67,201)" stroke-width="1" opacity="0.9137254901960784" d="M 134.5 58 L 139.5 64 L 134.5 58 Z " /><path fill="rgb(25,67,201)" stroke="rgb(25,67,201)" stroke-width="1" opacity="0.9137254901960784" d="M 140.5 65 L 142.5 68 L 140.5 65 Z " /><path fill="rgb(25,67,201)" stroke="rgb(25,67,201)" stroke-width="1" opacity="0.9137254901960784" d="M 143.5 69 L 146 72.5 L 144 71.5 L 143.5 69 Z " /><path fill="rgb(25,67,201)" stroke="rgb(25,67,201)" stroke-width="1" opacity="0.9137254901960784" d="M 146.5 74 L 148 77.5 L 147 77.5 L 146.5 74 Z " /><path fill="rgb(25,67,201)" stroke="rgb(25,67,201)" stroke-width="1" opacity="0.9137254901960784" d="M 161.5 75 L 162 187 L 202 187.5 L 162.5 188 L 161 186.5 L 161.5 75 Z " /><path fill="rgb(25,67,201)" stroke="rgb(25,67,201)" stroke-width="1" opacity="0.9137254901960784" d="M 150.5 86 L 151 89.5 L 150 89.5 L 150.5 86 Z " /><path fill="rgb(25,67,201)" stroke="rgb(25,67,201)" stroke-width="1" opacity="0.9137254901960784" d="M 150.5 100 L 151 104.5 L 150 104.5 L 150.5 100 Z " /><path fill="rgb(25,67,201)" stroke="rgb(25,67,201)" stroke-width="1" opacity="0.9137254901960784" d="M 149.5 106 L 150 108.5 L 149 108.5 L 149.5 106 Z " /><path fill="rgb(25,67,201)" stroke="rgb(25,67,201)" stroke-width="1" opacity="0.9137254901960784" d="M 146.5 115 L 147 116.5 L 145 117.5 L 146.5 115 Z " /><path fill="rgb(25,67,201)" stroke="rgb(25,67,201)" stroke-width="1" opacity="0.9137254901960784" d="M 510.5 123 L 511 136 L 538 136 L 538 124.5 L 539 124.5 L 538.5 155 L 538 150 L 511.5 150 Q 510.4 150.1 511 155.5 L 510 155.5 L 510.5 123 Z " /><path fill="rgb(25,67,201)" stroke="rgb(25,67,201)" stroke-width="1" opacity="0.9137254901960784" d="M 469 136 L 497 136 L 497 150 L 469 150 L 469 136 Z " /><path fill="rgb(25,67,201)" stroke="rgb(25,67,201)" stroke-width="1" opacity="0.9137254901960784" d="M 80.5 146 L 97 146.5 L 80.5 147 L 80.5 146 Z " /><path fill="rgb(25,67,201)" stroke="rgb(25,67,201)" stroke-width="1" opacity="0.9137254901960784" d="M 442.5 158 L 443.5 160 L 442.5 158 Z " /><path fill="rgb(25,67,201)" stroke="rgb(25,67,201)" stroke-width="1" opacity="0.9137254901960784" d="M 444.5 161 L 447.5 165 L 444.5 161 Z " /><path fill="rgb(25,67,201)" stroke="rgb(25,67,201)" stroke-width="1" opacity="0.9137254901960784" d="M 584.5 165 L 582.5 168 L 584.5 165 Z " /><path fill="rgb(25,67,201)" stroke="rgb(25,67,201)" stroke-width="1" opacity="0.9137254901960784" d="M 448.5 166 L 465 179.5 L 450 195.5 L 450.5 197 L 448.5 194 L 447.5 195 L 444.5 192 L 432 181.5 L 436.5 185 L 438.5 185 L 452 171.5 L 448.5 166 Z " /><path fill="rgb(25,67,201)" stroke="rgb(25,67,201)" stroke-width="1" opacity="0.9137254901960784" d="M 427.5 175 L 430.5 179 L 427.5 175 Z " /><path fill="rgb(25,67,201)" stroke="rgb(25,67,201)" stroke-width="1" opacity="0.9137254901960784" d="M 452.5 197 L 453.5 199 L 452.5 197 Z " /><path fill="rgb(25,67,201)" stroke="rgb(25,67,201)" stroke-width="1" opacity="0.9137254901960784" d="M 253.5 250 L 255 250.5 L 253 251 L 252.5 254 L 252 251.5 L 253.5 250 Z " /><path fill="rgb(25,67,201)" stroke="rgb(25,67,201)" stroke-width="1" opacity="0.9137254901960784" d="M 256.5 250 L 259 251.5 L 257.5 251 L 256.5 250 Z " /><path fill="rgb(25,67,201)" stroke="rgb(25,67,201)" stroke-width="1" opacity="0.9137254901960784" d="M 225 251 L 230 251 L 230 263.5 L 243.5 251 L 247.5 252 L 249 251.5 L 239 262.5 L 252 278.5 L 248 275.5 L 247.5 274 L 247 279 L 244 277.5 L 235.5 266 L 230 270.5 L 230 279 L 225 279 L 225 251 Z " /><path fill="rgb(25,67,201)" stroke="rgb(25,67,201)" stroke-width="1" opacity="0.9137254901960784" d="M 265.5 251 L 267 251.5 L 263.5 254 L 265.5 251 Z " /><path fill="rgb(25,67,201)" stroke="rgb(25,67,201)" stroke-width="1" opacity="0.9137254901960784" d="M 216.5 252 L 219.5 256 L 216.5 252 Z " /><path fill="rgb(25,67,201)" stroke="rgb(25,67,201)" stroke-width="1" opacity="0.9137254901960784" d="M 213.5 255 L 215.5 258 L 213.5 255 Z " /><path fill="rgb(25,67,201)" stroke="rgb(25,67,201)" stroke-width="1" opacity="0.9137254901960784" d="M 254.5 255 Q 257.8 253.9 257 256.5 L 255.5 256 L 254.5 255 Z " /><path fill="rgb(25,67,201)" stroke="rgb(25,67,201)" stroke-width="1" opacity="0.9137254901960784" d="M 267.5 255 L 267 256.5 L 268 260.5 L 266 259.5 Q 265.3 255.8 267.5 255 Z " /><path fill="rgb(25,67,201)" stroke="rgb(25,67,201)" stroke-width="1" opacity="0.9137254901960784" d="M 220.5 258 L 221 260.5 L 220 260.5 L 220.5 258 Z " /><path fill="rgb(25,67,201)" stroke="rgb(25,67,201)" stroke-width="1" opacity="0.9137254901960784" d="M 258.5 258 L 254.5 263 L 251 261.5 L 251.5 260 L 252 262 Q 257.1 262.8 258.5 258 Z " /><path fill="rgb(25,67,201)" stroke="rgb(25,67,201)" stroke-width="1" opacity="0.9137254901960784" d="M 219.5 263 L 216.5 267 L 219.5 263 Z " /><path fill="rgb(25,67,201)" stroke="rgb(25,67,201)" stroke-width="1" opacity="0.9137254901960784" d="M 262.5 271 L 264 271.5 L 261.5 273 L 262.5 271 Z " /><path fill="rgb(25,67,201)" stroke="rgb(25,67,201)" stroke-width="1" opacity="0.9137254901960784" d="M 265.5 272 L 266.5 274 L 265.5 272 Z " /><path fill="rgb(25,67,201)" stroke="rgb(25,67,201)" stroke-width="1" opacity="0.9137254901960784" d="M 217.5 273 L 218.5 275 L 217.5 273 Z " /><path fill="rgb(25,67,201)" stroke="rgb(25,67,201)" stroke-width="1" opacity="0.9137254901960784" d="M 262.5 275 L 263.5 277 L 262.5 275 Z " /><path fill="rgb(25,67,201)" stroke="rgb(25,67,201)" stroke-width="1" opacity="0.9137254901960784" d="M 265.5 277 L 268 278.5 L 266.5 279 L 265.5 277 Z " /><path fill="rgb(41,88,225)" stroke="rgb(41,88,225)" stroke-width="1" opacity="0.9254901960784314" d="M 508.5 19 L 516 19.5 L 508.5 20 L 508.5 19 Z " /><path fill="rgb(41,88,225)" stroke="rgb(41,88,225)" stroke-width="1" opacity="0.9254901960784314" d="M 518.5 20 L 530 22.5 L 520.5 23 L 520.5 21 Q 517.5 21.5 518.5 20 Z " /><path fill="rgb(41,88,225)" stroke="rgb(41,88,225)" stroke-width="1" opacity="0.9254901960784314" d="M 531.5 23 L 534 23.5 L 531.5 24 L 531.5 23 Z " /><path fill="rgb(41,88,225)" stroke="rgb(41,88,225)" stroke-width="1" opacity="0.9254901960784314" d="M 217 44 L 273.5 44 L 277 47.5 L 273.5 45 L 254.5 45 L 254 47.5 L 276 105.5 L 283 114.5 L 281 118.5 L 295.5 155 L 297 152 L 300 150.5 L 308.5 141 L 303 147.5 L 267.5 185 L 268 183.5 L 268 180.5 L 253.5 144 L 252 144.5 L 257 141 L 263 132.5 L 281 113.5 L 217 45.5 L 217 44 Z " /><path fill="rgb(41,88,225)" stroke="rgb(41,88,225)" stroke-width="1" opacity="0.9254901960784314" d="M 277.5 49 L 286.5 59 L 277.5 49 Z " /><path fill="rgb(41,88,225)" stroke="rgb(41,88,225)" stroke-width="1" opacity="0.9254901960784314" d="M 293.5 66 L 297.5 71 L 293.5 66 Z " /><path fill="rgb(41,88,225)" stroke="rgb(41,88,225)" stroke-width="1" opacity="0.9254901960784314" d="M 497.5 74 L 498 91.5 L 497 92.5 L 497 100 L 469 100 L 469 88 L 497 88 L 497.5 74 Z " /><path fill="rgb(41,88,225)" stroke="rgb(41,88,225)" stroke-width="1" opacity="0.9254901960784314" d="M 591.5 75 L 596 87.5 L 595 87.5 L 593.5 83 L 578 110.5 L 577.5 122 L 576 100.5 L 591.5 75 Z " /><path fill="rgb(41,88,225)" stroke="rgb(41,88,225)" stroke-width="1" opacity="0.9254901960784314" d="M 538.5 78 L 539 101.5 L 538 101.5 L 537.5 100 L 511.5 100 L 510 100.5 L 510.5 80 L 511 88 L 538 88 L 538.5 78 Z " /><path fill="rgb(41,88,225)" stroke="rgb(41,88,225)" stroke-width="1" opacity="0.9254901960784314" d="M 429.5 104 L 430 110.5 L 429 110.5 L 429.5 104 Z " /><path fill="rgb(41,88,225)" stroke="rgb(41,88,225)" stroke-width="1" opacity="0.9254901960784314" d="M 428.5 117 L 430 120.5 L 431 133.5 L 414.5 151 Q 412.3 151.8 413 149.5 L 409 136.5 L 428.5 117 Z " /><path fill="rgb(41,88,225)" stroke="rgb(41,88,225)" stroke-width="1" opacity="0.9254901960784314" d="M 407.5 125 L 408 129.5 L 407 129.5 L 407.5 125 Z " /><path fill="rgb(41,88,225)" stroke="rgb(41,88,225)" stroke-width="1" opacity="0.9254901960784314" d="M 408.5 131 L 409 134.5 L 408 134.5 L 408.5 131 Z " /><path fill="rgb(41,88,225)" stroke="rgb(41,88,225)" stroke-width="1" opacity="0.9254901960784314" d="M 310.5 141 L 322 153.5 L 312 144.5 L 310.5 141 Z " /><path fill="rgb(41,88,225)" stroke="rgb(41,88,225)" stroke-width="1" opacity="0.9254901960784314" d="M 323.5 156 L 328.5 162 L 323.5 156 Z " /><path fill="rgb(41,88,225)" stroke="rgb(41,88,225)" stroke-width="1" opacity="0.9254901960784314" d="M 333.5 167 L 334.5 169 L 333.5 167 Z " /><path fill="rgb(41,88,225)" stroke="rgb(41,88,225)" stroke-width="1" opacity="0.9254901960784314" d="M 544.5 177 L 546 177.5 L 536 184.5 L 533.5 189 L 526.5 190 L 528 187.5 L 529.5 185 L 544.5 177 Z " /><path fill="rgb(41,88,225)" stroke="rgb(41,88,225)" stroke-width="1" opacity="0.9254901960784314" d="M 316 251 L 324 251 L 324 253.5 L 317 269.5 L 314 272.5 L 314.5 274 L 313 273.5 L 313 262.5 L 312.5 261 L 314 260.5 L 314 258.5 L 316 251 Z " /><path fill="rgb(41,88,225)" stroke="rgb(41,88,225)" stroke-width="1" opacity="0.9254901960784314" d="M 325 251 L 335 251 L 335 256.5 L 335.5 257 L 348 257 L 348.5 251 L 349 256.5 L 347.5 258 L 333 258 L 333 261 L 341.5 261 L 341.5 262 L 335 262 L 335 267 L 342 267.5 L 333 268 L 333.5 272 L 348.5 272 L 348.5 273 L 335.5 273 L 335 273.5 L 335 279 L 325 279 L 325 251 Z " /><path fill="rgb(41,88,225)" stroke="rgb(41,88,225)" stroke-width="1" opacity="0.9254901960784314" d="M 351.5 251 L 352 278.5 L 351 278.5 L 351.5 251 Z " /><path fill="rgb(56,106,246)" stroke="rgb(56,106,246)" stroke-width="1" opacity="0.9450980392156862" d="M 477.5 22 L 479 22.5 L 409.5 95 L 409 92.5 Q 417.1 62.1 437.5 44 Q 453.3 28.8 477.5 22 Z " /><path fill="rgb(56,106,246)" stroke="rgb(56,106,246)" stroke-width="1" opacity="0.9450980392156862" d="M 350.5 44 L 405.5 44 L 406 45.5 L 347 103.5 L 353 96.5 L 339 59 L 337 58.5 L 350.5 44 Z " /><path fill="rgb(56,106,246)" stroke="rgb(56,106,246)" stroke-width="1" opacity="0.9450980392156862" d="M 495.5 57 L 498 57 L 498 63.5 L 496.5 63 L 488.5 63 L 488 61 L 495.5 57 Z " /><path fill="rgb(56,106,246)" stroke="rgb(56,106,246)" stroke-width="1" opacity="0.9450980392156862" d="M 536.5 57 L 539 57.5 L 539 64.5 L 538 64.5 L 537.5 63 L 527.5 63 L 524.5 65 L 525.5 63 L 536.5 57 Z " /><path fill="rgb(56,106,246)" stroke="rgb(56,106,246)" stroke-width="1" opacity="0.9450980392156862" d="M 484.5 63 L 483.5 65 L 481.5 66 L 482.5 64 L 484.5 63 Z " /><path fill="rgb(56,106,246)" stroke="rgb(56,106,246)" stroke-width="1" opacity="0.9450980392156862" d="M 332.5 64 L 330.5 67 L 332.5 64 Z " /><path fill="rgb(56,106,246)" stroke="rgb(56,106,246)" stroke-width="1" opacity="0.9450980392156862" d="M 408.5 96 L 409 99.5 L 408 99.5 L 408.5 96 Z " /><path fill="rgb(56,106,246)" stroke="rgb(56,106,246)" stroke-width="1" opacity="0.9450980392156862" d="M 598.5 99 L 600 103.5 L 600 128.5 L 594 151.5 Q 589.5 163.5 579.5 170 Q 567.9 179.4 552.5 185 L 552 183.5 L 567 156.5 L 566.5 155 Q 567.8 157.2 569 154.5 L 568 152.5 L 570 152.5 L 571 149.5 L 570.5 148 Q 571.8 150.2 573 147.5 L 595 108.5 L 598.5 99 Z " /><path fill="rgb(56,106,246)" stroke="rgb(56,106,246)" stroke-width="1" opacity="0.9450980392156862" d="M 358.5 134 L 361.5 138 L 358.5 134 Z " /><path fill="rgb(56,106,246)" stroke="rgb(56,106,246)" stroke-width="1" opacity="0.9450980392156862" d="M 363.5 139 L 367.5 144 L 363.5 139 Z " /><path fill="rgb(56,106,246)" stroke="rgb(56,106,246)" stroke-width="1" opacity="0.9450980392156862" d="M 371.5 147 L 373 150 Q 375.7 148.9 375 151.5 L 391 167.5 L 391 169 L 394 170.5 L 409 186.5 L 409 188 L 384 187.5 L 387 187 L 374 151.5 L 371.5 147 Z " /><path fill="rgb(56,106,246)" stroke="rgb(56,106,246)" stroke-width="1" opacity="0.9450980392156862" d="M 420.5 250 Q 432.7 248.3 437 254.5 Q 441 258.5 441 266.5 L 437 276 L 429.5 280 L 420.5 280 L 413 275.5 L 410 270.5 L 409 263.5 Q 410.3 256.8 414.5 253 L 420.5 250 Z M 423 257 L 421 258 L 418 262 L 419 271 L 423 273 Q 428 274 430 272 L 432 269 L 431 260 Q 429 256 423 257 Z " /><path fill="rgb(56,106,246)" stroke="rgb(56,106,246)" stroke-width="1" opacity="0.9450980392156862" d="M 382 251 L 384.5 252 L 386 251.5 L 389 258 L 392 256.5 L 395.5 251 L 404 251.5 L 394 266.5 L 394 279 L 386 279 L 386 266.5 L 380 257.5 L 382 257.5 L 382 251 Z " /><path fill="rgb(56,106,246)" stroke="rgb(56,106,246)" stroke-width="1" opacity="0.9450980392156862" d="M 439.5 251 L 447.5 251 L 448 253.5 L 451.5 265 L 456 251 Q 461.4 249.5 463 252.5 L 466.5 266 L 470 251 L 479 251.5 L 471 279 L 463.5 279 L 462 277.5 L 460 267 Q 456.7 265.7 458 270.5 L 454.5 279 L 447 279 L 447 275.5 L 439.5 251 Z " /><path fill="rgb(56,106,246)" stroke="rgb(56,106,246)" stroke-width="1" opacity="0.9450980392156862" d="M 480 251 Q 488.9 249.3 491 255.5 L 497.5 265 L 498 251 L 505.5 251 L 506 251.5 L 506 279 L 498.5 279 L 498 277.5 L 488.5 266 L 488 279 L 480.5 279 L 480 278.5 L 480 251 Z " /><path fill="rgb(0,36,168)" stroke="rgb(0,36,168)" stroke-width="1" opacity="0.03529411764705882" d="M 543.5 27 L 550 30.5 L 548.5 30 L 543.5 28 L 543.5 27 Z " /><path fill="rgb(0,36,168)" stroke="rgb(0,36,168)" stroke-width="1" opacity="0.03529411764705882" d="M 553.5 32 L 561 37.5 L 558.5 36 Q 553.9 34.8 553.5 32 Z " /><path fill="rgb(0,36,168)" stroke="rgb(0,36,168)" stroke-width="1" opacity="0.03529411764705882" d="M 445.5 37 L 444.5 39 L 445.5 37 Z " /><path fill="rgb(0,36,168)" stroke="rgb(0,36,168)" stroke-width="1" opacity="0.03529411764705882" d="M 562.5 38 L 565.5 42 L 562.5 38 Z " /><path fill="rgb(0,36,168)" stroke="rgb(0,36,168)" stroke-width="1" opacity="0.03529411764705882" d="M 440.5 41 L 438.5 44 L 440.5 41 Z " /><path fill="rgb(0,36,168)" stroke="rgb(0,36,168)" stroke-width="1" opacity="0.03529411764705882" d="M 498.5 41 L 509 41.5 L 498.5 42 L 498.5 41 Z " /><path fill="rgb(0,36,168)" stroke="rgb(0,36,168)" stroke-width="1" opacity="0.03529411764705882" d="M 490.5 42 L 493 42.5 L 490.5 43 L 490.5 42 Z " /><path fill="rgb(0,36,168)" stroke="rgb(0,36,168)" stroke-width="1" opacity="0.03529411764705882" d="M 514.5 42 L 517 42.5 L 514.5 43 L 514.5 42 Z " /><path fill="rgb(0,36,168)" stroke="rgb(0,36,168)" stroke-width="1" opacity="0.03529411764705882" d="M 567.5 42 L 576.5 52 L 567.5 42 Z " /><path fill="rgb(0,36,168)" stroke="rgb(0,36,168)" stroke-width="1" opacity="0.03529411764705882" d="M 0.5 43 L 92 43.5 L 0.5 44 L 0.5 43 Z " /><path fill="rgb(0,36,168)" stroke="rgb(0,36,168)" stroke-width="1" opacity="0.03529411764705882" d="M 162.5 43 L 203.5 43 L 205 44.5 L 205 187.5 L 203.5 188 L 204 186.5 L 204 44.5 L 203.5 44 L 162.5 44 L 162.5 43 Z " /><path fill="rgb(0,36,168)" stroke="rgb(0,36,168)" stroke-width="1" opacity="0.03529411764705882" d="M 485.5 43 L 488 43.5 L 485.5 44 L 485.5 43 Z " /><path fill="rgb(0,36,168)" stroke="rgb(0,36,168)" stroke-width="1" opacity="0.03529411764705882" d="M 519.5 43 L 522 43.5 L 519.5 44 L 519.5 43 Z " /><path fill="rgb(0,36,168)" stroke="rgb(0,36,168)" stroke-width="1" opacity="0.03529411764705882" d="M 101.5 44 L 104 44.5 L 101.5 45 L 101.5 44 Z " /><path fill="rgb(0,36,168)" stroke="rgb(0,36,168)" stroke-width="1" opacity="0.03529411764705882" d="M 347.5 47 L 340.5 55 L 347.5 47 Z " /><path fill="rgb(0,36,168)" stroke="rgb(0,36,168)" stroke-width="1" opacity="0.03529411764705882" d="M 277.5 48 L 281.5 53 L 277.5 48 Z " /><path fill="rgb(0,36,168)" stroke="rgb(0,36,168)" stroke-width="1" opacity="0.03529411764705882" d="M 471.5 48 L 473 48.5 L 468.5 51 L 469.5 49 L 471.5 48 Z " /><path fill="rgb(0,36,168)" stroke="rgb(0,36,168)" stroke-width="1" opacity="0.03529411764705882" d="M 220.5 49 L 228.5 58 L 220.5 49 Z " /><path fill="rgb(0,36,168)" stroke="rgb(0,36,168)" stroke-width="1" opacity="0.03529411764705882" d="M 432.5 49 L 429.5 53 L 432.5 49 Z " /><path fill="rgb(0,36,168)" stroke="rgb(0,36,168)" stroke-width="1" opacity="0.03529411764705882" d="M 464.5 52 L 463.5 54 L 464.5 52 Z " /><path fill="rgb(0,36,168)" stroke="rgb(0,36,168)" stroke-width="1" opacity="0.03529411764705882" d="M 542.5 52 L 543.5 54 L 542.5 52 Z " /><path fill="rgb(0,36,168)" stroke="rgb(0,36,168)" stroke-width="1" opacity="0.03529411764705882" d="M 461.5 54 L 460.5 56 L 461.5 54 Z " /><path fill="rgb(0,36,168)" stroke="rgb(0,36,168)" stroke-width="1" opacity="0.03529411764705882" d="M 545.5 54 L 547.5 57 L 545.5 54 Z " /><path fill="rgb(0,36,168)" stroke="rgb(0,36,168)" stroke-width="1" opacity="0.03529411764705882" d="M 578.5 54 L 580.5 57 L 578.5 54 Z " /><path fill="rgb(0,36,168)" stroke="rgb(0,36,168)" stroke-width="1" opacity="0.03529411764705882" d="M 131.5 55 L 133.5 58 L 131.5 55 Z " /><path fill="rgb(0,36,168)" stroke="rgb(0,36,168)" stroke-width="1" opacity="0.03529411764705882" d="M 426.5 56 L 425.5 58 L 426.5 56 Z " /><path fill="rgb(0,36,168)" stroke="rgb(0,36,168)" stroke-width="1" opacity="0.03529411764705882" d="M 458.5 56 L 455.5 60 L 458.5 56 Z " /><path fill="rgb(0,36,168)" stroke="rgb(0,36,168)" stroke-width="1" opacity="0.03529411764705882" d="M 549.5 57 L 553.5 62 L 549.5 57 Z " /><path fill="rgb(0,36,168)" stroke="rgb(0,36,168)" stroke-width="1" opacity="0.03529411764705882" d="M 287.5 59 L 292.5 65 L 287.5 59 Z " /><path fill="rgb(0,36,168)" stroke="rgb(0,36,168)" stroke-width="1" opacity="0.03529411764705882" d="M 451.5 62 L 449.5 65 L 451.5 62 Z " /><path fill="rgb(0,36,168)" stroke="rgb(0,36,168)" stroke-width="1" opacity="0.03529411764705882" d="M 140.5 64 L 141.5 66 L 140.5 64 Z " /><path fill="rgb(0,36,168)" stroke="rgb(0,36,168)" stroke-width="1" opacity="0.03529411764705882" d="M 236.5 66 L 244.5 75 L 236.5 66 Z " /><path fill="rgb(0,36,168)" stroke="rgb(0,36,168)" stroke-width="1" opacity="0.03529411764705882" d="M 329.5 66 L 322.5 74 L 329.5 66 Z " /><path fill="rgb(0,36,168)" stroke="rgb(0,36,168)" stroke-width="1" opacity="0.03529411764705882" d="M 558.5 66 L 561.5 70 L 558.5 66 Z " /><path fill="rgb(0,36,168)" stroke="rgb(0,36,168)" stroke-width="1" opacity="0.03529411764705882" d="M 447.5 67 L 444.5 71 L 447.5 67 Z " /><path fill="rgb(0,36,168)" stroke="rgb(0,36,168)" stroke-width="1" opacity="0.03529411764705882" d="M 298.5 71 L 302.5 76 L 298.5 71 Z " /><path fill="rgb(0,36,168)" stroke="rgb(0,36,168)" stroke-width="1" opacity="0.03529411764705882" d="M 443.5 72 L 442.5 74 L 443.5 72 Z " /><path fill="rgb(0,36,168)" stroke="rgb(0,36,168)" stroke-width="1" opacity="0.03529411764705882" d="M 507.5 72 L 507 73.5 L 509 76.5 L 506 74.5 L 507.5 72 Z " /><path fill="rgb(0,36,168)" stroke="rgb(0,36,168)" stroke-width="1" opacity="0.03529411764705882" d="M 563.5 72 L 564.5 74 L 563.5 72 Z " /><path fill="rgb(0,36,168)" stroke="rgb(0,36,168)" stroke-width="1" opacity="0.03529411764705882" d="M 441.5 75 L 440.5 77 L 441.5 75 Z " /><path fill="rgb(0,36,168)" stroke="rgb(0,36,168)" stroke-width="1" opacity="0.03529411764705882" d="M 565.5 75 L 566.5 77 L 565.5 75 Z " /><path fill="rgb(0,36,168)" stroke="rgb(0,36,168)" stroke-width="1" opacity="0.03529411764705882" d="M 439.5 78 L 439 79.5 L 437.5 82 L 438 80.5 L 439.5 78 Z " /><path fill="rgb(0,36,168)" stroke="rgb(0,36,168)" stroke-width="1" opacity="0.03529411764705882" d="M 468.5 80 L 469 174 L 497 174 L 497 92.5 L 498 92.5 L 498 175 L 468 175 L 468.5 80 Z " /><path fill="rgb(0,36,168)" stroke="rgb(0,36,168)" stroke-width="1" opacity="0.03529411764705882" d="M 102.5 82 L 104.5 85 L 102.5 82 Z " /><path fill="rgb(0,36,168)" stroke="rgb(0,36,168)" stroke-width="1" opacity="0.03529411764705882" d="M 308.5 82 Q 310.7 86.3 313 84.5 L 311.5 86 L 308.5 82 Z " /><path fill="rgb(0,36,168)" stroke="rgb(0,36,168)" stroke-width="1" opacity="0.03529411764705882" d="M 253.5 84 L 260.5 92 L 253.5 84 Z " /><path fill="rgb(0,36,168)" stroke="rgb(0,36,168)" stroke-width="1" opacity="0.03529411764705882" d="M 105.5 86 L 106.5 88 L 105.5 86 Z " /><path fill="rgb(0,36,168)" stroke="rgb(0,36,168)" stroke-width="1" opacity="0.03529411764705882" d="M 361.5 90 L 340 112.5 L 347 120.5 L 339 113.5 L 361.5 90 Z " /><path fill="rgb(0,36,168)" stroke="rgb(0,36,168)" stroke-width="1" opacity="0.03529411764705882" d="M 151.5 91 L 152 99.5 L 151 99.5 L 151.5 91 Z " /><path fill="rgb(0,36,168)" stroke="rgb(0,36,168)" stroke-width="1" opacity="0.03529411764705882" d="M 269.5 101 L 276.5 109 L 269.5 101 Z " /><path fill="rgb(0,36,168)" stroke="rgb(0,36,168)" stroke-width="1" opacity="0.03529411764705882" d="M 105.5 104 L 104.5 106 L 105.5 104 Z " /><path fill="rgb(0,36,168)" stroke="rgb(0,36,168)" stroke-width="1" opacity="0.03529411764705882" d="M 406.5 109 L 407 112.5 L 406 112.5 L 406.5 109 Z " /><path fill="rgb(0,36,168)" stroke="rgb(0,36,168)" stroke-width="1" opacity="0.03529411764705882" d="M 93.5 111 L 96 111.5 L 93.5 112 L 93.5 111 Z " /><path fill="rgb(0,36,168)" stroke="rgb(0,36,168)" stroke-width="1" opacity="0.03529411764705882" d="M 429.5 111 L 430 113.5 L 429 113.5 L 429.5 111 Z " /><path fill="rgb(0,36,168)" stroke="rgb(0,36,168)" stroke-width="1" opacity="0.03529411764705882" d="M 429.5 117 L 430 119.5 L 429 119.5 L 429.5 117 Z " /><path fill="rgb(0,36,168)" stroke="rgb(0,36,168)" stroke-width="1" opacity="0.03529411764705882" d="M 406.5 118 L 407 121.5 L 406 121.5 L 406.5 118 Z " /><path fill="rgb(0,36,168)" stroke="rgb(0,36,168)" stroke-width="1" opacity="0.03529411764705882" d="M 143.5 122 L 142.5 124 L 143.5 122 Z " /><path fill="rgb(0,36,168)" stroke="rgb(0,36,168)" stroke-width="1" opacity="0.03529411764705882" d="M 140.5 126 L 133.5 134 L 140.5 126 Z " /><path fill="rgb(0,36,168)" stroke="rgb(0,36,168)" stroke-width="1" opacity="0.03529411764705882" d="M 357.5 132 L 364.5 140 L 357.5 132 Z " /><path fill="rgb(0,36,168)" stroke="rgb(0,36,168)" stroke-width="1" opacity="0.03529411764705882" d="M 261.5 134 L 210 186.5 L 209.5 188 L 209 186.5 L 261.5 134 Z " /><path fill="rgb(0,36,168)" stroke="rgb(0,36,168)" stroke-width="1" opacity="0.03529411764705882" d="M 130.5 135 L 129.5 137 L 130.5 135 Z " /><path fill="rgb(0,36,168)" stroke="rgb(0,36,168)" stroke-width="1" opacity="0.03529411764705882" d="M 127.5 137 L 126.5 139 L 127.5 137 Z " /><path fill="rgb(0,36,168)" stroke="rgb(0,36,168)" stroke-width="1" opacity="0.03529411764705882" d="M 309.5 141 L 311.5 144 L 309.5 142 L 303 147.5 L 309.5 141 Z " /><path fill="rgb(0,36,168)" stroke="rgb(0,36,168)" stroke-width="1" opacity="0.03529411764705882" d="M 97.5 146 L 101 146.5 L 97.5 147 L 97.5 146 Z " /><path fill="rgb(0,36,168)" stroke="rgb(0,36,168)" stroke-width="1" opacity="0.03529411764705882" d="M 318.5 151 L 322.5 156 L 318.5 151 Z " /><path fill="rgb(0,36,168)" stroke="rgb(0,36,168)" stroke-width="1" opacity="0.03529411764705882" d="M 375.5 151 L 383.5 160 L 375.5 151 Z " /><path fill="rgb(0,36,168)" stroke="rgb(0,36,168)" stroke-width="1" opacity="0.03529411764705882" d="M 438.5 151 L 439.5 153 L 438.5 151 Z " /><path fill="rgb(0,36,168)" stroke="rgb(0,36,168)" stroke-width="1" opacity="0.03529411764705882" d="M 441.5 156 L 442.5 158 L 441.5 156 Z " /><path fill="rgb(0,36,168)" stroke="rgb(0,36,168)" stroke-width="1" opacity="0.03529411764705882" d="M 564.5 157 L 563.5 159 L 564.5 157 Z " /><path fill="rgb(0,36,168)" stroke="rgb(0,36,168)" stroke-width="1" opacity="0.03529411764705882" d="M 291.5 160 L 280.5 172 L 291.5 160 Z " /><path fill="rgb(0,36,168)" stroke="rgb(0,36,168)" stroke-width="1" opacity="0.03529411764705882" d="M 444.5 160 L 445.5 162 L 444.5 160 Z " /><path fill="rgb(0,36,168)" stroke="rgb(0,36,168)" stroke-width="1" opacity="0.03529411764705882" d="M 561.5 161 L 560.5 163 L 561.5 161 Z " /><path fill="rgb(0,36,168)" stroke="rgb(0,36,168)" stroke-width="1" opacity="0.03529411764705882" d="M 328.5 162 L 332.5 167 L 328.5 162 Z " /><path fill="rgb(0,36,168)" stroke="rgb(0,36,168)" stroke-width="1" opacity="0.03529411764705882" d="M 588.5 162 L 587.5 164 L 588.5 162 Z " /><path fill="rgb(0,36,168)" stroke="rgb(0,36,168)" stroke-width="1" opacity="0.03529411764705882" d="M 448.5 165 L 453.5 171 L 448.5 165 Z " /><path fill="rgb(0,36,168)" stroke="rgb(0,36,168)" stroke-width="1" opacity="0.03529411764705882" d="M 585.5 167 L 584.5 169 L 585.5 167 Z " /><path fill="rgb(0,36,168)" stroke="rgb(0,36,168)" stroke-width="1" opacity="0.03529411764705882" d="M 422.5 169 L 423.5 171 L 422.5 169 Z " /><path fill="rgb(0,36,168)" stroke="rgb(0,36,168)" stroke-width="1" opacity="0.03529411764705882" d="M 583.5 170 L 582.5 172 L 583.5 170 Z " /><path fill="rgb(0,36,168)" stroke="rgb(0,36,168)" stroke-width="1" opacity="0.03529411764705882" d="M 394.5 171 L 401.5 179 L 394.5 171 Z " /><path fill="rgb(0,36,168)" stroke="rgb(0,36,168)" stroke-width="1" opacity="0.03529411764705882" d="M 424.5 172 L 426.5 175 L 424.5 172 Z " /><path fill="rgb(0,36,168)" stroke="rgb(0,36,168)" stroke-width="1" opacity="0.03529411764705882" d="M 550.5 172 L 548.5 175 L 550.5 172 Z " /><path fill="rgb(0,36,168)" stroke="rgb(0,36,168)" stroke-width="1" opacity="0.03529411764705882" d="M 338.5 173 L 343.5 179 L 338.5 173 Z " /><path fill="rgb(0,36,168)" stroke="rgb(0,36,168)" stroke-width="1" opacity="0.03529411764705882" d="M 457.5 173 L 459.5 176 L 457.5 173 Z " /><path fill="rgb(0,36,168)" stroke="rgb(0,36,168)" stroke-width="1" opacity="0.03529411764705882" d="M 581.5 173 L 579.5 176 L 581.5 173 Z " /><path fill="rgb(0,36,168)" stroke="rgb(0,36,168)" stroke-width="1" opacity="0.03529411764705882" d="M 510.5 174 L 539 174.5 L 510.5 175 L 510.5 174 Z " /><path fill="rgb(0,36,168)" stroke="rgb(0,36,168)" stroke-width="1" opacity="0.03529411764705882" d="M 461.5 176 L 462.5 178 L 461.5 176 Z " /><path fill="rgb(0,36,168)" stroke="rgb(0,36,168)" stroke-width="1" opacity="0.03529411764705882" d="M 428.5 177 L 431.5 181 L 428.5 177 Z " /><path fill="rgb(0,36,168)" stroke="rgb(0,36,168)" stroke-width="1" opacity="0.03529411764705882" d="M 464.5 178 L 465.5 180 L 464.5 178 Z " /><path fill="rgb(0,36,168)" stroke="rgb(0,36,168)" stroke-width="1" opacity="0.03529411764705882" d="M 577.5 178 L 565.5 191 L 577.5 178 Z " /><path fill="rgb(0,36,168)" stroke="rgb(0,36,168)" stroke-width="1" opacity="0.03529411764705882" d="M 269.5 183 L 265.5 188 L 269.5 183 Z " /><path fill="rgb(0,36,168)" stroke="rgb(0,36,168)" stroke-width="1" opacity="0.03529411764705882" d="M 349.5 185 L 351.5 188 L 349.5 185 Z " /><path fill="rgb(0,36,168)" stroke="rgb(0,36,168)" stroke-width="1" opacity="0.03529411764705882" d="M 0.5 187 L 43 187.5 L 0.5 188 L 0.5 187 Z " /><path fill="rgb(0,36,168)" stroke="rgb(0,36,168)" stroke-width="1" opacity="0.03529411764705882" d="M 438.5 187 L 441.5 191 L 438.5 187 Z " /><path fill="rgb(0,36,168)" stroke="rgb(0,36,168)" stroke-width="1" opacity="0.03529411764705882" d="M 495.5 189 L 500 189.5 L 495.5 190 L 495.5 189 Z " /><path fill="rgb(0,36,168)" stroke="rgb(0,36,168)" stroke-width="1" opacity="0.03529411764705882" d="M 507.5 189 L 512 189.5 L 507.5 190 L 507.5 189 Z " /><path fill="rgb(0,36,168)" stroke="rgb(0,36,168)" stroke-width="1" opacity="0.03529411764705882" d="M 563.5 191 L 561.5 194 L 563.5 191 Z " /><path fill="rgb(0,36,168)" stroke="rgb(0,36,168)" stroke-width="1" opacity="0.03529411764705882" d="M 444.5 192 L 446.5 195 L 444.5 192 Z " /><path fill="rgb(0,36,168)" stroke="rgb(0,36,168)" stroke-width="1" opacity="0.03529411764705882" d="M 559.5 194 L 557.5 197 L 555.5 198 L 556.5 196 L 559.5 194 Z " /><path fill="rgb(0,36,168)" stroke="rgb(0,36,168)" stroke-width="1" opacity="0.03529411764705882" d="M 448.5 195 L 449.5 197 L 448.5 195 Z " /><path fill="rgb(0,36,168)" stroke="rgb(0,36,168)" stroke-width="1" opacity="0.03529411764705882" d="M 451.5 197 L 452.5 199 L 451.5 197 Z " /><path fill="rgb(0,36,168)" stroke="rgb(0,36,168)" stroke-width="1" opacity="0.03529411764705882" d="M 553.5 198 L 552.5 200 L 553.5 198 Z " /><path fill="rgb(0,36,168)" stroke="rgb(0,36,168)" stroke-width="1" opacity="0.03529411764705882" d="M 522.5 210 L 525 210.5 L 522.5 211 L 522.5 210 Z " /><path fill="rgb(0,36,168)" stroke="rgb(0,36,168)" stroke-width="1" opacity="0.03529411764705882" d="M 487.5 211 L 490 211.5 L 487.5 212 L 487.5 211 Z " /><path fill="rgb(0,36,168)" stroke="rgb(0,36,168)" stroke-width="1" opacity="0.03529411764705882" d="M 516.5 211 L 520 211.5 L 516.5 212 L 516.5 211 Z " /><path fill="rgb(0,36,168)" stroke="rgb(0,36,168)" stroke-width="1" opacity="0.03529411764705882" d="M 495.5 212 L 512 212.5 L 495.5 213 L 495.5 212 Z " /><path fill="rgb(0,36,168)" stroke="rgb(0,36,168)" stroke-width="1" opacity="0.03529411764705882" d="M 43 250 Q 48.5 248.8 50 252.5 L 47.5 251 L 44 251.5 L 44 279 L 48 278.5 L 48 260.5 L 50 261.5 L 49 262.5 L 49 278.5 L 47.5 280 Q 43 280.5 43 279.5 L 43 250 Z " /><path fill="rgb(0,36,168)" stroke="rgb(0,36,168)" stroke-width="1" opacity="0.03529411764705882" d="M 63.5 250 L 68 250.5 L 63.5 251 L 63.5 250 Z " /><path fill="rgb(0,36,168)" stroke="rgb(0,36,168)" stroke-width="1" opacity="0.03529411764705882" d="M 72.5 250 L 94 250.5 L 72 251 L 72 279 L 94 279 L 93.5 275 L 77.5 275 Q 74.5 273.5 76 267.5 L 77 267.5 L 77 274 L 95 274 L 95 280 L 72.5 280 L 71 278.5 L 71 251.5 L 72.5 250 Z " /><path fill="rgb(0,36,168)" stroke="rgb(0,36,168)" stroke-width="1" opacity="0.03529411764705882" d="M 95.5 250 Q 100 249 101 251.5 L 99.5 251 Q 94.5 252 95.5 250 Z " /><path fill="rgb(0,36,168)" stroke="rgb(0,36,168)" stroke-width="1" opacity="0.03529411764705882" d="M 112.5 250 Q 116.3 249.3 117 251.5 L 115.5 251 Q 111.5 251.7 112.5 250 Z " /><path fill="rgb(0,36,168)" stroke="rgb(0,36,168)" stroke-width="1" opacity="0.03529411764705882" d="M 128.5 250 L 134 250 L 134 252.5 L 133 252.5 Q 133.9 249.1 128.5 251 L 128.5 250 Z " /><path fill="rgb(0,36,168)" stroke="rgb(0,36,168)" stroke-width="1" opacity="0.03529411764705882" d="M 138.5 250 Q 145.8 248.8 147 253.5 L 143.5 251 Q 137.5 252.3 138.5 250 Z " /><path fill="rgb(0,36,168)" stroke="rgb(0,36,168)" stroke-width="1" opacity="0.03529411764705882" d="M 159.5 250 Q 165.6 248.8 165 251.5 L 163.5 251 Q 158.5 250 157.5 253 L 159.5 250 Z " /><path fill="rgb(0,36,168)" stroke="rgb(0,36,168)" stroke-width="1" opacity="0.03529411764705882" d="M 196.5 250 L 213 250.5 L 196 251 L 196 278.5 Q 196 279.5 200.5 279 L 200.5 280 Q 196 281 195 278.5 L 195 251.5 L 196.5 250 Z " /><path fill="rgb(0,36,168)" stroke="rgb(0,36,168)" stroke-width="1" opacity="0.03529411764705882" d="M 225.5 250 L 230 250.5 L 225.5 251 L 225.5 250 Z " /><path fill="rgb(0,36,168)" stroke="rgb(0,36,168)" stroke-width="1" opacity="0.03529411764705882" d="M 243.5 250 Q 250.5 248.5 250 251.5 L 240 262.5 L 240.5 264 L 239 261.5 L 248.5 251 L 243.5 251 L 230.5 264 L 243.5 250 Z " /><path fill="rgb(0,36,168)" stroke="rgb(0,36,168)" stroke-width="1" opacity="0.03529411764705882" d="M 293 250 L 301.5 250 L 303 251.5 L 301.5 251 Q 295.3 249.2 293.5 252 L 293 250 Z " /><path fill="rgb(0,36,168)" stroke="rgb(0,36,168)" stroke-width="1" opacity="0.03529411764705882" d="M 316.5 250 L 349 250.5 L 325.5 251 L 324.5 252 Q 322.8 249.2 316.5 251 L 316.5 250 Z " /><path fill="rgb(0,36,168)" stroke="rgb(0,36,168)" stroke-width="1" opacity="0.03529411764705882" d="M 351.5 250 L 369 250.5 L 351.5 251 L 351.5 250 Z " /><path fill="rgb(0,36,168)" stroke="rgb(0,36,168)" stroke-width="1" opacity="0.03529411764705882" d="M 376.5 250 L 385 250.5 L 376.5 251 L 376.5 250 Z " /><path fill="rgb(0,36,168)" stroke="rgb(0,36,168)" stroke-width="1" opacity="0.03529411764705882" d="M 395.5 250 L 404 250.5 L 395.5 251 L 394.5 252 L 395.5 250 Z " /><path fill="rgb(0,36,168)" stroke="rgb(0,36,168)" stroke-width="1" opacity="0.03529411764705882" d="M 439.5 250 L 448 250.5 L 439.5 251 L 439.5 250 Z " /><path fill="rgb(0,36,168)" stroke="rgb(0,36,168)" stroke-width="1" opacity="0.03529411764705882" d="M 456.5 250 Q 461.8 248.8 463 251.5 L 461.5 251 Q 455.5 252.3 456.5 250 Z " /><path fill="rgb(0,36,168)" stroke="rgb(0,36,168)" stroke-width="1" opacity="0.03529411764705882" d="M 471.5 250 L 479 250.5 L 471.5 251 L 471.5 250 Z " /><path fill="rgb(0,36,168)" stroke="rgb(0,36,168)" stroke-width="1" opacity="0.03529411764705882" d="M 480.5 250 Q 487.5 248.5 489 252.5 L 486.5 251 L 480.5 251 L 480.5 250 Z " /><path fill="rgb(0,36,168)" stroke="rgb(0,36,168)" stroke-width="1" opacity="0.03529411764705882" d="M 498.5 250 L 506 250.5 L 498.5 251 L 498.5 250 Z " /><path fill="rgb(0,36,168)" stroke="rgb(0,36,168)" stroke-width="1" opacity="0.03529411764705882" d="M 138.5 252 L 140.5 255 L 138.5 252 Z " /><path fill="rgb(0,36,168)" stroke="rgb(0,36,168)" stroke-width="1" opacity="0.03529411764705882" d="M 168.5 252 L 165.5 256 L 168.5 252 Z " /><path fill="rgb(0,36,168)" stroke="rgb(0,36,168)" stroke-width="1" opacity="0.03529411764705882" d="M 217.5 252 L 219.5 255 L 217.5 252 Z " /><path fill="rgb(0,36,168)" stroke="rgb(0,36,168)" stroke-width="1" opacity="0.03529411764705882" d="M 163.5 253 L 161.5 256 L 163.5 253 Z " /><path fill="rgb(0,36,168)" stroke="rgb(0,36,168)" stroke-width="1" opacity="0.03529411764705882" d="M 188.5 253 L 190.5 256 L 188.5 253 Z " /><path fill="rgb(0,36,168)" stroke="rgb(0,36,168)" stroke-width="1" opacity="0.03529411764705882" d="M 156.5 254 L 154.5 257 L 156.5 254 Z " /><path fill="rgb(0,36,168)" stroke="rgb(0,36,168)" stroke-width="1" opacity="0.03529411764705882" d="M 252.5 254 L 253.5 256 L 252.5 254 Z " /><path fill="rgb(0,36,168)" stroke="rgb(0,36,168)" stroke-width="1" opacity="0.03529411764705882" d="M 271.5 254 L 274 254.5 L 271.5 255 L 271.5 254 Z " /><path fill="rgb(0,36,168)" stroke="rgb(0,36,168)" stroke-width="1" opacity="0.03529411764705882" d="M 51.5 255 L 53.5 258 L 51.5 255 Z " /><path fill="rgb(0,36,168)" stroke="rgb(0,36,168)" stroke-width="1" opacity="0.03529411764705882" d="M 77.5 255 L 94 255.5 L 77 256 L 76.5 262 L 76 256.5 L 77.5 255 Z " /><path fill="rgb(0,36,168)" stroke="rgb(0,36,168)" stroke-width="1" opacity="0.03529411764705882" d="M 147.5 255 L 148.5 257 L 147.5 255 Z " /><path fill="rgb(0,36,168)" stroke="rgb(0,36,168)" stroke-width="1" opacity="0.03529411764705882" d="M 173.5 255 L 175 255.5 L 172.5 257 L 173.5 255 Z " /><path fill="rgb(0,36,168)" stroke="rgb(0,36,168)" stroke-width="1" opacity="0.03529411764705882" d="M 201.5 255 L 212 255.5 L 201.5 256 L 201.5 255 Z " /><path fill="rgb(0,36,168)" stroke="rgb(0,36,168)" stroke-width="1" opacity="0.03529411764705882" d="M 268.5 255 L 267.5 257 L 268.5 255 Z " /><path fill="rgb(0,36,168)" stroke="rgb(0,36,168)" stroke-width="1" opacity="0.03529411764705882" d="M 284.5 255 L 282.5 258 L 280 256.5 L 281.5 257 L 284.5 255 Z " /><path fill="rgb(0,36,168)" stroke="rgb(0,36,168)" stroke-width="1" opacity="0.03529411764705882" d="M 141.5 256 L 142.5 258 L 141.5 256 Z " /><path fill="rgb(0,36,168)" stroke="rgb(0,36,168)" stroke-width="1" opacity="0.03529411764705882" d="M 183.5 256 L 186.5 260 L 183.5 256 Z " /><path fill="rgb(0,36,168)" stroke="rgb(0,36,168)" stroke-width="1" opacity="0.03529411764705882" d="M 261.5 256 L 262 260.5 L 261 260.5 L 261.5 256 Z " /><path fill="rgb(0,36,168)" stroke="rgb(0,36,168)" stroke-width="1" opacity="0.03529411764705882" d="M 160.5 257 L 159.5 259 L 160.5 257 Z " /><path fill="rgb(0,36,168)" stroke="rgb(0,36,168)" stroke-width="1" opacity="0.03529411764705882" d="M 164.5 257 L 164 258.5 L 163.5 260 L 163 258.5 L 164.5 257 Z " /><path fill="rgb(0,36,168)" stroke="rgb(0,36,168)" stroke-width="1" opacity="0.03529411764705882" d="M 255.5 257 L 254.5 259 L 255.5 257 Z " /><path fill="rgb(0,36,168)" stroke="rgb(0,36,168)" stroke-width="1" opacity="0.03529411764705882" d="M 359.5 257 L 368 257.5 L 359.5 258 L 359.5 257 Z " /><path fill="rgb(0,36,168)" stroke="rgb(0,36,168)" stroke-width="1" opacity="0.03529411764705882" d="M 149.5 258 L 150.5 260 L 149.5 258 Z " /><path fill="rgb(0,36,168)" stroke="rgb(0,36,168)" stroke-width="1" opacity="0.03529411764705882" d="M 153.5 258 L 152.5 260 L 153.5 258 Z " /><path fill="rgb(0,36,168)" stroke="rgb(0,36,168)" stroke-width="1" opacity="0.03529411764705882" d="M 170.5 258 L 169.5 260 L 170.5 258 Z " /><path fill="rgb(0,36,168)" stroke="rgb(0,36,168)" stroke-width="1" opacity="0.03529411764705882" d="M 215.5 258 L 216 260.5 L 215 260.5 L 215.5 258 Z " /><path fill="rgb(0,36,168)" stroke="rgb(0,36,168)" stroke-width="1" opacity="0.03529411764705882" d="M 420.5 258 L 419.5 260 L 420.5 258 Z " /><path fill="rgb(0,36,168)" stroke="rgb(0,36,168)" stroke-width="1" opacity="0.03529411764705882" d="M 429.5 258 L 430.5 260 L 429.5 258 Z " /><path fill="rgb(0,36,168)" stroke="rgb(0,36,168)" stroke-width="1" opacity="0.03529411764705882" d="M 54.5 259 L 57.5 263 L 54.5 259 Z " /><path fill="rgb(0,36,168)" stroke="rgb(0,36,168)" stroke-width="1" opacity="0.03529411764705882" d="M 143.5 259 L 145.5 262 L 143.5 259 Z " /><path fill="rgb(0,36,168)" stroke="rgb(0,36,168)" stroke-width="1" opacity="0.03529411764705882" d="M 258.5 259 L 256.5 262 L 258.5 259 Z " /><path fill="rgb(0,36,168)" stroke="rgb(0,36,168)" stroke-width="1" opacity="0.03529411764705882" d="M 158.5 260 L 156.5 263 L 158.5 260 Z " /><path fill="rgb(0,36,168)" stroke="rgb(0,36,168)" stroke-width="1" opacity="0.03529411764705882" d="M 114.5 261 L 115 262.5 L 113 263.5 L 114.5 261 Z " /><path fill="rgb(0,36,168)" stroke="rgb(0,36,168)" stroke-width="1" opacity="0.03529411764705882" d="M 274.5 261 L 277 261.5 L 274.5 262 L 274.5 261 Z " /><path fill="rgb(0,36,168)" stroke="rgb(0,36,168)" stroke-width="1" opacity="0.03529411764705882" d="M 162.5 262 L 163 267.5 L 162 267.5 L 162.5 262 Z " /><path fill="rgb(0,36,168)" stroke="rgb(0,36,168)" stroke-width="1" opacity="0.03529411764705882" d="M 251.5 262 L 252.5 264 L 251.5 262 Z " /><path fill="rgb(0,36,168)" stroke="rgb(0,36,168)" stroke-width="1" opacity="0.03529411764705882" d="M 50.5 263 L 53.5 267 L 50.5 263 Z " /><path fill="rgb(0,36,168)" stroke="rgb(0,36,168)" stroke-width="1" opacity="0.03529411764705882" d="M 146.5 263 L 148.5 266 L 146.5 263 Z " /><path fill="rgb(0,36,168)" stroke="rgb(0,36,168)" stroke-width="1" opacity="0.03529411764705882" d="M 201.5 263 L 213 263.5 L 201.5 264 L 201.5 263 Z " /><path fill="rgb(0,36,168)" stroke="rgb(0,36,168)" stroke-width="1" opacity="0.03529411764705882" d="M 58.5 264 L 61.5 268 L 58.5 264 Z " /><path fill="rgb(0,36,168)" stroke="rgb(0,36,168)" stroke-width="1" opacity="0.03529411764705882" d="M 155.5 264 L 154.5 266 L 155.5 264 Z " /><path fill="rgb(0,36,168)" stroke="rgb(0,36,168)" stroke-width="1" opacity="0.03529411764705882" d="M 219.5 264 L 217.5 267 L 219.5 264 Z " /><path fill="rgb(0,36,168)" stroke="rgb(0,36,168)" stroke-width="1" opacity="0.03529411764705882" d="M 264.5 264 L 267 265.5 L 265.5 266 L 264.5 264 Z " /><path fill="rgb(0,36,168)" stroke="rgb(0,36,168)" stroke-width="1" opacity="0.03529411764705882" d="M 242.5 266 L 244.5 269 L 242.5 266 Z " /><path fill="rgb(0,36,168)" stroke="rgb(0,36,168)" stroke-width="1" opacity="0.03529411764705882" d="M 269.5 266 L 272 266.5 L 269.5 267 L 269.5 266 Z " /><path fill="rgb(0,36,168)" stroke="rgb(0,36,168)" stroke-width="1" opacity="0.03529411764705882" d="M 105.5 267 L 107 270.5 L 106 270.5 L 105.5 267 Z " /><path fill="rgb(0,36,168)" stroke="rgb(0,36,168)" stroke-width="1" opacity="0.03529411764705882" d="M 236.5 267 L 237.5 269 L 236.5 267 Z " /><path fill="rgb(0,36,168)" stroke="rgb(0,36,168)" stroke-width="1" opacity="0.03529411764705882" d="M 54.5 268 L 57.5 272 L 54.5 268 Z " /><path fill="rgb(0,36,168)" stroke="rgb(0,36,168)" stroke-width="1" opacity="0.03529411764705882" d="M 201.5 268 L 210 268.5 L 201.5 269 L 201.5 268 Z " /><path fill="rgb(0,36,168)" stroke="rgb(0,36,168)" stroke-width="1" opacity="0.03529411764705882" d="M 280.5 268 L 281.5 270 L 280.5 268 Z " /><path fill="rgb(0,36,168)" stroke="rgb(0,36,168)" stroke-width="1" opacity="0.03529411764705882" d="M 490.5 268 L 491.5 270 L 490.5 268 Z " /><path fill="rgb(0,36,168)" stroke="rgb(0,36,168)" stroke-width="1" opacity="0.03529411764705882" d="M 169.5 270 L 175 274.5 L 173.5 275 L 169.5 270 Z " /><path fill="rgb(0,36,168)" stroke="rgb(0,36,168)" stroke-width="1" opacity="0.03529411764705882" d="M 186.5 270 L 183.5 274 L 186.5 270 Z " /><path fill="rgb(0,36,168)" stroke="rgb(0,36,168)" stroke-width="1" opacity="0.03529411764705882" d="M 210.5 270 L 213 273.5 L 211 272.5 L 210.5 270 Z " /><path fill="rgb(0,36,168)" stroke="rgb(0,36,168)" stroke-width="1" opacity="0.03529411764705882" d="M 216.5 270 L 219 273.5 L 217 272.5 L 216.5 270 Z " /><path fill="rgb(0,36,168)" stroke="rgb(0,36,168)" stroke-width="1" opacity="0.03529411764705882" d="M 245.5 270 L 247.5 273 L 245.5 270 Z " /><path fill="rgb(0,36,168)" stroke="rgb(0,36,168)" stroke-width="1" opacity="0.03529411764705882" d="M 262.5 270 L 265 271.5 L 263.5 271 L 262.5 270 Z " /><path fill="rgb(0,36,168)" stroke="rgb(0,36,168)" stroke-width="1" opacity="0.03529411764705882" d="M 419.5 270 L 420.5 272 L 419.5 270 Z " /><path fill="rgb(0,36,168)" stroke="rgb(0,36,168)" stroke-width="1" opacity="0.03529411764705882" d="M 239.5 271 L 240.5 273 L 239.5 271 Z " /><path fill="rgb(0,36,168)" stroke="rgb(0,36,168)" stroke-width="1" opacity="0.03529411764705882" d="M 349.5 272 L 350 278.5 L 348.5 280 L 325.5 280 L 325.5 279 L 348.5 279 L 349 278.5 L 349.5 272 Z " /><path fill="rgb(0,36,168)" stroke="rgb(0,36,168)" stroke-width="1" opacity="0.03529411764705882" d="M 58.5 273 L 60.5 276 L 58.5 273 Z " /><path fill="rgb(0,36,168)" stroke="rgb(0,36,168)" stroke-width="1" opacity="0.03529411764705882" d="M 260.5 273 L 263 276.5 L 260 274.5 L 260.5 273 Z " /><path fill="rgb(0,36,168)" stroke="rgb(0,36,168)" stroke-width="1" opacity="0.03529411764705882" d="M 165.5 274 L 168.5 278 L 165.5 274 Z " /><path fill="rgb(0,36,168)" stroke="rgb(0,36,168)" stroke-width="1" opacity="0.03529411764705882" d="M 189.5 275 L 188.5 277 L 189.5 275 Z " /><path fill="rgb(0,36,168)" stroke="rgb(0,36,168)" stroke-width="1" opacity="0.03529411764705882" d="M 242.5 275 L 243.5 277 L 242.5 275 Z " /><path fill="rgb(0,36,168)" stroke="rgb(0,36,168)" stroke-width="1" opacity="0.03529411764705882" d="M 249.5 275 L 250.5 277 L 249.5 275 Z " /><path fill="rgb(0,36,168)" stroke="rgb(0,36,168)" stroke-width="1" opacity="0.03529411764705882" d="M 285.5 276 L 284.5 278 L 285.5 276 Z " /><path fill="rgb(0,36,168)" stroke="rgb(0,36,168)" stroke-width="1" opacity="0.03529411764705882" d="M 435.5 276 L 434.5 278 L 435.5 276 Z " /><path fill="rgb(0,36,168)" stroke="rgb(0,36,168)" stroke-width="1" opacity="0.03529411764705882" d="M 61.5 277 Q 62.9 280.1 68 279.5 L 63.5 280 L 61.5 277 Z " /><path fill="rgb(0,36,168)" stroke="rgb(0,36,168)" stroke-width="1" opacity="0.03529411764705882" d="M 119.5 277 L 120 279 L 125 279 L 125 277.5 L 126 277.5 L 124.5 280 Q 120 281 119 278.5 L 119.5 277 Z " /><path fill="rgb(0,36,168)" stroke="rgb(0,36,168)" stroke-width="1" opacity="0.03529411764705882" d="M 186.5 277 L 185.5 279 L 186.5 277 Z " /><path fill="rgb(0,36,168)" stroke="rgb(0,36,168)" stroke-width="1" opacity="0.03529411764705882" d="M 264.5 277 L 265.5 279 L 264.5 277 Z " /><path fill="rgb(0,36,168)" stroke="rgb(0,36,168)" stroke-width="1" opacity="0.03529411764705882" d="M 369.5 278 Q 371.2 280.8 377.5 279 L 379 278.5 L 378.5 280 L 370.5 280 L 369.5 278 Z " /><path fill="rgb(0,36,168)" stroke="rgb(0,36,168)" stroke-width="1" opacity="0.03529411764705882" d="M 455.5 278 L 454.5 280 L 448 279.5 L 455.5 278 Z " /><path fill="rgb(0,36,168)" stroke="rgb(0,36,168)" stroke-width="1" opacity="0.03529411764705882" d="M 103.5 279 L 109 279.5 L 103.5 280 L 103.5 279 Z " /><path fill="rgb(0,36,168)" stroke="rgb(0,36,168)" stroke-width="1" opacity="0.03529411764705882" d="M 149.5 279 L 154 279.5 L 149.5 280 L 149.5 279 Z " /><path fill="rgb(0,36,168)" stroke="rgb(0,36,168)" stroke-width="1" opacity="0.03529411764705882" d="M 215.5 279 L 221 279.5 L 215.5 280 L 215.5 279 Z " /><path fill="rgb(0,36,168)" stroke="rgb(0,36,168)" stroke-width="1" opacity="0.03529411764705882" d="M 225.5 279 L 230 279.5 L 225.5 280 L 225.5 279 Z " /><path fill="rgb(0,36,168)" stroke="rgb(0,36,168)" stroke-width="1" opacity="0.03529411764705882" d="M 245.5 279 L 252 279.5 L 245.5 280 L 245.5 279 Z " /><path fill="rgb(0,36,168)" stroke="rgb(0,36,168)" stroke-width="1" opacity="0.03529411764705882" d="M 306.5 279 L 312 279.5 L 306.5 280 L 306.5 279 Z " /><path fill="rgb(0,36,168)" stroke="rgb(0,36,168)" stroke-width="1" opacity="0.03529411764705882" d="M 351.5 279 L 359 279.5 L 351.5 280 L 351.5 279 Z " /><path fill="rgb(0,36,168)" stroke="rgb(0,36,168)" stroke-width="1" opacity="0.03529411764705882" d="M 386.5 279 L 394 279.5 L 386.5 280 L 386.5 279 Z " /><path fill="rgb(0,36,168)" stroke="rgb(0,36,168)" stroke-width="1" opacity="0.03529411764705882" d="M 463.5 279 L 470 279.5 L 463.5 280 L 463.5 279 Z " /><path fill="rgb(0,36,168)" stroke="rgb(0,36,168)" stroke-width="1" opacity="0.03529411764705882" d="M 480.5 279 L 488 279.5 L 480.5 280 L 480.5 279 Z " /><path fill="rgb(0,36,168)" stroke="rgb(0,36,168)" stroke-width="1" opacity="0.03529411764705882" d="M 499.5 279 L 506 279.5 L 499.5 280 L 499.5 279 Z " /><path fill="rgb(13,53,184)" stroke="rgb(13,53,184)" stroke-width="1" opacity="0.9529411764705882" d="M 520.5 23 L 522.5 24 L 535.5 24 L 540.5 26 Q 559.2 33.8 572 47.5 L 574 52.5 L 563.5 71 Q 550.9 54.6 530.5 46 L 516.5 42 L 498.5 41 L 497.5 42 L 485.5 43 L 471.5 48 Q 458.5 54.5 449 64.5 L 436.5 83 L 436 81.5 Q 445.1 57.6 463.5 43 Q 474.4 34.4 488.5 29 L 507.5 24 L 519.5 24 L 520.5 23 Z " /><path fill="rgb(13,53,184)" stroke="rgb(13,53,184)" stroke-width="1" opacity="0.9529411764705882" d="M 0 44 L 59.5 44 L 60 45.5 L 72 78 L 43 79 L 43 112 L 68.5 112 L 69.5 113 L 86 113 L 98 146 L 80.5 146 L 79.5 147 L 43 147 L 43 187 L 0 187 L 0 44 Z " /><path fill="rgb(13,53,184)" stroke="rgb(13,53,184)" stroke-width="1" opacity="0.9529411764705882" d="M 469 150 L 497 150 L 497 174 L 469 174 L 469 150 Z " /><path fill="rgb(13,53,184)" stroke="rgb(13,53,184)" stroke-width="1" opacity="0.9529411764705882" d="M 511 150 L 537.5 150 Q 538.5 150 538 154.5 L 539 155.5 L 539 174 L 510 174 L 510 156.5 L 511 150 Z " /><path fill="rgb(13,53,184)" stroke="rgb(13,53,184)" stroke-width="1" opacity="0.9529411764705882" d="M 586.5 164 L 586 165.5 Q 577.9 180.9 564.5 191 Q 550.3 202.8 530.5 209 L 515.5 212 L 490.5 212 L 467.5 206 L 450 195.5 L 465.5 180 L 466.5 181 L 489.5 189 Q 494.3 187.8 495.5 190 L 518.5 190 L 519.5 191 L 520.5 190 L 540.5 189 L 554.5 185 Q 573.5 177.5 586.5 164 Z " /><path fill="rgb(13,53,184)" stroke="rgb(13,53,184)" stroke-width="1" opacity="0.9529411764705882" d="M 174.5 250 Q 187 249 191 256.5 Q 194.3 260.2 193 268.5 Q 191.8 274.3 187.5 277 Q 183.7 281.2 174.5 280 Q 168 278.5 165 273.5 Q 161.5 269.5 163 260.5 L 169.5 252 L 174.5 250 Z M 178 254 L 174 255 L 168 262 L 169 271 L 174 275 L 178 276 L 184 274 L 188 268 L 187 260 Q 184 255 178 254 Z " /><path fill="rgb(13,53,184)" stroke="rgb(13,53,184)" stroke-width="1" opacity="0.9529411764705882" d="M 44 251 Q 49.6 250 51 254.5 L 62.5 270 L 63 251 L 68 251.5 L 68 279 Q 62.5 280.3 61 276.5 L 48.5 260 L 48 279 L 44 278.5 L 44 251 Z " /><path fill="rgb(13,53,184)" stroke="rgb(13,53,184)" stroke-width="1" opacity="0.9529411764705882" d="M 72 251 L 93.5 251 L 94 255 L 77.5 255 L 76 256.5 L 76 262 L 87 262 L 87 265.5 L 85.5 267 L 76 267 L 76 273.5 L 77.5 275 L 93.5 275 L 94 279 L 72 279 L 72 251 Z " /><path fill="rgb(13,53,184)" stroke="rgb(13,53,184)" stroke-width="1" opacity="0.9529411764705882" d="M 95 251 Q 99.6 249.8 101 252.5 L 106.5 271 L 112 251 Q 115.8 250 117 252.5 L 122.5 271 L 128 251 L 133 251 L 133 253.5 L 125 279 L 120 279 L 120 277.5 L 114.5 261 L 113 262.5 L 109 279 L 103 279 L 103 276.5 L 95 251 Z " /><path fill="rgb(13,53,184)" stroke="rgb(13,53,184)" stroke-width="1" opacity="0.9529411764705882" d="M 138.5 251 Q 145.8 249.8 147 254.5 L 151.5 261 L 159.5 251 Q 164.9 249.1 164 252.5 L 154 265.5 L 154 279 L 149 279 L 149 265.5 L 138.5 251 Z " /><path fill="rgb(13,53,184)" stroke="rgb(13,53,184)" stroke-width="1" opacity="0.9529411764705882" d="M 196 251 L 212.5 251 L 220 256.5 Q 221.5 265.5 215.5 267 L 214 267.5 L 220 279 Q 216.2 280 215 277.5 L 212 270 Q 208.9 270.8 209.5 268 L 201 268 L 201 279 L 196 279 L 196 251 Z M 201 255 L 201 264 L 214 264 Q 217 263 216 258 Q 214 253 213 256 L 212 255 L 201 255 Z " /><path fill="rgb(0,0,0)" stroke="rgb(0,0,0)" stroke-width="1" opacity="0" d="M 0 0 L 599.5 0 L 600 0.5 L 600 100.5 L 599 100.5 L 598 91.5 L 590 70.5 Q 581.1 53.9 567.5 42 Q 553.8 29.7 534.5 23 L 517.5 19 L 489.5 19 Q 449.9 26.3 429 52.5 Q 418.4 64.9 412 81.5 L 407 100.5 L 406 121.5 L 407 122.5 L 407 130.5 L 409 140.5 L 419 164.5 Q 428 180 441.5 191 Q 455.2 202.8 474.5 209 L 495.5 213 L 511.5 213 L 528.5 210 L 552.5 200 Q 567.4 191.4 578 178.5 Q 594.6 160.1 599.5 130 L 600 300 L 0.5 300 L 0 299.5 L 0 188 L 43 188 L 43 147 L 100.5 147 L 111.5 145 L 126.5 139 L 141 126.5 L 150 109.5 L 152 99.5 L 152 91.5 Q 149.5 90 151 84.5 L 146 71.5 L 131.5 55 Q 120.2 46.8 103.5 44 L 92.5 44 L 91.5 43 L 0 43 L 0 0 Z M 163 43 L 161 45 L 161 188 L 205 188 L 205 188 L 205 45 L 204 43 L 163 43 Z M 217 44 L 220 50 L 281 114 L 209 187 L 210 188 L 266 188 L 310 142 L 349 186 L 352 188 L 409 188 L 402 179 L 340 114 L 407 45 L 351 44 L 312 85 L 282 53 L 274 44 L 217 44 Z M 43 250 L 43 280 Q 43 280 48 280 L 49 279 L 50 262 L 61 278 Q 63 281 68 280 L 68 251 L 63 250 L 63 269 L 50 253 Q 49 249 43 250 Z M 73 250 L 71 252 L 71 279 L 73 280 L 95 280 L 95 274 L 77 274 L 77 267 L 87 267 L 87 262 L 77 262 L 77 256 L 94 256 L 94 251 L 94 250 L 73 250 Z M 95 250 L 96 258 L 103 278 L 103 280 L 109 280 L 112 268 L 115 263 L 119 279 Q 120 281 125 280 L 126 279 L 134 253 L 134 250 L 128 250 L 123 270 L 117 252 Q 116 249 112 250 L 107 269 L 101 252 Q 100 249 95 250 Z M 138 250 L 138 253 L 149 267 L 149 280 L 154 280 L 154 267 L 165 252 Q 166 249 160 250 L 152 261 L 147 254 Q 145 249 138 250 Z M 173 250 L 169 252 Q 163 255 162 263 L 162 268 L 165 275 L 173 280 Q 184 282 189 277 L 193 271 Q 195 260 191 256 L 184 250 L 173 250 Z M 197 250 L 195 252 L 195 279 L 197 280 L 201 280 L 201 269 L 210 269 L 215 279 L 216 280 L 221 280 L 221 278 L 216 270 Q 215 266 218 267 L 221 263 L 220 255 L 213 250 L 197 250 Z M 225 250 L 225 280 L 230 280 L 230 271 L 236 266 L 245 279 L 246 280 L 252 280 L 251 277 L 240 263 L 250 252 Q 251 249 244 250 L 230 263 L 230 250 L 225 250 Z M 252 250 L 252 255 L 256 257 L 251 261 L 253 264 L 257 262 Q 261 260 260 253 Q 258 249 252 250 Z M 268 250 L 263 252 L 261 257 L 262 263 L 266 266 L 278 267 L 282 271 L 281 274 L 279 275 L 272 275 L 262 270 L 260 275 L 269 280 Q 279 282 285 278 Q 289 275 287 267 L 282 262 L 270 261 L 267 260 Q 266 256 270 255 Q 279 254 283 258 Q 286 258 285 254 Q 280 248 268 250 Z M 293 250 L 305 279 Q 306 281 312 280 L 317 271 L 325 252 L 325 280 L 349 280 L 350 279 L 350 272 L 333 272 L 333 268 L 342 268 L 342 261 L 333 261 L 334 258 L 349 258 L 349 251 L 349 250 L 316 250 L 310 268 L 303 252 L 302 250 L 293 250 Z M 351 250 L 351 280 L 359 280 L 359 270 L 365 270 L 369 279 L 371 280 L 379 280 L 373 269 L 378 262 L 377 256 L 373 251 L 369 250 L 351 250 Z M 376 250 L 376 253 L 386 267 L 386 280 L 394 280 L 394 267 L 404 253 L 404 250 L 396 250 L 391 258 L 387 253 L 385 250 L 376 250 Z M 420 250 L 416 252 Q 410 255 409 263 L 410 272 L 412 275 L 420 280 Q 430 282 435 278 Q 440 275 441 268 Q 442 259 438 256 Q 434 248 420 250 Z M 439 250 L 447 279 Q 449 282 455 280 L 458 271 Q 457 267 460 268 L 463 279 Q 462 282 470 280 L 471 279 L 479 253 L 479 250 L 472 250 L 469 255 L 467 265 L 463 252 Q 461 249 456 250 L 453 263 L 452 264 L 448 253 L 448 250 L 439 250 Z M 480 250 L 480 280 L 481 280 L 488 280 L 489 266 L 497 278 Q 499 282 506 280 L 506 251 L 506 250 L 498 250 L 498 264 L 489 253 Q 487 248 480 250 Z " /><path fill="rgb(0,0,0)" stroke="rgb(0,0,0)" stroke-width="1" opacity="0" d="M 493.5 42 L 513.5 42 L 531.5 47 Q 547.2 53.8 558 65.5 Q 569.7 77.8 575 96.5 L 577 105.5 L 577 125.5 L 575 135.5 L 570 148.5 Q 562.8 162.3 551.5 172 L 532.5 184 L 515.5 189 L 500.5 190 L 479.5 186 L 466.5 180 Q 454.6 172.9 446 162.5 Q 438.5 153.5 434 141.5 L 430 126.5 L 429 114.5 L 430 113.5 L 431 99.5 L 437 82.5 Q 444 69.5 454.5 60 Q 469.3 46.3 493.5 42 Z M 495 57 L 465 74 L 468 78 L 468 175 L 469 175 L 498 175 L 498 58 L 495 57 Z M 537 57 L 506 74 L 510 80 L 510 175 L 511 175 L 539 175 L 539 58 L 537 57 Z " /><path fill="rgb(0,0,0)" stroke="rgb(0,0,0)" stroke-width="1" opacity="0" d="M 43 79 L 95.5 79 Q 102 80.5 105 85.5 Q 109.3 89.7 108 99.5 L 101.5 109 L 92.5 112 L 43 112 L 43 79 Z " /><path fill="rgb(0,0,0)" stroke="rgb(0,0,0)" stroke-width="1" opacity="0" d="M 175.5 255 L 180.5 255 L 187 260.5 L 188 266.5 L 182.5 274 L 175.5 275 L 169 269.5 L 168 262.5 L 171 257 L 175.5 255 Z " /><path fill="rgb(0,0,0)" stroke="rgb(0,0,0)" stroke-width="1" opacity="0" d="M 201 256 L 213.5 256 L 215 257.5 Q 216 262 213.5 263 L 201 263 L 201 256 Z " /><path fill="rgb(0,0,0)" stroke="rgb(0,0,0)" stroke-width="1" opacity="0" d="M 422.5 257 Q 429.8 255.8 431 260.5 L 432 267.5 L 427.5 273 Q 420.3 274.3 419 269.5 L 418 261.5 L 422.5 257 Z " /><path fill="rgb(0,0,0)" stroke="rgb(0,0,0)" stroke-width="1" opacity="0" d="M 359 258 L 369 258 L 369 262 Q 365.9 264 359 263 L 359 258 Z " /><path fill="rgb(31,74,209)" stroke="rgb(31,74,209)" stroke-width="1" opacity="0.9764705882352941" d="M 161 44 L 179.5 44 L 181 45.5 L 204 106.5 L 204 186.5 Q 202.8 189.3 201.5 187 L 162 187 L 162 75.5 L 161 74.5 L 161 44 Z " /><path fill="rgb(31,74,209)" stroke="rgb(31,74,209)" stroke-width="1" opacity="0.9764705882352941" d="M 103 46 Q 127.6 48.7 140 64.5 Q 147 72.5 150 84.5 L 151 99.5 L 149 109.5 L 144 120.5 L 135.5 130 L 133 126.5 L 103 46 Z " /><path fill="rgb(31,74,209)" stroke="rgb(31,74,209)" stroke-width="1" opacity="0.9764705882352941" d="M 579.5 57 L 586 64.5 L 587 70.5 L 574.5 92 L 574 89 Q 570.7 90.3 572 85.5 L 568 76.5 L 579.5 57 Z " /><path fill="rgb(31,74,209)" stroke="rgb(31,74,209)" stroke-width="1" opacity="0.9764705882352941" d="M 469 111 L 497 111 L 497 136 L 469 136 L 469 111 Z " /><path fill="rgb(31,74,209)" stroke="rgb(31,74,209)" stroke-width="1" opacity="0.9764705882352941" d="M 511 111 L 537.5 111 Q 538.6 111.1 538 116.5 Q 540.5 118 539 123.5 L 538 124.5 L 538 136 L 511 136 L 511 123.5 Q 508.7 122.2 510 117.5 L 511 111 Z " /><path fill="rgb(31,74,209)" stroke="rgb(31,74,209)" stroke-width="1" opacity="0.9764705882352941" d="M 435.5 148 L 438 153 Q 440.7 151.9 440 154.5 L 452 171.5 L 438.5 185 L 436.5 185 L 424 171.5 L 421 163.5 L 435.5 148 Z " /><path fill="rgb(31,74,209)" stroke="rgb(31,74,209)" stroke-width="1" opacity="0.9764705882352941" d="M 586.5 163 L 585.5 165 L 586.5 163 Z " /><path fill="rgb(31,74,209)" stroke="rgb(31,74,209)" stroke-width="1" opacity="0.9764705882352941" d="M 227.5 170 L 234 187 L 216.5 187 L 210 188 L 210 186 Q 212.7 187.1 212 184.5 L 227.5 170 Z " /><path fill="rgb(31,74,209)" stroke="rgb(31,74,209)" stroke-width="1" opacity="0.9764705882352941" d="M 514.5 189 L 520 189.5 L 514.5 190 L 514.5 189 Z " /><path fill="rgb(31,74,209)" stroke="rgb(31,74,209)" stroke-width="1" opacity="0.9764705882352941" d="M 255.5 250 L 259 252.5 L 259 257.5 L 254.5 262 Q 250.8 263 252 260 L 256 259 L 257 255 Q 251 257 253 251 L 255.5 250 Z " /><path fill="rgb(31,74,209)" stroke="rgb(31,74,209)" stroke-width="1" opacity="0.9764705882352941" d="M 270.5 250 Q 280.4 248.6 283.5 254 L 285 253.5 Q 284 257 278.5 256 L 271.5 254 L 268.5 255 L 266 256.5 Q 265.3 260.3 267.5 261 L 269.5 262 L 273.5 262 L 280.5 262 L 285 265.5 L 286 274.5 L 279.5 280 L 271.5 280 L 261 275 L 262.5 272 L 270.5 276 L 272.5 276 L 277.5 275 Q 279 277.5 280.5 274 Q 282.8 274.8 282 272.5 L 283 270.5 L 282 268 L 269.5 266 L 263 262.5 L 262 256.5 L 265.5 252 L 270.5 250 Z " /><path fill="rgb(31,74,209)" stroke="rgb(31,74,209)" stroke-width="1" opacity="0.9764705882352941" d="M 247.5 274 L 251 278.5 L 247 279 L 247.5 274 Z " /><path fill="rgb(36,81,216)" stroke="rgb(36,81,216)" stroke-width="1" opacity="0.9372549019607843" d="M 180.5 44 L 204 44 L 204 105.5 L 203 105.5 L 180.5 44 Z " /><path fill="rgb(36,81,216)" stroke="rgb(36,81,216)" stroke-width="1" opacity="0.9372549019607843" d="M 453.5 52 L 452.5 54 L 453.5 52 Z " /><path fill="rgb(36,81,216)" stroke="rgb(36,81,216)" stroke-width="1" opacity="0.9372549019607843" d="M 587.5 68 L 591 75.5 L 576.5 100 L 574 92.5 L 587.5 68 Z " /><path fill="rgb(36,81,216)" stroke="rgb(36,81,216)" stroke-width="1" opacity="0.9372549019607843" d="M 469 100 L 497 100 L 497 111 L 469 111 L 469 100 Z " /><path fill="rgb(36,81,216)" stroke="rgb(36,81,216)" stroke-width="1" opacity="0.9372549019607843" d="M 511.5 100 L 537.5 100 L 538 101.5 L 539 102.5 L 539 116.5 L 538 116.5 Q 538.6 111.1 537.5 111 L 511 111 L 510.5 117 L 510 101.5 L 511.5 100 Z " /><path fill="rgb(36,81,216)" stroke="rgb(36,81,216)" stroke-width="1" opacity="0.9372549019607843" d="M 430.5 134 L 432 134.5 Q 429.5 136 433 137.5 L 437 148.5 Q 435 146.8 433 150.5 L 421 163.5 L 421 165.5 L 421.5 167 L 413 151.5 L 429 136.5 L 430.5 134 Z " /><path fill="rgb(36,81,216)" stroke="rgb(36,81,216)" stroke-width="1" opacity="0.9372549019607843" d="M 253.5 144 L 268 180.5 L 268 183.5 L 264.5 188 L 216 187.5 L 234 187 L 227.5 170 L 214 182.5 L 253.5 144 Z " /><path fill="rgb(36,81,216)" stroke="rgb(36,81,216)" stroke-width="1" opacity="0.9372549019607843" d="M 422.5 168 L 423.5 170 L 422.5 168 Z " /><path fill="rgb(36,81,216)" stroke="rgb(36,81,216)" stroke-width="1" opacity="0.9372549019607843" d="M 528.5 185 L 528 186.5 L 525.5 190 Q 520.1 190.9 518 188.5 L 528.5 185 Z " /><path fill="rgb(36,81,216)" stroke="rgb(36,81,216)" stroke-width="1" opacity="0.9372549019607843" d="M 295.5 251 Q 301.5 249.5 303 252.5 L 308 268 Q 310.7 269.1 310 266.5 L 312.5 262 L 313 273.5 L 314 274.5 L 313.5 277 L 312 277.5 L 312.5 279 L 305.5 279 L 305 276.5 L 294 252.5 L 295.5 251 Z " /><path fill="rgb(36,81,216)" stroke="rgb(36,81,216)" stroke-width="1" opacity="0.9372549019607843" d="M 282.5 252 Q 287.5 254.5 282.5 257 L 281 256.5 L 284 254.5 L 282.5 252 Z " /><path fill="rgb(36,81,216)" stroke="rgb(36,81,216)" stroke-width="1" opacity="0.9372549019607843" d="M 284.5 264 Q 288.3 266.3 287 273.5 L 286 273.5 Q 286.8 266.3 284.5 264 Z " /><path fill="rgb(36,81,216)" stroke="rgb(36,81,216)" stroke-width="1" opacity="0.9372549019607843" d="M 315.5 271 L 314.5 273 L 315.5 271 Z " /><path fill="rgb(36,81,216)" stroke="rgb(36,81,216)" stroke-width="1" opacity="0.9372549019607843" d="M 285.5 275 L 282.5 279 L 281 278.5 L 285.5 275 Z " /><path fill="rgb(48,96,234)" stroke="rgb(48,96,234)" stroke-width="1" opacity="0.9686274509803922" d="M 491.5 19 L 507.5 19 L 508.5 20 L 517.5 20 L 521 21.5 L 519.5 23 L 511.5 23 L 510.5 24 L 499.5 25 L 484.5 30 Q 464.2 38.7 451 54.5 Q 439.5 67.5 434 86.5 L 434 88.5 L 429 104.5 L 429 116.5 L 409.5 136 L 407 124.5 L 407 122.5 L 406 113.5 L 407 112.5 L 407 101.5 L 409 99.5 L 410 93.5 L 480.5 21 L 482.5 22 L 484.5 20 Q 490 21.5 491.5 19 Z " /><path fill="rgb(48,96,234)" stroke="rgb(48,96,234)" stroke-width="1" opacity="0.9686274509803922" d="M 254 45 L 273.5 45 L 277 48.5 L 289 63 L 293 65.5 L 311.5 86 L 329.5 67 L 331 66.5 L 330 65.5 L 334.5 61 Q 337.1 61.7 336 59 L 339 59 L 353 97.5 L 339 113.5 Q 352.4 123.6 361.5 138 Q 363.8 137.3 363 139.5 L 369 144 L 369 146 Q 371.7 144.9 371 147.5 L 372.5 150 L 374 149.5 L 374 151.5 L 387 187 L 383.5 188 L 352.5 188 L 310.5 141 L 308.5 141 L 300 149.5 L 298.5 152 Q 296.3 151.3 297 153.5 L 295 154.5 L 281 116.5 Q 284.5 115 282 113.5 L 276 105.5 L 254 45 Z " /><path fill="rgb(48,96,234)" stroke="rgb(48,96,234)" stroke-width="1" opacity="0.9686274509803922" d="M 487.5 62 L 488.5 63 L 496.5 63 L 498 64.5 L 497 88 L 469 88 L 469 78.5 L 465 73 L 478.5 66 L 480 66.5 L 480.5 65 L 482.5 65 L 487.5 62 Z " /><path fill="rgb(48,96,234)" stroke="rgb(48,96,234)" stroke-width="1" opacity="0.9686274509803922" d="M 527.5 63 L 537.5 63 L 538 64.5 L 539 65.5 L 539 77.5 L 538 78.5 L 538 88 L 511.5 88 L 511 87.5 L 511 80.5 L 507 73.5 L 519.5 66 L 521 66.5 L 521.5 65 L 523 65.5 L 523.5 64 L 525.5 64 L 527.5 63 Z " /><path fill="rgb(48,96,234)" stroke="rgb(48,96,234)" stroke-width="1" opacity="0.9686274509803922" d="M 593.5 83 L 597 89.5 L 599 98.5 L 595 108.5 L 552 185 L 546.5 187 L 534.5 189 L 535 187.5 L 539.5 181 L 546 178 L 547.5 175 L 563 161.5 Q 560.8 160.2 563.5 159 L 565 159 L 565 156 L 567 156 Q 565.5 152.2 568.5 153 L 569 150.5 Q 568.3 148.3 570.5 149 L 570.5 147 L 572 146.5 L 572 144.5 L 577 127.5 L 578 110.5 L 593.5 83 Z " /><path fill="rgb(48,96,234)" stroke="rgb(48,96,234)" stroke-width="1" opacity="0.9686274509803922" d="M 335 251 L 348 251 L 348 257 L 335 257 L 335 251 Z " /><path fill="rgb(48,96,234)" stroke="rgb(48,96,234)" stroke-width="1" opacity="0.9686274509803922" d="M 352 251 L 371.5 251 L 376 254.5 L 375.5 256 L 377 256.5 Q 374.5 258 378 259.5 L 377 264 L 375 264.5 Q 377.3 265.8 374.5 267 Q 372.3 266.3 373 268.5 L 378 279 L 370.5 279 L 369 277.5 L 364.5 270 L 359 270 L 359 279 L 352 279 L 352 251 Z M 359 257 L 359 263 L 368 263 L 370 260 L 368 257 L 359 257 Z " /><path fill="rgb(48,96,234)" stroke="rgb(48,96,234)" stroke-width="1" opacity="0.9686274509803922" d="M 376.5 251 L 382 251 L 382 257.5 L 380.5 257 L 379 256.5 L 379.5 255 L 377 253.5 L 377.5 252 L 376.5 251 Z " /><path fill="rgb(48,96,234)" stroke="rgb(48,96,234)" stroke-width="1" opacity="0.9686274509803922" d="M 335 262 L 342 262 L 342 267 L 335 267 L 335 262 Z " /><path fill="rgb(48,96,234)" stroke="rgb(48,96,234)" stroke-width="1" opacity="0.9686274509803922" d="M 335 273 L 349 273 L 349 279 L 335 279 L 335 273 Z " /></svg>