<?xml version="1.0" encoding="UTF-8"?>
<svg version="1.1" xmlns="http://www.w3.org/2000/svg" width="1893" height="500">
<path d="M0 0 C113.86206897 0 113.86206897 0 130.71484375 15.5859375 C150.33353574 36.0532752 145.30872602 77.16719195 145.19561768 103.26812744 C145.18479209 106.41120905 145.18519699 109.55424777 145.18561745 112.69734478 C145.18337853 186.98909136 145.18337853 186.98909136 130 203 C129.41476562 203.62519531 128.82953125 204.25039062 128.2265625 204.89453125 C123.1954164 209.77166268 116.23665329 214 109 214 C109.31201859 215.46872307 109.31201859 215.46872307 109.63034058 216.96711731 C118.55916291 259.09021238 126.90970979 301.3306955 135.30864024 343.5618211 C136.93955246 351.76014053 138.57573194 359.95740286 140.21291459 368.15447205 C141.80885396 376.14628477 143.40113297 384.13882107 144.99054992 392.13193351 C145.93272255 396.86974003 146.87637101 401.60724047 147.82379532 406.34399986 C148.70636997 410.75713323 149.58439751 415.17114671 150.45888329 419.58588982 C150.77972866 421.20155872 151.10220918 422.81690391 151.4264431 424.43189621 C151.86824077 426.63377415 152.30413295 428.83674189 152.73855591 431.04008484 C152.98366976 432.2710171 153.22878361 433.50194937 153.48132515 434.77018261 C154 438 154 438 154 443 C135.19 443 116.38 443 97 443 C92.76171266 417.62306955 88.56069481 392.24041568 84.39453125 366.8515625 C84.24574327 365.94489696 84.09695529 365.03823142 83.94365859 364.10409117 C82.53199768 355.50157003 81.12072702 346.89898494 79.71040821 338.29624367 C77.93345445 327.4572469 76.1545015 316.61858234 74.37291223 305.78034651 C73.10358442 298.05738819 71.83655375 290.33405504 70.57116622 282.61045015 C69.82200429 278.03812934 69.0719049 273.46596754 68.31928444 268.89421463 C62.6635973 234.53110812 62.6635973 234.53110812 60.53569031 217.9546814 C60.12593625 214.92971205 59.65420678 211.97901949 59 209 C58.01 209.33 57.02 209.66 56 210 C54.78103239 214.75582357 54.86347978 219.38447273 54.87974548 224.2570343 C54.87846385 225.6600174 54.87846385 225.6600174 54.87715632 227.09134358 C54.87550868 230.22668666 54.88101122 233.36197629 54.88647461 236.49731445 C54.88675666 238.7443288 54.88659839 240.99134325 54.8860321 243.23835754 C54.88574483 249.34118067 54.89163027 255.44398419 54.89860606 261.54680276 C54.90485124 267.92363146 54.90544432 274.30046059 54.90663147 280.67729187 C54.90938786 291.38130066 54.91563691 302.08530169 54.92456055 312.78930664 C54.93374173 323.81372034 54.94081911 334.83813208 54.94506836 345.86254883 C54.94533108 346.5422702 54.94559381 347.22199158 54.94586449 347.92231057 C54.94716954 351.33232563 54.94843325 354.74234071 54.94967639 358.15235579 C54.9600405 386.43490988 54.97847423 414.71745206 55 443 C36.85 443 18.7 443 0 443 C0 296.81 0 150.62 0 0 Z M55 53 C55 94.58 55 136.16 55 179 C64.7729208 179 74.52307928 178.96713067 82 172 C89.86400637 160.05275955 90.27377638 146.79212064 90.625 132.875 C90.66149658 131.58327881 90.69799316 130.29155762 90.7355957 128.96069336 C93.73169133 92.4959534 93.73169133 92.4959534 81.6875 59.5 C76.15792405 53.78337709 70.31799855 52.67489959 62.6484375 52.015625 C59.58302018 51.90841791 59.58302018 51.90841791 55 53 Z " fill="#231F20" transform="translate(548,0)"/>
<path d="M0 0 C26.73 0 53.46 0 81 0 C83.25005389 15.75037723 83.25005389 15.75037723 83.76908875 21.11639404 C83.95045852 22.96739133 83.95045852 22.96739133 84.13549232 24.85578251 C84.32305375 26.81967505 84.32305375 26.81967505 84.5144043 28.82324219 C84.65492888 30.27018231 84.79572805 31.71709579 84.9367733 33.16398525 C85.32150785 37.11938166 85.702223 41.07515574 86.08218312 45.03101325 C86.49865873 49.36010758 86.91873572 53.68885288 87.33824158 58.01765442 C88.16807646 66.58736617 88.99414827 75.15743691 89.81887597 83.72764152 C90.4951607 90.75465569 91.17289857 97.78152842 91.85150146 104.80831909 C99.11538039 180.03262439 106.28007236 255.26640822 113.42917401 330.50169301 C113.62559612 332.56877338 113.82202677 334.63585294 114.01845884 336.70293236 C115.76575981 355.09025234 117.51175661 373.47769572 119.25629544 391.86527801 C119.6002731 395.49031774 119.94439803 399.11534346 120.28855705 402.74036598 C120.82001838 408.33865221 121.35099544 413.93698416 121.88156378 419.53535509 C122.07513157 421.57709571 122.26885632 423.61882145 122.46274602 425.66053152 C122.72492191 428.42168193 122.98652075 431.18288637 123.24795532 433.94410706 C123.32516656 434.75590465 123.40237779 435.56770224 123.48192877 436.40409976 C124 441.8857485 124 441.8857485 124 443 C104.53 443 85.06 443 65 443 C64.11482335 438.57411676 63.69778643 434.35888069 63.46484375 429.875 C63.42186661 429.09165283 63.37888947 428.30830566 63.33460999 427.5012207 C63.24464485 425.84384591 63.1565037 424.18637122 63.07006836 422.52880859 C62.93937751 420.03581449 62.80118759 417.5433198 62.66210938 415.05078125 C62.57506436 413.42971195 62.48846259 411.80861877 62.40234375 410.1875 C62.36173325 409.46095215 62.32112274 408.7344043 62.27928162 407.98583984 C61.93913444 401.29958192 62 394.72653467 62 388 C48.14 388 34.28 388 20 388 C19.855625 391.856875 19.71125 395.71375 19.5625 399.6875 C19.23083494 408.33428677 18.89030897 416.98064192 18.5 425.625 C18.46463135 426.45733154 18.4292627 427.28966309 18.39282227 428.1472168 C18.35600342 428.93652588 18.31918457 429.72583496 18.28125 430.5390625 C18.25095703 431.21146973 18.22066406 431.88387695 18.18945312 432.57666016 C17.91689482 436.06301801 17.43374894 439.5300085 17 443 C-2.14 443 -21.28 443 -41 443 C-41 429.49976436 -41 429.49976436 -40.50938416 424.26251221 C-40.39963509 423.06202838 -40.28988602 421.86154455 -40.17681122 420.62468243 C-40.05392982 419.3424923 -39.93104843 418.06030218 -39.80444336 416.73925781 C-39.67333021 415.32885637 -39.5426981 413.91841015 -39.41249847 412.50792408 C-39.05424486 408.64268813 -38.68900596 404.77814023 -38.32250857 400.91367841 C-37.92269581 396.68544727 -37.52921379 392.45662576 -37.13478088 388.22789001 C-36.35185792 379.84606747 -35.56254736 371.46485749 -34.77104574 363.08384115 C-34.1215084 356.20467161 -33.47451049 349.32526727 -32.82910156 342.44570923 C-25.81437295 267.68396892 -18.66399683 192.93506036 -11.5 118.1875 C-11.43542435 117.51370528 -11.37084871 116.83991057 -11.30431622 116.14569783 C-9.49723051 97.29028814 -7.68821744 78.43506413 -5.87696147 59.58005452 C-5.53366845 56.00564994 -5.19059078 52.43122475 -4.8475666 48.85679436 C-4.31563054 43.31438366 -3.78299777 37.77204036 -3.24979794 32.22975111 C-3.0562815 30.21726545 -2.86298462 28.20475866 -2.66992843 26.19222879 C-2.40692594 23.45106404 -2.14308531 20.7099812 -1.87902832 17.96891785 C-1.80404761 17.18547577 -1.7290669 16.4020337 -1.65181404 15.59485096 C-1.14913593 10.38950201 -0.57765333 5.19888 0 0 Z M40 44 C39.18506979 57.87485793 38.37302304 71.74988394 37.5625 85.625 C37.49879337 86.71546253 37.43508675 87.80592506 37.36944962 88.92943192 C35.43192996 122.10386494 33.52242442 155.27983822 31.6328125 188.45703125 C31.58229854 189.34390782 31.53178459 190.2307844 31.4797399 191.14453602 C30.41160184 209.89934613 29.34535054 228.65426328 28.2805748 247.40926456 C27.94306613 253.35393145 27.60528792 259.29858301 27.26745081 265.24323124 C26.99789533 269.98699406 26.72876968 274.73078099 26.46000415 279.47458863 C26.29398964 282.40322423 26.12759802 285.33183833 25.96111381 288.26044726 C25.850059 290.21601102 25.73945962 292.17160062 25.62888432 294.12719154 C25.5604655 295.32956144 25.49204668 296.53193134 25.42155457 297.77073669 C25.35467627 298.95276106 25.28779797 300.13478542 25.21889305 301.35262871 C25.06704705 303.88280839 24.90152969 306.41219021 24.725214 308.94078255 C24.67900203 309.61493802 24.63279006 310.2890935 24.58517772 310.98367792 C24.45692701 312.83986877 24.32321734 314.69568022 24.18906116 316.55145359 C23.91377857 323.02876165 24 329.51684489 24 336 C35.22 336 46.44 336 58 336 C58.01717622 324.27469228 58.01717622 324.27469228 57.50024414 312.60498047 C57.44623884 311.75787191 57.39223354 310.91076336 57.33659172 310.03798485 C57.21889346 308.20064399 57.09916786 306.36343206 56.97758293 304.5263443 C56.77687592 301.4920033 56.58188439 298.45733554 56.38807678 295.42254639 C56.10134337 290.94035734 55.8124268 286.45831699 55.52178955 281.97637939 C54.7183929 269.57365725 53.93307581 257.16979227 53.15234375 244.765625 C53.08949346 243.76793712 53.08949346 243.76793712 53.02537346 242.75009394 C51.46160779 217.91596388 49.99619615 193.07655239 48.56640625 168.234375 C48.51549528 167.35009087 48.46458432 166.46580674 48.41213059 165.55472612 C47.3928486 147.84576407 46.38086286 130.13638722 45.37440294 112.42669201 C44.992693 105.71083556 44.60972932 98.99505128 44.22597796 92.27931118 C43.95941964 87.61184907 43.6948846 82.94427833 43.43201798 78.27660692 C43.27029004 75.41226486 43.10680137 72.5480252 42.9428519 69.68380952 C42.83302779 67.75572423 42.725353 65.82751688 42.61776829 63.89930534 C42.23501612 57.24535199 41.73604618 50.62462296 41 44 C40.67 44 40.34 44 40 44 Z " fill="#231F20" transform="translate(41,0)"/>
<path d="M0 0 C8.46791093 5.84962776 11.57200758 16.37322303 14 26 C14.4846875 25.02160156 14.969375 24.04320312 15.46875 23.03515625 C21.4257843 11.26828618 27.12748204 1.90381636 40 -3 C46.81220439 -5.15928769 55.22398462 -5.09858948 61.875 -2.5 C69.69313776 1.58838396 74.2834738 8.8092619 77 17 C80.7432218 30.28167254 80.14786724 44.56366398 80.11523438 58.24780273 C80.11482465 59.94122627 80.11481147 61.63464995 80.11515808 63.3280735 C80.11463209 67.91998777 80.10744334 72.51186917 80.09871864 77.10377431 C80.09369955 80.02546101 80.09058631 82.94714363 80.08811951 85.86883354 C80.0496712 131.36945171 79.81275629 176.86931795 79.55461884 222.36913049 C79.49216736 233.39375024 79.43264156 244.41838535 79.37324238 255.44302189 C79.25185362 277.96203206 79.12678581 300.48101953 79 323 C64.48 323 49.96 323 35 323 C34.99191315 319.73762955 34.98382629 316.47525909 34.97549438 313.11402893 C34.90039158 283.18526317 34.81549729 253.25654049 34.71994839 223.32783315 C34.70742978 219.4038584 34.69499697 215.47988339 34.68261719 211.5559082 C34.68015119 210.77472793 34.6776852 209.99354765 34.67514448 209.18869524 C34.63543993 196.54626119 34.6026824 183.90381823 34.57250018 171.26135827 C34.54136674 158.28535566 34.50274925 145.30939083 34.45720994 132.33343071 C34.42935353 124.32903731 34.40730817 116.32467149 34.39273749 108.3202427 C34.38093161 102.17850338 34.35870415 96.03684164 34.33261681 89.89514732 C34.32355187 87.37851069 34.31785333 84.86185932 34.31578636 82.34520721 C34.31245625 78.90630901 34.29695799 75.46766923 34.2784729 72.02882385 C34.281375 70.53900453 34.281375 70.53900453 34.28433573 69.01908785 C34.21739033 60.67438439 33.7149481 52.53136926 28 46 C25.61391389 44.75598722 25.61391389 44.75598722 23 45 C18.29298281 46.90522124 16.99010828 49.47171814 15 54 C11.7292202 66.53837634 12.73242965 80.1643458 12.77294922 92.99755859 C12.77351413 95.5119069 12.77319521 98.02625553 12.77206421 100.54060364 C12.77161081 105.92882123 12.77723222 111.31697638 12.78853989 116.70518112 C12.80487757 124.49535777 12.8100113 132.28551106 12.81251587 140.07570298 C12.81688008 152.71845076 12.83015441 165.36117256 12.84912109 178.00390625 C12.86751301 190.27636588 12.88165325 202.54881841 12.89013672 214.82128906 C12.89066217 215.57929481 12.89118761 216.33730055 12.89172898 217.11827616 C12.89433929 220.92142541 12.89686665 224.7245747 12.89935279 228.52772403 C12.92004558 260.01850216 12.95579126 291.50924568 13 323 C-1.52 323 -16.04 323 -31 323 C-30.99555878 319.83642914 -30.99111755 316.67285828 -30.98654175 313.41342163 C-30.946692 284.36176403 -30.9168606 255.31011388 -30.89786934 226.25843569 C-30.89536811 222.44605343 -30.89277945 218.63367123 -30.89013672 214.82128906 C-30.88934979 213.68288743 -30.88934979 213.68288743 -30.88854696 212.52148779 C-30.8798589 200.25423522 -30.86409778 187.98700151 -30.84569441 175.71976011 C-30.82695079 163.12005541 -30.81587386 150.52036056 -30.81182301 137.9206425 C-30.80908719 130.15423612 -30.80046558 122.38788307 -30.78416707 114.62149312 C-30.77228421 108.65294325 -30.77109988 102.68443866 -30.77378464 96.71587563 C-30.77323671 94.27711599 -30.76928915 91.83835424 -30.76158905 89.3996067 C-29.30621062 66.23843125 -29.30621062 66.23843125 -38 46 C-40.41743146 44.59872489 -40.41743146 44.59872489 -43 45 C-46.78706813 46.44269262 -47.84336227 47.70350716 -49.75 51.3125 C-52.06227131 58.13370038 -52.14097107 64.54203674 -52.12025452 71.6680603 C-52.12110894 72.74307757 -52.12196337 73.81809484 -52.12284368 74.92568839 C-52.12449077 78.52778707 -52.11898969 82.12983919 -52.11352539 85.73193359 C-52.11324333 88.31406656 -52.11340163 90.8961996 -52.1139679 93.47833252 C-52.11449177 99.03746396 -52.11135919 104.59658364 -52.10573006 110.15571213 C-52.09759662 118.19323836 -52.09499794 126.23075891 -52.09374207 134.26828881 C-52.09155445 147.30923352 -52.08490222 160.35017197 -52.07543945 173.39111328 C-52.06625784 186.05777963 -52.05918067 198.72444428 -52.05493164 211.39111328 C-52.05466892 212.17212978 -52.05440619 212.95314628 -52.05413551 213.75782995 C-52.05283045 217.6760328 -52.05156675 221.59423566 -52.05032361 225.51243854 C-52.03996003 258.0082971 -52.02207401 290.50414727 -52 323 C-66.85 323 -81.7 323 -97 323 C-97 216.74 -97 110.48 -97 1 C-83.14 1 -69.28 1 -55 1 C-55 10.24 -55 19.48 -55 29 C-54.34 29 -53.68 29 -53 29 C-52.60167969 27.67935547 -52.60167969 27.67935547 -52.1953125 26.33203125 C-47.50907148 13.26875154 -37.6375315 2.59973094 -25.25 -3.3125 C-16.2864334 -5.20863909 -8.04496028 -4.51744737 0 0 Z " fill="#231F20" transform="translate(921,120)"/>
<path d="M0 0 C9.01651647 6.72165008 14.31966024 15.54748472 19.46875 25.37109375 C20.73056095 24.33316603 20.73056095 24.33316603 20.58227539 22.05444336 C20.57703857 21.05421143 20.57180176 20.05397949 20.56640625 19.0234375 C20.56390869 18.05140381 20.56141113 17.07937012 20.55883789 16.07788086 C20.54973389 14.83401611 20.54062988 13.59015137 20.53125 12.30859375 C20.510625 8.36921875 20.49 4.42984375 20.46875 0.37109375 C34.65875 0.37109375 48.84875 0.37109375 63.46875 0.37109375 C63.49380615 6.07060303 63.5188623 11.7701123 63.54467773 17.64233398 C63.62908265 36.71683308 63.71759546 55.79131161 63.80808926 74.86578274 C63.86272676 86.40261993 63.91605274 97.93946011 63.96606445 109.47631836 C64.2463964 178.5513758 64.2463964 178.5513758 65.31758022 247.61748123 C67.35502482 344.73406728 67.35502482 344.73406728 47.65625 365.74609375 C35.75337269 376.71585831 22.5349038 379.69971621 6.78125 379.80859375 C5.73638428 379.81874512 4.69151855 379.82889648 3.61499023 379.83935547 C-10.34176494 379.68304509 -23.58376587 375.3876344 -33.90625 365.74609375 C-45.32943083 353.49780355 -47.53125 339.75396059 -47.53125 323.37109375 C-33.67125 323.37109375 -19.81125 323.37109375 -5.53125 323.37109375 C-1.53125 331.37109375 -1.53125 331.37109375 0.09375 334.80859375 C1.21144517 337.482726 1.21144517 337.482726 3.46875 338.37109375 C6.47713544 338.71631831 8.56409461 338.94533464 11.46875 338.37109375 C16.05169437 334.38592473 17.4877184 330.32311184 18.46875 324.37109375 C18.71678767 320.75239015 18.70285113 317.15311527 18.6640625 313.52734375 C18.65981766 312.01279602 18.65981766 312.01279602 18.65548706 310.46765137 C18.6443653 307.26867408 18.61927563 304.06998525 18.59375 300.87109375 C18.58370985 298.69141032 18.57458582 296.51172246 18.56640625 294.33203125 C18.54445225 289.0116217 18.51105518 283.69137834 18.46875 278.37109375 C17.36299579 279.93637973 16.25921924 281.50306286 15.15625 283.0703125 C14.54136719 283.94260498 13.92648437 284.81489746 13.29296875 285.71362305 C11.61056095 288.16450753 10.02624119 290.65218194 8.46875 293.18359375 C4.10633727 299.72721284 -1.92175188 303.49778776 -9.53125 305.37109375 C-18.64087598 306.85863052 -26.74716809 306.82189767 -34.8671875 301.81640625 C-43.79094391 294.0657258 -45.89844927 280.81269761 -46.84310722 269.70371819 C-47.54202286 258.28298855 -47.67360272 246.9051857 -47.66064453 235.46533203 C-47.66200314 233.42471282 -47.66378563 231.38409385 -47.66595459 229.34347534 C-47.67047488 223.85163971 -47.66876165 218.35982308 -47.6655755 212.86798716 C-47.66302307 207.08735514 -47.66539748 201.30672462 -47.66696167 195.52609253 C-47.66877529 185.82094026 -47.66639859 176.11579563 -47.66162109 166.41064453 C-47.65618311 155.23566517 -47.65794103 144.06070406 -47.6634475 132.88572514 C-47.66800536 123.24524853 -47.66861606 113.60477738 -47.66600883 103.96430004 C-47.66446032 98.22669671 -47.66421272 92.48910193 -47.66754532 86.75149918 C-47.67046298 81.35214267 -47.66837781 75.95280939 -47.66265106 70.55345535 C-47.66134401 68.58765196 -47.66168196 66.62184657 -47.66391373 64.65604401 C-47.67374826 55.10266103 -47.57787496 45.57190968 -47.10519409 36.02877808 C-47.06907678 35.26826082 -47.03295946 34.50774357 -46.99574769 33.72418034 C-46.29422355 21.14293953 -44.07341865 8.73146423 -34.5 -0.15234375 C-24.72049963 -7.48696903 -9.91605595 -6.38116563 0 0 Z M2.46875 48.37109375 C-4.4589858 56.83832639 -2.81746531 70.19077663 -2.79003906 80.48803711 C-2.79275324 82.20563403 -2.79631656 83.92322979 -2.80065918 85.64082336 C-2.80973535 90.28134697 -2.80625851 94.92178111 -2.79990101 99.56230617 C-2.7948154 104.43383816 -2.79953963 109.30536282 -2.80267334 114.17689514 C-2.80630589 122.3567949 -2.80153294 130.53665848 -2.79199219 138.71655273 C-2.78111266 148.15280654 -2.78463245 157.58897387 -2.795645 167.02522558 C-2.80474252 175.14783239 -2.80599101 183.27041328 -2.80076766 191.39302355 C-2.79766103 196.23510787 -2.79720245 201.07715166 -2.80384064 205.91923332 C-2.80964928 210.47392606 -2.80555325 215.02850814 -2.79405212 219.58318901 C-2.79142411 221.24757199 -2.79213855 222.9119644 -2.79657745 224.57634354 C-3.16343785 241.14601793 -3.16343785 241.14601793 2.46875 256.37109375 C6.1893336 258.85148282 8.06671571 258.83446578 12.46875 258.37109375 C17.48334418 254.25958404 18.46080601 249.58044987 19.46875 243.37109375 C19.88193857 237.40447275 19.8799044 231.46059674 19.85693359 225.48217773 C19.8610054 223.69384441 19.86635068 221.9055136 19.87286377 220.1171875 C19.88646976 215.28874557 19.88126688 210.46049724 19.87172651 205.63205218 C19.86409613 200.5638649 19.87118476 195.49569347 19.87588501 190.42750549 C19.88133225 181.9198206 19.87417754 173.41221401 19.85986328 164.90454102 C19.84353353 155.08592311 19.84883183 145.26749209 19.8653425 135.44887871 C19.87898052 126.9984482 19.88086587 118.54807377 19.87302649 110.09763581 C19.86836338 105.05940284 19.86768764 100.02125756 19.87763596 94.98303032 C19.8863373 90.24606756 19.88022609 85.50934454 19.86295319 80.77240753 C19.85900544 79.03987843 19.86009285 77.30732896 19.86674118 75.57480812 C20.23632667 59.95295883 20.23632667 59.95295883 13.46875 46.37109375 C8.76260817 44.83648228 6.30337338 45.26193966 2.46875 48.37109375 Z " fill="#231F20" transform="translate(1763.53125,120.62890625)"/>
<path d="M0 0 C14.52 0 29.04 0 44 0 C44.63417816 5.7076034 45.12374832 10.79208939 45.11352539 16.445755 C45.11367425 17.13858257 45.11382311 17.83141014 45.11397648 18.54523247 C45.11328906 20.8378859 45.10547843 23.13045641 45.09765625 25.4230957 C45.09573408 27.08027603 45.0942717 28.73745695 45.0932312 30.39463806 C45.09007942 33.95487364 45.0838232 37.51508526 45.07516479 41.07531166 C45.06153363 46.74415016 45.05572307 52.41298092 45.05102539 58.08183289 C45.03901031 71.17396924 45.01716316 84.26608559 44.99479675 97.3582077 C44.97445084 109.29450743 44.95638591 121.23079935 44.94658184 133.16711301 C44.94248644 137.85965889 44.93633826 142.55218071 44.92483521 147.24471474 C44.87974314 165.862688 44.93999446 184.46655364 45.44140625 203.07885742 C45.46093794 203.83691449 45.48046963 204.59497155 45.50059319 205.37600005 C45.69302711 212.62830704 45.88867916 219.81976627 47 227 C48.52260844 218.87355145 49.86453217 210.72682485 51.13891602 202.55810547 C51.45126531 200.56711829 51.76361572 198.57613129 52.07600868 196.58515096 C52.40781086 194.46899938 52.73898437 192.3527502 53.07000923 190.2364769 C53.76161655 185.81596782 54.45586399 181.39587584 55.15061951 176.9758606 C57.12449418 164.41606896 59.09629267 151.85595451 61.06225586 139.29492188 C62.1509952 132.3388363 63.24263501 125.38321251 64.33756012 118.42809784 C64.91604837 114.75260256 65.49297477 111.07687657 66.06628609 107.40056992 C66.70331695 103.31566869 67.3466197 99.23177979 67.99047852 95.14794922 C68.18010666 93.92517776 68.3697348 92.70240631 68.56510925 91.44258118 C68.74029083 90.33802078 68.91547241 89.23346039 69.09596252 88.09542847 C69.24730432 87.12984953 69.39864611 86.16427059 69.55457401 85.16943169 C70 83 70 83 71 82 C74.02977804 81.91128727 77.03667022 81.8848065 80.06640625 81.90234375 C80.97502914 81.9037587 81.88365204 81.90517365 82.81980896 81.90663147 C85.73407221 81.91224807 88.64825981 81.92480335 91.5625 81.9375 C93.53320202 81.94251286 95.50390524 81.94707614 97.47460938 81.95117188 C102.31643559 81.96222289 107.15820495 81.97949862 112 82 C111.45025983 88.68804468 110.49792291 95.1555824 109.09375 101.71484375 C108.89708237 102.65181595 108.70041473 103.58878815 108.49778748 104.55415344 C107.83818821 107.68331369 107.16961915 110.81046961 106.5 113.9375 C106.26878448 115.02550903 106.03756897 116.11351807 105.79934692 117.23449707 C101.03940218 139.61622383 96.00152551 161.93547083 90.9375 184.25 C90.74763519 185.08671612 90.55777039 185.92343224 90.3621521 186.78550339 C89.08666369 192.40451223 87.80798873 198.02278936 86.52734375 203.640625 C86.36150724 204.36900385 86.19567074 205.0973827 86.02480888 205.84783363 C85.70593043 207.24760737 85.38651515 208.64725894 85.06649876 210.04677296 C84.62974262 211.95908251 84.19638011 213.87216617 83.76315308 215.78527832 C83.17632359 218.2572509 82.51179094 220.65563203 81.77954102 223.08496094 C79.31772436 235.44878554 81.89276258 246.21608239 85.10737228 258.11962509 C86.41274798 262.96650107 87.65470488 267.82963606 88.89941406 272.69238281 C89.15905378 273.70334204 89.4186935 274.71430126 89.6862011 275.75589561 C92.48296244 286.73514663 94.90713706 297.78842016 97.2734375 308.8671875 C97.59047512 310.34776516 97.59047512 310.34776516 97.91391754 311.85825348 C99.1962327 317.85374847 100.46766756 323.85150372 101.73510742 329.85015869 C103.02942019 335.96851489 104.33355624 342.08478389 105.63733864 348.20112801 C106.65012389 352.9523521 107.66135795 357.70387766 108.66635132 362.45675659 C109.0342827 364.1924226 109.4024932 365.92802946 109.77099609 367.66357422 C109.94851095 368.50030104 110.12602581 369.33702785 110.30891991 370.19911003 C111.29798782 374.82672899 112.32495612 379.44360209 113.39044189 384.05426025 C113.62188211 385.05702059 113.85332233 386.05978092 114.09177589 387.09292793 C114.54039266 389.02701014 114.99295282 390.96018318 115.45001793 392.8922863 C115.65250963 393.76379892 115.85500134 394.63531155 116.06362915 395.53323364 C116.24460962 396.30065447 116.4255901 397.06807529 116.61205482 397.8587513 C117 400 117 400 117 404 C101.82 404 86.64 404 71 404 C68.74978345 396.12424207 68.74978345 396.12424207 68.18139648 392.47583008 C68.05007828 391.64664062 67.91876007 390.81745117 67.78346252 389.96313477 C67.64738083 389.07424561 67.51129913 388.18535645 67.37109375 387.26953125 C67.22087265 386.31062988 67.07065155 385.35172852 66.9158783 384.36376953 C66.41867155 381.18068309 65.92808107 377.99661376 65.4375 374.8125 C65.08635455 372.55749619 64.73494929 370.30253283 64.38330078 368.04760742 C62.43428583 355.50770947 60.53976073 342.96021164 58.68359375 330.40625 C57.91443713 325.20827779 57.14502068 320.01034429 56.375 314.8125 C56.18639404 313.53867462 55.99778809 312.26484924 55.8034668 310.9524231 C52.9708812 291.87651992 49.88218741 272.89284741 46 254 C45.67 254 45.34 254 45 254 C44.67 303.5 44.34 353 44 404 C29.48 404 14.96 404 0 404 C0 270.68 0 137.36 0 0 Z " fill="#231F20" transform="translate(1221,39)"/>
<path d="M0 0 C8.128073 4.8146018 11.88469505 11.09295391 14.671875 20.03515625 C18.08937094 33.40939515 17.8855857 47.2877927 17.84960938 61.00317383 C17.84919911 62.55577527 17.84918692 64.10837686 17.84953308 65.66097832 C17.84900691 69.88045746 17.8418087 74.09990081 17.83309364 78.31937003 C17.82634236 81.94052064 17.82327087 85.56167146 17.81997061 89.18282658 C17.77728373 133.3708906 17.53259596 177.5585237 17.28899384 221.74584401 C17.22672867 233.05570468 17.16711135 244.36557896 17.10761738 255.6754545 C16.98595778 278.79276634 16.86093993 301.91005821 16.734375 325.02734375 C1.884375 325.02734375 -12.965625 325.02734375 -28.265625 325.02734375 C-28.26118378 321.7649733 -28.25674255 318.50260284 -28.25216675 315.14137268 C-28.21235386 285.21264555 -28.18250367 255.28392434 -28.16349434 225.3551769 C-28.16099298 221.43120187 -28.15840433 217.50722689 -28.15576172 213.58325195 C-28.15497479 212.41148154 -28.15497479 212.41148154 -28.15417196 211.21603899 C-28.14547353 198.57358366 -28.12970665 185.93114655 -28.11131941 173.28870202 C-28.09260472 160.3127273 -28.08150496 147.33676212 -28.07744801 134.36077446 C-28.07470621 126.356356 -28.06605187 118.35198905 -28.04979207 110.34758645 C-28.03795292 104.20587823 -28.03671763 98.06420914 -28.03940964 91.92249107 C-28.03885964 89.40584115 -28.03488433 86.88918926 -28.02721405 84.37255096 C-28.01724751 80.93368509 -28.01966253 77.49503868 -28.02511597 74.0561676 C-28.01929028 73.06295472 -28.0134646 72.06974184 -28.00746238 71.0464316 C-28.0427123 62.80894113 -28.9544022 55.21271508 -33.265625 48.02734375 C-36.39422995 46.46304127 -38.82165425 46.67107091 -42.265625 47.02734375 C-47.97688244 52.12116796 -48.63076039 59.76507575 -49.265625 67.02734375 C-49.39905776 70.61362576 -49.39653926 74.19562253 -49.38587952 77.78405762 C-49.38673394 78.84444952 -49.38758837 79.90484143 -49.38846868 80.99736643 C-49.39011116 84.53797521 -49.38462231 88.07853624 -49.37915039 91.61914062 C-49.37886823 94.16216023 -49.37902682 96.70517991 -49.3795929 99.24819946 C-49.37982035 104.71671655 -49.37699041 110.18521836 -49.37135506 115.6537323 C-49.36321271 123.56019018 -49.36062203 131.4666423 -49.35936707 139.37310392 C-49.35718084 152.20218974 -49.35053241 165.0312692 -49.34106445 177.86035156 C-49.33187922 190.31933561 -49.32480382 202.77831793 -49.32055664 215.23730469 C-49.32029392 216.00584776 -49.32003119 216.77439083 -49.31976051 217.56622308 C-49.31845543 221.42194838 -49.31719173 225.27767369 -49.31594861 229.13339901 C-49.30558937 261.09805208 -49.28770667 293.06269657 -49.265625 325.02734375 C-64.115625 325.02734375 -78.965625 325.02734375 -94.265625 325.02734375 C-94.265625 218.76734375 -94.265625 112.50734375 -94.265625 3.02734375 C-80.075625 3.02734375 -65.885625 3.02734375 -51.265625 3.02734375 C-50.935625 11.93734375 -50.605625 20.84734375 -50.265625 30.02734375 C-48.96625 27.59359375 -47.666875 25.15984375 -46.328125 22.65234375 C-40.89073314 12.79982172 -34.35721915 3.19261884 -23.51953125 -1.046875 C-16.18424806 -3.13386434 -7.03257761 -3.26083192 0 0 Z " fill="#231F20" transform="translate(1688.265625,117.97265625)"/>
<path d="M0 0 C0.77943466 0.00222061 1.55886932 0.00444122 2.36192322 0.00672913 C3.68317955 0.00684242 3.68317955 0.00684242 5.03112793 0.00695801 C5.98841293 0.01211929 6.94569794 0.01728058 7.93199158 0.02259827 C9.39480812 0.02472069 9.39480812 0.02472069 10.88717651 0.02688599 C14.01542675 0.03250319 17.14360656 0.04505859 20.27183533 0.05775452 C22.38706867 0.0627673 24.50230313 0.06733059 26.61753845 0.07142639 C31.81482829 0.0824782 37.01207678 0.09923305 42.20933533 0.12025452 C42.20857589 0.66910511 42.20781645 1.21795571 42.20703399 1.78343815 C42.16226045 34.32569995 42.12795341 66.86795358 42.10720467 99.4102391 C42.10470331 103.31919286 42.10211466 107.22814655 42.09947205 111.13710022 C42.09868511 112.30438471 42.09868511 112.30438471 42.09788229 113.49525071 C42.08918392 126.08920713 42.07341708 138.68314526 42.05502973 151.27709084 C42.03631487 164.20334501 42.02521524 177.12958961 42.02115834 190.05585676 C42.01841657 198.02956585 42.00976244 206.00322322 41.99350239 213.97691638 C41.98166296 220.09512359 41.980428 226.21329153 41.98311996 232.33150864 C41.98256998 234.83848323 41.97859484 237.34545979 41.97092438 239.85242271 C41.96095737 243.27815168 41.96337303 246.70366035 41.96882629 250.12939453 C41.96008777 251.61337743 41.96008777 251.61337743 41.95117271 253.12733978 C41.98923898 261.9896787 42.63036198 270.54128117 49.20933533 277.12025452 C53.81710539 277.65646366 53.81710539 277.65646366 57.83433533 275.83900452 C59.27393332 274.03950703 60.04815313 272.53009571 60.83433533 270.37025452 C61.07410095 269.73603577 61.31386658 269.10181702 61.56089783 268.44837952 C63.40096484 261.84187387 63.34966561 255.25091305 63.32958984 248.4458313 C63.33044427 247.38221026 63.33129869 246.31858923 63.33217901 245.22273725 C63.33382375 241.66520299 63.32832889 238.10771606 63.32286072 234.55018616 C63.3225786 231.99746197 63.32273705 229.44473769 63.32330322 226.89201355 C63.32353081 221.39946963 63.32069768 215.9069409 63.31506538 210.4144001 C63.30692741 202.47317713 63.30433281 194.53195991 63.30307739 186.59073322 C63.30089049 173.70563224 63.29424018 160.8205376 63.28477478 147.93544006 C63.27559133 135.42111747 63.26851506 122.9067966 63.26426697 110.39247131 C63.26387288 109.23478213 63.26387288 109.23478213 63.26347084 108.05370528 C63.26216577 104.18172528 63.26090207 100.30974526 63.25965893 96.43776524 C63.24929756 64.33192353 63.23141324 32.22609036 63.20933533 0.12025452 C77.72933533 0.12025452 92.24933533 0.12025452 107.20933533 0.12025452 C107.20933533 106.38025452 107.20933533 212.64025452 107.20933533 322.12025452 C93.67933533 322.12025452 80.14933533 322.12025452 66.20933533 322.12025452 C65.20933533 321.12025452 65.20933533 321.12025452 65.11167908 318.92713928 C65.12328064 317.98153137 65.1348822 317.03592346 65.14683533 316.06166077 C65.1545697 315.03621155 65.16230408 314.01076233 65.17027283 312.95423889 C65.19626786 310.777155 65.22230936 308.60007166 65.24839783 306.42298889 C65.2561322 305.39625061 65.26386658 304.36951233 65.27183533 303.31166077 C65.28343689 302.36492493 65.29503845 301.41818909 65.30699158 300.44276428 C65.36694152 298.09443077 65.36694152 298.09443077 64.20933533 296.12025452 C63.86902283 296.79830139 63.52871033 297.47634827 63.17808533 298.17494202 C56.75930193 310.50037185 48.46968151 321.69556744 35.20933533 327.12025452 C26.83674321 329.48175486 18.47209719 328.01793301 10.93199158 323.86634827 C2.20734337 317.90369297 0.11587716 309.09683973 -1.79066467 299.12025452 C-2.7465038 290.67689176 -2.93533977 282.23289718 -2.91764832 273.74397278 C-2.91920831 272.5697584 -2.9207683 271.39554402 -2.92237556 270.18574739 C-2.92564455 266.96758786 -2.92450828 263.74946689 -2.92138934 260.53130841 C-2.91910878 257.04545732 -2.92262777 253.55961108 -2.92536926 250.07376099 C-2.92979603 243.26457393 -2.9288648 236.45539794 -2.92595662 229.64621046 C-2.92369261 224.11544503 -2.92339438 218.58468269 -2.92448044 213.05391693 C-2.92463367 212.26498907 -2.9247869 211.47606121 -2.92494478 210.66322644 C-2.92526452 209.06038711 -2.92558873 207.45754779 -2.92591737 205.85470846 C-2.92876251 190.85967163 -2.92549915 175.86464092 -2.92011701 160.86960509 C-2.91563939 147.9953068 -2.91643463 135.1210175 -2.92103577 122.24671936 C-2.92638062 107.28448502 -2.92849889 92.32225603 -2.9254235 77.36002088 C-2.92510495 75.76694822 -2.92479058 74.17387557 -2.92448044 72.58080292 C-2.92432616 71.79700704 -2.92417189 71.01321117 -2.92401294 70.2056639 C-2.92314829 64.67359936 -2.92460931 59.1415382 -2.92695999 53.60947418 C-2.92975672 46.88020973 -2.92902199 40.15095694 -2.92367925 33.42169383 C-2.92104212 29.98662106 -2.9200375 26.55156779 -2.9233284 23.11649513 C-2.92603639 19.40188776 -2.92266327 15.68733629 -2.91764832 11.97273254 C-2.91987904 10.87559268 -2.92210976 9.77845281 -2.92440808 8.64806628 C-2.92180033 7.66132458 -2.91919258 6.67458288 -2.91650581 5.65793991 C-2.91634346 4.79960422 -2.91618111 3.94126853 -2.91601384 3.05692267 C-2.75224335 0.52663791 -2.53660425 0.1703491 0 0 Z " fill="#231F20" transform="translate(169.79066467285156,120.87974548339844)"/>
<path d="M0 0 C16.32146539 12.85495946 19.30104197 34.28819595 21.8125 53.72265625 C23.00062468 65.03168973 23.35350453 76.30416536 23.33642578 87.66601562 C23.33778491 89.20872031 23.33956769 90.75142466 23.34173584 92.29412842 C23.34625243 96.44341278 23.3445438 100.59267197 23.34135675 104.74195671 C23.33879939 109.11984188 23.34118033 113.49772509 23.34274292 117.87561035 C23.34455639 125.2321816 23.34218158 132.58874278 23.33740234 139.9453125 C23.33197755 148.39188878 23.33371272 156.83844085 23.33922875 165.28501654 C23.34380291 172.58749517 23.34438911 179.88996662 23.34179008 187.19244623 C23.34024867 191.53123017 23.33997336 195.87000284 23.34332657 200.20878601 C23.37549099 248.43641297 23.37549099 248.43641297 20.89453125 265.17578125 C20.76409424 266.07989746 20.63365723 266.98401367 20.49926758 267.91552734 C17.74649663 286.04934559 12.7289726 302.59834969 -2.03125 314.55078125 C-15.66110472 323.71370879 -33.37448809 324.48870572 -49.04296875 321.61328125 C-60.20683818 318.8795319 -70.56059732 314.06028992 -76.83984375 304.07324219 C-91.51872235 278.98352849 -91.3093132 248.15742824 -91.05947495 219.91293716 C-91.03072806 216.34329461 -91.01842335 212.77357834 -91.00317383 209.20385742 C-90.97601965 203.3980346 -90.93966453 197.59233955 -90.89624882 191.78661633 C-90.815934 181.04589977 -90.76313895 170.30525814 -90.72232223 159.56432009 C-90.67687435 147.65236022 -90.61912723 135.74050636 -90.55082893 123.82865524 C-90.54270196 122.40601357 -90.53458873 120.98337181 -90.52648926 119.56072998 C-90.52248104 118.85735968 -90.51847282 118.15398939 -90.51434314 117.42930484 C-90.48682736 112.48797972 -90.46593091 107.54665262 -90.44763184 102.60528564 C-90.42234431 95.8397031 -90.38102632 89.07436046 -90.33003426 82.30892372 C-90.31340293 79.79431251 -90.30165577 77.27966326 -90.29528618 74.76500511 C-90.22880081 50.85685314 -89.89850928 23.74407801 -72.79296875 4.98828125 C-54.45989299 -12.2900998 -20.76405384 -13.87713714 0 0 Z M-42.79296875 37.73828125 C-45.80900937 44.67517468 -45.94154474 52.07123199 -45.93341064 59.51641846 C-45.93638177 60.37626776 -45.93935289 61.23611705 -45.94241405 62.12202239 C-45.95105503 64.99053795 -45.95260538 67.85901154 -45.95410156 70.72753906 C-45.95873295 72.78951607 -45.96375804 74.85149223 -45.96914673 76.91346741 C-45.98224078 82.50658799 -45.9887097 88.09969658 -45.99315739 93.69283009 C-45.99609262 97.19005557 -46.00019825 100.6872778 -46.00466156 104.18450165 C-46.01832786 115.13499315 -46.02799908 126.08547721 -46.03186345 137.03597665 C-46.03634386 149.66129678 -46.0538947 162.28650864 -46.08286405 174.91179585 C-46.10450124 184.68188168 -46.1145688 194.45193709 -46.11590457 204.22204661 C-46.11695102 210.05236272 -46.12282504 215.88257693 -46.14072418 221.71286774 C-46.15724032 227.19911447 -46.15934312 232.68518306 -46.15058517 238.17144585 C-46.14981673 240.17930772 -46.15413194 242.18717931 -46.16404343 244.19501686 C-46.59602512 260.74450459 -46.59602512 260.74450459 -40.73046875 275.86328125 C-38.13315758 278.37680818 -37.13549506 278.69950469 -33.48046875 279.11328125 C-29.75148939 279.03016055 -29.75148939 279.03016055 -27.04296875 276.86328125 C-20.05875787 267.16298836 -21.36646824 255.08084406 -21.40478516 243.68725586 C-21.40071536 241.65427367 -21.3953712 239.62129369 -21.38885498 237.58831787 C-21.37521805 232.08582245 -21.38046673 226.58349644 -21.38999224 221.08099818 C-21.39761485 215.30338905 -21.39053534 209.52579393 -21.38583374 203.7481842 C-21.3803807 194.03986016 -21.38755278 184.33160464 -21.40185547 174.62329102 C-21.41814886 163.43530318 -21.41291571 152.24747966 -21.39637625 141.05949587 C-21.38270998 131.42597303 -21.38086771 121.79249935 -21.38869226 112.15896994 C-21.39334477 106.41794846 -21.39406152 100.67700387 -21.38408279 94.93598747 C-21.3753415 89.52927444 -21.38156435 84.12277044 -21.39876556 78.71607971 C-21.40269387 76.74460762 -21.40166009 74.77311759 -21.39497757 72.80165291 C-20.65162937 52.50405245 -20.65162937 52.50405245 -26.79296875 33.73828125 C-33.78974047 31.40602401 -38.30317933 31.66386026 -42.79296875 37.73828125 Z " fill="#231F20" transform="translate(456.79296875,125.26171875)"/>
<path d="M0 0 C9.90393078 7.59778083 15.64199886 19.95144788 17.29045868 32.14925385 C18.16845158 40.83775015 18.11786892 49.49688358 18.07617188 58.21679688 C18.07157063 59.967424 18.06739075 61.71805228 18.063591 63.46868134 C18.05162242 68.28884283 18.03281969 73.10895593 18.01249313 77.92908859 C17.99551909 82.10144432 17.9818929 86.27380879 17.96810198 90.44617605 C17.92113296 104.5345017 17.86050929 118.62275915 17.79807091 132.71102333 C17.76941799 139.21843833 17.74176269 145.72585757 17.71398926 152.23327637 C17.6674895 163.10473888 17.6203463 173.97619847 17.57275391 184.84765625 C17.52384235 196.02083159 17.47530452 207.19400846 17.42724609 218.3671875 C17.4227656 219.40882053 17.4227656 219.40882053 17.41819459 220.47149664 C17.40320461 223.95691206 17.38822173 227.4423275 17.37324238 230.92774296 C17.24992831 259.61850013 17.12524057 288.30925117 17 317 C2.81 317 -11.38 317 -26 317 C-26.33 308.09 -26.66 299.18 -27 290 C-30.27859727 296.25698473 -30.27859727 296.25698473 -33.51953125 302.53344727 C-38.5190836 311.8443583 -45.01095975 317.50759119 -55 321 C-63.74734115 323.61717637 -72.0563492 322.23100977 -80 318 C-87.84424926 313.02191874 -91.64182105 304.74798368 -93.6328125 295.85546875 C-96.05582089 283.832697 -95.58449785 271.39459461 -95.6875 259.1875 C-95.71059353 257.19667841 -95.73369479 255.20585671 -95.75786018 253.21504784 C-95.83966462 246.447372 -95.90128052 239.67967576 -95.9521656 232.91170311 C-95.98606475 228.48738442 -96.03100575 224.06330669 -96.08251953 219.63916016 C-96.14790164 213.97885737 -96.19614196 208.31869463 -96.22915649 202.65811157 C-96.24280802 200.58969531 -96.26100783 198.5213029 -96.28427124 196.45297241 C-96.50104594 175.69674148 -96.49170738 153.5788687 -81.76953125 137.44921875 C-73.75059166 130.35771646 -64.56887349 125.44223968 -55.12304688 120.5390625 C-45.68881579 115.53395464 -35.28057374 109.52023129 -31.3125 99.0625 C-27.96903403 87.36930884 -27.67883906 75.19863988 -27.75 63.125 C-27.74284543 61.77603802 -27.73503419 60.42707935 -27.7265625 59.078125 C-27.63513456 45.82758295 -27.63513456 45.82758295 -33 34 C-36.23299332 32.38350334 -39.50465443 32.42974209 -43 33 C-47.64322164 36.12912763 -48.55434511 39.28531853 -49.6161499 44.46676636 C-50.26414489 48.74323449 -50.2451501 52.96832076 -50.1953125 57.28515625 C-50.19106766 58.69769936 -50.19106766 58.69769936 -50.18673706 60.13877869 C-50.17564207 63.11348791 -50.15055802 66.08788351 -50.125 69.0625 C-50.11495637 71.09309458 -50.10583296 73.12369392 -50.09765625 75.15429688 C-50.07744889 80.10307933 -50.03828041 85.05119326 -50 90 C-63.53 90 -77.06 90 -91 90 C-94.07522459 62.32297871 -93.39323636 27.55601323 -75.26171875 4.8203125 C-56.35439476 -15.92685461 -21.92586623 -14.1371872 0 0 Z M-28 131 C-48.59691794 152.85064338 -52.35961145 172.08833584 -51.984375 201.35546875 C-51.96760997 202.87469878 -51.95094965 204.39392998 -51.93438721 205.91316223 C-51.89829189 209.06872579 -51.85714464 212.22417822 -51.81298828 215.37963867 C-51.75781667 219.39003387 -51.72134606 223.40036802 -51.68935776 227.41100597 C-51.66129786 230.53842687 -51.62024555 233.66558416 -51.57575226 236.79281044 C-51.55678857 238.2704887 -51.54237674 239.74823377 -51.53295135 241.22600365 C-51.46903154 256.37580235 -51.46903154 256.37580235 -45.9375 270.1875 C-43.51476496 272.45392956 -42.51199296 272.95448951 -39.1875 273.25 C-35.46273668 272.9578617 -33.86155629 272.39752014 -31 270 C-27.82207322 263.9846386 -26.87302314 258.23081585 -26.87974548 251.49502563 C-26.87837082 250.42659424 -26.87699615 249.35816284 -26.87557983 248.25735474 C-26.87917511 247.10073334 -26.88277039 245.94411194 -26.88647461 244.75244141 C-26.88632858 243.52261536 -26.88618256 242.29278931 -26.8860321 241.0256958 C-26.88660798 237.66662978 -26.89161148 234.30762578 -26.89860606 230.94857073 C-26.90487184 227.43319412 -26.90544595 223.91781663 -26.90663147 220.4024353 C-26.90973529 213.75150854 -26.91793587 207.10059828 -26.92798096 200.44967878 C-26.93917159 192.87532087 -26.94465998 185.30096215 -26.94967639 177.72659802 C-26.96011929 162.1510558 -26.97770032 146.57553003 -27 131 C-27.33 131 -27.66 131 -28 131 Z " fill="#231F20" transform="translate(1106,126)"/>
<path d="M0 0 C0.96421875 -0.01611328 1.9284375 -0.03222656 2.921875 -0.04882812 C16.27388116 -0.05777719 27.74781952 3.93804296 37.5234375 13.05859375 C56.92432742 33.86586788 55.9911526 68.6557276 55.8125 95.1875 C55.80559622 97.30134966 55.79909346 99.41520067 55.79296875 101.52905273 C55.70323389 123.46365602 55.17490628 145.38498715 54.625 167.3125 C32.515 167.3125 10.405 167.3125 -12.375 167.3125 C-12.46234723 185.32615788 -12.46234723 185.32615788 -12.52148438 203.33984375 C-12.53937461 210.69358871 -12.56047356 218.04722094 -12.60131836 225.40087891 C-12.63406264 231.33367392 -12.65188474 237.26634793 -12.65963173 243.19922638 C-12.66514826 245.45569003 -12.6759203 247.71214753 -12.69219017 249.96855927 C-13.49091643 268.58617351 -13.49091643 268.58617351 -7.125 285.5625 C-3.51150252 287.8619984 -1.58335902 288.06399268 2.625 287.3125 C7.18532455 283.968262 8.51614462 280.7643723 9.625 275.3125 C10.61623488 268.85045408 10.75607568 262.56228669 10.72265625 256.03125 C10.7212413 254.97715942 10.71982635 253.92306885 10.71836853 252.83703613 C10.71280508 249.49549429 10.70025941 246.15402133 10.6875 242.8125 C10.68248027 240.53645931 10.6779182 238.26041755 10.67382812 235.984375 C10.66370178 230.42703593 10.6441193 224.86984439 10.625 219.3125 C25.145 219.3125 39.665 219.3125 54.625 219.3125 C56.16495003 225.47230011 55.82224416 231.6783891 55.8125 238 C55.81189575 238.7133551 55.8112915 239.42671021 55.81066895 240.16168213 C55.67593688 298.91636266 55.67593688 298.91636266 37.625 319.3125 C25.06163145 330.52979335 10.38747113 333.43757072 -6.02539062 332.52392578 C-20.71200325 331.20237481 -34.71983487 324.53292228 -44.375 313.3125 C-59.77683446 289.67865057 -57.67230648 258.37723382 -57.77971697 231.36833072 C-57.79579715 227.82429098 -57.82247804 224.28032734 -57.8477478 220.73634338 C-57.8888982 214.768508 -57.92346726 208.80066682 -57.953125 202.83276367 C-57.99407201 194.59483868 -58.04695398 186.35702385 -58.10236406 178.11918521 C-58.19376 164.46298642 -58.26669837 150.8067856 -58.32266617 137.15039635 C-58.35364029 129.65600167 -58.39403092 122.16176252 -58.44609261 114.66748333 C-58.47387343 110.39421382 -58.49295518 106.12093876 -58.50950241 101.84761238 C-58.51853137 99.94434642 -58.53097252 98.04109235 -58.54747391 96.13787651 C-58.78944174 67.48585356 -57.96985465 34.43152306 -37.46875 12.25 C-27.04704554 2.34083838 -13.86147909 -0.04595981 0 0 Z M-9.375 47.3125 C-12.90968703 54.12939642 -13.50054859 60.68887667 -13.5078125 68.2734375 C-13.50913177 68.92950989 -13.51045105 69.58558228 -13.5118103 70.26153564 C-13.51372312 72.40357195 -13.50738074 74.54547694 -13.5 76.6875 C-13.49911377 77.42184265 -13.49822754 78.1561853 -13.49731445 78.91278076 C-13.47418073 95.38977438 -12.98205218 111.847824 -12.375 128.3125 C-8.72918313 128.34137512 -5.08339537 128.35925585 -1.4375 128.375 C-0.39658203 128.38337891 0.64433594 128.39175781 1.71679688 128.40039062 C3.20083008 128.40522461 3.20083008 128.40522461 4.71484375 128.41015625 C6.08950806 128.41801147 6.08950806 128.41801147 7.49194336 128.42602539 C9.60863023 128.55171211 9.60863023 128.55171211 10.625 127.3125 C10.75270788 125.83831867 10.81329861 124.35824325 10.84619141 122.87890625 C10.86936432 121.93281494 10.89253723 120.98672363 10.91641235 120.01196289 C10.9362619 118.97676514 10.95611145 117.94156738 10.9765625 116.875 C10.99971527 115.80693115 11.02286804 114.7388623 11.04672241 113.63842773 C11.09450601 111.36186721 11.13972178 109.08525162 11.18261719 106.80859375 C11.24864946 103.38257154 11.32685869 99.95698519 11.40625 96.53125 C12.60064878 70.55685101 12.60064878 70.55685101 7.625 45.3125 C4.64460368 42.9651944 2.90363161 42.35230452 -0.875 41.8125 C-5.39836287 42.4586947 -6.62050012 43.71634738 -9.375 47.3125 Z " fill="#231F20" transform="translate(1390.375,115.6875)"/>
<path d="M0 0 C15.04788794 12.8626248 19.97920928 30.65300794 22.125 49.81640625 C22.21330078 50.57767822 22.30160156 51.3389502 22.39257812 52.12329102 C23.44311123 62.56063543 23.27590885 73.02670164 23.25 83.50390625 C23.24867065 85.04522217 23.24867065 85.04522217 23.24731445 86.61767578 C23.22322084 110.6927506 22.6847343 134.74783124 22.125 158.81640625 C0.345 158.81640625 -21.435 158.81640625 -43.875 158.81640625 C-44.08251216 175.20599542 -44.08251216 175.20599542 -44.27929688 191.59570312 C-44.35728108 198.28870142 -44.4364721 204.98166901 -44.52319336 211.67456055 C-44.59309647 217.07561957 -44.65730084 222.47672003 -44.71769524 227.87789345 C-44.74161333 229.92978653 -44.76752156 231.98165749 -44.79553413 234.03349876 C-46.50231196 257.02689075 -46.50231196 257.02689075 -38.5625 277.37890625 C-35.35306332 279.09558168 -33.46963957 279.19881472 -29.875 278.81640625 C-28.76125 278.72359375 -28.76125 278.72359375 -27.625 278.62890625 C-25.68576838 277.93562493 -25.68576838 277.93562493 -24.75 275.81640625 C-22.3295905 267.51785939 -21.59938753 260.00075274 -21.6796875 251.34375 C-21.6825174 250.18009415 -21.68534729 249.01643829 -21.68826294 247.81752014 C-21.69938769 244.12954076 -21.72447817 240.44181126 -21.75 236.75390625 C-21.76003975 234.24153999 -21.76916385 231.72916988 -21.77734375 229.21679688 C-21.79759345 223.08316144 -21.83675761 216.95006099 -21.875 210.81640625 C-7.355 210.81640625 7.165 210.81640625 22.125 210.81640625 C22.78538837 218.74106672 23.28893469 226.40144563 23.25 234.31640625 C23.24589111 235.35104004 23.24178223 236.38567383 23.23754883 237.45166016 C22.8528142 291.42206869 22.8528142 291.42206869 5.35546875 310.7734375 C-5.75433507 321.50901635 -20.37811076 324.24435247 -35.203125 324.17993164 C-49.93359987 323.87485461 -63.45962064 318.82930064 -73.8125 308.06640625 C-90.51071028 287.99238451 -89.16537841 257.42655544 -89.2890625 232.84765625 C-89.30796872 230.42754023 -89.32764074 228.00743009 -89.34802246 225.58732605 C-89.39966005 219.15584084 -89.43946729 212.72433637 -89.47629547 206.29275131 C-89.50404761 201.63743431 -89.53665031 196.98216094 -89.56992662 192.32688063 C-89.79267987 161.15102159 -89.96817662 129.974339 -89.99748993 98.79763794 C-89.99997344 96.52817495 -90.00392127 94.25871821 -90.00811768 91.98925781 C-90.1145322 25.50751675 -90.1145322 25.50751675 -71.77734375 5.53125 C-53.88187573 -11.35424452 -20.24275976 -14.84717122 0 0 Z M-40.56437683 36.04374695 C-46.49326573 44.06275676 -45.26931995 55.7465772 -45.16796875 65.203125 C-45.16236052 66.75681647 -45.15809624 68.31051332 -45.15510559 69.86421204 C-45.14375317 73.91664765 -45.11437113 77.96875108 -45.08099365 82.02105713 C-45.05008334 86.17089344 -45.03655586 90.32078441 -45.02148438 94.47070312 C-44.98949012 102.58610553 -44.93680316 110.70117606 -44.875 118.81640625 C-37.285 118.81640625 -29.695 118.81640625 -21.875 118.81640625 C-21.69837773 110.01007553 -21.53121971 101.20369973 -21.38022423 92.39689159 C-21.30972573 88.30653215 -21.23525579 84.21632918 -21.15136719 80.1262207 C-21.07040005 76.17114877 -21.00031245 72.21601367 -20.93742752 68.2606144 C-20.91171742 66.75965715 -20.88223914 65.25875906 -20.84873581 63.75795555 C-19.9364675 49.87783669 -19.9364675 49.87783669 -24.04110718 37.07829285 C-26.66661342 34.34847876 -28.89492472 32.95005288 -32.625 32.44140625 C-36.07223215 32.83916381 -38.02511515 33.65163949 -40.56437683 36.04374695 Z " fill="#231F20" transform="translate(790.875,124.18359375)"/>
<path d="M0 0 C14.52 0 29.04 0 44 0 C44.33 20.46 44.66 40.92 45 62 C49.95 62.33 54.9 62.66 60 63 C60 75.87 60 88.74 60 102 C54.72 102 49.44 102 44 102 C43.95327052 130.65937712 43.91800648 159.31874854 43.89637566 187.97815609 C43.88606495 201.28533981 43.87200851 214.59248966 43.84912109 227.8996582 C43.82918098 239.49874578 43.81628207 251.09781621 43.81182301 262.69692045 C43.8092167 268.83801208 43.8030949 274.97905464 43.78853989 281.12013054 C43.77494623 286.90254255 43.770781 292.68488538 43.77378464 298.46731186 C43.77323528 300.58727329 43.76926851 302.70723708 43.76158905 304.82718468 C43.75159995 307.72743901 43.75404562 310.62743404 43.75949097 313.5276947 C43.75075244 314.7782207 43.75075244 314.7782207 43.74183738 316.05400985 C43.78774021 325.13463915 45.2728302 332.81057409 51 340 C53.97 341.32 56.94 342.64 60 344 C60 359.18 60 374.36 60 390 C44.5565582 391.40394925 27.6275579 392.62005251 14.3359375 383.08984375 C4.07020535 374.50478456 0.34512143 364.08858233 -1 351 C-1.24336833 347.81932064 -1.40917012 344.63787782 -1.55540466 341.45137024 C-1.61863612 340.0847709 -1.61863612 340.0847709 -1.68314499 338.6905635 C-2.13514234 328.05378762 -2.13269274 317.4225137 -2.11352539 306.77807617 C-2.11324247 304.53855389 -2.1134033 302.29903151 -2.1139679 300.05950928 C-2.11425178 294.05060557 -2.10842191 288.04172232 -2.10139394 282.03282332 C-2.09509159 275.7268241 -2.09455121 269.42082427 -2.09336853 263.11482239 C-2.09062554 252.55351418 -2.08440316 241.99221258 -2.07543945 231.4309082 C-2.06622641 220.56437211 -2.05916474 209.69783805 -2.05493164 198.83129883 C-2.05466892 198.15876803 -2.05440619 197.48623722 -2.05413551 196.7933267 C-2.05283024 193.41862586 -2.05156659 190.04392501 -2.05032361 186.66922414 C-2.03999753 158.77947763 -2.02234479 130.88973928 -2 103 C-8.93 102.505 -8.93 102.505 -16 102 C-16 89.13 -16 76.26 -16 63 C-11.05 63 -6.1 63 -1 63 C-1.00785522 60.83014526 -1.00785522 60.83014526 -1.01586914 58.61645508 C-1.03411487 53.19491202 -1.04550283 47.77337161 -1.05493164 42.35180664 C-1.05992745 40.01553896 -1.06672637 37.67927435 -1.07543945 35.34301758 C-1.08771502 31.9643477 -1.09327598 28.58571954 -1.09765625 25.20703125 C-1.10281754 24.180439 -1.10797882 23.15384674 -1.11329651 22.09614563 C-1.11386012 14.63371215 -0.57666191 7.49660488 0 0 Z " fill="#231F20" transform="translate(1465,58)"/>
<path d="M0 0 C0.76166977 0.00222061 1.52333954 0.00444122 2.30809021 0.00672913 C3.18098694 0.00684998 4.05388367 0.00697083 4.95323181 0.00709534 C6.33822876 0.01476929 6.33822876 0.01476929 7.75120544 0.02259827 C8.5955011 0.02360535 9.43979675 0.02461243 10.30967712 0.02565002 C13.47639821 0.03089881 16.64310001 0.04485995 19.80979919 0.05775452 C26.88417419 0.07837952 33.95854919 0.09900452 41.24729919 0.12025452 C41.57729919 20.58025452 41.90729919 41.04025452 42.24729919 62.12025452 C47.19729919 62.45025452 52.14729919 62.78025452 57.24729919 63.12025452 C57.24729919 75.99025452 57.24729919 88.86025452 57.24729919 102.12025452 C51.96729919 102.12025452 46.68729919 102.12025452 41.24729919 102.12025452 C41.20053706 130.0759002 41.16528969 158.03154 41.14367485 185.98721695 C41.13337106 198.96809956 41.11932787 211.94895784 41.09642029 224.92982483 C41.07645896 236.24657481 41.06357623 247.56330717 41.0591222 258.88007426 C41.05651948 264.86979654 41.05042059 270.85946841 41.03583908 276.8491745 C41.02221186 282.4928852 41.01808693 288.13652496 41.02108383 293.78025055 C41.02053597 295.84573757 41.01658929 297.91122709 41.00888824 299.97669983 C40.11128792 321.28058558 40.11128792 321.28058558 48.24729919 340.12025452 C51.21729919 341.44025452 54.18729919 342.76025452 57.24729919 344.12025452 C57.24729919 359.30025452 57.24729919 374.48025452 57.24729919 390.12025452 C17.55050399 390.94727108 17.55050399 390.94727108 6.24729919 380.12025452 C-2.12863733 370.28117972 -2.9103767 357.04639134 -2.87295532 344.71157837 C-2.87380975 343.6765422 -2.87466417 342.64150603 -2.87554449 341.57510513 C-2.8771888 338.11430712 -2.87169507 334.65355781 -2.8662262 331.19276428 C-2.86594407 328.70900473 -2.86610255 326.2252451 -2.8666687 323.7414856 C-2.86689626 318.39790791 -2.86406373 313.05434531 -2.85843086 307.71077156 C-2.85029207 299.9849322 -2.8476982 292.25909875 -2.84644287 284.53325557 C-2.84425609 271.9975546 -2.83760614 259.46186015 -2.82814026 246.92616272 C-2.81895647 234.75135836 -2.81188036 222.57655578 -2.80763245 210.40174866 C-2.80736972 209.65086484 -2.807107 208.89998101 -2.80683631 208.12634314 C-2.80553124 204.35925163 -2.80426754 200.59216012 -2.80302441 196.82506859 C-2.79266344 165.59012583 -2.77498078 134.35519116 -2.75270081 103.12025452 C-7.70270081 102.79025452 -12.65270081 102.46025452 -17.75270081 102.12025452 C-17.75270081 89.25025452 -17.75270081 76.38025452 -17.75270081 63.12025452 C-12.80270081 63.12025452 -7.85270081 63.12025452 -2.75270081 63.12025452 C-2.75793762 61.24732727 -2.76317444 59.37440002 -2.76856995 57.44471741 C-2.78466769 51.27004106 -2.79617313 45.09536966 -2.80451298 38.92067814 C-2.80974095 35.17542414 -2.81683702 31.43019276 -2.82814026 27.68495178 C-2.83897221 24.07343764 -2.84497829 20.46194531 -2.84757805 16.85041618 C-2.84943174 15.46965122 -2.8530513 14.08888751 -2.85843086 12.70813179 C-2.86564527 10.78049499 -2.86610889 8.85283645 -2.8662262 6.92518616 C-2.86844681 5.82598343 -2.87066742 4.7267807 -2.87295532 3.5942688 C-2.70727725 0.18574894 -2.70727725 0.18574894 0 0 Z " fill="#231F20" transform="translate(301.75270080566406,57.87974548339844)"/>
<path d="M0 0 C0 28.71 0 57.42 0 87 C-6.93 87.99 -6.93 87.99 -14 89 C-19.58292265 91.5465963 -22.48828939 95.52965518 -25 101 C-29.79791313 115.0951141 -29.15993338 130.11606369 -29.20532227 144.81347656 C-29.21491752 146.79551897 -29.22492853 148.77755939 -29.23532104 150.75959778 C-29.26219781 156.10787742 -29.2832999 161.45616573 -29.30332303 166.80447483 C-29.32528971 172.40585953 -29.35262582 178.00721803 -29.37937927 183.60858154 C-29.42916246 194.20108335 -29.47415422 204.79359981 -29.51740164 215.38613009 C-29.56689737 227.4514924 -29.6217695 239.51682841 -29.67708123 251.58216524 C-29.79068043 276.38808677 -29.89685737 301.19403264 -30 326 C-44.52 326 -59.04 326 -74 326 C-74 219.74 -74 113.48 -74 4 C-60.14 4 -46.28 4 -32 4 C-31.67 20.83 -31.34 37.66 -31 55 C-29.35 47.41 -27.7 39.82 -26 32 C-14.7761194 0 -14.7761194 0 0 0 Z " fill="#231F20" transform="translate(1211,117)"/>
<path d="M0 0 C14.52 0 29.04 0 44 0 C44 106.26 44 212.52 44 322 C29.48 322 14.96 322 0 322 C0 215.74 0 109.48 0 0 Z " fill="#231F20" transform="translate(1536,121)"/>
<path d="M0 0 C14.52 0 29.04 0 44 0 C44 19.8 44 39.6 44 60 C29.48 60 14.96 60 0 60 C0 40.2 0 20.4 0 0 Z " fill="#231F20" transform="translate(1536,39)"/>
<path d="M0 0 C4.49587184 3.37432102 7.99381622 7.98763244 10.5 13 C11.80275246 28.22359304 11.80275246 28.22359304 7.046875 34.35546875 C6.53640625 34.89816406 6.0259375 35.44085938 5.5 36 C4.96890625 36.57363281 4.4378125 37.14726562 3.890625 37.73828125 C-0.8706463 42.31390665 -5.45122256 44.01255435 -12.01953125 43.9921875 C-19.36251185 43.48577504 -24.14432067 41.67019756 -29.25 36.25 C-33.78503763 30.75389479 -34.94837909 25.27031087 -34.74609375 18.26171875 C-33.98003976 11.22131775 -30.73125857 5.70813271 -25.5 1 C-18.43752613 -3.56118104 -7.39060078 -4.21506326 0 0 Z M-26 7.0625 C-29.69726035 12.07644851 -30.99416952 17.53072827 -30.1171875 23.6875 C-28.41318142 30.26848899 -25.59204461 33.66007435 -20.1875 37.75 C-15.25569663 40.04386203 -11.06252929 40.26483547 -5.8125 39.375 C-0.00343621 36.9636905 3.19061323 32.82769132 5.76953125 27.23828125 C7.60172388 21.62412951 7.28718624 16.08872681 4.9375 10.6875 C2.5981041 6.6325471 -0.27598862 4.012668 -4.5 2 C-12.16709898 -0.01104236 -20.28853859 1.16994348 -26 7.0625 Z " fill="#231F20" transform="translate(1882.5,124)"/>
<path d="M0 0 C1.875 1.5625 1.875 1.5625 2.875 2.5625 C3.34823944 8.95123239 3.34823944 8.95123239 1.375 11.5 C0.88 11.850625 0.385 12.20125 -0.125 12.5625 C0.16375 13.26375 0.4525 13.965 0.75 14.6875 C1.89633588 17.61702503 2.90125654 20.57171653 3.875 23.5625 C0.34965971 23.26872164 -0.86804935 22.84147499 -3.3125 20.1875 C-4.59950432 18.32356271 -5.86855295 16.44717057 -7.125 14.5625 C-8.445 14.5625 -9.765 14.5625 -11.125 14.5625 C-11.125 17.2025 -11.125 19.8425 -11.125 22.5625 C-12.445 22.8925 -13.765 23.2225 -15.125 23.5625 C-16.90169223 20.50093346 -17.36550818 18.32213785 -17.3203125 14.796875 C-17.31386719 13.90742188 -17.30742188 13.01796875 -17.30078125 12.1015625 C-17.28402344 11.18117187 -17.26726562 10.26078125 -17.25 9.3125 C-17.24097656 8.37664062 -17.23195313 7.44078125 -17.22265625 6.4765625 C-17.19913636 4.17161343 -17.16626853 1.8671884 -17.125 -0.4375 C-11.58956532 -2.28264489 -5.32411841 -2.44909447 0 0 Z M-12.125 2.5625 C-12.125 4.8725 -12.125 7.1825 -12.125 9.5625 C-10.84625 9.583125 -9.5675 9.60375 -8.25 9.625 C-7.53070312 9.63660156 -6.81140625 9.64820313 -6.0703125 9.66015625 C-4.04314596 9.68899242 -4.04314596 9.68899242 -2.125 8.5625 C-2.125 6.9125 -2.125 5.2625 -2.125 3.5625 C-4.41205831 2.41897084 -5.71764762 2.45915561 -8.25 2.5 C-10.168125 2.5309375 -10.168125 2.5309375 -12.125 2.5625 Z " fill="#231F20" transform="translate(1877.125,133.4375)"/>
</svg>
